<svg width="168" height="177" viewBox="0 0 168 177" fill="none" xmlns="http://www.w3.org/2000/svg">
<path d="M119.448 86.4348L131.961 76.2388L130.571 74.6167L118.289 84.8127L119.448 86.4348Z" fill="white"/>
<path d="M118.986 111.692L116.621 92.1771L114.504 92.4696L116.995 111.79L118.986 111.692Z" fill="white"/>
<path d="M111.698 86.5116L87.6913 75.004L86.775 76.9339L110.688 88.2298L111.698 86.5116Z" fill="white"/>
<path d="M56.5037 41.0068L51.5512 19.4648L49.4446 19.8203L54.5165 41.1637L56.5037 41.0068Z" fill="white"/>
<path d="M53.1735 44.4916L20.9634 63.0298L22.1874 64.7808L54.1669 46.2198L53.1735 44.4916Z" fill="white"/>
<path d="M89.0685 41.5568L59.812 43.5395L59.7794 45.6757L88.8623 43.5395L89.0685 41.5568Z" fill="white"/>
<path d="M59.6189 41.6754L80.5195 11.1227L78.7221 9.96785L58.0434 40.4541L59.6189 41.6754Z" fill="white"/>
<ellipse cx="24.2088" cy="31.7469" rx="3.47592" ry="3.47591" fill="white"/>
<ellipse cx="44.3685" cy="76.4701" rx="5.09801" ry="5.098" fill="white"/>
<ellipse cx="111.106" cy="65.3475" rx="5.09801" ry="5.098" fill="white"/>
<ellipse cx="115.045" cy="88.2881" rx="4.86628" ry="4.86627" fill="white"/>
<ellipse cx="82.3718" cy="72.2992" rx="6.95184" ry="6.95182" fill="white"/>
<ellipse cx="95.3478" cy="41.7106" rx="6.95184" ry="6.95182" fill="white"/>
<ellipse cx="56.8821" cy="43.5642" rx="4.63456" ry="4.63455" fill="white"/>
<ellipse cx="82.6033" cy="6.25664" rx="6.25665" ry="6.25664" fill="white"/>
<ellipse cx="49.0031" cy="13.9035" rx="6.95184" ry="6.95182" fill="white"/>
<ellipse cx="17.0249" cy="64.8836" rx="6.02492" ry="6.02491" fill="white"/>
<ellipse cx="118.291" cy="114.704" rx="3.93937" ry="3.93937" fill="white"/>
<ellipse cx="125.707" cy="27.1119" rx="4.86628" ry="4.86627" fill="white"/>
<ellipse cx="133.583" cy="49.8213" rx="3.01246" ry="3.01246" fill="white"/>
<ellipse cx="133.583" cy="96.6306" rx="3.01246" ry="3.01246" fill="white"/>
<ellipse cx="99.5201" cy="94.0818" rx="3.24419" ry="3.24418" fill="white"/>
<ellipse cx="65.6871" cy="60.7125" rx="3.70765" ry="3.70764" fill="white"/>
<ellipse cx="80.7512" cy="31.7466" rx="3.01246" ry="3.01246" fill="white"/>
<ellipse cx="108.557" cy="12.7444" rx="3.01246" ry="3.01246" fill="white"/>
<ellipse cx="135.206" cy="71.3717" rx="6.48838" ry="6.48837" fill="white"/>
<path d="M13.6 137.394C21.32 137.394 27.2 143.474 27.2 151.394C27.2 159.314 21.32 165.394 13.6 165.394H2.4V137.394H13.6ZM13.6 159.234C18 159.234 21.04 156.194 21.04 151.394C21.04 146.594 18 143.554 13.6 143.554H8.8V159.234H13.6ZM45.1184 145.394H51.1184V165.394H45.1184V163.514C43.7984 165.034 41.8384 165.954 39.1584 165.954C33.9184 165.954 29.5984 161.354 29.5984 155.394C29.5984 149.434 33.9184 144.834 39.1584 144.834C41.8384 144.834 43.7984 145.754 45.1184 147.274V145.394ZM40.3584 160.274C43.1184 160.274 45.1184 158.394 45.1184 155.394C45.1184 152.394 43.1184 150.514 40.3584 150.514C37.5984 150.514 35.5984 152.394 35.5984 155.394C35.5984 158.394 37.5984 160.274 40.3584 160.274ZM67.2403 151.154H63.1203V158.234C63.1203 159.954 64.6003 160.114 67.2403 159.954V165.394C59.4003 166.194 57.1203 163.834 57.1203 158.234V151.154H53.9203V145.394H57.1203V141.594L63.1203 139.794V145.394H67.2403V151.154ZM84.7669 145.394H90.7669V165.394H84.7669V163.514C83.4469 165.034 81.4869 165.954 78.8069 165.954C73.5669 165.954 69.2469 161.354 69.2469 155.394C69.2469 149.434 73.5669 144.834 78.8069 144.834C81.4869 144.834 83.4469 145.754 84.7669 147.274V145.394ZM80.0069 160.274C82.7669 160.274 84.7669 158.394 84.7669 155.394C84.7669 152.394 82.7669 150.514 80.0069 150.514C77.2469 150.514 75.2469 152.394 75.2469 155.394C75.2469 158.394 77.2469 160.274 80.0069 160.274ZM101.769 159.234H111.769V165.394H95.3688V137.394H101.769V159.234ZM117.388 143.634C115.428 143.634 113.788 141.994 113.788 140.034C113.788 138.074 115.428 136.434 117.388 136.434C119.348 136.434 120.988 138.074 120.988 140.034C120.988 141.994 119.348 143.634 117.388 143.634ZM114.388 165.394V145.394H120.388V165.394H114.388ZM136.498 144.834C140.538 144.834 143.978 147.714 143.978 153.114V165.394H137.978V153.994C137.978 151.514 136.418 150.354 134.498 150.354C132.298 150.354 130.778 151.634 130.778 154.474V165.394H124.778V145.394H130.778V147.274C131.858 145.794 133.858 144.834 136.498 144.834ZM167.298 165.394H160.498L154.098 156.554V165.394H148.098V137.394H154.098V154.154L160.098 145.394H167.098L159.818 155.394L167.298 165.394Z" fill="white"/>
</svg>
