<svg width="50" height="53" viewBox="0 0 50 53" fill="none" xmlns="http://www.w3.org/2000/svg">
<path fill-rule="evenodd" clip-rule="evenodd" d="M27.9706 9.5686H11.3682C6.3976 9.5686 2.36816 13.598 2.36816 18.5686V40.8321C2.36816 45.8026 6.39761 49.8321 11.3682 49.8321H33.6316C38.6022 49.8321 42.6316 45.8026 42.6316 40.8321V21.8845H38.1316V40.8321C38.1316 43.3173 36.1169 45.3321 33.6316 45.3321H11.3682C8.88288 45.3321 6.86816 43.3173 6.86816 40.8321V18.5686C6.86816 16.0833 8.88288 14.0686 11.3682 14.0686H27.9706V9.5686Z" fill="#5A5959"/>
<path d="M21.2705 29.1583C20.6951 29.7543 20.7117 30.7039 21.3077 31.2793C21.9037 31.8547 22.8533 31.8381 23.4287 31.2421L21.2705 29.1583ZM49.0494 4.07388C49.0348 3.24558 48.3516 2.58589 47.5233 2.60042L34.0254 2.83723C33.1971 2.85176 32.5374 3.53501 32.5519 4.36331C32.5665 5.19161 33.2497 5.8513 34.078 5.83677L46.0762 5.62627L46.2866 17.6244C46.3012 18.4527 46.9844 19.1124 47.8127 19.0979C48.641 19.0834 49.3007 18.4001 49.2862 17.5718L49.0494 4.07388ZM23.4287 31.2421L48.6287 5.14209L46.4705 3.0583L21.2705 29.1583L23.4287 31.2421Z" fill="#5A5959"/>
</svg>
