<svg width="33" height="22" viewBox="0 0 33 22" fill="none" xmlns="http://www.w3.org/2000/svg">
<path d="M16.1333 0C8.8 0 2.53733 4.56133 0 11C2.53733 17.4387 8.8 22 16.1333 22C23.4667 22 29.7293 17.4387 32.2667 11C29.7293 4.56133 23.4667 0 16.1333 0ZM16.1333 18.3333C12.0853 18.3333 8.8 15.048 8.8 11C8.8 6.952 12.0853 3.66667 16.1333 3.66667C20.1813 3.66667 23.4667 6.952 23.4667 11C23.4667 15.048 20.1813 18.3333 16.1333 18.3333ZM16.1333 6.6C13.6987 6.6 11.7333 8.56533 11.7333 11C11.7333 13.4347 13.6987 15.4 16.1333 15.4C18.568 15.4 20.5333 13.4347 20.5333 11C20.5333 8.56533 18.568 6.6 16.1333 6.6Z" fill="#F87F0F"/>
</svg>
