                                                                                                <svg width="472" height="696" viewBox="0 0 472 696" fill="none" xmlns="http://www.w3.org/2000/svg">
<g clip-path="url(#clip0_304_109)">
<g filter="url(#filter0_d_304_109)">
<path d="M0 -8H538C538 299.406 538 606.657 538 914H0V-8Z" fill="url(#paint0_linear_304_109)"/>
</g>
<path style="mix-blend-mode:color-burn" opacity="0.3" d="M-83.6846 638.074C-61.7722 621.012 -25.8087 610.118 7.78713 615.329C30.9994 618.89 51.5035 627.341 72.6576 634.5C93.8117 641.66 117.055 647.765 140.639 646.027C192.294 642.218 224.806 603.417 275.95 597.337C330.375 590.873 387.029 623.779 437.786 609.249C474.461 598.764 492.629 566.565 531.997 562.098V729.238H-83.6846V638.074Z" fill="url(#paint1_linear_304_109)"/>
<path style="mix-blend-mode:color-burn" opacity="0.45" d="M-35.7129 650.556C-7.34753 654.279 8.37489 650.445 31.9431 640.233C47.7583 633.383 61.1131 623.618 79.915 620.665C102.942 617.054 126.757 624.846 144.507 634.388C162.257 643.93 177.329 655.619 198.189 662.53C241.519 676.85 296.98 666.104 336.008 647.864C352.891 639.96 368.165 630.715 386.549 624.151C404.933 617.587 427.82 613.927 447.844 618.444C464.31 622.166 476.427 630.765 492.118 635.542V756.71H-35.7129V650.556Z" fill="url(#paint2_linear_304_109)"/>
<path style="mix-blend-mode:overlay" opacity="0.6" d="M492.181 105.85C463.815 98.4048 448.093 106.061 424.54 126.324C408.71 139.973 395.355 159.305 376.491 165.174C353.465 172.346 329.664 156.873 311.899 137.876C294.134 118.879 279.077 95.6874 258.217 82.0382C214.887 53.5984 159.441 74.9283 120.398 111.148C103.515 126.807 88.2569 145.172 69.8574 158.2C51.4578 171.229 28.6015 178.488 8.57704 169.529C-7.90365 162.208 -20.0204 145.122 -35.7119 135.655V-6.79285H492.181V105.85Z" fill="url(#paint3_linear_304_109)"/>
<path style="mix-blend-mode:overlay" opacity="0.6" d="M-5.38281 88.7906C26.7739 83.0456 44.6009 88.9643 71.3104 104.661C89.2458 115.208 104.38 130.222 125.782 134.776C151.888 140.335 178.876 128.336 199.009 113.682C219.141 99.0275 236.148 80.9982 259.871 70.3891C308.973 48.3519 371.863 64.8674 416.167 92.9474C435.325 105.095 452.626 119.315 473.424 129.428C494.222 139.541 520.204 145.149 542.906 138.201C561.584 132.493 575.31 119.253 593.106 111.907V34.9758H-5.38281V88.7906Z" fill="url(#paint4_linear_304_109)"/>
<g style="mix-blend-mode:overlay" opacity="0.4">
<path d="M76.5122 314.204C76.5122 314.759 76.3067 315.302 75.9217 315.764C75.5367 316.225 74.9896 316.584 74.3497 316.796C73.7097 317.008 73.0057 317.063 72.3269 316.954C71.6481 316.845 71.0249 316.576 70.5364 316.183C70.048 315.789 69.7161 315.289 69.5829 314.744C69.4497 314.199 69.5212 313.635 69.7883 313.123C70.0553 312.61 70.506 312.173 71.0832 311.867C71.6603 311.56 72.338 311.398 73.0304 311.4C73.9552 311.403 74.8408 311.7 75.4933 312.226C76.1459 312.751 76.5122 313.463 76.5122 314.204Z" fill="white"/>
<path d="M333.441 585.214C333.441 585.769 333.236 586.311 332.851 586.772C332.467 587.233 331.921 587.593 331.282 587.805C330.643 588.017 329.94 588.073 329.261 587.965C328.583 587.856 327.96 587.589 327.471 587.197C326.982 586.805 326.648 586.305 326.513 585.761C326.379 585.217 326.448 584.653 326.713 584.141C326.977 583.629 327.425 583.191 328.001 582.882C328.576 582.574 329.252 582.41 329.944 582.41C330.871 582.41 331.761 582.705 332.417 583.231C333.072 583.757 333.441 584.47 333.441 585.214Z" fill="white"/>
<path d="M98.6116 660.272C98.6146 660.557 98.512 660.836 98.3166 661.074C98.1212 661.313 97.842 661.499 97.5142 661.61C97.1865 661.721 96.8251 661.751 96.4759 661.697C96.1267 661.643 95.8054 661.507 95.5528 661.306C95.3002 661.105 95.1277 660.849 95.0571 660.569C94.9866 660.29 95.0212 660 95.1566 659.736C95.292 659.473 95.5221 659.247 95.8176 659.089C96.1131 658.93 96.4608 658.845 96.8165 658.845C97.2899 658.845 97.7442 658.995 98.0804 659.262C98.4166 659.529 98.6075 659.892 98.6116 660.272Z" fill="white"/>
<path d="M396.424 584.817C398.535 584.817 400.246 583.445 400.246 581.752C400.246 580.06 398.535 578.687 396.424 578.687C394.313 578.687 392.602 580.06 392.602 581.752C392.602 583.445 394.313 584.817 396.424 584.817Z" fill="white"/>
<path d="M118.466 637.49C118.466 638.187 118.209 638.869 117.726 639.448C117.243 640.028 116.557 640.479 115.753 640.746C114.95 641.013 114.067 641.083 113.214 640.947C112.362 640.811 111.579 640.475 110.964 639.982C110.349 639.489 109.931 638.861 109.761 638.178C109.592 637.494 109.679 636.786 110.011 636.142C110.344 635.498 110.907 634.948 111.63 634.56C112.353 634.173 113.202 633.966 114.072 633.966C115.237 633.966 116.355 634.338 117.179 634.999C118.003 635.659 118.466 636.556 118.466 637.49Z" fill="white"/>
<path d="M80.8458 295.045C80.8489 295.38 80.7277 295.708 80.4976 295.987C80.2675 296.267 79.939 296.485 79.5538 296.614C79.1686 296.743 78.7442 296.778 78.3345 296.713C77.9248 296.648 77.5484 296.487 77.2531 296.251C76.9579 296.014 76.7571 295.712 76.6764 295.384C76.5957 295.055 76.6387 294.715 76.7999 294.406C76.9611 294.098 77.2332 293.834 77.5817 293.65C77.9301 293.465 78.3392 293.368 78.7567 293.371C79.3108 293.371 79.8422 293.547 80.2339 293.861C80.6257 294.175 80.8458 294.601 80.8458 295.045Z" fill="white"/>
<path d="M387.99 606.916C387.99 607.25 387.867 607.577 387.635 607.854C387.403 608.132 387.073 608.348 386.688 608.476C386.302 608.603 385.878 608.636 385.47 608.57C385.061 608.503 384.686 608.342 384.392 608.104C384.098 607.867 383.899 607.565 383.82 607.237C383.74 606.909 383.784 606.57 383.946 606.262C384.108 605.954 384.38 605.691 384.728 605.507C385.076 605.323 385.484 605.226 385.901 605.229C386.177 605.229 386.45 605.273 386.704 605.357C386.959 605.442 387.19 605.567 387.384 605.724C387.578 605.881 387.732 606.067 387.836 606.271C387.94 606.476 387.992 606.695 387.99 606.916Z" fill="white"/>
<path d="M32.0542 306.411C32.7465 306.411 33.3077 305.961 33.3077 305.407C33.3077 304.852 32.7465 304.402 32.0542 304.402C31.362 304.402 30.8008 304.852 30.8008 305.407C30.8008 305.961 31.362 306.411 32.0542 306.411Z" fill="white"/>
<path d="M432.683 491.73C432.683 491.928 432.609 492.123 432.471 492.288C432.334 492.453 432.138 492.582 431.909 492.658C431.68 492.734 431.428 492.754 431.185 492.715C430.942 492.676 430.718 492.581 430.543 492.44C430.368 492.3 430.248 492.121 430.2 491.926C430.152 491.731 430.176 491.529 430.271 491.345C430.366 491.162 430.527 491.005 430.733 490.894C430.939 490.784 431.181 490.725 431.429 490.725C431.76 490.728 432.077 490.835 432.311 491.023C432.545 491.211 432.679 491.464 432.683 491.73Z" fill="white"/>
<path d="M158.02 609.398C158.02 609.592 157.949 609.781 157.814 609.942C157.68 610.103 157.489 610.229 157.266 610.303C157.042 610.377 156.796 610.397 156.559 610.359C156.322 610.321 156.104 610.228 155.933 610.091C155.762 609.954 155.646 609.779 155.599 609.589C155.552 609.399 155.576 609.202 155.668 609.023C155.761 608.844 155.917 608.691 156.119 608.583C156.32 608.475 156.556 608.418 156.798 608.418C156.958 608.418 157.117 608.443 157.266 608.492C157.414 608.542 157.549 608.614 157.662 608.705C157.776 608.796 157.866 608.904 157.927 609.023C157.989 609.142 158.02 609.269 158.02 609.398Z" fill="white"/>
<path d="M43.5973 591.505C43.5973 591.915 43.4457 592.316 43.1618 592.657C42.8778 592.997 42.4742 593.263 42.002 593.42C41.5298 593.577 41.0101 593.618 40.5088 593.538C40.0075 593.458 39.547 593.26 39.1856 592.971C38.8242 592.681 38.5781 592.312 38.4784 591.91C38.3787 591.508 38.4298 591.091 38.6254 590.712C38.821 590.334 39.1523 590.01 39.5772 589.782C40.0022 589.555 40.5019 589.433 41.013 589.433C41.6984 589.433 42.3557 589.651 42.8404 590.04C43.325 590.429 43.5973 590.956 43.5973 591.505Z" fill="white"/>
<path d="M399.658 520.715C400.35 520.715 400.911 520.265 400.911 519.711C400.911 519.156 400.35 518.706 399.658 518.706C398.965 518.706 398.404 519.156 398.404 519.711C398.404 520.265 398.965 520.715 399.658 520.715Z" fill="white"/>
</g>
<g style="mix-blend-mode:overlay" opacity="0.15">
<path d="M472.512 689.115H474.649V-0.421326H472.512V39.259H427.19V-0.421326H425.1V39.259H379.717V-0.421326H377.58V39.259H332.196V-0.421326H330.06V39.259H284.8V-0.421326H282.648V39.259H237.326V-0.421326H235.19V39.259H189.868V-0.421326H187.731V39.259H142.41V-0.421326H140.196V39.259H94.9361V-0.421326H92.7993V39.259H47.4779V-0.421326H45.3411V39.259H0.019597V-0.421326H-2.11719V689.115H0.019597V649.435H45.3411V689.115H47.4779V649.435H92.7993V689.115H94.9361V649.435H140.196V689.115H142.348V649.435H187.731V689.115H189.868V649.435H235.19V689.115H237.326V649.435H282.648V689.115H284.785V649.435H330.106V689.115H332.196V649.435H377.518V689.115H379.655V649.435H425.1V689.115H427.237V649.435H472.558L472.512 689.115ZM45.3411 647.344H0.019597V602.688H45.3411V647.344ZM92.7993 647.344H47.4779V602.688H92.7993V647.344ZM140.196 647.344H94.9361V602.688H140.196V647.344ZM187.669 647.344H142.41V602.688H187.731L187.669 647.344ZM235.128 647.344H189.868V602.688H235.19L235.128 647.344ZM282.648 647.344H237.326V602.688H282.648V647.344ZM330.106 647.344H284.8V602.688H330.122L330.106 647.344ZM377.564 647.344H332.196V602.688H377.518L377.564 647.344ZM425.1 647.344H379.717V602.688H425.1V647.344ZM472.558 647.344H427.19V602.688H472.512L472.558 647.344ZM45.3411 600.567H0.019597V555.896H45.3411V600.567ZM92.7993 600.567H47.4779V555.896H92.7993V600.567ZM140.258 600.567H94.9361V555.896H140.196L140.258 600.567ZM187.731 600.567H142.41V555.896H187.731V600.567ZM235.19 600.567H189.868V555.896H235.19V600.567ZM282.663 600.567H237.326V555.896H282.648L282.663 600.567ZM330.122 600.567H284.8V555.896H330.122V600.567ZM377.58 600.567H332.196V555.896H377.518L377.58 600.567ZM425.054 600.567H379.717V555.896H425.1L425.054 600.567ZM472.512 600.567H427.19V555.896H472.512V600.567ZM45.3411 553.79H0.019597V509.119H45.3411V553.79ZM92.7993 553.79H47.4779V509.119H92.7993V553.79ZM140.258 553.79H94.9361V509.119H140.196L140.258 553.79ZM187.731 553.79H142.41V509.119H187.731V553.79ZM235.19 553.79H189.868V509.119H235.19V553.79ZM282.663 553.79H237.326V509.119H282.648L282.663 553.79ZM330.122 553.79H284.8V509.119H330.122V553.79ZM377.58 553.79H332.196V509.119H377.518L377.58 553.79ZM425.054 553.79H379.717V509.119H425.1L425.054 553.79ZM472.512 553.79H427.19V509.119H472.512V553.79ZM45.3411 507.013H0.019597V462.342H45.3411V507.013ZM92.7993 507.013H47.4779V462.342H92.7993V507.013ZM140.258 507.013H94.9361V462.342H140.196L140.258 507.013ZM187.731 507.013H142.41V462.342H187.731V507.013ZM235.19 507.013H189.868V462.342H235.19V507.013ZM282.663 507.013H237.326V462.342H282.648L282.663 507.013ZM330.122 507.013H284.8V462.342H330.122V507.013ZM377.58 507.013H332.196V462.342H377.518L377.58 507.013ZM425.054 507.013H379.717V462.342H425.1L425.054 507.013ZM472.512 507.013H427.19V462.342H472.512V507.013ZM45.3411 460.236H0.019597V415.55H45.3411V460.236ZM92.7993 460.236H47.4779V415.55H92.7993V460.236ZM140.258 460.236H94.9361V415.55H140.196L140.258 460.236ZM187.731 460.236H142.41V415.55H187.731V460.236ZM235.19 460.236H189.868V415.55H235.19V460.236ZM282.663 460.236H237.326V415.55H282.648L282.663 460.236ZM330.122 460.236H284.8V415.55H330.122V460.236ZM377.58 460.236H332.196V415.55H377.518L377.58 460.236ZM425.054 460.236H379.717V415.55H425.1L425.054 460.236ZM472.512 460.236H427.19V415.55H472.512V460.236ZM45.3411 413.444H0.019597V368.773H45.3411V413.444ZM92.7993 413.444H47.4779V368.773H92.7993V413.444ZM140.258 413.444H94.9361V368.773H140.196L140.258 413.444ZM187.731 413.444H142.41V368.773H187.731V413.444ZM235.19 413.444H189.868V368.773H235.19V413.444ZM282.663 413.444H237.326V368.773H282.648L282.663 413.444ZM330.122 413.444H284.8V368.773H330.122V413.444ZM377.58 413.444H332.196V368.773H377.518L377.58 413.444ZM425.054 413.444H379.717V368.773H425.1L425.054 413.444ZM472.512 413.444H427.19V368.773H472.512V413.444ZM45.3411 366.667H0.019597V321.996H45.3411V366.667ZM92.7993 366.667H47.4779V321.996H92.7993V366.667ZM140.258 366.667H94.9361V321.996H140.196L140.258 366.667ZM187.731 366.667H142.41V321.996H187.731V366.667ZM235.19 366.667H189.868V321.996H235.19V366.667ZM282.663 366.667H237.326V321.996H282.648L282.663 366.667ZM330.122 366.667H284.8V321.996H330.122V366.667ZM377.58 366.667H332.196V321.996H377.518L377.58 366.667ZM425.054 366.667H379.717V321.996H425.1L425.054 366.667ZM472.512 366.667H427.19V321.996H472.512V366.667ZM45.3411 319.89H0.019597V275.204H45.3411V319.89ZM92.7993 319.89H47.4779V275.204H92.7993V319.89ZM140.258 319.89H94.9361V275.204H140.196L140.258 319.89ZM187.731 319.89H142.41V275.204H187.731V319.89ZM235.19 319.89H189.868V275.204H235.19V319.89ZM282.663 319.89H237.326V275.204H282.648L282.663 319.89ZM330.122 319.89H284.8V275.204H330.122V319.89ZM377.58 319.89H332.196V275.204H377.518L377.58 319.89ZM425.054 319.89H379.717V275.204H425.1L425.054 319.89ZM472.512 319.89H427.19V275.204H472.512V319.89ZM45.3411 273.098H0.019597V228.427H45.3411V273.098ZM92.7993 273.098H47.4779V228.427H92.7993V273.098ZM140.258 273.098H94.9361V228.427H140.196L140.258 273.098ZM187.731 273.098H142.41V228.427H187.731V273.098ZM235.19 273.098H189.868V228.427H235.19V273.098ZM282.663 273.098H237.326V228.427H282.648L282.663 273.098ZM330.122 273.098H284.8V228.427H330.122V273.098ZM377.58 273.098H332.196V228.427H377.518L377.58 273.098ZM425.054 273.098H379.717V228.427H425.1L425.054 273.098ZM472.512 273.098H427.19V228.427H472.512V273.098ZM45.3411 226.321H0.019597V181.65H45.3411V226.321ZM92.7993 226.321H47.4779V181.65H92.7993V226.321ZM140.258 226.321H94.9361V181.65H140.196L140.258 226.321ZM187.731 226.321H142.41V181.65H187.731V226.321ZM235.19 226.321H189.868V181.65H235.19V226.321ZM282.663 226.321H237.326V181.65H282.648L282.663 226.321ZM330.122 226.321H284.8V181.65H330.122V226.321ZM377.58 226.321H332.196V181.65H377.518L377.58 226.321ZM425.054 226.321H379.717V181.65H425.1L425.054 226.321ZM472.512 226.321H427.19V181.65H472.512V226.321ZM45.3411 179.544H0.019597V134.858H45.3411V179.544ZM92.7993 179.544H47.4779V134.858H92.7993V179.544ZM140.258 179.544H94.9361V134.858H140.196L140.258 179.544ZM187.731 179.544H142.41V134.858H187.731V179.544ZM235.19 179.544H189.868V134.858H235.19V179.544ZM282.663 179.544H237.326V134.858H282.648L282.663 179.544ZM330.122 179.544H284.8V134.858H330.122V179.544ZM377.58 179.544H332.196V134.858H377.518L377.58 179.544ZM425.054 179.544H379.717V134.858H425.1L425.054 179.544ZM472.512 179.544H427.19V134.858H472.512V179.544ZM45.3411 132.752H0.019597V88.081H45.3411V132.752ZM92.7993 132.752H47.4779V88.081H92.7993V132.752ZM140.258 132.752H94.9361V88.081H140.196L140.258 132.752ZM187.731 132.752H142.41V88.081H187.731V132.752ZM235.19 132.752H189.868V88.081H235.19V132.752ZM282.663 132.752H237.326V88.081H282.648L282.663 132.752ZM330.122 132.752H284.8V88.081H330.122V132.752ZM377.58 132.752H332.196V88.081H377.518L377.58 132.752ZM425.054 132.752H379.717V88.081H425.1L425.054 132.752ZM472.512 132.752H427.19V88.081H472.512V132.752ZM45.3411 85.9749H0.019597V41.304H45.3411V85.9749ZM92.7993 85.9749H47.4779V41.304H92.7993V85.9749ZM140.258 85.9749H94.9361V41.304H140.196L140.258 85.9749ZM187.731 85.9749H142.41V41.304H187.731V85.9749ZM235.19 85.9749H189.868V41.304H235.19V85.9749ZM282.663 85.9749H237.326V41.304H282.648L282.663 85.9749ZM330.122 85.9749H284.8V41.304H330.122V85.9749ZM377.58 85.9749H332.196V41.304H377.518L377.58 85.9749ZM425.054 85.9749H379.717V41.304H425.1L425.054 85.9749ZM472.512 85.9749H427.19V41.304H472.512V85.9749Z" fill="white"/>
</g>
<g style="mix-blend-mode:overlay" opacity="0.6">
<path d="M-68.3027 708.95L129.62 550.248" stroke="white" stroke-width="1.35521" stroke-miterlimit="10"/>
<path d="M132.655 552.965C133.294 552.453 133.729 551.801 133.905 551.091C134.082 550.381 133.992 549.645 133.646 548.976C133.301 548.307 132.716 547.735 131.965 547.332C131.214 546.93 130.331 546.715 129.428 546.715C128.525 546.715 127.643 546.93 126.892 547.332C126.141 547.735 125.556 548.307 125.21 548.976C124.865 549.645 124.775 550.381 124.951 551.091C125.128 551.801 125.563 552.453 126.202 552.965C127.068 553.636 128.224 554.011 129.428 554.011C130.632 554.011 131.789 553.636 132.655 552.965Z" fill="white"/>
</g>
<g style="mix-blend-mode:overlay" opacity="0.6">
<path d="M434.92 173.733L554.994 76.7444" stroke="white" stroke-width="1.35521" stroke-miterlimit="10"/>
<path d="M397.622 208.191C396.983 208.703 396.17 209.052 395.284 209.194C394.399 209.335 393.481 209.263 392.646 208.986C391.812 208.709 391.099 208.24 390.597 207.638C390.095 207.036 389.827 206.328 389.827 205.604C389.827 204.88 390.095 204.172 390.597 203.57C391.099 202.968 391.812 202.499 392.646 202.222C393.481 201.945 394.399 201.872 395.284 202.014C396.17 202.155 396.983 202.504 397.622 203.017C398.458 203.711 398.926 204.638 398.926 205.604C398.926 206.569 398.458 207.497 397.622 208.191Z" fill="white"/>
</g>
<g style="mix-blend-mode:overlay" opacity="0.6">
<path d="M346.36 705.488L507.19 576.529" stroke="white" stroke-width="1.35521" stroke-miterlimit="10"/>
</g>
<g style="mix-blend-mode:overlay" opacity="0.6">
<path d="M373.598 723.319L534.428 594.359" stroke="white" stroke-width="1.35521" stroke-miterlimit="10"/>
</g>
<g style="mix-blend-mode:overlay" opacity="0.6">
<path d="M120.198 194.304L367.471 -3.96826" stroke="white" stroke-width="1.35521" stroke-miterlimit="10"/>
<path d="M123.587 196.761C122.95 197.275 122.137 197.626 121.25 197.769C120.364 197.912 119.445 197.84 118.609 197.564C117.774 197.287 117.059 196.818 116.556 196.216C116.054 195.614 115.785 194.905 115.785 194.18C115.785 193.455 116.054 192.747 116.556 192.144C117.059 191.542 117.774 191.073 118.609 190.796C119.445 190.52 120.364 190.449 121.25 190.592C122.137 190.734 122.95 191.085 123.587 191.599C124.012 191.937 124.349 192.339 124.58 192.782C124.81 193.225 124.928 193.7 124.928 194.18C124.928 194.66 124.81 195.135 124.58 195.578C124.349 196.021 124.012 196.423 123.587 196.761Z" fill="white"/>
</g>
<g style="mix-blend-mode:overlay" opacity="0.6">
<path d="M231.353 129.873L478.625 -68.4117" stroke="white" stroke-width="1.35521" stroke-miterlimit="10"/>
<path d="M234.787 132.33C234.148 132.842 233.335 133.191 232.449 133.333C231.564 133.474 230.646 133.402 229.811 133.125C228.977 132.848 228.264 132.379 227.762 131.777C227.26 131.175 226.992 130.467 226.992 129.743C226.992 129.019 227.26 128.311 227.762 127.709C228.264 127.107 228.977 126.638 229.811 126.361C230.646 126.084 231.564 126.011 232.449 126.153C233.335 126.294 234.148 126.643 234.787 127.156C235.623 127.85 236.091 128.777 236.091 129.743C236.091 130.708 235.623 131.636 234.787 132.33Z" fill="white"/>
</g>
<g style="mix-blend-mode:overlay" opacity="0.6">
<path d="M-34.3027 725.155L109.18 610.105" stroke="white" stroke-width="1.35521" stroke-miterlimit="10"/>
<path d="M109.009 613.902C111.531 613.902 113.574 612.263 113.574 610.242C113.574 608.22 111.531 606.581 109.009 606.581C106.488 606.581 104.444 608.22 104.444 610.242C104.444 612.263 106.488 613.902 109.009 613.902Z" fill="white"/>
</g>
<g style="mix-blend-mode:overlay" opacity="0.6">
<path d="M365.659 607.636C365.659 609.33 365.032 610.986 363.858 612.394C362.684 613.802 361.016 614.9 359.064 615.547C357.112 616.195 354.964 616.364 352.893 616.032C350.821 615.701 348.918 614.884 347.426 613.686C345.933 612.487 344.917 610.96 344.507 609.299C344.097 607.637 344.31 605.915 345.121 604.351C345.931 602.787 347.302 601.45 349.06 600.511C350.818 599.572 352.884 599.072 354.997 599.074C357.826 599.078 360.538 599.981 362.537 601.586C364.536 603.192 365.659 605.367 365.659 607.636Z" fill="white"/>
</g>
<g style="mix-blend-mode:overlay" opacity="0.6">
<path d="M354.981 624.474C366.57 624.474 375.965 616.941 375.965 607.648C375.965 598.356 366.57 590.823 354.981 590.823C343.392 590.823 333.997 598.356 333.997 607.648C333.997 616.941 343.392 624.474 354.981 624.474Z" stroke="white" stroke-width="1.35521" stroke-miterlimit="10"/>
</g>
<g style="mix-blend-mode:overlay" opacity="0.6">
<path d="M47.2325 181.628C53.121 181.628 57.8946 177.8 57.8946 173.079C57.8946 168.357 53.121 164.529 47.2325 164.529C41.3439 164.529 36.5703 168.357 36.5703 173.079C36.5703 177.8 41.3439 181.628 47.2325 181.628Z" fill="white"/>
</g>
<g style="mix-blend-mode:overlay" opacity="0.6">
<path d="M47.2319 189.685C58.821 189.685 68.2158 182.152 68.2158 172.86C68.2158 163.567 58.821 156.034 47.2319 156.034C35.6428 156.034 26.248 163.567 26.248 172.86C26.248 182.152 35.6428 189.685 47.2319 189.685Z" stroke="white" stroke-width="1.35521" stroke-miterlimit="10"/>
</g>
<g style="mix-blend-mode:overlay" opacity="0.6">
<path d="M384.892 84.047C382.25 85.183 379.246 85.6654 376.262 85.4331C373.277 85.2008 370.446 84.2644 368.125 82.7421C365.804 81.2198 364.098 79.18 363.222 76.8805C362.347 74.5809 362.341 72.1249 363.206 69.8228C364.071 67.5206 365.767 65.4757 368.081 63.9465C370.395 62.4172 373.222 61.4723 376.205 61.231C379.189 60.9898 382.194 61.4631 384.842 62.5912C387.49 63.7193 389.662 65.4514 391.082 67.5688C392.985 70.4123 393.402 73.7454 392.242 76.8354C391.081 79.9254 388.437 82.5193 384.892 84.047Z" fill="white"/>
</g>
<g style="mix-blend-mode:overlay" opacity="0.6">
<path d="M400.267 76.3633C402.247 66.332 393.71 56.9135 381.199 55.3265C368.689 53.7395 356.943 60.585 354.964 70.6163C352.984 80.6475 361.522 90.066 374.032 91.653C386.542 93.24 398.288 86.3946 400.267 76.3633Z" stroke="white" stroke-width="1.35521" stroke-miterlimit="10"/>
</g>
</g>
<defs>
<filter id="filter0_d_304_109" x="-4" y="-8" width="546" height="934" filterUnits="userSpaceOnUse" color-interpolation-filters="sRGB">
<feFlood flood-opacity="0" result="BackgroundImageFix"/>
<feColorMatrix in="SourceAlpha" type="matrix" values="0 0 0 0 0 0 0 0 0 0 0 0 0 0 0 0 0 0 127 0" result="hardAlpha"/>
<feOffset dy="8"/>
<feGaussianBlur stdDeviation="2"/>
<feComposite in2="hardAlpha" operator="out"/>
<feColorMatrix type="matrix" values="0 0 0 0 0 0 0 0 0 0 0 0 0 0 0 0 0 0 0.25 0"/>
<feBlend mode="normal" in2="BackgroundImageFix" result="effect1_dropShadow_304_109"/>
<feBlend mode="normal" in="SourceGraphic" in2="effect1_dropShadow_304_109" result="shape"/>
</filter>
<linearGradient id="paint0_linear_304_109" x1="269" y1="-127.71" x2="269.157" y2="914" gradientUnits="userSpaceOnUse">
<stop stop-color="#F87F0F"/>
<stop offset="0.221835" stop-color="#F87F0F"/>
<stop offset="0.801933" stop-color="#771079"/>
<stop offset="1" stop-color="#771079"/>
</linearGradient>
<linearGradient id="paint1_linear_304_109" x1="217.456" y1="584.209" x2="229.118" y2="750.509" gradientUnits="userSpaceOnUse">
<stop stop-color="#2390FF"/>
<stop offset="0.05" stop-color="#2390FF" stop-opacity="0.93"/>
<stop offset="0.3" stop-color="#2390FF" stop-opacity="0.6"/>
<stop offset="0.52" stop-color="#2390FF" stop-opacity="0.35"/>
<stop offset="0.7" stop-color="#2390FF" stop-opacity="0.16"/>
<stop offset="0.84" stop-color="#2390FF" stop-opacity="0.04"/>
<stop offset="0.91" stop-color="#2390FF" stop-opacity="0"/>
</linearGradient>
<linearGradient id="paint2_linear_304_109" x1="228.241" y1="756.71" x2="228.241" y2="616.446" gradientUnits="userSpaceOnUse">
<stop offset="0.09" stop-color="#2390FF" stop-opacity="0"/>
<stop offset="0.16" stop-color="#2390FF" stop-opacity="0.04"/>
<stop offset="0.3" stop-color="#2390FF" stop-opacity="0.16"/>
<stop offset="0.48" stop-color="#2390FF" stop-opacity="0.35"/>
<stop offset="0.7" stop-color="#2390FF" stop-opacity="0.6"/>
<stop offset="0.95" stop-color="#2390FF" stop-opacity="0.93"/>
<stop offset="1" stop-color="#2390FF"/>
</linearGradient>
<linearGradient id="paint3_linear_304_109" x1="228.227" y1="-6.75562" x2="228.227" y2="173.55" gradientUnits="userSpaceOnUse">
<stop offset="0.04" stop-color="white" stop-opacity="0"/>
<stop offset="0.16" stop-color="white" stop-opacity="0.02"/>
<stop offset="0.28" stop-color="white" stop-opacity="0.06"/>
<stop offset="0.4" stop-color="white" stop-opacity="0.14"/>
<stop offset="0.52" stop-color="white" stop-opacity="0.24"/>
<stop offset="0.63" stop-color="white" stop-opacity="0.38"/>
<stop offset="0.75" stop-color="white" stop-opacity="0.55"/>
<stop offset="0.86" stop-color="white" stop-opacity="0.75"/>
<stop offset="0.98" stop-color="white" stop-opacity="0.98"/>
<stop offset="0.99" stop-color="white"/>
</linearGradient>
<linearGradient id="paint4_linear_304_109" x1="293.854" y1="34.9137" x2="293.854" y2="141.265" gradientUnits="userSpaceOnUse">
<stop stop-color="white" stop-opacity="0"/>
<stop offset="0.13" stop-color="white" stop-opacity="0.02"/>
<stop offset="0.25" stop-color="white" stop-opacity="0.06"/>
<stop offset="0.38" stop-color="white" stop-opacity="0.14"/>
<stop offset="0.5" stop-color="white" stop-opacity="0.24"/>
<stop offset="0.62" stop-color="white" stop-opacity="0.38"/>
<stop offset="0.74" stop-color="white" stop-opacity="0.55"/>
<stop offset="0.86" stop-color="white" stop-opacity="0.75"/>
<stop offset="0.98" stop-color="white" stop-opacity="0.98"/>
<stop offset="0.99" stop-color="white"/>
</linearGradient>
<clipPath id="clip0_304_109">
<rect width="475" height="695.2" fill="white" transform="translate(-3)"/>
</clipPath>
</defs>
</svg>
