<svg width="314" height="372" viewBox="0 0 314 372" fill="none" xmlns="http://www.w3.org/2000/svg">
<path d="M255.14 179.04L281.06 157.92L278.18 154.56L252.74 175.68L255.14 179.04Z" fill="#771079"/>
<path d="M254.18 231.36L249.279 190.937L244.896 191.543L250.055 231.562L254.18 231.36Z" fill="#771079"/>
<path d="M239.087 179.199L189.359 155.362L187.461 159.36L236.994 182.758L239.087 179.199Z" fill="#771079"/>
<path d="M124.758 84.9421L114.5 40.32L110.136 41.0564L120.642 85.2671L124.758 84.9421Z" fill="#771079"/>
<path d="M117.86 92.1599L51.1406 130.56L53.6761 134.187L119.918 95.7397L117.86 92.1599Z" fill="#771079"/>
<path d="M192.207 86.0816L131.605 90.1886L131.537 94.6135L191.779 90.1886L192.207 86.0816Z" fill="#771079"/>
<path d="M131.207 86.327L174.5 23.04L170.777 20.6479L127.944 83.7972L131.207 86.327Z" fill="#771079"/>
<ellipse cx="57.8602" cy="65.76" rx="7.2" ry="7.2" fill="#F87F0F"/>
<ellipse cx="99.6196" cy="158.4" rx="10.56" ry="10.56" fill="#F87F0F"/>
<ellipse cx="237.86" cy="135.36" rx="10.56" ry="10.56" fill="#F87F0F"/>
<ellipse cx="246.02" cy="182.88" rx="10.08" ry="10.08" fill="#771079"/>
<ellipse cx="178.34" cy="149.76" rx="14.4" ry="14.4" fill="#771079"/>
<ellipse cx="205.22" cy="86.4" rx="14.4" ry="14.4" fill="#771079"/>
<ellipse cx="125.54" cy="90.24" rx="9.6" ry="9.6" fill="#771079"/>
<ellipse cx="178.82" cy="12.96" rx="12.96" ry="12.96" fill="#771079"/>
<ellipse cx="109.22" cy="28.8" rx="14.4" ry="14.4" fill="#771079"/>
<ellipse cx="42.98" cy="134.4" rx="12.48" ry="12.48" fill="#771079"/>
<ellipse cx="252.74" cy="237.6" rx="8.16" ry="8.16" fill="#771079"/>
<ellipse cx="268.1" cy="56.16" rx="10.08" ry="10.08" fill="#F87F0F"/>
<ellipse cx="284.42" cy="103.2" rx="6.24" ry="6.24" fill="#F87F0F"/>
<ellipse cx="284.42" cy="200.16" rx="6.24" ry="6.24" fill="#F87F0F"/>
<ellipse cx="213.86" cy="194.88" rx="6.72" ry="6.72" fill="#F87F0F"/>
<ellipse cx="143.781" cy="125.76" rx="7.68" ry="7.68" fill="#F87F0F"/>
<ellipse cx="174.98" cy="65.76" rx="6.24" ry="6.24" fill="#F87F0F"/>
<ellipse cx="232.58" cy="26.4" rx="6.24" ry="6.24" fill="#F87F0F"/>
<ellipse cx="287.78" cy="147.84" rx="13.44" ry="13.44" fill="#771079"/>
<path d="M25.5 299.26C39.975 299.26 51 310.66 51 325.51C51 340.36 39.975 351.76 25.5 351.76H4.5V299.26H25.5ZM25.5 340.21C33.75 340.21 39.45 334.51 39.45 325.51C39.45 316.51 33.75 310.81 25.5 310.81H16.5V340.21H25.5ZM190.816 340.21H209.566V351.76H178.816V299.26H190.816V340.21Z" fill="#F87F0F"/>
<path d="M84.5971 314.26H95.8471V351.76H84.5971V348.235C82.1221 351.085 78.4471 352.81 73.4221 352.81C63.5971 352.81 55.4971 344.185 55.4971 333.01C55.4971 321.835 63.5971 313.21 73.4221 313.21C78.4471 313.21 82.1221 314.935 84.5971 317.785V314.26ZM75.6721 342.16C80.8471 342.16 84.5971 338.635 84.5971 333.01C84.5971 327.385 80.8471 323.86 75.6721 323.86C70.4971 323.86 66.7471 327.385 66.7471 333.01C66.7471 338.635 70.4971 342.16 75.6721 342.16ZM126.076 325.06H118.351V338.335C118.351 341.56 121.126 341.86 126.076 341.56V351.76C111.376 353.26 107.101 348.835 107.101 338.335V325.06H101.101V314.26H107.101V307.135L118.351 303.76V314.26H126.076V325.06ZM158.938 314.26H170.188V351.76H158.938V348.235C156.463 351.085 152.788 352.81 147.763 352.81C137.938 352.81 129.838 344.185 129.838 333.01C129.838 321.835 137.938 313.21 147.763 313.21C152.788 313.21 156.463 314.935 158.938 317.785V314.26ZM150.013 342.16C155.188 342.16 158.938 338.635 158.938 333.01C158.938 327.385 155.188 323.86 150.013 323.86C144.838 323.86 141.088 327.385 141.088 333.01C141.088 338.635 144.838 342.16 150.013 342.16ZM220.102 310.96C216.427 310.96 213.352 307.885 213.352 304.21C213.352 300.535 216.427 297.46 220.102 297.46C223.777 297.46 226.852 300.535 226.852 304.21C226.852 307.885 223.777 310.96 220.102 310.96ZM214.477 351.76V314.26H225.727V351.76H214.477ZM255.934 313.21C263.509 313.21 269.959 318.61 269.959 328.735V351.76H258.709V330.385C258.709 325.735 255.784 323.56 252.184 323.56C248.059 323.56 245.209 325.96 245.209 331.285V351.76H233.959V314.26H245.209V317.785C247.234 315.01 250.984 313.21 255.934 313.21ZM313.685 351.76H300.935L288.935 335.185V351.76H277.685V299.26H288.935V330.685L300.185 314.26H313.31L299.66 333.01L313.685 351.76Z" fill="#771079"/>
</svg>
