<svg width="176" height="30" viewBox="0 0 176 30" fill="none" xmlns="http://www.w3.org/2000/svg">
<path d="M2 16.5C1.17157 16.5 0.5 17.1716 0.5 18C0.5 18.8284 1.17157 19.5 2 19.5L2 16.5ZM53.3149 16.5L2 16.5L2 19.5L53.3149 19.5L53.3149 16.5Z" fill="#F87F0F"/>
<path d="M83.375 23.35C79.7 23.35 76.75 20.475 76.75 16.75C76.75 13.025 79.7 10.15 83.375 10.15C87.05 10.15 90 13.025 90 16.75C90 20.475 87.05 23.35 83.375 23.35ZM83.375 19.7C85 19.7 86.25 18.525 86.25 16.75C86.25 14.975 85 13.8 83.375 13.8C81.75 13.8 80.5 14.975 80.5 16.75C80.5 18.525 81.75 19.7 83.375 19.7ZM95.8711 12.725C96.3711 11.05 98.0461 10.25 99.6211 10.25V14.5C98.0711 14.25 95.8711 14.875 95.8711 17.35V23H92.1211V10.5H95.8711V12.725Z" fill="#F87F0F"/>
<path d="M174 16.5C174.828 16.5 175.5 17.1716 175.5 18C175.5 18.8284 174.828 19.5 174 19.5L174 16.5ZM122.685 16.5L174 16.5L174 19.5L122.685 19.5L122.685 16.5Z" fill="#F87F0F"/>
</svg>
