<svg width="33" height="43" viewBox="0 0 33 43" fill="none" xmlns="http://www.w3.org/2000/svg">
<path d="M16.381 0C9.57506 0 4.09524 5.47982 4.09524 12.2857V14.3333C1.84286 14.3333 0 16.1762 0 18.4286V38.9048C0 41.1571 1.84286 43 4.09524 43H28.6667C30.9191 43 32.7619 41.1571 32.7619 38.9048V18.4286C32.7619 16.1762 30.9191 14.3333 28.6667 14.3333V12.2857C28.6667 5.47982 23.1869 0 16.381 0ZM16.381 4.09524C21.0417 4.09524 24.5714 7.62494 24.5714 12.2857V14.3333H8.19048V12.2857C8.19048 7.62494 11.7202 4.09524 16.381 4.09524ZM16.381 24.5714C18.6333 24.5714 20.4762 26.4143 20.4762 28.6667C20.4762 30.919 18.6333 32.7619 16.381 32.7619C14.1286 32.7619 12.2857 30.919 12.2857 28.6667C12.2857 26.4143 14.1286 24.5714 16.381 24.5714Z" fill="#F87F0F"/>
</svg>
