<svg width="54" height="50" viewBox="0 0 54 50" fill="none" xmlns="http://www.w3.org/2000/svg">
<path d="M35.5 3.9763C35.5 2.94024 36.7247 2.39111 37.4982 3.08031L49.5815 13.8454C50.4129 14.5861 49.8748 15.9614 48.7614 15.9412L36.6782 15.7215C36.0241 15.7096 35.5 15.1759 35.5 14.5217V3.9763Z" fill="#FD5C57"/>
<path fill-rule="evenodd" clip-rule="evenodd" d="M53.7502 41.8V17.0229C53.7502 14.8444 52.8153 12.7706 51.1829 11.328L40.5201 1.9051C39.1311 0.677538 37.3412 0 35.4874 0H20.8002C16.6028 0 13.2002 3.40263 13.2002 7.6V19.3H17.2002V7.6C17.2002 5.61177 18.812 4 20.8002 4H35.4874C36.3655 4 37.2134 4.32094 37.8713 4.90242L48.5341 14.3253C49.3074 15.0087 49.7502 15.991 49.7502 17.0229V41.8C49.7502 43.7882 48.1384 45.4 46.1502 45.4H20.8002C18.812 45.4 17.2002 43.7882 17.2002 41.8V38.3H13.2002V41.8C13.2002 45.9974 16.6028 49.4 20.8002 49.4H46.1502C50.3476 49.4 53.7502 45.9974 53.7502 41.8Z" fill="#FD5C57"/>
<rect x="0.700195" y="21.3" width="31" height="15" rx="3" fill="#FD5C57"/>
<path d="M8.9502 25.3C10.3302 25.3 11.4002 26.37 11.4002 27.7C11.4002 29.03 10.3302 30.1 8.9502 30.1H7.9002V32.3H6.3002V25.3H8.9502ZM8.9502 28.6C9.4402 28.6 9.8002 28.21 9.8002 27.7C9.8002 27.19 9.4402 26.8 8.9502 26.8H7.9002V28.6H8.9502ZM15.5986 25.3C17.5286 25.3 18.9986 26.82 18.9986 28.8C18.9986 30.78 17.5286 32.3 15.5986 32.3H12.7986V25.3H15.5986ZM15.5986 30.76C16.6986 30.76 17.4586 30 17.4586 28.8C17.4586 27.6 16.6986 26.84 15.5986 26.84H14.3986V30.76H15.5986ZM24.7482 26.84H22.0982V28.19H24.6982V29.73H22.0982V32.3H20.4982V25.3H24.7482V26.84Z" fill="white"/>
</svg>
