<svg width="39" height="40" viewBox="0 0 39 40" fill="none" xmlns="http://www.w3.org/2000/svg">
<path d="M19.3614 0C8.67391 0 0 8.75653 0 19.5458C0 30.3351 8.67391 39.0916 19.3614 39.0916C30.0489 39.0916 38.7228 30.3351 38.7228 19.5458C38.7228 8.75653 30.0489 0 19.3614 0ZM19.3614 5.86375C22.5754 5.86375 25.1698 8.48289 25.1698 11.7275C25.1698 14.9721 22.5754 17.5912 19.3614 17.5912C16.1474 17.5912 13.553 14.9721 13.553 11.7275C13.553 8.48289 16.1474 5.86375 19.3614 5.86375ZM19.3614 33.6188C14.521 33.6188 10.2422 31.117 7.74456 27.3251C7.80264 23.4354 15.4891 21.3049 19.3614 21.3049C23.2143 21.3049 30.9202 23.4354 30.9782 27.3251C28.4806 31.117 24.2017 33.6188 19.3614 33.6188Z" fill="#F87F0F"/>
</svg>
