<svg width="134" height="141" viewBox="0 0 134 141" fill="none" xmlns="http://www.w3.org/2000/svg">
<path d="M95.5578 69.1478L105.568 60.991L104.456 59.6934L94.6309 67.8502L95.5578 69.1478Z" fill="white"/>
<path d="M95.1894 89.3537L93.2969 73.7418L91.6039 73.9758L93.5966 89.4318L95.1894 89.3537Z" fill="white"/>
<path d="M89.3584 69.209L70.1529 60.0029L69.4198 61.5469L88.55 70.5835L89.3584 69.209Z" fill="white"/>
<path d="M45.2036 32.8057L41.2416 15.5721L39.5563 15.8565L43.6138 32.9313L45.2036 32.8057Z" fill="white"/>
<path d="M42.5382 35.5935L16.7701 50.424L17.7494 51.8248L43.333 36.976L42.5382 35.5935Z" fill="white"/>
<path d="M71.2546 33.2458L47.8494 34.8319L47.8233 36.5408L71.0896 34.8319L71.2546 33.2458Z" fill="white"/>
<path d="M47.6947 33.3404L64.4152 8.89813L62.9773 7.97428L46.4344 32.3633L47.6947 33.3404Z" fill="white"/>
<ellipse cx="19.3676" cy="25.3974" rx="2.78073" ry="2.78073" fill="white"/>
<ellipse cx="35.4944" cy="61.1761" rx="4.07841" ry="4.0784" fill="white"/>
<ellipse cx="88.8841" cy="52.2781" rx="4.07841" ry="4.0784" fill="white"/>
<ellipse cx="92.0366" cy="70.6303" rx="3.89303" ry="3.89302" fill="white"/>
<ellipse cx="65.8974" cy="57.8393" rx="5.56147" ry="5.56146" fill="white"/>
<ellipse cx="76.2783" cy="33.3686" rx="5.56147" ry="5.56146" fill="white"/>
<ellipse cx="45.5055" cy="34.8517" rx="3.70765" ry="3.70764" fill="white"/>
<ellipse cx="66.0825" cy="5.00531" rx="5.00532" ry="5.00531" fill="white"/>
<ellipse cx="39.2021" cy="11.1225" rx="5.56147" ry="5.56146" fill="white"/>
<ellipse cx="13.6197" cy="51.9068" rx="4.81994" ry="4.81993" fill="white"/>
<ellipse cx="94.6329" cy="91.7638" rx="3.1515" ry="3.15149" fill="white"/>
<ellipse cx="100.566" cy="21.6894" rx="3.89303" ry="3.89302" fill="white"/>
<ellipse cx="106.867" cy="39.8567" rx="2.40997" ry="2.40996" fill="white"/>
<ellipse cx="106.867" cy="77.3045" rx="2.40997" ry="2.40996" fill="white"/>
<ellipse cx="79.6159" cy="75.2653" rx="2.59535" ry="2.59535" fill="white"/>
<ellipse cx="52.5501" cy="48.5701" rx="2.96612" ry="2.96611" fill="white"/>
<ellipse cx="64.6004" cy="25.3973" rx="2.40997" ry="2.40996" fill="white"/>
<ellipse cx="86.8455" cy="10.1956" rx="2.40997" ry="2.40996" fill="white"/>
<ellipse cx="108.165" cy="57.0974" rx="5.1907" ry="5.19069" fill="white"/>
<path d="M10.88 109.515C17.056 109.515 21.76 114.379 21.76 120.715C21.76 127.051 17.056 131.915 10.88 131.915H1.92V109.515H10.88ZM10.88 126.987C14.4 126.987 16.832 124.555 16.832 120.715C16.832 116.875 14.4 114.443 10.88 114.443H7.04V126.987H10.88ZM36.0948 115.915H40.8948V131.915H36.0948V130.411C35.0388 131.627 33.4708 132.363 31.3268 132.363C27.1348 132.363 23.6788 128.683 23.6788 123.915C23.6788 119.147 27.1348 115.467 31.3268 115.467C33.4708 115.467 35.0388 116.203 36.0948 117.419V115.915ZM32.2868 127.819C34.4948 127.819 36.0948 126.315 36.0948 123.915C36.0948 121.515 34.4948 120.011 32.2868 120.011C30.0788 120.011 28.4788 121.515 28.4788 123.915C28.4788 126.315 30.0788 127.819 32.2868 127.819ZM53.7923 120.523H50.4963V126.187C50.4963 127.563 51.6803 127.691 53.7923 127.563V131.915C47.5203 132.555 45.6963 130.667 45.6963 126.187V120.523H43.1363V115.915H45.6963V112.875L50.4963 111.435V115.915H53.7923V120.523ZM67.8135 115.915H72.6135V131.915H67.8135V130.411C66.7575 131.627 65.1895 132.363 63.0455 132.363C58.8535 132.363 55.3975 128.683 55.3975 123.915C55.3975 119.147 58.8535 115.467 63.0455 115.467C65.1895 115.467 66.7575 116.203 67.8135 117.419V115.915ZM64.0055 127.819C66.2135 127.819 67.8135 126.315 67.8135 123.915C67.8135 121.515 66.2135 120.011 64.0055 120.011C61.7975 120.011 60.1975 121.515 60.1975 123.915C60.1975 126.315 61.7975 127.819 64.0055 127.819ZM81.415 126.987H89.415V131.915H76.295V109.515H81.415V126.987ZM93.91 114.507C92.342 114.507 91.03 113.195 91.03 111.627C91.03 110.059 92.342 108.747 93.91 108.747C95.478 108.747 96.79 110.059 96.79 111.627C96.79 113.195 95.478 114.507 93.91 114.507ZM91.51 131.915V115.915H96.31V131.915H91.51ZM109.199 115.467C112.431 115.467 115.183 117.771 115.183 122.091V131.915H110.383V122.795C110.383 120.811 109.135 119.883 107.599 119.883C105.839 119.883 104.623 120.907 104.623 123.179V131.915H99.8225V115.915H104.623V117.419C105.487 116.235 107.087 115.467 109.199 115.467ZM133.839 131.915H128.399L123.279 124.843V131.915H118.479V109.515H123.279V122.923L128.079 115.915H133.679L127.855 123.915L133.839 131.915Z" fill="white"/>
</svg>
