<svg width="32" height="33" viewBox="0 0 32 33" fill="none" xmlns="http://www.w3.org/2000/svg">
<path d="M0.109014 24.7064L5.90197e-05 31.5251C-0.00567548 32.0355 0.407209 32.4541 0.917579 32.4541H0.940517L7.70723 32.2878C7.82192 32.2821 7.9366 32.2362 8.01689 32.1559L31.8667 8.35661C32.0444 8.17883 32.0444 7.88636 31.8667 7.70858L24.7387 0.586001C24.6469 0.494245 24.5322 0.454102 24.4118 0.454102C24.2914 0.454102 24.1767 0.49998 24.085 0.586001L0.240909 24.3853C0.158082 24.4719 0.11098 24.5866 0.109014 24.7064ZM3.75042 26.0598L24.4118 5.44335L27.0038 8.02973L6.33095 28.6577L3.71028 28.7208L3.75042 26.0598Z" fill="#313131"/>
</svg>
