<svg width="31" height="41" viewBox="0 0 31 41" fill="none" xmlns="http://www.w3.org/2000/svg">
<path d="M15.1028 0C8.82793 0 3.77569 5.10036 3.77569 11.435V13.3408C1.69906 13.3408 0 15.056 0 17.1525V36.2107C0 38.3072 1.69906 40.0224 3.77569 40.0224H26.4298C28.5065 40.0224 30.2055 38.3072 30.2055 36.2107V17.1525C30.2055 15.056 28.5065 13.3408 26.4298 13.3408V11.435C26.4298 5.10036 21.3776 0 15.1028 0ZM15.1028 3.81166C19.3999 3.81166 22.6542 7.09694 22.6542 11.435V13.3408H7.55138V11.435C7.55138 7.09694 10.8057 3.81166 15.1028 3.81166ZM15.1028 22.8699C17.1794 22.8699 18.8785 24.5852 18.8785 26.6816C18.8785 28.778 17.1794 30.4933 15.1028 30.4933C13.0261 30.4933 11.3271 28.778 11.3271 26.6816C11.3271 24.5852 13.0261 22.8699 15.1028 22.8699Z" fill="#F87F0F"/>
</svg>
