<svg width="340" height="113" viewBox="0 0 340 113" fill="none" xmlns="http://www.w3.org/2000/svg">
<path d="M102.783 81.9184L114.643 72.2551L113.325 70.7178L101.685 80.3811L102.783 81.9184Z" fill="#771079"/>
<path d="M102.344 105.857L100.102 87.3617L98.0959 87.6389L100.457 105.949L102.344 105.857Z" fill="#771079"/>
<path d="M95.4373 81.9912L72.6847 71.0849L71.8162 72.914L94.4795 83.6197L95.4373 81.9912Z" fill="#771079"/>
<path d="M43.1273 38.8646L38.4336 18.4481L36.437 18.785L41.2439 39.0134L43.1273 38.8646Z" fill="#771079"/>
<path d="M39.9707 42.1671L9.44353 59.7367L10.6036 61.3962L40.9123 43.805L39.9707 42.1671Z" fill="#771079"/>
<path d="M73.9887 39.386L46.2608 41.2651L46.2299 43.2897L73.7932 41.2651L73.9887 39.386Z" fill="#771079"/>
<path d="M46.0783 39.4983L65.8869 10.5418L64.1834 9.44731L44.5851 38.3408L46.0783 39.4983Z" fill="#771079"/>
<ellipse cx="12.5184" cy="30.088" rx="3.29431" ry="3.29431" fill="#F87F0F"/>
<ellipse cx="31.6256" cy="72.4747" rx="4.83165" ry="4.83165" fill="#F87F0F"/>
<ellipse cx="94.8766" cy="61.933" rx="4.83165" ry="4.83165" fill="#F87F0F"/>
<ellipse cx="98.6096" cy="83.6754" rx="4.61203" ry="4.61203" fill="#771079"/>
<ellipse cx="67.6433" cy="68.5216" rx="6.58862" ry="6.58861" fill="#771079"/>
<ellipse cx="79.9416" cy="39.5316" rx="6.58862" ry="6.58861" fill="#771079"/>
<ellipse cx="43.4852" cy="41.2887" rx="4.39241" ry="4.39241" fill="#771079"/>
<ellipse cx="67.8633" cy="5.92972" rx="5.92975" ry="5.92975" fill="#771079"/>
<ellipse cx="36.0178" cy="13.1772" rx="6.58862" ry="6.58861" fill="#771079"/>
<ellipse cx="5.71013" cy="61.4937" rx="5.71013" ry="5.71013" fill="#771079"/>
<ellipse cx="101.685" cy="108.712" rx="3.73355" ry="3.73355" fill="#771079"/>
<ellipse cx="108.713" cy="25.6956" rx="4.61203" ry="4.61203" fill="#F87F0F"/>
<ellipse cx="116.18" cy="47.2184" rx="2.85507" ry="2.85507" fill="#F87F0F"/>
<ellipse cx="116.18" cy="91.5817" rx="2.85507" ry="2.85507" fill="#F87F0F"/>
<ellipse cx="83.895" cy="89.1659" rx="3.07469" ry="3.07469" fill="#F87F0F"/>
<ellipse cx="51.8308" cy="57.5405" rx="3.51393" ry="3.51393" fill="#F87F0F"/>
<ellipse cx="66.106" cy="30.088" rx="2.85507" ry="2.85507" fill="#F87F0F"/>
<ellipse cx="92.461" cy="12.0791" rx="2.85507" ry="2.85507" fill="#F87F0F"/>
<ellipse cx="117.717" cy="67.6431" rx="6.14937" ry="6.14937" fill="#771079"/>
<path d="M169.36 36C177.852 36 184.32 42.688 184.32 51.4C184.32 60.112 177.852 66.8 169.36 66.8H157.04V36H169.36ZM169.36 60.024C174.2 60.024 177.544 56.68 177.544 51.4C177.544 46.12 174.2 42.776 169.36 42.776H164.08V60.024H169.36ZM266.346 60.024H277.346V66.8H259.306V36H266.346V60.024Z" fill="#F87F0F"/>
<path d="M204.031 44.8H210.631V66.8H204.031V64.732C202.579 66.404 200.423 67.416 197.475 67.416C191.711 67.416 186.959 62.356 186.959 55.8C186.959 49.244 191.711 44.184 197.475 44.184C200.423 44.184 202.579 45.196 204.031 46.868V44.8ZM198.795 61.168C201.831 61.168 204.031 59.1 204.031 55.8C204.031 52.5 201.831 50.432 198.795 50.432C195.759 50.432 193.559 52.5 193.559 55.8C193.559 59.1 195.759 61.168 198.795 61.168ZM228.365 51.136H223.833V58.924C223.833 60.816 225.461 60.992 228.365 60.816V66.8C219.741 67.68 217.233 65.084 217.233 58.924V51.136H213.713V44.8H217.233V40.62L223.833 38.64V44.8H228.365V51.136ZM247.644 44.8H254.244V66.8H247.644V64.732C246.192 66.404 244.036 67.416 241.088 67.416C235.324 67.416 230.572 62.356 230.572 55.8C230.572 49.244 235.324 44.184 241.088 44.184C244.036 44.184 246.192 45.196 247.644 46.868V44.8ZM242.408 61.168C245.444 61.168 247.644 59.1 247.644 55.8C247.644 52.5 245.444 50.432 242.408 50.432C239.372 50.432 237.172 52.5 237.172 55.8C237.172 59.1 239.372 61.168 242.408 61.168ZM283.527 42.864C281.371 42.864 279.567 41.06 279.567 38.904C279.567 36.748 281.371 34.944 283.527 34.944C285.683 34.944 287.487 36.748 287.487 38.904C287.487 41.06 285.683 42.864 283.527 42.864ZM280.227 66.8V44.8H286.827V66.8H280.227ZM304.548 44.184C308.992 44.184 312.776 47.352 312.776 53.292V66.8H306.176V54.26C306.176 51.532 304.46 50.256 302.348 50.256C299.928 50.256 298.256 51.664 298.256 54.788V66.8H291.656V44.8H298.256V46.868C299.444 45.24 301.644 44.184 304.548 44.184ZM338.429 66.8H330.949L323.909 57.076V66.8H317.309V36H323.909V54.436L330.509 44.8H338.209L330.201 55.8L338.429 66.8Z" fill="#771079"/>
</svg>
