<svg width="678" height="357" viewBox="0 0 678 357" fill="none" xmlns="http://www.w3.org/2000/svg">
<g clip-path="url(#clip0_303_704)">
<g filter="url(#filter0_d_303_704)">
<path opacity="0.57" d="M342.305 368.283C537.093 368.283 695 356.23 695 341.363C695 326.495 537.093 314.443 342.305 314.443C147.517 314.443 -10.3901 326.495 -10.3901 341.363C-10.3901 356.23 147.517 368.283 342.305 368.283Z" fill="#360B37" fill-opacity="0.15"/>
<path opacity="0.57" d="M342.305 359.924C476.556 359.924 585.388 351.614 585.388 341.363C585.388 331.112 476.556 322.802 342.305 322.802C208.054 322.802 99.2227 331.112 99.2227 341.363C99.2227 351.614 208.054 359.924 342.305 359.924Z" fill="#360B37" fill-opacity="0.15"/>
<path opacity="0.6" d="M646.384 276.276L641.752 277.157L616.808 145.589L621.44 144.688L646.384 276.276Z" fill="#8ADEFF"/>
<mask id="mask0_303_704" style="mask-type:luminance" maskUnits="userSpaceOnUse" x="607" y="185" width="62" height="149">
<path d="M665.978 185.477H610.638C609.877 185.477 609.148 185.779 608.609 186.317C608.071 186.855 607.769 187.585 607.769 188.345C607.769 189.106 608.071 189.836 608.609 190.374C609.148 190.911 609.877 191.214 610.638 191.214H613.897V202.912H611.028V333.762H665.527V202.912H662.637V191.214H665.978C666.739 191.214 667.469 190.911 668.007 190.374C668.545 189.836 668.847 189.106 668.847 188.345C668.847 187.585 668.545 186.855 668.007 186.317C667.469 185.779 666.739 185.477 665.978 185.477Z" fill="white"/>
</mask>
<g mask="url(#mask0_303_704)">
<path opacity="0.9" d="M665.978 185.477H610.638C609.877 185.477 609.148 185.779 608.609 186.317C608.071 186.855 607.769 187.585 607.769 188.345C607.769 189.106 608.071 189.836 608.609 190.374C609.148 190.911 609.877 191.214 610.638 191.214H613.897V202.912H611.028V333.762H665.527V202.912H662.637V191.214H665.978C666.739 191.214 667.469 190.911 668.007 190.374C668.545 189.836 668.847 189.106 668.847 188.345C668.847 187.585 668.545 186.855 668.007 186.317C667.469 185.779 666.739 185.477 665.978 185.477Z" fill="white"/>
<path d="M661.448 235.404H615.066V328.6H661.448V235.404Z" fill="url(#paint0_linear_303_704)"/>
<path d="M656.242 245.853H633.102V248.147H656.242V245.853Z" fill="white"/>
<path d="M656.243 251.794H644.334V254.088H656.243V251.794Z" fill="white"/>
<path d="M656.243 256.834H644.334V259.128H656.243V256.834Z" fill="white"/>
<path d="M656.243 261.874H644.334V264.168H656.243V261.874Z" fill="white"/>
<path d="M656.243 266.913H644.334V269.208H656.243V266.913Z" fill="white"/>
<path d="M656.243 271.953H644.334V274.248H656.243V271.953Z" fill="white"/>
<path d="M656.242 279.533H633.102V281.828H656.242V279.533Z" fill="white"/>
<path d="M656.243 285.475H644.334V287.769H656.243V285.475Z" fill="white"/>
<path d="M656.243 290.514H644.334V292.809H656.243V290.514Z" fill="white"/>
<path d="M656.243 295.554H644.334V297.849H656.243V295.554Z" fill="white"/>
<path d="M656.243 300.594H644.334V302.889H656.243V300.594Z" fill="white"/>
<path d="M656.243 305.634H644.334V307.928H656.243V305.634Z" fill="white"/>
<path d="M595.492 351.34C597.542 314.464 604.879 276.03 628.409 247.574C636.874 237.33 647.142 228.787 656.509 219.383C665.876 209.98 674.566 199.368 678.747 186.768C682.928 174.169 681.903 159.213 673.377 149.052C666.306 140.57 655.259 136.554 644.457 134.198C624.31 129.814 601.887 130.47 584.834 142.045C568.97 152.801 560.034 171.608 556.98 190.517C553.926 209.427 556.099 228.766 558.231 247.881C561.401 275.975 564.571 304.063 567.741 332.144C567.91 335.974 568.873 339.727 570.569 343.166C571.443 344.871 572.815 346.269 574.502 347.177C576.19 348.084 578.113 348.457 580.018 348.247" fill="url(#paint1_linear_303_704)"/>
</g>
<path d="M589.261 204.182L531.626 147.31L515.66 163.269L573.294 220.141L589.261 204.182Z" fill="url(#paint2_linear_303_704)"/>
<path d="M589.691 284.86L589.158 203.916H566.592L567.105 284.86H589.691Z" fill="url(#paint3_linear_303_704)"/>
<path d="M505.002 129.384L518.714 138.255L545.359 97.9159C546.546 96.1002 546.965 93.888 546.523 91.7644C546.081 89.6407 544.815 87.7787 543.002 86.5866C541.192 85.4025 538.987 84.9814 536.868 85.4151C534.749 85.8487 532.887 87.1019 531.688 88.9016L505.002 129.384Z" fill="url(#paint4_linear_303_704)"/>
<path d="M486.228 192.689L506.539 194.758L511.028 157.39L490.696 155.321L486.228 192.689Z" fill="url(#paint5_linear_303_704)"/>
<path d="M448.659 145.466L452.286 165.564L489.466 159.52L485.838 139.423L448.659 145.466Z" fill="url(#paint6_linear_303_704)"/>
<path d="M506.457 179.741C525.599 179.741 541.116 164.23 541.116 145.097C541.116 125.964 525.599 110.454 506.457 110.454C487.316 110.454 471.798 125.964 471.798 145.097C471.798 164.23 487.316 179.741 506.457 179.741Z" fill="url(#paint7_linear_303_704)"/>
<path d="M538.903 173.001C536.662 175.764 535.29 179.13 534.962 182.672C534.634 186.215 535.365 189.775 537.061 192.902C538.757 196.03 541.343 198.584 544.492 200.243C547.641 201.901 551.211 202.589 554.751 202.22C558.291 201.85 561.641 200.44 564.379 198.167C567.117 195.893 569.119 192.86 570.132 189.45C571.145 186.039 571.124 182.405 570.071 179.007C569.018 175.609 566.98 172.599 564.216 170.358C562.38 168.87 560.269 167.758 558.004 167.086C555.738 166.413 553.362 166.194 551.012 166.439C548.661 166.685 546.382 167.39 544.304 168.516C542.227 169.642 540.391 171.166 538.903 173.001Z" fill="url(#paint8_linear_303_704)"/>
<path d="M542.53 177.815C541.226 179.873 540.564 182.273 540.627 184.708C540.689 187.143 541.475 189.505 542.883 191.494C544.291 193.482 546.259 195.007 548.536 195.876C550.813 196.744 553.297 196.917 555.673 196.372C558.048 195.826 560.208 194.588 561.878 192.813C563.548 191.039 564.652 188.808 565.052 186.405C565.451 184.002 565.127 181.534 564.12 179.315C563.114 177.096 561.47 175.227 559.399 173.943C556.644 172.237 553.326 171.686 550.168 172.411C547.009 173.136 544.264 175.078 542.53 177.815Z" fill="white"/>
<path d="M529.044 326.777H612.524V267.303H529.044V326.777Z" fill="url(#paint9_linear_303_704)"/>
<path d="M519.862 276.215H621.707V266.012H519.862V276.215Z" fill="url(#paint10_linear_303_704)"/>
<path d="M483.85 334.541H621.686V324.338H483.85V334.541Z" fill="url(#paint11_linear_303_704)"/>
<path d="M599.858 288.178C597.62 290.922 596.248 294.268 595.914 297.792C595.58 301.317 596.3 304.86 597.983 307.975C599.666 311.09 602.235 313.636 605.366 315.29C608.497 316.944 612.049 317.632 615.571 317.268C619.094 316.903 622.429 315.502 625.154 313.241C627.879 310.98 629.872 307.962 630.88 304.569C631.888 301.175 631.866 297.559 630.817 294.178C629.768 290.798 627.738 287.804 624.986 285.577C621.305 282.598 616.594 281.2 611.884 281.688C607.174 282.175 602.849 284.509 599.858 288.178Z" fill="url(#paint12_linear_303_704)"/>
<path d="M603.998 292.071C602.69 294.155 602.029 296.58 602.1 299.04C602.171 301.499 602.97 303.882 604.397 305.887C605.823 307.892 607.812 309.429 610.113 310.304C612.414 311.179 614.922 311.352 617.321 310.801C619.72 310.251 621.902 309.001 623.59 307.21C625.278 305.42 626.397 303.169 626.805 300.743C627.213 298.317 626.892 295.824 625.882 293.58C624.873 291.336 623.22 289.442 621.133 288.138C619.75 287.27 618.209 286.683 616.599 286.411C614.989 286.139 613.341 286.187 611.75 286.553C610.158 286.918 608.654 287.594 607.324 288.54C605.994 289.487 604.864 290.687 603.998 292.071Z" fill="white"/>
<mask id="mask1_303_704" style="mask-type:luminance" maskUnits="userSpaceOnUse" x="448" y="84" width="184" height="250">
<path d="M448.72 144.893L472.024 141.123C472.538 136.038 474.171 131.129 476.806 126.749C479.442 122.369 483.014 118.626 487.267 115.789C491.52 112.951 496.349 111.09 501.406 110.337C506.464 109.585 511.626 109.961 516.521 111.437L531.688 88.4304C532.871 86.6139 534.725 85.3397 536.846 84.8867C538.966 84.4336 541.179 84.8386 543.002 86.013C543.906 86.6001 544.685 87.3597 545.295 88.2481C545.904 89.1366 546.333 90.1366 546.556 91.1908C546.778 92.245 546.791 93.3327 546.593 94.3918C546.394 95.4509 545.989 96.4605 545.4 97.3628L530.581 119.632C535.129 124.057 538.374 129.644 539.964 135.785C541.554 141.926 541.428 148.386 539.599 154.46L551.016 165.707C553.665 165.43 556.344 165.743 558.858 166.624C561.372 167.505 563.659 168.933 565.555 170.804C567.451 172.676 568.908 174.944 569.821 177.446C570.734 179.948 571.08 182.621 570.835 185.273L588.995 203.178H589.159V203.629L589.569 265.356H621.686V275.6H612.504V281.008C614.947 280.843 617.398 281.181 619.706 282.001C622.013 282.822 624.127 284.108 625.916 285.779C627.705 287.451 629.132 289.472 630.107 291.717C631.083 293.962 631.586 296.384 631.586 298.832C631.586 301.28 631.083 303.702 630.107 305.947C629.132 308.192 627.705 310.214 625.916 311.885C624.127 313.556 622.013 314.842 619.706 315.663C617.398 316.483 614.947 316.821 612.504 316.656V323.703H621.686V333.947H483.85V323.703H528.942V275.661H519.841V265.418H566.982L566.654 212.971L555.094 201.58C552.405 201.908 549.676 201.624 547.111 200.749C544.547 199.874 542.214 198.431 540.286 196.528C538.358 194.625 536.886 192.311 535.979 189.758C535.072 187.206 534.754 184.482 535.049 181.79L526.113 172.98C520.886 176.643 514.738 178.772 508.364 179.126L506.539 194.266L486.228 192.218L488.277 174.128C483.128 170.964 478.89 166.516 475.98 161.221L452.225 165.072L448.72 144.893Z" fill="white"/>
</mask>
<g mask="url(#mask1_303_704)">
<path opacity="0.16" d="M536.279 376.232C512.709 358.101 488.073 338.618 477.169 310.96C471.164 295.759 469.79 279.144 464.748 263.615C455.484 235.117 434.148 211.701 409.225 195.024C396.169 186.276 382.047 179.188 369.175 170.174C356.304 161.159 344.396 149.871 338.206 135.346C332.016 120.82 332.508 102.894 342.469 90.725C350.668 80.7068 363.97 76.0358 376.902 75.0114C398.751 73.311 420.661 80.8912 438.759 93.2449C456.857 105.599 471.43 122.5 483.851 140.529C518.981 191.542 537.796 251.753 554.439 311.391C556.98 320.466 559.501 329.686 559.399 339.11C559.296 348.534 556.263 358.326 549.151 364.595" fill="url(#paint13_linear_303_704)"/>
</g>
<path opacity="0.85" d="M264.031 241.304V73.7001C264.029 70.8713 264.691 68.0816 265.964 65.555C267.236 63.0283 269.084 60.8352 271.358 59.1517C273.632 57.4681 276.27 56.3412 279.059 55.8613C281.848 55.3815 284.71 55.562 287.417 56.3885L429.413 99.821C433.121 100.957 436.366 103.251 438.672 106.367C440.977 109.483 442.222 113.257 442.223 117.133V298.463" stroke="white" stroke-width="1.95" stroke-miterlimit="10" stroke-linecap="round"/>
<path opacity="0.85" d="M128.839 287.195V157.123C128.845 149.828 131.746 142.833 136.907 137.674C142.068 132.515 149.067 129.615 156.365 129.609H164.707C172.007 129.609 179.009 126.711 184.171 121.551C189.333 116.391 192.233 109.393 192.233 102.095C192.231 98.4787 192.941 94.897 194.325 91.5551C195.708 88.2133 197.737 85.1768 200.295 82.6195C202.854 80.0621 205.892 78.034 209.235 76.6513C212.578 75.2685 216.162 74.5581 219.78 74.5608H255.545C260.66 74.5608 265.566 76.5919 269.183 80.2073C272.8 83.8227 274.832 88.7262 274.832 93.8391V243.394" stroke="white" stroke-width="1.95" stroke-miterlimit="10" stroke-linecap="round"/>
<path opacity="0.85" d="M281.76 176.996V123.729H283.133C284.115 123.658 285.033 123.218 285.703 122.498C286.373 121.778 286.745 120.831 286.745 119.847C286.745 118.864 286.373 117.917 285.703 117.196C285.033 116.476 284.115 116.036 283.133 115.965H252.799C252.265 115.926 251.729 115.998 251.225 116.175C250.72 116.353 250.257 116.632 249.865 116.997C249.473 117.361 249.16 117.802 248.947 118.293C248.733 118.783 248.623 119.312 248.623 119.847C248.623 120.382 248.733 120.911 248.947 121.402C249.16 121.892 249.473 122.333 249.865 122.698C250.257 123.062 250.72 123.342 251.225 123.519C251.729 123.697 252.265 123.768 252.799 123.729H254.152V176.996C240.86 180.36 229.255 188.461 221.52 199.777C213.784 211.094 210.451 224.845 212.147 238.445C213.842 252.045 220.45 264.558 230.728 273.63C241.005 282.702 254.245 287.709 267.956 287.709C281.667 287.709 294.907 282.702 305.184 273.63C315.462 264.558 322.07 252.045 323.765 238.445C325.461 224.845 322.128 211.094 314.392 199.777C306.657 188.461 295.052 180.36 281.76 176.996Z" fill="white"/>
<path d="M216.706 230.979C216.706 244.563 222.104 257.59 231.713 267.195C241.323 276.8 254.356 282.197 267.946 282.197C281.535 282.197 294.568 276.8 304.178 267.195C313.787 257.59 319.186 244.563 319.186 230.979H216.706Z" fill="url(#paint14_linear_303_704)"/>
<path d="M258.108 212.5C258.112 213.984 257.675 215.435 256.853 216.671C256.031 217.907 254.861 218.871 253.491 219.442C252.121 220.012 250.612 220.164 249.155 219.877C247.699 219.59 246.36 218.877 245.309 217.83C244.258 216.782 243.541 215.446 243.25 213.991C242.959 212.536 243.106 211.027 243.674 209.656C244.241 208.284 245.202 207.112 246.436 206.287C247.67 205.462 249.121 205.022 250.606 205.022C252.592 205.022 254.497 205.809 255.903 207.211C257.309 208.613 258.102 210.515 258.108 212.5Z" fill="#00CCF4"/>
<path d="M268.294 195.475C272.437 195.475 275.796 192.118 275.796 187.977C275.796 183.836 272.437 180.479 268.294 180.479C264.151 180.479 260.792 183.836 260.792 187.977C260.792 192.118 264.151 195.475 268.294 195.475Z" fill="#00CCF4"/>
<path d="M284.096 209.099C284.117 210.209 283.805 211.299 283.201 212.231C282.597 213.162 281.729 213.892 280.708 214.327C279.686 214.762 278.558 214.882 277.468 214.672C276.377 214.462 275.374 213.932 274.588 213.148C273.801 212.365 273.266 211.365 273.052 210.276C272.838 209.186 272.954 208.058 273.386 207.036C273.817 206.013 274.544 205.142 275.474 204.535C276.403 203.928 277.493 203.613 278.603 203.629C280.05 203.65 281.432 204.232 282.457 205.253C283.482 206.274 284.07 207.653 284.096 209.099Z" fill="#00CCF4"/>
<path d="M373.746 155.116V142.741H258.046V155.116H373.746Z" fill="url(#paint15_linear_303_704)"/>
<path opacity="0.85" d="M491.762 311.698L453.906 246.139V216.495H456.365C457.103 216.433 457.79 216.097 458.291 215.552C458.793 215.008 459.071 214.295 459.071 213.555C459.071 212.815 458.793 212.102 458.291 211.558C457.79 211.013 457.103 210.677 456.365 210.615H433.43C432.692 210.677 432.005 211.013 431.504 211.558C431.003 212.102 430.724 212.815 430.724 213.555C430.724 214.295 431.003 215.008 431.504 215.552C432.005 216.097 432.692 216.433 433.43 216.495H435.89V246.18L398.054 311.739C397.383 312.893 397.028 314.203 397.026 315.538C397.024 316.872 397.375 318.184 398.042 319.34C398.71 320.495 399.671 321.454 400.828 322.12C401.985 322.786 403.298 323.134 404.633 323.13H485.162C486.503 323.135 487.821 322.787 488.983 322.119C490.145 321.451 491.11 320.489 491.78 319.328C492.45 318.167 492.802 316.85 492.798 315.51C492.795 314.17 492.437 312.855 491.762 311.698Z" fill="white"/>
<mask id="mask2_303_704" style="mask-type:luminance" maskUnits="userSpaceOnUse" x="404" y="227" width="82" height="93">
<path d="M484.67 308.522L452.532 252.797V227.435H437.242V254.068L405.105 309.71C404.54 310.691 404.244 311.804 404.246 312.935C404.247 314.067 404.546 315.178 405.113 316.158C405.68 317.138 406.495 317.951 407.475 318.517C408.456 319.082 409.568 319.38 410.7 319.38H479.075C484.055 319.319 487.15 313.931 484.67 308.522Z" fill="white"/>
</mask>
<g mask="url(#mask2_303_704)">
<path d="M420.128 278.714C427.015 279.246 433.533 281.951 440.194 283.856C446.855 285.761 454.172 286.806 460.567 284.143C465.609 282.094 470.241 277.628 475.632 278.509C481.575 279.451 484.486 286.13 486.146 291.907C489.733 304.2 492.295 318.274 486.146 329.624C479.997 340.974 466.244 346.649 453.352 348.923C440.46 351.197 426.175 351.135 413.877 346.116C401.579 341.097 390.881 330.771 387.765 317.803C383.133 298.238 399.53 277.136 420.128 278.714Z" fill="url(#paint16_linear_303_704)"/>
</g>
<mask id="mask3_303_704" style="mask-type:luminance" maskUnits="userSpaceOnUse" x="397" y="210" width="96" height="114">
<path d="M491.761 311.698L453.905 246.139V216.495H456.365C457.103 216.433 457.79 216.096 458.291 215.552C458.792 215.007 459.071 214.295 459.071 213.555C459.071 212.815 458.792 212.102 458.291 211.557C457.79 211.013 457.103 210.676 456.365 210.615H433.43C432.692 210.676 432.005 211.013 431.503 211.557C431.002 212.102 430.724 212.815 430.724 213.555C430.724 214.295 431.002 215.007 431.503 215.552C432.005 216.096 432.692 216.433 433.43 216.495H435.889V246.18L398.054 311.739C397.383 312.892 397.028 314.203 397.026 315.537C397.024 316.872 397.374 318.183 398.042 319.339C398.709 320.495 399.671 321.454 400.828 322.12C401.985 322.785 403.298 323.134 404.633 323.129H485.162C486.502 323.135 487.82 322.786 488.983 322.119C490.145 321.451 491.11 320.488 491.78 319.328C492.45 318.167 492.801 316.85 492.798 315.51C492.795 314.17 492.437 312.855 491.761 311.698Z" fill="white"/>
</mask>
<g mask="url(#mask3_303_704)">
<path d="M402.727 351.606C405.986 326.694 425.846 307.969 439.497 286.888C455.668 261.914 455.668 238.416 463.784 214.651C465.663 210.168 466.409 205.292 465.957 200.453C464.748 192.853 458.004 186.829 450.462 185.231C446.658 184.586 442.764 184.7 439.003 185.564C435.243 186.429 431.691 188.029 428.552 190.271C422.295 194.79 417 200.507 412.975 207.091C399.324 227.783 392.479 252.162 388.502 276.747C386.233 288.548 385.591 300.604 386.596 312.579C387.97 324.482 392.192 336.344 400.247 345.235" fill="url(#paint17_linear_303_704)"/>
</g>
<path d="M363.232 99.7595H365.65C368.265 99.7595 370.772 100.798 372.621 102.646C374.47 104.494 375.509 107 375.509 109.614V334.131H353.353V109.614C353.353 107 354.391 104.494 356.24 102.646C358.089 100.798 360.596 99.7595 363.211 99.7595H363.232Z" fill="url(#paint18_linear_303_704)"/>
<path d="M364.441 165.769C375.217 165.769 383.953 157.037 383.953 146.265C383.953 135.494 375.217 126.762 364.441 126.762C353.664 126.762 344.928 135.494 344.928 146.265C344.928 157.037 353.664 165.769 364.441 165.769Z" fill="url(#paint19_linear_303_704)"/>
<path opacity="0.9" d="M377.415 146.265C377.415 148.83 376.654 151.337 375.228 153.47C373.803 155.603 371.776 157.265 369.406 158.246C367.035 159.228 364.426 159.485 361.91 158.984C359.393 158.484 357.081 157.249 355.267 155.435C353.452 153.621 352.217 151.311 351.716 148.795C351.215 146.28 351.472 143.672 352.454 141.302C353.436 138.933 355.099 136.907 357.233 135.482C359.366 134.057 361.875 133.297 364.441 133.297C366.145 133.294 367.834 133.628 369.409 134.279C370.984 134.929 372.415 135.884 373.621 137.089C374.826 138.294 375.782 139.725 376.433 141.299C377.084 142.874 377.417 144.561 377.415 146.265Z" fill="white"/>
<path d="M383.809 323.498C383.272 318.74 381 314.345 377.428 311.155C373.855 307.964 369.232 306.2 364.441 306.2C359.65 306.2 355.027 307.964 351.454 311.155C347.881 314.345 345.609 318.74 345.072 323.498H383.809Z" fill="url(#paint20_linear_303_704)"/>
<path d="M500.062 334.561V322.187H272.68V334.561H500.062Z" fill="url(#paint21_linear_303_704)"/>
<g opacity="0.85">
<path opacity="0.85" d="M118.735 307.313C118.67 308.824 118.912 310.332 119.446 311.747C119.979 313.161 120.794 314.454 121.84 315.545C122.887 316.637 124.144 317.506 125.535 318.099C126.926 318.693 128.423 318.999 129.936 318.999C131.448 318.999 132.945 318.693 134.337 318.099C135.728 317.506 136.984 316.637 138.031 315.545C139.077 314.454 139.892 313.161 140.426 311.747C140.96 310.332 141.201 308.824 141.137 307.313V195.434H118.735V307.313Z" fill="white"/>
<path opacity="0.85" d="M141.465 191.746H118.694C117.686 191.746 116.87 192.563 116.87 193.57V193.631C116.87 194.638 117.686 195.454 118.694 195.454H141.465C142.472 195.454 143.289 194.638 143.289 193.631V193.57C143.289 192.563 142.472 191.746 141.465 191.746Z" fill="white"/>
</g>
<path d="M129.967 315.181C132.383 315.023 134.639 313.915 136.241 312.099C137.842 310.283 138.659 307.907 138.513 305.49V276.809H121.42V305.49C121.274 307.907 122.091 310.283 123.692 312.099C125.294 313.915 127.55 315.023 129.967 315.181Z" fill="url(#paint22_linear_303_704)"/>
<path d="M132.713 245.566C132.552 244.959 132.575 244.318 132.778 243.724C132.981 243.13 133.356 242.61 133.855 242.229C134.354 241.848 134.954 241.623 135.581 241.583C136.208 241.543 136.832 241.69 137.376 242.004C137.919 242.318 138.357 242.787 138.634 243.35C138.911 243.913 139.016 244.546 138.933 245.168C138.851 245.79 138.586 246.374 138.172 246.846C137.758 247.318 137.214 247.656 136.607 247.819C136.203 247.93 135.782 247.96 135.366 247.907C134.951 247.853 134.55 247.718 134.188 247.508C133.825 247.298 133.508 247.018 133.255 246.685C133.002 246.351 132.818 245.971 132.713 245.566Z" fill="url(#paint23_linear_303_704)"/>
<path d="M135.89 256.301C136.173 257.394 136.125 258.547 135.753 259.614C135.381 260.68 134.701 261.613 133.799 262.293C132.897 262.974 131.814 263.372 130.686 263.438C129.558 263.504 128.435 263.234 127.461 262.662C126.486 262.091 125.702 261.243 125.209 260.227C124.716 259.211 124.535 258.071 124.689 256.952C124.843 255.833 125.325 254.785 126.075 253.94C126.824 253.095 127.808 252.49 128.901 252.203C129.629 252.009 130.388 251.962 131.135 252.063C131.882 252.164 132.601 252.413 133.251 252.794C133.901 253.175 134.469 253.681 134.922 254.283C135.375 254.885 135.704 255.571 135.89 256.301Z" fill="url(#paint24_linear_303_704)"/>
<path d="M130.766 270.58C130.959 271.317 130.93 272.094 130.682 272.814C130.433 273.534 129.977 274.164 129.371 274.624C128.764 275.085 128.035 275.356 127.275 275.403C126.514 275.449 125.757 275.269 125.099 274.886C124.441 274.503 123.911 273.933 123.577 273.249C123.243 272.565 123.119 271.797 123.22 271.043C123.322 270.288 123.646 269.581 124.15 269.01C124.654 268.439 125.316 268.03 126.052 267.835C127.041 267.579 128.092 267.723 128.975 268.238C129.857 268.752 130.501 269.594 130.766 270.58Z" fill="url(#paint25_linear_303_704)"/>
<path d="M132.754 225.919C132.909 226.478 132.894 227.071 132.711 227.621C132.528 228.172 132.186 228.656 131.727 229.012C131.269 229.368 130.715 229.58 130.136 229.621C129.557 229.662 128.979 229.53 128.475 229.243C127.971 228.955 127.564 228.524 127.305 228.004C127.046 227.485 126.948 226.9 127.022 226.325C127.096 225.749 127.34 225.209 127.722 224.772C128.104 224.335 128.607 224.021 129.167 223.87C129.915 223.669 130.711 223.771 131.383 224.155C132.055 224.539 132.548 225.173 132.754 225.919Z" fill="url(#paint26_linear_303_704)"/>
<path d="M129.967 214.958C130.003 215.082 130.014 215.212 129.999 215.34C129.983 215.468 129.942 215.592 129.876 215.704C129.811 215.815 129.723 215.912 129.619 215.988C129.515 216.064 129.396 216.118 129.27 216.146C129.147 216.181 129.019 216.19 128.893 216.175C128.767 216.159 128.645 216.119 128.534 216.056C128.424 215.993 128.327 215.909 128.249 215.808C128.171 215.708 128.114 215.593 128.081 215.47C128.018 215.218 128.055 214.951 128.185 214.725C128.315 214.5 128.527 214.333 128.778 214.262C129.027 214.204 129.29 214.244 129.51 214.374C129.731 214.503 129.895 214.712 129.967 214.958Z" fill="url(#paint27_linear_303_704)"/>
<path d="M127.507 207.337C127.583 207.615 127.574 207.908 127.482 208.181C127.39 208.454 127.219 208.693 126.991 208.869C126.763 209.045 126.488 209.149 126.201 209.168C125.914 209.188 125.627 209.122 125.378 208.978C125.128 208.835 124.927 208.621 124.799 208.363C124.671 208.105 124.622 207.815 124.66 207.53C124.697 207.244 124.818 206.976 125.007 206.76C125.197 206.543 125.446 206.387 125.724 206.313C126.097 206.212 126.493 206.264 126.828 206.456C127.162 206.648 127.407 206.965 127.507 207.337Z" fill="url(#paint28_linear_303_704)"/>
<g opacity="0.85">
<path opacity="0.85" d="M51.8564 307.313C51.7918 308.824 52.0336 310.332 52.5674 311.747C53.1011 313.161 53.9158 314.454 54.9622 315.545C56.0087 316.637 57.2654 317.506 58.6566 318.099C60.0479 318.693 61.5449 318.999 63.0575 318.999C64.5701 318.999 66.0671 318.693 67.4584 318.099C68.8496 317.506 70.1063 316.637 71.1528 315.545C72.1992 314.454 73.0139 313.161 73.5476 311.747C74.0814 310.332 74.3232 308.824 74.2586 307.313V195.434H51.8564V307.313Z" fill="white"/>
<path opacity="0.85" d="M74.5454 191.746H51.7743C50.7669 191.746 49.9502 192.563 49.9502 193.57V193.631C49.9502 194.638 50.7669 195.454 51.7743 195.454H74.5454C75.5528 195.454 76.3695 194.638 76.3695 193.631V193.57C76.3695 192.563 75.5528 191.746 74.5454 191.746Z" fill="white"/>
</g>
<path d="M63.0473 315.181C65.464 315.023 67.7198 313.914 69.3214 312.098C70.923 310.283 71.7401 307.907 71.5941 305.49V237.432H54.5209V305.49C54.3747 307.903 55.1891 310.276 56.7863 312.092C58.3836 313.907 60.6342 315.017 63.0473 315.181Z" fill="url(#paint29_linear_303_704)"/>
<path d="M63.0471 214.958C63.0842 215.08 63.096 215.209 63.0817 215.336C63.0675 215.463 63.0275 215.586 62.9642 215.697C62.901 215.809 62.8157 215.906 62.7137 215.983C62.6116 216.06 62.4949 216.116 62.3707 216.146C62.1207 216.216 61.8533 216.184 61.6268 216.057C61.4003 215.93 61.2331 215.72 61.1614 215.47C61.0982 215.218 61.1355 214.951 61.2655 214.725C61.3955 214.5 61.6081 214.333 61.8583 214.261C62.1082 214.199 62.3728 214.237 62.5951 214.367C62.8174 214.497 62.9797 214.709 63.0471 214.958Z" fill="url(#paint30_linear_303_704)"/>
<path d="M60.5875 207.337C60.6726 207.704 60.612 208.09 60.4183 208.413C60.2247 208.736 59.9131 208.972 59.5493 209.07C59.1854 209.168 58.7976 209.121 58.4675 208.939C58.1374 208.758 57.8908 208.455 57.7795 208.095C57.727 207.911 57.7119 207.718 57.7353 207.527C57.7586 207.337 57.8199 207.154 57.9154 206.987C58.0109 206.821 58.1388 206.676 58.2915 206.56C58.4442 206.444 58.6185 206.36 58.8043 206.313C59.1766 206.212 59.5736 206.264 59.9079 206.456C60.2423 206.648 60.4867 206.965 60.5875 207.337Z" fill="url(#paint31_linear_303_704)"/>
<path d="M66.921 227.189C67.0564 227.706 67.0358 228.251 66.8617 228.756C66.6876 229.261 66.3678 229.703 65.9426 230.026C65.5175 230.35 65.006 230.54 64.4727 230.574C63.9394 230.607 63.4082 230.482 62.946 230.214C62.4839 229.946 62.1115 229.547 61.8758 229.067C61.6401 228.588 61.5517 228.05 61.6217 227.52C61.6917 226.991 61.917 226.494 62.2692 226.092C62.6214 225.69 63.0846 225.402 63.6006 225.263C64.2963 225.082 65.0355 225.182 65.6574 225.543C66.2793 225.904 66.7335 226.495 66.921 227.189Z" fill="url(#paint32_linear_303_704)"/>
<g opacity="0.85">
<path opacity="0.9" d="M86.3716 306.74C86.3069 308.251 86.5487 309.759 87.0825 311.173C87.6163 312.588 88.4309 313.88 89.4774 314.972C90.5239 316.064 91.7806 316.932 93.1718 317.526C94.563 318.119 96.06 318.425 97.5726 318.425C99.0853 318.425 100.582 318.119 101.973 317.526C103.365 316.932 104.621 316.064 105.668 314.972C106.714 313.88 107.529 312.588 108.063 311.173C108.597 309.759 108.838 308.251 108.774 306.74V194.901H86.3716V306.74Z" fill="white"/>
<path opacity="0.9" d="M109.061 191.173H86.2897C85.2823 191.173 84.4656 191.989 84.4656 192.996V193.058C84.4656 194.065 85.2823 194.881 86.2897 194.881H109.061C110.068 194.881 110.885 194.065 110.885 193.058V192.996C110.885 191.989 110.068 191.173 109.061 191.173Z" fill="white"/>
</g>
<path d="M97.5829 314.607C99.9959 314.444 102.247 313.334 103.844 311.518C105.441 309.703 106.255 307.33 106.109 304.917V251.814H89.036V304.917C88.8954 307.332 89.7145 309.705 91.315 311.519C92.9155 313.334 95.1681 314.444 97.5829 314.607Z" fill="url(#paint33_linear_303_704)"/>
<path d="M100.289 244.992C100.128 244.385 100.15 243.745 100.354 243.151C100.557 242.557 100.932 242.037 101.431 241.656C101.929 241.274 102.53 241.05 103.157 241.01C103.783 240.97 104.408 241.116 104.951 241.431C105.495 241.745 105.933 242.213 106.21 242.776C106.487 243.34 106.591 243.972 106.509 244.594C106.427 245.217 106.162 245.801 105.748 246.272C105.334 246.744 104.789 247.083 104.183 247.246C103.779 247.354 103.358 247.382 102.944 247.327C102.529 247.272 102.13 247.136 101.768 246.927C101.406 246.717 101.089 246.439 100.835 246.107C100.581 245.775 100.396 245.396 100.289 244.992Z" fill="url(#paint34_linear_303_704)"/>
<path d="M100.288 225.345C100.443 225.904 100.428 226.497 100.245 227.048C100.063 227.598 99.7202 228.082 99.2618 228.439C98.8035 228.795 98.2496 229.007 97.6706 229.048C97.0915 229.089 96.5133 228.957 96.0093 228.669C95.5052 228.381 95.0981 227.95 94.8394 227.43C94.5808 226.911 94.4823 226.326 94.5565 225.751C94.6307 225.175 94.8741 224.635 95.2561 224.198C95.638 223.761 96.1411 223.447 96.7017 223.296C97.0718 223.194 97.4585 223.166 97.8395 223.213C98.2205 223.261 98.5884 223.384 98.9218 223.574C99.2552 223.765 99.5476 224.019 99.7821 224.323C100.017 224.627 100.189 224.974 100.288 225.345Z" fill="url(#paint35_linear_303_704)"/>
<path d="M97.5828 214.385C97.6402 214.634 97.6 214.896 97.4704 215.117C97.3409 215.338 97.1318 215.501 96.886 215.573C96.7561 215.627 96.6161 215.652 96.4755 215.648C96.3349 215.643 96.1969 215.608 96.0709 215.546C95.9449 215.483 95.8338 215.394 95.7451 215.285C95.6563 215.176 95.592 215.049 95.5565 214.913C95.521 214.777 95.5151 214.635 95.5392 214.496C95.5633 214.358 95.6169 214.226 95.6962 214.11C95.7756 213.994 95.879 213.896 95.9994 213.823C96.1197 213.751 96.2543 213.704 96.3941 213.688C96.6437 213.631 96.9058 213.671 97.1268 213.8C97.3478 213.93 97.5109 214.139 97.5828 214.385Z" fill="url(#paint36_linear_303_704)"/>
<path d="M95.103 206.763C95.1783 207.041 95.1694 207.335 95.0775 207.608C94.9856 207.88 94.8149 208.12 94.5869 208.296C94.3589 208.471 94.0839 208.575 93.7967 208.595C93.5094 208.614 93.2229 208.548 92.9733 208.405C92.7237 208.261 92.5222 208.047 92.3944 207.789C92.2666 207.531 92.2182 207.241 92.2553 206.956C92.2924 206.671 92.4134 206.403 92.6029 206.186C92.7924 205.969 93.0419 205.814 93.3199 205.739C93.6922 205.639 94.0891 205.69 94.4235 205.882C94.7578 206.074 95.0022 206.391 95.103 206.763Z" fill="url(#paint37_linear_303_704)"/>
<path d="M40.5427 215.921C40.5289 215.337 40.6331 214.756 40.8491 214.213C41.0651 213.67 41.3886 213.176 41.8 212.761C42.2114 212.346 42.7024 212.018 43.2435 211.797C43.7847 211.576 44.3649 211.467 44.9494 211.475H176.124V220.162H44.9494C43.8039 220.178 42.6982 219.742 41.873 218.948C41.0477 218.154 40.5696 217.066 40.5427 215.921Z" fill="url(#paint38_linear_303_704)"/>
<path d="M168.663 167.961H170.364C171.281 167.958 172.189 168.137 173.036 168.488C173.883 168.839 174.652 169.354 175.298 170.004C175.944 170.653 176.455 171.425 176.801 172.273C177.147 173.122 177.321 174.031 177.312 174.947V332.697H161.776V174.947C161.768 174.036 161.94 173.132 162.282 172.288C162.624 171.443 163.129 170.674 163.769 170.025C164.409 169.376 165.171 168.86 166.01 168.506C166.85 168.151 167.752 167.966 168.663 167.961Z" fill="url(#paint39_linear_303_704)"/>
<path d="M183.236 213.873C183.236 216.583 182.431 219.233 180.925 221.487C179.418 223.741 177.277 225.498 174.771 226.535C172.266 227.572 169.509 227.844 166.849 227.315C164.189 226.786 161.746 225.481 159.828 223.564C157.91 221.647 156.605 219.205 156.075 216.546C155.546 213.888 155.818 211.132 156.856 208.628C157.894 206.123 159.651 203.983 161.906 202.477C164.161 200.971 166.812 200.167 169.524 200.167C173.16 200.167 176.648 201.611 179.22 204.181C181.791 206.751 183.236 210.238 183.236 213.873Z" fill="url(#paint40_linear_303_704)"/>
<path opacity="0.9" d="M178.665 213.872C178.665 215.679 178.129 217.446 177.124 218.949C176.12 220.451 174.692 221.622 173.022 222.314C171.351 223.006 169.513 223.187 167.74 222.834C165.967 222.481 164.338 221.611 163.06 220.333C161.781 219.055 160.911 217.427 160.558 215.655C160.205 213.882 160.386 212.045 161.078 210.376C161.77 208.706 162.942 207.279 164.445 206.275C165.948 205.271 167.716 204.735 169.524 204.735C171.948 204.735 174.273 205.698 175.987 207.411C177.702 209.125 178.665 211.449 178.665 213.872Z" fill="white"/>
<path d="M183.133 325.219C182.725 321.899 181.116 318.842 178.609 316.626C176.102 314.409 172.871 313.186 169.524 313.186C166.177 313.186 162.946 314.409 160.439 316.626C157.932 318.842 156.323 321.899 155.915 325.219H183.133Z" fill="url(#paint41_linear_303_704)"/>
<path d="M205.474 333.005V324.318H105.023V333.005H205.474Z" fill="url(#paint42_linear_303_704)"/>
<g style="mix-blend-mode:color-dodge">
<path d="M431.463 78.2482C429.13 78.2522 426.849 77.5656 424.907 76.275C422.964 74.9844 421.448 73.1476 420.549 70.9965C419.65 68.8454 419.409 66.4763 419.855 64.1881C420.302 61.9 421.416 59.7953 423.058 58.1397C424.701 56.4841 426.796 55.3518 429.082 54.8856C431.367 54.4194 433.739 54.6402 435.899 55.5202C438.058 56.4002 439.909 57.8999 441.217 59.8301C442.525 61.7603 443.232 64.0345 443.248 66.3658C443.259 67.9206 442.962 69.4622 442.375 70.9021C441.788 72.3419 440.922 73.6516 439.826 74.7558C438.731 75.86 437.429 76.737 435.993 77.3363C434.558 77.9357 433.018 78.2456 431.463 78.2482ZM431.463 56.491C429.484 56.4911 427.55 57.079 425.907 58.1799C424.263 59.2808 422.984 60.8451 422.231 62.6741C421.479 64.5032 421.288 66.5145 421.681 68.4526C422.075 70.3908 423.035 72.1683 424.442 73.5594C425.848 74.9506 427.636 75.8927 429.579 76.266C431.522 76.6393 433.532 76.4271 435.354 75.6562C437.176 74.8853 438.728 73.5906 439.812 71.9364C440.896 70.2823 441.464 68.3433 441.444 66.3658C441.417 63.7375 440.354 61.226 438.485 59.377C436.616 57.528 434.092 56.4909 431.463 56.491Z" fill="url(#paint43_linear_303_704)"/>
<path d="M322.362 116.006C320.031 116.006 317.753 115.315 315.815 114.021C313.877 112.726 312.366 110.886 311.474 108.734C310.582 106.581 310.349 104.213 310.804 101.928C311.258 99.6426 312.381 97.5436 314.029 95.8961C315.677 94.2486 317.777 93.1267 320.063 92.6722C322.349 92.2176 324.719 92.4509 326.872 93.3425C329.026 94.2341 330.866 95.744 332.161 97.6812C333.456 99.6184 334.148 101.896 334.148 104.226C334.142 107.348 332.899 110.342 330.69 112.55C328.481 114.758 325.486 116 322.362 116.006ZM322.362 94.2487C320.388 94.2487 318.458 94.8338 316.817 95.9301C315.175 97.0264 313.896 98.5846 313.141 100.408C312.385 102.231 312.187 104.237 312.573 106.172C312.958 108.108 313.908 109.885 315.304 111.281C316.7 112.676 318.479 113.626 320.415 114.011C322.351 114.396 324.358 114.199 326.182 113.444C328.006 112.688 329.565 111.41 330.662 109.769C331.759 108.128 332.344 106.199 332.344 104.226C332.344 101.58 331.292 99.042 329.42 97.1709C327.548 95.2998 325.01 94.2487 322.362 94.2487Z" fill="url(#paint44_linear_303_704)"/>
<path d="M464.707 110.167C463.76 110.162 462.844 109.829 462.115 109.225C461.386 108.621 460.889 107.784 460.707 106.855C460.526 105.926 460.672 104.963 461.12 104.129C461.569 103.296 462.292 102.643 463.167 102.282C464.042 101.921 465.016 101.874 465.922 102.149C466.828 102.424 467.61 103.004 468.137 103.791C468.664 104.577 468.902 105.522 468.811 106.464C468.72 107.406 468.305 108.287 467.638 108.958C467.254 109.344 466.797 109.65 466.294 109.857C465.791 110.065 465.251 110.17 464.707 110.167ZM464.707 102.525C463.896 102.526 463.111 102.808 462.484 103.323C461.858 103.838 461.43 104.553 461.272 105.348C461.115 106.144 461.238 106.969 461.621 107.683C462.004 108.397 462.622 108.957 463.372 109.267C464.121 109.576 464.955 109.616 465.73 109.38C466.506 109.144 467.176 108.647 467.626 107.973C468.076 107.299 468.278 106.489 468.198 105.683C468.118 104.876 467.761 104.123 467.187 103.55C466.861 103.225 466.474 102.967 466.049 102.791C465.623 102.615 465.167 102.525 464.707 102.525Z" fill="url(#paint45_linear_303_704)"/>
<path d="M408.773 160.422C409.307 160.954 409.67 161.633 409.817 162.373C409.964 163.112 409.889 163.878 409.6 164.574C409.312 165.271 408.823 165.866 408.196 166.285C407.569 166.704 406.832 166.927 406.078 166.927C405.324 166.927 404.587 166.704 403.96 166.285C403.333 165.866 402.844 165.271 402.556 164.574C402.267 163.878 402.192 163.112 402.339 162.373C402.486 161.633 402.85 160.954 403.383 160.422C404.098 159.707 405.067 159.306 406.078 159.306C407.089 159.306 408.058 159.707 408.773 160.422Z" fill="url(#paint46_linear_303_704)"/>
<mask id="mask4_303_704" style="mask-type:luminance" maskUnits="userSpaceOnUse" x="402" y="159" width="8" height="8">
<path d="M408.773 160.422C409.307 160.954 409.67 161.633 409.817 162.373C409.964 163.112 409.889 163.878 409.6 164.574C409.312 165.271 408.823 165.866 408.196 166.285C407.569 166.704 406.832 166.927 406.078 166.927C405.324 166.927 404.587 166.704 403.96 166.285C403.333 165.866 402.844 165.271 402.556 164.574C402.267 163.878 402.192 163.112 402.339 162.373C402.486 161.633 402.85 160.954 403.383 160.422C404.098 159.707 405.067 159.306 406.078 159.306C407.089 159.306 408.058 159.707 408.773 160.422Z" fill="white"/>
</mask>
<g mask="url(#mask4_303_704)">
<path d="M401.886 164.335L404.878 167.326H401.886V164.335Z" fill="url(#paint47_linear_303_704)"/>
<path d="M403.669 158.947L410.269 165.543V167.326H404.879L401.886 164.335V158.947H403.669Z" fill="url(#paint48_linear_303_704)"/>
<path d="M410.269 165.543L403.669 158.947H410.269V165.543Z" fill="url(#paint49_linear_303_704)"/>
</g>
<path d="M543.596 63.4362C544.129 63.9691 544.492 64.6481 544.64 65.3873C544.787 66.1265 544.711 66.8927 544.423 67.5891C544.134 68.2855 543.646 68.8807 543.019 69.2994C542.392 69.7182 541.655 69.9417 540.901 69.9417C540.147 69.9417 539.41 69.7182 538.783 69.2994C538.156 68.8807 537.667 68.2855 537.378 67.5891C537.09 66.8927 537.015 66.1265 537.162 65.3873C537.309 64.6481 537.672 63.9691 538.205 63.4362C538.92 62.7219 539.89 62.3206 540.901 62.3206C541.911 62.3206 542.881 62.7219 543.596 63.4362Z" fill="url(#paint50_linear_303_704)"/>
<mask id="mask5_303_704" style="mask-type:luminance" maskUnits="userSpaceOnUse" x="537" y="62" width="8" height="8">
<path d="M543.596 63.4362C544.129 63.9691 544.492 64.6481 544.64 65.3873C544.787 66.1265 544.711 66.8927 544.423 67.5891C544.134 68.2855 543.646 68.8807 543.019 69.2994C542.392 69.7182 541.655 69.9417 540.901 69.9417C540.147 69.9417 539.41 69.7182 538.783 69.2994C538.156 68.8807 537.667 68.2855 537.378 67.5891C537.09 66.8927 537.015 66.1265 537.162 65.3873C537.309 64.6481 537.672 63.9691 538.205 63.4362C538.92 62.7219 539.89 62.3206 540.901 62.3206C541.911 62.3206 542.881 62.7219 543.596 63.4362Z" fill="white"/>
</mask>
<g mask="url(#mask5_303_704)">
<path d="M536.709 67.3491L539.681 70.3197H536.709V67.3491Z" fill="url(#paint51_linear_303_704)"/>
<path d="M538.472 61.9404L545.092 68.5577V70.3196H539.681L536.709 67.349V61.9404H538.472Z" fill="url(#paint52_linear_303_704)"/>
<path d="M545.093 68.5577L538.473 61.9404H545.093V68.5577Z" fill="url(#paint53_linear_303_704)"/>
</g>
<path d="M158.21 106.029C158.743 106.562 159.106 107.241 159.254 107.98C159.401 108.719 159.325 109.485 159.037 110.182C158.748 110.878 158.26 111.473 157.633 111.892C157.006 112.311 156.269 112.534 155.515 112.534C154.761 112.534 154.023 112.311 153.397 111.892C152.77 111.473 152.281 110.878 151.992 110.182C151.704 109.485 151.629 108.719 151.776 107.98C151.923 107.241 152.286 106.562 152.819 106.029C153.534 105.314 154.504 104.913 155.515 104.913C156.526 104.913 157.495 105.314 158.21 106.029Z" fill="url(#paint54_linear_303_704)"/>
<mask id="mask6_303_704" style="mask-type:luminance" maskUnits="userSpaceOnUse" x="151" y="104" width="9" height="9">
<path d="M158.21 106.029C158.743 106.562 159.106 107.241 159.254 107.98C159.401 108.719 159.325 109.485 159.037 110.182C158.748 110.878 158.26 111.473 157.633 111.892C157.006 112.311 156.269 112.534 155.515 112.534C154.761 112.534 154.023 112.311 153.397 111.892C152.77 111.473 152.281 110.878 151.992 110.182C151.704 109.485 151.629 108.719 151.776 107.98C151.923 107.241 152.286 106.562 152.819 106.029C153.534 105.314 154.504 104.913 155.515 104.913C156.526 104.913 157.495 105.314 158.21 106.029Z" fill="white"/>
</mask>
<g mask="url(#mask6_303_704)">
<path d="M151.323 109.941L154.316 112.933H151.323V109.941Z" fill="url(#paint55_linear_303_704)"/>
<path d="M153.106 104.533L159.706 111.15V112.933H154.316L151.323 109.942V104.533H153.106Z" fill="url(#paint56_linear_303_704)"/>
<path d="M159.706 111.15L153.106 104.533H159.706V111.15Z" fill="url(#paint57_linear_303_704)"/>
</g>
<path d="M223.51 131.617C225.615 131.617 227.322 129.911 227.322 127.806C227.322 125.702 225.615 123.996 223.51 123.996C221.405 123.996 219.698 125.702 219.698 127.806C219.698 129.911 221.405 131.617 223.51 131.617Z" fill="url(#paint58_linear_303_704)"/>
<mask id="mask7_303_704" style="mask-type:luminance" maskUnits="userSpaceOnUse" x="219" y="123" width="9" height="9">
<path d="M223.51 131.617C225.615 131.617 227.322 129.911 227.322 127.806C227.322 125.702 225.615 123.996 223.51 123.996C221.405 123.996 219.698 125.702 219.698 127.806C219.698 129.911 221.405 131.617 223.51 131.617Z" fill="white"/>
</mask>
<g mask="url(#mask7_303_704)">
<path d="M219.329 129.015L222.301 131.986H219.329V129.015Z" fill="url(#paint59_linear_303_704)"/>
<path d="M221.092 123.606L227.712 130.224V131.986H222.301L219.329 129.015V123.606H221.092Z" fill="url(#paint60_linear_303_704)"/>
<path d="M227.712 130.224L221.092 123.606H227.712V130.224Z" fill="url(#paint61_linear_303_704)"/>
</g>
<path d="M43.9858 177.651C44.519 178.184 44.8822 178.863 45.0294 179.602C45.1766 180.342 45.1012 181.108 44.8127 181.804C44.5242 182.501 44.0356 183.096 43.4086 183.515C42.7817 183.933 42.0446 184.157 41.2905 184.157C40.5365 184.157 39.7994 183.933 39.1724 183.515C38.5455 183.096 38.0568 182.501 37.7683 181.804C37.4798 181.108 37.4044 180.342 37.5516 179.602C37.6988 178.863 38.062 178.184 38.5953 177.651C38.9479 177.295 39.3677 177.012 39.8303 176.819C40.2929 176.626 40.7892 176.527 41.2905 176.527C41.7918 176.527 42.2881 176.626 42.7508 176.819C43.2134 177.012 43.6332 177.295 43.9858 177.651Z" fill="url(#paint62_linear_303_704)"/>
<mask id="mask8_303_704" style="mask-type:luminance" maskUnits="userSpaceOnUse" x="37" y="176" width="9" height="9">
<path d="M43.9858 177.651C44.519 178.184 44.8822 178.863 45.0294 179.602C45.1766 180.342 45.1012 181.108 44.8127 181.804C44.5242 182.501 44.0356 183.096 43.4086 183.515C42.7817 183.933 42.0446 184.157 41.2905 184.157C40.5365 184.157 39.7994 183.933 39.1724 183.515C38.5455 183.096 38.0568 182.501 37.7683 181.804C37.4798 181.108 37.4044 180.342 37.5516 179.602C37.6988 178.863 38.062 178.184 38.5953 177.651C38.9479 177.295 39.3677 177.012 39.8303 176.819C40.2929 176.626 40.7892 176.527 41.2905 176.527C41.7918 176.527 42.2881 176.626 42.7508 176.819C43.2134 177.012 43.6332 177.295 43.9858 177.651Z" fill="white"/>
</mask>
<g mask="url(#mask8_303_704)">
<path d="M37.0991 181.544L40.0915 184.535H37.0991V181.544Z" fill="url(#paint63_linear_303_704)"/>
<path d="M38.8823 176.156L45.482 182.753V184.535H40.0915L37.0991 181.544V176.156H38.8823Z" fill="url(#paint64_linear_303_704)"/>
<path d="M45.482 182.753L38.8823 176.156H45.482V182.753Z" fill="url(#paint65_linear_303_704)"/>
</g>
<path d="M504.592 82.243C502.84 82.243 501.127 81.7234 499.671 80.75C498.214 79.7766 497.079 78.3932 496.41 76.7748C495.74 75.1564 495.566 73.3758 495.909 71.6585C496.253 69.9411 497.098 68.3641 498.338 67.1272C499.579 65.8903 501.158 65.049 502.877 64.7098C504.596 64.3706 506.377 64.5488 507.995 65.2218C509.612 65.8948 510.994 67.0324 511.964 68.4905C512.935 69.9487 513.45 71.6618 513.446 73.4131C513.446 74.5744 513.217 75.7243 512.772 76.7969C512.327 77.8695 511.674 78.8439 510.852 79.6641C510.029 80.4843 509.053 81.1342 507.979 81.5768C506.905 82.0193 505.754 82.2457 504.592 82.243ZM504.592 65.8534C503.108 65.8534 501.658 66.2932 500.424 67.1171C499.191 67.941 498.229 69.1121 497.662 70.4822C497.094 71.8523 496.945 73.36 497.235 74.8145C497.524 76.269 498.239 77.6051 499.288 78.6537C500.337 79.7024 501.673 80.4165 503.129 80.7058C504.584 80.9952 506.092 80.8467 507.463 80.2791C508.833 79.7116 510.005 78.7505 510.829 77.5175C511.654 76.2844 512.094 74.8347 512.094 73.3517C512.077 71.3737 511.28 69.4822 509.875 68.0893C508.47 66.6964 506.571 65.9148 504.592 65.9149V65.8534Z" fill="url(#paint66_linear_303_704)"/>
<path d="M82.9899 175.971C81.5274 175.967 80.0989 175.53 78.8848 174.715C77.6707 173.9 76.7256 172.743 76.1687 171.392C75.6118 170.04 75.4682 168.553 75.756 167.12C76.0438 165.687 76.7501 164.371 77.7857 163.339C78.8213 162.306 80.1397 161.604 81.5744 161.32C83.0091 161.037 84.4958 161.184 85.8466 161.745C87.1974 162.305 88.3518 163.253 89.1639 164.469C89.976 165.685 90.4094 167.114 90.4094 168.575C90.4094 169.548 90.2174 170.512 89.8443 171.41C89.4711 172.309 88.9243 173.125 88.2351 173.812C87.5458 174.499 86.7277 175.044 85.8277 175.414C84.9276 175.785 83.9633 175.974 82.9899 175.971ZM82.9899 162.306C81.7494 162.306 80.5369 162.674 79.5055 163.363C78.4741 164.052 77.6702 165.031 77.1955 166.176C76.7208 167.322 76.5966 168.582 76.8386 169.799C77.0806 171.015 77.6779 172.132 78.5551 173.008C79.4322 173.885 80.5497 174.482 81.7663 174.724C82.9829 174.966 84.244 174.842 85.39 174.367C86.536 173.893 87.5155 173.089 88.2047 172.058C88.8938 171.027 89.2617 169.815 89.2617 168.575C89.2617 166.913 88.6009 165.318 87.4247 164.143C86.2485 162.967 84.6533 162.306 82.9899 162.306Z" fill="url(#paint67_linear_303_704)"/>
<path d="M112.012 122.972C110.55 122.972 109.121 122.539 107.906 121.728C106.69 120.917 105.741 119.764 105.18 118.415C104.619 117.066 104.47 115.581 104.752 114.148C105.034 112.714 105.735 111.397 106.766 110.361C107.796 109.325 109.111 108.617 110.544 108.327C111.976 108.037 113.462 108.178 114.815 108.731C116.168 109.285 117.326 110.226 118.144 111.437C118.962 112.648 119.403 114.074 119.411 115.535C119.416 116.509 119.229 117.476 118.86 118.378C118.49 119.28 117.946 120.1 117.258 120.791C116.571 121.482 115.753 122.03 114.853 122.405C113.953 122.779 112.987 122.972 112.012 122.972ZM112.012 109.327C110.769 109.327 109.554 109.697 108.521 110.388C107.489 111.08 106.685 112.062 106.212 113.212C105.739 114.361 105.619 115.624 105.866 116.842C106.113 118.06 106.716 119.177 107.599 120.051C108.483 120.925 109.606 121.517 110.827 121.752C112.047 121.987 113.31 121.854 114.455 121.37C115.6 120.886 116.575 120.073 117.257 119.034C117.938 117.995 118.296 116.777 118.284 115.535C118.252 113.894 117.577 112.33 116.404 111.181C115.231 110.032 113.654 109.388 112.012 109.389V109.327Z" fill="url(#paint68_linear_303_704)"/>
<path d="M189.979 165.626C188.228 165.626 186.516 165.107 185.06 164.134C183.604 163.162 182.469 161.779 181.798 160.162C181.128 158.545 180.953 156.765 181.295 155.049C181.636 153.332 182.48 151.755 183.718 150.517C184.956 149.279 186.534 148.436 188.251 148.095C189.969 147.753 191.749 147.929 193.367 148.599C194.985 149.268 196.368 150.403 197.341 151.858C198.314 153.314 198.833 155.025 198.833 156.775C198.833 159.122 197.9 161.374 196.24 163.033C194.579 164.693 192.327 165.626 189.979 165.626ZM189.979 149.236C188.493 149.232 187.04 149.669 185.803 150.491C184.567 151.313 183.602 152.484 183.032 153.855C182.461 155.226 182.311 156.736 182.6 158.192C182.889 159.648 183.604 160.986 184.654 162.036C185.704 163.086 187.043 163.801 188.5 164.089C189.957 164.378 191.467 164.228 192.838 163.658C194.21 163.088 195.381 162.123 196.204 160.887C197.027 159.651 197.464 158.198 197.46 156.714C197.438 154.743 196.641 152.86 195.241 151.472C193.841 150.084 191.951 149.303 189.979 149.297V149.236Z" fill="url(#paint69_linear_303_704)"/>
</g>
<g style="mix-blend-mode:color-dodge">
<path d="M430.028 13.9395C428.321 13.9395 426.653 13.4337 425.234 12.4859C423.815 11.5382 422.709 10.1912 422.056 8.61515C421.403 7.03913 421.232 5.30492 421.565 3.63183C421.898 1.95874 422.72 0.421902 423.926 -0.78433C425.133 -1.99056 426.671 -2.81202 428.345 -3.14482C430.018 -3.47761 431.753 -3.30681 433.33 -2.654C434.907 -2.00119 436.254 -0.895701 437.203 0.522678C438.151 1.94106 438.657 3.60862 438.657 5.31449C438.657 6.44714 438.434 7.56871 438 8.61515C437.566 9.66158 436.931 10.6124 436.129 11.4133C434.511 13.0308 432.316 13.9395 430.028 13.9395Z" fill="url(#paint70_linear_303_704)"/>
<path d="M350.339 41.5355C348.632 41.5355 346.963 41.0291 345.543 40.0805C344.124 39.1318 343.018 37.7836 342.365 36.2063C341.713 34.6291 341.543 32.8939 341.878 31.2202C342.212 29.5466 343.036 28.0098 344.245 26.8044C345.454 25.599 346.993 24.7791 348.668 24.4486C350.344 24.1182 352.079 24.2919 353.656 24.9478C355.232 25.6038 356.578 26.7125 357.524 28.1335C358.469 29.5546 358.972 31.2242 358.968 32.9309C358.963 35.2149 358.051 37.4034 356.433 39.0165C354.816 40.6296 352.624 41.5355 350.339 41.5355Z" fill="url(#paint71_linear_303_704)"/>
<path d="M454.336 37.2741C453.564 37.2598 452.828 36.9435 452.286 36.3931C451.865 35.9718 451.579 35.4352 451.463 34.8511C451.347 34.267 451.407 33.6616 451.635 33.1115C451.863 32.5614 452.249 32.0913 452.744 31.7605C453.24 31.4297 453.822 31.2532 454.418 31.2532C455.014 31.2532 455.596 31.4297 456.091 31.7605C456.587 32.0913 456.973 32.5614 457.201 33.1115C457.429 33.6616 457.489 34.267 457.373 34.8511C457.257 35.4352 456.971 35.9718 456.55 36.3931C456.262 36.6857 455.917 36.9151 455.536 37.0668C455.154 37.2185 454.746 37.2891 454.336 37.2741ZM454.336 31.7016C453.832 31.7047 453.339 31.8566 452.921 32.1382C452.502 32.4198 452.177 32.8186 451.984 33.2846C451.791 33.7506 451.741 34.263 451.838 34.7577C451.936 35.2524 452.177 35.7073 452.532 36.0654C452.765 36.3244 453.049 36.5332 453.365 36.679C453.682 36.8247 454.025 36.9044 454.373 36.9132C454.722 36.9219 455.068 36.8595 455.391 36.7298C455.715 36.6001 456.008 36.4058 456.254 36.1588C456.5 35.9118 456.693 35.6172 456.821 35.2932C456.948 34.9692 457.009 34.6225 456.998 34.2743C456.988 33.9261 456.906 33.5838 456.758 33.2683C456.611 32.9527 456.4 32.6706 456.14 32.4392C455.902 32.2037 455.621 32.0173 455.311 31.8907C455.002 31.7642 454.67 31.6999 454.336 31.7016Z" fill="url(#paint72_linear_303_704)"/>
<path d="M413.446 74.0075C413.837 74.3968 414.104 74.8932 414.212 75.4339C414.32 75.9747 414.266 76.5354 414.055 77.0451C413.844 77.5547 413.487 77.9905 413.028 78.2971C412.57 78.6036 412.031 78.7673 411.479 78.7673C410.927 78.7673 410.388 78.6036 409.929 78.2971C409.471 77.9905 409.113 77.5547 408.903 77.0451C408.692 76.5354 408.637 75.9747 408.746 75.4339C408.854 74.8932 409.12 74.3968 409.511 74.0075C409.769 73.7473 410.075 73.5408 410.413 73.3998C410.751 73.2589 411.113 73.1863 411.479 73.1863C411.845 73.1863 412.207 73.2589 412.545 73.3998C412.883 73.5408 413.189 73.7473 413.446 74.0075Z" fill="url(#paint73_linear_303_704)"/>
<mask id="mask9_303_704" style="mask-type:luminance" maskUnits="userSpaceOnUse" x="408" y="73" width="7" height="6">
<path d="M413.446 74.0075C413.837 74.3968 414.104 74.8932 414.212 75.4339C414.32 75.9747 414.266 76.5354 414.055 77.0451C413.844 77.5547 413.487 77.9905 413.028 78.2971C412.57 78.6036 412.031 78.7673 411.479 78.7673C410.927 78.7673 410.388 78.6036 409.929 78.2971C409.471 77.9905 409.113 77.5547 408.903 77.0451C408.692 76.5354 408.637 75.9747 408.746 75.4339C408.854 74.8932 409.12 74.3968 409.511 74.0075C409.769 73.7473 410.075 73.5408 410.413 73.3998C410.751 73.2589 411.113 73.1863 411.479 73.1863C411.845 73.1863 412.207 73.2589 412.545 73.3998C412.883 73.5408 413.189 73.7473 413.446 74.0075Z" fill="white"/>
</mask>
<g mask="url(#mask9_303_704)">
<path d="M408.424 76.8757L410.597 79.0474H408.424V76.8757Z" fill="url(#paint74_linear_303_704)"/>
<path d="M409.716 72.9216L414.532 77.7566V79.0472H410.597L408.425 76.8756V72.9216H409.716Z" fill="url(#paint75_linear_303_704)"/>
<path d="M414.532 77.7566L409.716 72.9216H414.532V77.7566Z" fill="url(#paint76_linear_303_704)"/>
</g>
<path d="M279.997 48.194C280.518 48.7162 280.81 49.4235 280.81 50.1608C280.81 50.898 280.518 51.6053 279.997 52.1275C279.466 52.5995 278.774 52.8508 278.063 52.8299C277.353 52.809 276.677 52.5175 276.174 52.015C275.672 51.5126 275.38 50.8371 275.359 50.1269C275.338 49.4166 275.59 48.7252 276.062 48.194C276.584 47.6736 277.292 47.3813 278.029 47.3813C278.767 47.3813 279.475 47.6736 279.997 48.194Z" fill="url(#paint77_linear_303_704)"/>
<mask id="mask10_303_704" style="mask-type:luminance" maskUnits="userSpaceOnUse" x="275" y="47" width="6" height="6">
<path d="M279.997 48.194C280.518 48.7162 280.81 49.4235 280.81 50.1608C280.81 50.898 280.518 51.6053 279.997 52.1275C279.466 52.5995 278.774 52.8508 278.063 52.8299C277.353 52.809 276.677 52.5175 276.174 52.015C275.672 51.5126 275.38 50.8371 275.359 50.1269C275.338 49.4166 275.59 48.7252 276.062 48.194C276.584 47.6736 277.292 47.3813 278.029 47.3813C278.767 47.3813 279.475 47.6736 279.997 48.194Z" fill="white"/>
</mask>
<g mask="url(#mask10_303_704)">
<path d="M274.955 51.0415L277.148 53.2336H274.955V51.0415Z" fill="url(#paint78_linear_303_704)"/>
<path d="M276.267 47.1082L281.104 51.9226V53.2338H277.148L274.955 51.0417V47.1082H276.267Z" fill="url(#paint79_linear_303_704)"/>
<path d="M281.104 51.9226L276.267 47.1082H281.104V51.9226Z" fill="url(#paint80_linear_303_704)"/>
</g>
<path d="M483.563 16.8694C482.281 16.8734 481.027 16.4972 479.959 15.7883C478.892 15.0794 478.058 14.0698 477.565 12.8872C477.071 11.7046 476.94 10.4023 477.188 9.14511C477.435 7.88795 478.051 6.7325 478.956 5.82505C479.861 4.91761 481.015 4.299 482.272 4.04754C483.528 3.79607 484.832 3.92308 486.016 4.41246C487.201 4.90185 488.214 5.73161 488.926 6.79667C489.639 7.86174 490.019 9.11421 490.019 10.3955C490.014 12.1073 489.333 13.7477 488.124 14.9601C486.915 16.1724 485.276 16.8586 483.563 16.8694ZM483.563 4.90498C482.481 4.90498 481.423 5.22579 480.523 5.82684C479.623 6.4279 478.921 7.2822 478.507 8.28172C478.093 9.28124 477.985 10.3811 478.196 11.4422C478.407 12.5032 478.928 13.4779 479.694 14.2429C480.459 15.0079 481.434 15.5289 482.496 15.7399C483.557 15.951 484.657 15.8427 485.657 15.4287C486.657 15.0146 487.512 14.3135 488.113 13.414C488.715 12.5145 489.036 11.4569 489.036 10.375C489.036 8.92427 488.459 7.53294 487.433 6.50711C486.406 5.48128 485.015 4.90498 483.563 4.90498Z" fill="url(#paint81_linear_303_704)"/>
<path d="M253.516 77.8182C252.235 77.8182 250.983 77.4385 249.918 76.7271C248.853 76.0158 248.023 75.0047 247.533 73.8217C247.042 72.6388 246.914 71.3371 247.164 70.0813C247.414 68.8255 248.031 67.6719 248.937 66.7665C249.842 65.8611 250.996 65.2446 252.253 64.9948C253.509 64.745 254.811 64.8732 255.995 65.3632C257.178 65.8532 258.19 66.6829 258.902 67.7476C259.613 68.8122 259.993 70.0638 259.993 71.3443C259.988 73.0596 259.304 74.7031 258.09 75.916C256.877 77.129 255.232 77.8128 253.516 77.8182ZM253.516 65.8742C252.434 65.8742 251.376 66.195 250.476 66.7961C249.576 67.3971 248.875 68.2514 248.46 69.251C248.046 70.2505 247.938 71.3503 248.149 72.4114C248.36 73.4725 248.881 74.4472 249.647 75.2122C250.412 75.9772 251.387 76.4981 252.449 76.7092C253.51 76.9203 254.611 76.8119 255.611 76.3979C256.61 75.9839 257.465 75.2828 258.066 74.3832C258.668 73.4837 258.989 72.4261 258.989 71.3443C258.983 69.8952 258.405 68.507 257.38 67.4823C256.355 66.4577 254.966 65.8796 253.516 65.8742Z" fill="url(#paint82_linear_303_704)"/>
</g>
<mask id="mask11_303_704" style="mask-type:luminance" maskUnits="userSpaceOnUse" x="211" y="116" width="114" height="172">
<path d="M281.76 176.996V123.729H283.133C284.006 123.731 284.854 123.438 285.54 122.898C286.226 122.357 286.708 121.601 286.91 120.752C287.112 119.903 287.021 119.01 286.651 118.22C286.282 117.429 285.656 116.786 284.875 116.395H284.998V116.211H250.934V116.395C250.152 116.787 249.525 117.431 249.156 118.224C248.787 119.017 248.697 119.912 248.902 120.762C249.106 121.612 249.592 122.368 250.281 122.907C250.97 123.446 251.822 123.736 252.697 123.729H254.049V176.996C240.757 180.36 229.153 188.461 221.417 199.777C213.682 211.094 210.348 224.845 212.044 238.445C213.74 252.045 220.348 264.558 230.625 273.63C240.903 282.702 254.142 287.709 267.853 287.709C281.565 287.709 294.804 282.702 305.082 273.63C315.359 264.558 321.967 252.045 323.663 238.445C325.358 224.845 322.025 211.094 314.29 199.777C306.554 188.461 294.95 180.36 281.658 176.996H281.76Z" fill="white"/>
</mask>
<g mask="url(#mask11_303_704)">
<path d="M210.27 271.81C217.136 246.18 224.392 219.773 240.829 198.937C251.2 185.805 264.892 175.357 273.623 161.077C283.441 145.077 286.043 125.84 288.442 107.238C289.282 100.805 289.958 93.7366 286.392 88.3485C282.6 82.6326 275.078 80.6249 268.212 80.6659C248.536 80.7683 230.827 94.1259 220.415 110.802C210.003 127.479 205.658 147.146 201.969 166.466C195.41 201.293 190.573 236.818 194.652 271.994" fill="url(#paint83_linear_303_704)"/>
<mask id="mask12_303_704" style="mask-type:luminance" maskUnits="userSpaceOnUse" x="197" y="98" width="94" height="186">
<path d="M208.569 283.528C215.724 257.423 228.216 233.085 245.257 212.049C256.058 198.773 268.356 186.911 277.763 172.693C287.171 158.475 293.074 140.898 288.893 124.406C286.96 116.015 281.941 108.658 274.832 103.796C268.94 100.248 262.13 98.523 255.259 98.8378C238.124 99.3295 222.363 110.044 212.77 124.242C203.178 138.439 199.079 155.689 197.747 172.775C196.415 189.862 197.747 207.009 197.747 224.136C197.87 240.239 197.193 257.223 204.818 271.441C205.761 273.203 207.462 275.19 209.389 274.596" fill="white"/>
</mask>
<g mask="url(#mask12_303_704)">
<path d="M293.074 98.6536H290.245V283.487H293.074V98.6536Z" fill="white"/>
</g>
</g>
<path d="M287.99 161.036V136.821H246.753V161.036H287.99Z" fill="url(#paint84_linear_303_704)"/>
</g>
</g>
<defs>
<filter id="filter0_d_303_704" x="-20.3901" y="-21.3105" width="741.39" height="407.593" filterUnits="userSpaceOnUse" color-interpolation-filters="sRGB">
<feFlood flood-opacity="0" result="BackgroundImageFix"/>
<feColorMatrix in="SourceAlpha" type="matrix" values="0 0 0 0 0 0 0 0 0 0 0 0 0 0 0 0 0 0 127 0" result="hardAlpha"/>
<feOffset dx="8"/>
<feGaussianBlur stdDeviation="9"/>
<feComposite in2="hardAlpha" operator="out"/>
<feColorMatrix type="matrix" values="0 0 0 0 0 0 0 0 0 0 0 0 0 0 0 0 0 0 0.25 0"/>
<feBlend mode="normal" in2="BackgroundImageFix" result="effect1_dropShadow_303_704"/>
<feBlend mode="normal" in="SourceGraphic" in2="effect1_dropShadow_303_704" result="shape"/>
</filter>
<linearGradient id="paint0_linear_303_704" x1="615.066" y1="281.992" x2="661.469" y2="281.992" gradientUnits="userSpaceOnUse">
<stop offset="0.01" stop-color="#E6332A"/>
<stop offset="0.19" stop-color="#EA4D2C"/>
<stop offset="0.74" stop-color="#F59531"/>
<stop offset="0.99" stop-color="#F9B233"/>
</linearGradient>
<linearGradient id="paint1_linear_303_704" x1="555.484" y1="241.53" x2="681.125" y2="241.53" gradientUnits="userSpaceOnUse">
<stop stop-color="white"/>
<stop offset="1" stop-color="white" stop-opacity="0.03"/>
</linearGradient>
<linearGradient id="paint2_linear_303_704" x1="589.281" y1="183.736" x2="515.68" y2="183.736" gradientUnits="userSpaceOnUse">
<stop offset="0.29" stop-color="#79007E"/>
<stop offset="0.77" stop-color="#79007E"/>
</linearGradient>
<linearGradient id="paint3_linear_303_704" x1="589.691" y1="244.378" x2="566.592" y2="244.378" gradientUnits="userSpaceOnUse">
<stop offset="0.29" stop-color="#79007E"/>
<stop offset="0.77" stop-color="#79007E"/>
</linearGradient>
<linearGradient id="paint4_linear_303_704" x1="546.671" y1="111.765" x2="505.002" y2="111.765" gradientUnits="userSpaceOnUse">
<stop stop-color="#E6007E"/>
<stop offset="0.14" stop-color="#DA007E"/>
<stop offset="0.38" stop-color="#BA007E"/>
<stop offset="0.7" stop-color="#86007E"/>
<stop offset="0.77" stop-color="#79007E"/>
</linearGradient>
<linearGradient id="paint5_linear_303_704" x1="524.666" y1="169.58" x2="494.439" y2="199.215" gradientUnits="userSpaceOnUse">
<stop stop-color="#E6007E"/>
<stop offset="0.14" stop-color="#DA007E"/>
<stop offset="0.38" stop-color="#BA007E"/>
<stop offset="0.7" stop-color="#86007E"/>
<stop offset="0.77" stop-color="#79007E"/>
</linearGradient>
<linearGradient id="paint6_linear_303_704" x1="489.387" y1="164.216" x2="452.356" y2="143.566" gradientUnits="userSpaceOnUse">
<stop stop-color="#E6007E"/>
<stop offset="0.14" stop-color="#DA007E"/>
<stop offset="0.38" stop-color="#BA007E"/>
<stop offset="0.7" stop-color="#86007E"/>
<stop offset="0.77" stop-color="#79007E"/>
</linearGradient>
<linearGradient id="paint7_linear_303_704" x1="541.095" y1="145.097" x2="471.798" y2="145.097" gradientUnits="userSpaceOnUse">
<stop offset="0.29" stop-color="#79007E"/>
<stop offset="0.77" stop-color="#79007E"/>
</linearGradient>
<linearGradient id="paint8_linear_303_704" x1="562.767" y1="197.875" x2="534.703" y2="175.199" gradientUnits="userSpaceOnUse">
<stop stop-color="#E6007E"/>
<stop offset="0.38" stop-color="#E6007E"/>
</linearGradient>
<linearGradient id="paint9_linear_303_704" x1="612.524" y1="297.029" x2="529.044" y2="297.029" gradientUnits="userSpaceOnUse">
<stop offset="0.29" stop-color="#79007E"/>
<stop offset="0.77" stop-color="#79007E"/>
</linearGradient>
<linearGradient id="paint10_linear_303_704" x1="621.686" y1="271.113" x2="519.862" y2="271.113" gradientUnits="userSpaceOnUse">
<stop stop-color="#E6007E"/>
<stop offset="0.51" stop-color="#E6007E"/>
</linearGradient>
<linearGradient id="paint11_linear_303_704" x1="621.686" y1="329.44" x2="483.85" y2="329.44" gradientUnits="userSpaceOnUse">
<stop stop-color="#E6007E"/>
<stop offset="0.51" stop-color="#E6007E"/>
</linearGradient>
<linearGradient id="paint12_linear_303_704" x1="623.955" y1="313.101" x2="596.051" y2="290.554" gradientUnits="userSpaceOnUse">
<stop stop-color="#E6007E"/>
<stop offset="0.51" stop-color="#E6007E"/>
</linearGradient>
<linearGradient id="paint13_linear_303_704" x1="540.768" y1="214.229" x2="351.841" y2="242.867" gradientUnits="userSpaceOnUse">
<stop stop-color="white"/>
<stop offset="1" stop-color="white" stop-opacity="0.03"/>
</linearGradient>
<linearGradient id="paint14_linear_303_704" x1="216.706" y1="256.485" x2="319.227" y2="256.485" gradientUnits="userSpaceOnUse">
<stop stop-color="#80E17E"/>
<stop offset="0.23" stop-color="#68DD94"/>
<stop offset="0.7" stop-color="#2AD3CD"/>
<stop offset="1" stop-color="#00CCF4"/>
</linearGradient>
<linearGradient id="paint15_linear_303_704" x1="258.046" y1="148.908" x2="373.746" y2="148.908" gradientUnits="userSpaceOnUse">
<stop stop-color="#56116F"/>
<stop offset="1" stop-color="#292F82"/>
</linearGradient>
<linearGradient id="paint16_linear_303_704" x1="386.904" y1="314.382" x2="489.835" y2="314.382" gradientUnits="userSpaceOnUse">
<stop stop-color="#E6007E"/>
<stop offset="0.14" stop-color="#DA007E"/>
<stop offset="0.38" stop-color="#BA007E"/>
<stop offset="0.7" stop-color="#86007E"/>
<stop offset="0.77" stop-color="#79007E"/>
</linearGradient>
<linearGradient id="paint17_linear_303_704" x1="386.043" y1="268.163" x2="466.182" y2="268.163" gradientUnits="userSpaceOnUse">
<stop stop-color="white"/>
<stop offset="1" stop-color="white" stop-opacity="0.03"/>
</linearGradient>
<linearGradient id="paint18_linear_303_704" x1="364.441" y1="334.131" x2="364.441" y2="99.7595" gradientUnits="userSpaceOnUse">
<stop stop-color="#56116F"/>
<stop offset="1" stop-color="#292F82"/>
</linearGradient>
<linearGradient id="paint19_linear_303_704" x1="364.441" y1="165.769" x2="364.441" y2="126.782" gradientUnits="userSpaceOnUse">
<stop stop-color="#E6007E"/>
<stop offset="0.14" stop-color="#DA007E"/>
<stop offset="0.38" stop-color="#BA007E"/>
<stop offset="0.7" stop-color="#86007E"/>
<stop offset="0.77" stop-color="#79007E"/>
</linearGradient>
<linearGradient id="paint20_linear_303_704" x1="364.441" y1="323.498" x2="364.441" y2="306.269" gradientUnits="userSpaceOnUse">
<stop stop-color="#E6007E"/>
<stop offset="0.14" stop-color="#DA007E"/>
<stop offset="0.38" stop-color="#BA007E"/>
<stop offset="0.7" stop-color="#86007E"/>
<stop offset="0.77" stop-color="#79007E"/>
</linearGradient>
<linearGradient id="paint21_linear_303_704" x1="272.68" y1="328.354" x2="500.062" y2="328.354" gradientUnits="userSpaceOnUse">
<stop stop-color="#56116F"/>
<stop offset="1" stop-color="#292F82"/>
</linearGradient>
<linearGradient id="paint22_linear_303_704" x1="119.678" y1="310.428" x2="138.931" y2="277.068" gradientUnits="userSpaceOnUse">
<stop stop-color="#80E17E"/>
<stop offset="0.23" stop-color="#68DD94"/>
<stop offset="0.7" stop-color="#2AD3CD"/>
<stop offset="1" stop-color="#00CCF4"/>
</linearGradient>
<linearGradient id="paint23_linear_303_704" x1="132.61" y1="244.746" x2="138.985" y2="244.746" gradientUnits="userSpaceOnUse">
<stop stop-color="#80E17E"/>
<stop offset="0.7" stop-color="#80E17E"/>
</linearGradient>
<linearGradient id="paint24_linear_303_704" x1="124.638" y1="257.755" x2="136.095" y2="257.755" gradientUnits="userSpaceOnUse">
<stop stop-color="#80E17E"/>
<stop offset="0.7" stop-color="#80E17E"/>
</linearGradient>
<linearGradient id="paint25_linear_303_704" x1="123.183" y1="271.564" x2="130.889" y2="271.564" gradientUnits="userSpaceOnUse">
<stop offset="0.43" stop-color="#49BA7A"/>
<stop offset="1" stop-color="#49BA7A"/>
</linearGradient>
<linearGradient id="paint26_linear_303_704" x1="126.995" y1="226.677" x2="132.857" y2="226.677" gradientUnits="userSpaceOnUse">
<stop stop-color="#80E17E"/>
<stop offset="0.7" stop-color="#80E17E"/>
</linearGradient>
<linearGradient id="paint27_linear_303_704" x1="128.06" y1="215.204" x2="130.008" y2="215.204" gradientUnits="userSpaceOnUse">
<stop offset="0.43" stop-color="#49BA7A"/>
<stop offset="1" stop-color="#49BA7A"/>
</linearGradient>
<linearGradient id="paint28_linear_303_704" x1="124.638" y1="207.706" x2="127.548" y2="207.706" gradientUnits="userSpaceOnUse">
<stop offset="0.43" stop-color="#49BA7A"/>
<stop offset="1" stop-color="#49BA7A"/>
</linearGradient>
<linearGradient id="paint29_linear_303_704" x1="44.2319" y1="305.511" x2="80.527" y2="242.581" gradientUnits="userSpaceOnUse">
<stop stop-color="#E6007E"/>
<stop offset="0.14" stop-color="#DA007E"/>
<stop offset="0.38" stop-color="#BA007E"/>
<stop offset="0.7" stop-color="#86007E"/>
<stop offset="0.77" stop-color="#79007E"/>
</linearGradient>
<linearGradient id="paint30_linear_303_704" x1="61.1409" y1="215.204" x2="63.0881" y2="215.204" gradientUnits="userSpaceOnUse">
<stop offset="0.43" stop-color="#49BA7A"/>
<stop offset="1" stop-color="#49BA7A"/>
</linearGradient>
<linearGradient id="paint31_linear_303_704" x1="57.718" y1="207.706" x2="60.6284" y2="207.706" gradientUnits="userSpaceOnUse">
<stop stop-color="#E6007E"/>
<stop offset="0.14" stop-color="#DA007E"/>
<stop offset="0.38" stop-color="#BA007E"/>
<stop offset="0.7" stop-color="#86007E"/>
<stop offset="0.77" stop-color="#79007E"/>
</linearGradient>
<linearGradient id="paint32_linear_303_704" x1="61.592" y1="227.865" x2="67.0029" y2="227.865" gradientUnits="userSpaceOnUse">
<stop stop-color="#E6007E"/>
<stop offset="0.14" stop-color="#DA007E"/>
<stop offset="0.38" stop-color="#BA007E"/>
<stop offset="0.7" stop-color="#86007E"/>
<stop offset="0.77" stop-color="#79007E"/>
</linearGradient>
<linearGradient id="paint33_linear_303_704" x1="81.9854" y1="306.802" x2="111.828" y2="255.102" gradientUnits="userSpaceOnUse">
<stop offset="0.01" stop-color="#E6332A"/>
<stop offset="0.19" stop-color="#EA4D2C"/>
<stop offset="0.74" stop-color="#F59531"/>
<stop offset="0.99" stop-color="#F9B233"/>
</linearGradient>
<linearGradient id="paint34_linear_303_704" x1="100.227" y1="244.173" x2="106.581" y2="244.173" gradientUnits="userSpaceOnUse">
<stop offset="0.01" stop-color="#E6332A"/>
<stop offset="0.42" stop-color="#E6332A"/>
</linearGradient>
<linearGradient id="paint35_linear_303_704" x1="94.5906" y1="226.103" x2="100.452" y2="226.103" gradientUnits="userSpaceOnUse">
<stop offset="0.01" stop-color="#E6332A"/>
<stop offset="0.42" stop-color="#E6332A"/>
</linearGradient>
<linearGradient id="paint36_linear_303_704" x1="95.6562" y1="214.63" x2="97.6033" y2="214.63" gradientUnits="userSpaceOnUse">
<stop stop-color="#00CCF4"/>
<stop offset="1" stop-color="#00CCF4"/>
</linearGradient>
<linearGradient id="paint37_linear_303_704" x1="92.2336" y1="207.132" x2="95.1645" y2="207.132" gradientUnits="userSpaceOnUse">
<stop offset="0.01" stop-color="#E6332A"/>
<stop offset="0.42" stop-color="#E6332A"/>
</linearGradient>
<linearGradient id="paint38_linear_303_704" x1="40.5427" y1="215.819" x2="176.062" y2="215.819" gradientUnits="userSpaceOnUse">
<stop stop-color="#56116F"/>
<stop offset="1" stop-color="#292F82"/>
</linearGradient>
<linearGradient id="paint39_linear_303_704" x1="169.524" y1="332.697" x2="169.524" y2="167.961" gradientUnits="userSpaceOnUse">
<stop stop-color="#56116F"/>
<stop offset="1" stop-color="#292F82"/>
</linearGradient>
<linearGradient id="paint40_linear_303_704" x1="169.524" y1="227.64" x2="169.524" y2="200.249" gradientUnits="userSpaceOnUse">
<stop stop-color="#E6007E"/>
<stop offset="0.14" stop-color="#DA007E"/>
<stop offset="0.38" stop-color="#BA007E"/>
<stop offset="0.7" stop-color="#86007E"/>
<stop offset="0.77" stop-color="#79007E"/>
</linearGradient>
<linearGradient id="paint41_linear_303_704" x1="169.524" y1="325.219" x2="169.524" y2="313.111" gradientUnits="userSpaceOnUse">
<stop stop-color="#E6007E"/>
<stop offset="0.14" stop-color="#DA007E"/>
<stop offset="0.38" stop-color="#BA007E"/>
<stop offset="0.7" stop-color="#86007E"/>
<stop offset="0.77" stop-color="#79007E"/>
</linearGradient>
<linearGradient id="paint42_linear_303_704" x1="105.023" y1="328.661" x2="205.474" y2="328.661" gradientUnits="userSpaceOnUse">
<stop stop-color="#56116F"/>
<stop offset="1" stop-color="#292F82"/>
</linearGradient>
<linearGradient id="paint43_linear_303_704" x1="419.677" y1="66.4477" x2="443.248" y2="66.4477" gradientUnits="userSpaceOnUse">
<stop offset="0.23" stop-color="#00CCF4"/>
<stop offset="1" stop-color="#00CCF4"/>
</linearGradient>
<linearGradient id="paint44_linear_303_704" x1="310.577" y1="104.226" x2="334.148" y2="104.226" gradientUnits="userSpaceOnUse">
<stop offset="0.23" stop-color="#00CCF4"/>
<stop offset="1" stop-color="#00CCF4"/>
</linearGradient>
<linearGradient id="paint45_linear_303_704" x1="461.804" y1="108.948" x2="467.642" y2="103.108" gradientUnits="userSpaceOnUse">
<stop offset="0.23" stop-color="#00CCF4"/>
<stop offset="1" stop-color="#00CCF4"/>
</linearGradient>
<linearGradient id="paint46_linear_303_704" x1="402.256" y1="163.126" x2="409.901" y2="163.126" gradientUnits="userSpaceOnUse">
<stop offset="0.23" stop-color="#00CCF4"/>
<stop offset="1" stop-color="#00CCF4"/>
</linearGradient>
<linearGradient id="paint47_linear_303_704" x1="401.886" y1="165.83" x2="404.878" y2="165.83" gradientUnits="userSpaceOnUse">
<stop offset="0.23" stop-color="#00CCF4"/>
<stop offset="1" stop-color="#00CCF4"/>
</linearGradient>
<linearGradient id="paint48_linear_303_704" x1="401.886" y1="163.126" x2="410.269" y2="163.126" gradientUnits="userSpaceOnUse">
<stop offset="0.23" stop-color="#00CCF4"/>
<stop offset="1" stop-color="#00CCF4"/>
</linearGradient>
<linearGradient id="paint49_linear_303_704" x1="403.669" y1="162.245" x2="410.269" y2="162.245" gradientUnits="userSpaceOnUse">
<stop offset="0.23" stop-color="#00CCF4"/>
<stop offset="1" stop-color="#00CCF4"/>
</linearGradient>
<linearGradient id="paint50_linear_303_704" x1="537.078" y1="66.1405" x2="544.723" y2="66.1405" gradientUnits="userSpaceOnUse">
<stop offset="0.23" stop-color="#00CCF4"/>
<stop offset="1" stop-color="#00CCF4"/>
</linearGradient>
<linearGradient id="paint51_linear_303_704" x1="536.709" y1="68.8242" x2="539.681" y2="68.8242" gradientUnits="userSpaceOnUse">
<stop offset="0.23" stop-color="#00CCF4"/>
<stop offset="1" stop-color="#00CCF4"/>
</linearGradient>
<linearGradient id="paint52_linear_303_704" x1="536.709" y1="66.1403" x2="545.092" y2="66.1403" gradientUnits="userSpaceOnUse">
<stop offset="0.23" stop-color="#00CCF4"/>
<stop offset="1" stop-color="#00CCF4"/>
</linearGradient>
<linearGradient id="paint53_linear_303_704" x1="538.473" y1="65.2388" x2="545.093" y2="65.2388" gradientUnits="userSpaceOnUse">
<stop offset="0.23" stop-color="#00CCF4"/>
<stop offset="1" stop-color="#00CCF4"/>
</linearGradient>
<linearGradient id="paint54_linear_303_704" x1="151.692" y1="108.733" x2="159.337" y2="108.733" gradientUnits="userSpaceOnUse">
<stop offset="0.23" stop-color="#00CCF4"/>
<stop offset="1" stop-color="#00CCF4"/>
</linearGradient>
<linearGradient id="paint55_linear_303_704" x1="151.323" y1="111.437" x2="154.316" y2="111.437" gradientUnits="userSpaceOnUse">
<stop offset="0.23" stop-color="#00CCF4"/>
<stop offset="1" stop-color="#00CCF4"/>
</linearGradient>
<linearGradient id="paint56_linear_303_704" x1="151.323" y1="108.733" x2="159.706" y2="108.733" gradientUnits="userSpaceOnUse">
<stop offset="0.23" stop-color="#00CCF4"/>
<stop offset="1" stop-color="#00CCF4"/>
</linearGradient>
<linearGradient id="paint57_linear_303_704" x1="153.106" y1="107.852" x2="159.706" y2="107.852" gradientUnits="userSpaceOnUse">
<stop offset="0.23" stop-color="#00CCF4"/>
<stop offset="1" stop-color="#00CCF4"/>
</linearGradient>
<linearGradient id="paint58_linear_303_704" x1="219.698" y1="127.806" x2="227.343" y2="127.806" gradientUnits="userSpaceOnUse">
<stop offset="0.23" stop-color="#00CCF4"/>
<stop offset="1" stop-color="#00CCF4"/>
</linearGradient>
<linearGradient id="paint59_linear_303_704" x1="219.329" y1="130.51" x2="222.301" y2="130.51" gradientUnits="userSpaceOnUse">
<stop offset="0.23" stop-color="#00CCF4"/>
<stop offset="1" stop-color="#00CCF4"/>
</linearGradient>
<linearGradient id="paint60_linear_303_704" x1="219.329" y1="127.806" x2="227.712" y2="127.806" gradientUnits="userSpaceOnUse">
<stop offset="0.23" stop-color="#00CCF4"/>
<stop offset="1" stop-color="#00CCF4"/>
</linearGradient>
<linearGradient id="paint61_linear_303_704" x1="221.092" y1="126.925" x2="227.712" y2="126.925" gradientUnits="userSpaceOnUse">
<stop offset="0.23" stop-color="#00CCF4"/>
<stop offset="1" stop-color="#00CCF4"/>
</linearGradient>
<linearGradient id="paint62_linear_303_704" x1="37.468" y1="180.356" x2="45.113" y2="180.356" gradientUnits="userSpaceOnUse">
<stop offset="0.23" stop-color="#00CCF4"/>
<stop offset="1" stop-color="#00CCF4"/>
</linearGradient>
<linearGradient id="paint63_linear_303_704" x1="37.0991" y1="183.039" x2="40.0915" y2="183.039" gradientUnits="userSpaceOnUse">
<stop offset="0.23" stop-color="#00CCF4"/>
<stop offset="1" stop-color="#00CCF4"/>
</linearGradient>
<linearGradient id="paint64_linear_303_704" x1="37.0991" y1="180.356" x2="45.482" y2="180.356" gradientUnits="userSpaceOnUse">
<stop offset="0.23" stop-color="#00CCF4"/>
<stop offset="1" stop-color="#00CCF4"/>
</linearGradient>
<linearGradient id="paint65_linear_303_704" x1="38.8823" y1="179.454" x2="45.482" y2="179.454" gradientUnits="userSpaceOnUse">
<stop offset="0.23" stop-color="#00CCF4"/>
<stop offset="1" stop-color="#00CCF4"/>
</linearGradient>
<linearGradient id="paint66_linear_303_704" x1="495.758" y1="73.4131" x2="513.446" y2="73.4131" gradientUnits="userSpaceOnUse">
<stop offset="0.23" stop-color="#00CCF4"/>
<stop offset="1" stop-color="#00CCF4"/>
</linearGradient>
<linearGradient id="paint67_linear_303_704" x1="90.0872" y1="167.7" x2="75.2293" y2="167.7" gradientUnits="userSpaceOnUse">
<stop offset="0.23" stop-color="#00CCF4"/>
<stop offset="1" stop-color="#00CCF4"/>
</linearGradient>
<linearGradient id="paint68_linear_303_704" x1="119.235" y1="114.473" x2="104.36" y2="114.473" gradientUnits="userSpaceOnUse">
<stop offset="0.23" stop-color="#00CCF4"/>
<stop offset="1" stop-color="#00CCF4"/>
</linearGradient>
<linearGradient id="paint69_linear_303_704" x1="181.125" y1="156.775" x2="198.833" y2="156.775" gradientUnits="userSpaceOnUse">
<stop offset="0.23" stop-color="#00CCF4"/>
<stop offset="1" stop-color="#00CCF4"/>
</linearGradient>
<linearGradient id="paint70_linear_303_704" x1="421.42" y1="5.31449" x2="438.657" y2="5.31449" gradientUnits="userSpaceOnUse">
<stop offset="0.23" stop-color="#00CCF4"/>
<stop offset="1" stop-color="#00CCF4"/>
</linearGradient>
<linearGradient id="paint71_linear_303_704" x1="341.669" y1="32.9309" x2="358.907" y2="32.9309" gradientUnits="userSpaceOnUse">
<stop offset="0.23" stop-color="#00CCF4"/>
<stop offset="1" stop-color="#00CCF4"/>
</linearGradient>
<linearGradient id="paint72_linear_303_704" x1="452.195" y1="36.3851" x2="456.483" y2="32.0952" gradientUnits="userSpaceOnUse">
<stop offset="0.23" stop-color="#00CCF4"/>
<stop offset="1" stop-color="#00CCF4"/>
</linearGradient>
<linearGradient id="paint73_linear_303_704" x1="408.691" y1="75.9947" x2="414.266" y2="75.9947" gradientUnits="userSpaceOnUse">
<stop offset="0.23" stop-color="#00CCF4"/>
<stop offset="1" stop-color="#00CCF4"/>
</linearGradient>
<linearGradient id="paint74_linear_303_704" x1="408.404" y1="77.9615" x2="410.597" y2="77.9615" gradientUnits="userSpaceOnUse">
<stop offset="0.23" stop-color="#00CCF4"/>
<stop offset="1" stop-color="#00CCF4"/>
</linearGradient>
<linearGradient id="paint75_linear_303_704" x1="408.404" y1="75.9947" x2="414.553" y2="75.9947" gradientUnits="userSpaceOnUse">
<stop offset="0.23" stop-color="#00CCF4"/>
<stop offset="1" stop-color="#00CCF4"/>
</linearGradient>
<linearGradient id="paint76_linear_303_704" x1="409.716" y1="75.3391" x2="414.553" y2="75.3391" gradientUnits="userSpaceOnUse">
<stop offset="0.23" stop-color="#00CCF4"/>
<stop offset="1" stop-color="#00CCF4"/>
</linearGradient>
<linearGradient id="paint77_linear_303_704" x1="275.242" y1="50.1608" x2="280.817" y2="50.1608" gradientUnits="userSpaceOnUse">
<stop offset="0.23" stop-color="#00CCF4"/>
<stop offset="1" stop-color="#00CCF4"/>
</linearGradient>
<linearGradient id="paint78_linear_303_704" x1="274.955" y1="52.1273" x2="277.148" y2="52.1273" gradientUnits="userSpaceOnUse">
<stop offset="0.23" stop-color="#00CCF4"/>
<stop offset="1" stop-color="#00CCF4"/>
</linearGradient>
<linearGradient id="paint79_linear_303_704" x1="274.955" y1="50.1607" x2="281.083" y2="50.1607" gradientUnits="userSpaceOnUse">
<stop offset="0.23" stop-color="#00CCF4"/>
<stop offset="1" stop-color="#00CCF4"/>
</linearGradient>
<linearGradient id="paint80_linear_303_704" x1="276.267" y1="49.5051" x2="281.084" y2="49.5051" gradientUnits="userSpaceOnUse">
<stop offset="0.23" stop-color="#00CCF4"/>
<stop offset="1" stop-color="#00CCF4"/>
</linearGradient>
<linearGradient id="paint81_linear_303_704" x1="477.025" y1="10.3955" x2="489.958" y2="10.3955" gradientUnits="userSpaceOnUse">
<stop offset="0.23" stop-color="#00CCF4"/>
<stop offset="1" stop-color="#00CCF4"/>
</linearGradient>
<linearGradient id="paint82_linear_303_704" x1="247.04" y1="71.3443" x2="259.993" y2="71.3443" gradientUnits="userSpaceOnUse">
<stop offset="0.23" stop-color="#00CCF4"/>
<stop offset="1" stop-color="#00CCF4"/>
</linearGradient>
<linearGradient id="paint83_linear_303_704" x1="193.197" y1="176.32" x2="289.118" y2="176.32" gradientUnits="userSpaceOnUse">
<stop stop-color="white"/>
<stop offset="1" stop-color="white" stop-opacity="0.03"/>
</linearGradient>
<linearGradient id="paint84_linear_303_704" x1="246.753" y1="148.908" x2="287.99" y2="148.908" gradientUnits="userSpaceOnUse">
<stop stop-color="#56116F"/>
<stop offset="1" stop-color="#292F82"/>
</linearGradient>
<clipPath id="clip0_303_704">
<rect width="678" height="357" fill="white"/>
</clipPath>
</defs>
</svg>
