<svg width="214" height="213" viewBox="0 0 214 213" fill="none" xmlns="http://www.w3.org/2000/svg">
<circle cx="106.85" cy="106.47" r="106.47" fill="#F87F0F"/>
<path d="M21.82 157V130.84H28.82C32.82 130.84 35.94 131.92 38.18 134.08C40.42 136.24 41.54 139.48 41.54 143.8C41.54 148.147 40.4333 151.44 38.22 153.68C36.0067 155.893 32.9533 157 29.06 157H21.82ZM26.46 153.24H28.5C31.14 153.24 33.18 152.48 34.62 150.96C36.06 149.413 36.78 147.027 36.78 143.8C36.78 140.6 36.06 138.267 34.62 136.8C33.18 135.333 31.14 134.6 28.5 134.6H26.46V153.24ZM54.46 157.48C52.0067 157.48 49.8333 156.587 47.94 154.8C46.0733 152.987 45.14 150.453 45.14 147.2C45.14 143.92 46.0733 141.387 47.94 139.6C49.8333 137.787 52.0067 136.88 54.46 136.88C56.9133 136.88 59.0867 137.787 60.98 139.6C62.8733 141.387 63.82 143.92 63.82 147.2C63.82 150.453 62.8733 152.987 60.98 154.8C59.0867 156.587 56.9133 157.48 54.46 157.48ZM54.46 153.72C55.9 153.72 57.0333 153.12 57.86 151.92C58.6867 150.72 59.1 149.147 59.1 147.2C59.1 145.227 58.6867 143.64 57.86 142.44C57.0333 141.24 55.9 140.64 54.46 140.64C53.02 140.64 51.8867 141.24 51.06 142.44C50.26 143.64 49.86 145.227 49.86 147.2C49.86 149.147 50.26 150.72 51.06 151.92C51.8867 153.12 53.02 153.72 54.46 153.72ZM71.3788 157L66.1788 137.36H70.8188L73.1788 147.56C73.3654 148.493 73.5388 149.427 73.6988 150.36C73.8588 151.293 74.0321 152.24 74.2188 153.2H74.3788C74.5654 152.24 74.7521 151.293 74.9388 150.36C75.1521 149.4 75.3788 148.467 75.6188 147.56L78.1788 137.36H82.3788L84.9788 147.56C85.2188 148.493 85.4454 149.427 85.6588 150.36C85.8721 151.293 86.0854 152.24 86.2988 153.2H86.4588C86.6454 152.24 86.8188 151.293 86.9788 150.36C87.1388 149.427 87.3121 148.493 87.4988 147.56L89.8588 137.36H94.1788L89.1788 157H83.6988L81.4188 147.84C81.2054 146.907 81.0054 145.987 80.8188 145.08C80.6321 144.147 80.4321 143.16 80.2188 142.12H80.0588C79.8721 143.16 79.6854 144.16 79.4988 145.12C79.3121 146.053 79.1121 146.973 78.8988 147.88L76.6588 157H71.3788ZM98.0606 157V137.36H101.861L102.181 140H102.341C103.221 139.147 104.181 138.413 105.221 137.8C106.261 137.187 107.447 136.88 108.781 136.88C110.887 136.88 112.421 137.56 113.381 138.92C114.341 140.28 114.821 142.2 114.821 144.68V157H110.221V145.28C110.221 143.653 109.967 142.507 109.461 141.84C108.981 141.173 108.207 140.84 107.141 140.84C106.287 140.84 105.527 141.053 104.861 141.48C104.221 141.88 103.487 142.48 102.661 143.28V157H98.0606ZM124.923 157.48C123.297 157.48 122.137 156.987 121.443 156C120.777 155.013 120.443 153.667 120.443 151.96V128.76H125.043V152.2C125.043 152.76 125.15 153.16 125.363 153.4C125.577 153.613 125.803 153.72 126.043 153.72C126.283 153.72 126.523 153.693 126.763 153.64L127.363 157.08C126.75 157.347 125.937 157.48 124.923 157.48ZM139.343 157.48C136.889 157.48 134.716 156.587 132.823 154.8C130.956 152.987 130.023 150.453 130.023 147.2C130.023 143.92 130.956 141.387 132.823 139.6C134.716 137.787 136.889 136.88 139.343 136.88C141.796 136.88 143.969 137.787 145.863 139.6C147.756 141.387 148.703 143.92 148.703 147.2C148.703 150.453 147.756 152.987 145.863 154.8C143.969 156.587 141.796 157.48 139.343 157.48ZM139.343 153.72C140.783 153.72 141.916 153.12 142.743 151.92C143.569 150.72 143.983 149.147 143.983 147.2C143.983 145.227 143.569 143.64 142.743 142.44C141.916 141.24 140.783 140.64 139.343 140.64C137.903 140.64 136.769 141.24 135.943 142.44C135.143 143.64 134.743 145.227 134.743 147.2C134.743 149.147 135.143 150.72 135.943 151.92C136.769 153.12 137.903 153.72 139.343 153.72ZM159.027 153.88C159.827 153.88 160.547 153.693 161.187 153.32C161.854 152.947 162.561 152.413 163.307 151.72V147.32C160.641 147.667 158.787 148.187 157.747 148.88C156.707 149.547 156.187 150.373 156.187 151.36C156.187 152.24 156.454 152.88 156.987 153.28C157.521 153.68 158.201 153.88 159.027 153.88ZM157.547 157.48C155.841 157.48 154.441 156.947 153.347 155.88C152.281 154.813 151.747 153.427 151.747 151.72C151.747 149.613 152.654 147.987 154.467 146.84C156.307 145.667 159.254 144.867 163.307 144.44C163.254 143.4 162.974 142.507 162.467 141.76C161.961 140.987 161.041 140.6 159.707 140.6C158.747 140.6 157.801 140.787 156.867 141.16C155.961 141.533 155.067 141.987 154.187 142.52L152.507 139.44C153.574 138.773 154.801 138.187 156.187 137.68C157.574 137.147 159.041 136.88 160.587 136.88C165.467 136.88 167.907 139.707 167.907 145.36V157H164.107L163.787 154.84H163.627C162.747 155.587 161.801 156.213 160.787 156.72C159.801 157.227 158.721 157.48 157.547 157.48ZM181.412 153.68C182.879 153.68 184.252 152.947 185.532 151.48V142.32C184.839 141.707 184.159 141.28 183.492 141.04C182.852 140.8 182.199 140.68 181.532 140.68C180.279 140.68 179.199 141.253 178.292 142.4C177.412 143.52 176.972 145.107 176.972 147.16C176.972 151.507 178.452 153.68 181.412 153.68ZM180.292 157.48C177.839 157.48 175.879 156.573 174.412 154.76C172.946 152.947 172.212 150.427 172.212 147.2C172.212 144 173.066 141.48 174.772 139.64C176.479 137.8 178.399 136.88 180.532 136.88C181.652 136.88 182.599 137.08 183.372 137.48C184.172 137.853 184.946 138.373 185.692 139.04L185.532 135.88V128.76H190.132V157H186.332L186.012 154.88H185.852C185.132 155.6 184.292 156.213 183.332 156.72C182.372 157.227 181.359 157.48 180.292 157.48Z" fill="white"/>
<mask id="path-3-inside-1_117_4099" fill="white">
<path d="M57.71 76.05H155.99V108.81C155.99 113.333 152.323 117 147.8 117H65.9C61.3767 117 57.71 113.333 57.71 108.81V76.05Z"/>
</mask>
<path d="M57.71 76.05H155.99H57.71ZM161.84 108.81C161.84 116.564 155.554 122.85 147.8 122.85H65.9C58.1459 122.85 51.86 116.564 51.86 108.81H63.56C63.56 110.102 64.6076 111.15 65.9 111.15H147.8C149.092 111.15 150.14 110.102 150.14 108.81H161.84ZM65.9 122.85C58.1459 122.85 51.86 116.564 51.86 108.81V76.05H63.56V108.81C63.56 110.102 64.6076 111.15 65.9 111.15V122.85ZM161.84 76.05V108.81C161.84 116.564 155.554 122.85 147.8 122.85V111.15C149.092 111.15 150.14 110.102 150.14 108.81V76.05H161.84Z" fill="white" mask="url(#path-3-inside-1_117_4099)"/>
<path d="M108.604 35.4264C108.569 33.8114 107.231 32.5306 105.616 32.5657C104.001 32.6008 102.72 33.9385 102.755 35.5536L108.604 35.4264ZM104.827 91.4227C105.994 92.5399 107.845 92.4997 108.962 91.3328L127.168 72.3181C128.285 71.1512 128.245 69.2997 127.078 68.1825C125.911 67.0653 124.06 67.1055 122.943 68.2724L106.76 85.1744L89.8578 68.9916C88.6909 67.8744 86.8394 67.9147 85.7222 69.0815C84.605 70.2484 84.6452 72.0999 85.8121 73.2171L104.827 91.4227ZM102.755 35.5536L103.925 89.3736L109.774 89.2464L108.604 35.4264L102.755 35.5536Z" fill="white"/>
</svg>
