<svg width="976" height="587" viewBox="0 0 976 587" fill="none" xmlns="http://www.w3.org/2000/svg">
<g clip-path="url(#clip0_303_442)">
<path opacity="0.8" d="M943.529 8.66062C942.412 8.08983 941.175 7.79224 939.921 7.79224C938.667 7.79224 937.43 8.08983 936.313 8.66062C934.802 9.52966 934.433 10.7849 935.188 11.8793L823.463 76.4618V158.007L796.239 173.746V262.436L703.028 316.349L688.564 307.948L760.465 266.379V217.761L760.176 217.584L678.327 170.334V153.838L724.563 127.107C725.619 127.529 726.752 127.721 727.888 127.671C729.024 127.621 730.136 127.33 731.152 126.818C731.591 126.672 731.972 126.391 732.243 126.015C732.513 125.64 732.659 125.189 732.659 124.726C732.659 124.263 732.513 123.811 732.243 123.436C731.972 123.06 731.591 122.78 731.152 122.633C730.032 122.07 728.797 121.777 727.544 121.777C726.291 121.777 725.055 122.07 723.936 122.633C722.136 123.68 721.975 125.289 723.422 126.448L677.186 153.179V170.978L677.475 171.155L759.228 218.421V265.719L704.892 297.117V276.872L729.802 262.468C730.859 262.887 731.993 263.076 733.129 263.024C734.265 262.971 735.377 262.677 736.391 262.163C738.384 261.02 738.384 259.153 736.391 257.994C735.271 257.431 734.036 257.138 732.783 257.138C731.53 257.138 730.295 257.431 729.175 257.994C727.375 259.04 727.214 260.65 728.661 261.808L703.751 276.212V297.777L687.407 307.288L667.977 296.023V260.779L704.538 239.535V215.202L704.249 215.025L627.109 170.431C628.555 169.272 628.394 167.663 626.594 166.617C625.475 166.053 624.239 165.76 622.987 165.76C621.734 165.76 620.498 166.053 619.379 166.617C617.386 167.775 617.386 169.642 619.379 170.785C620.393 171.3 621.505 171.593 622.64 171.646C623.776 171.699 624.91 171.509 625.968 171.09L703.478 215.862V238.924L667.977 259.443V235.142L667.688 234.965L620.487 207.606C621.934 206.447 621.773 204.838 619.973 203.792C618.856 203.221 617.62 202.924 616.365 202.924C615.111 202.924 613.875 203.221 612.757 203.792C610.765 204.951 610.765 206.818 612.757 207.96C613.772 208.475 614.883 208.769 616.019 208.821C617.155 208.874 618.289 208.685 619.346 208.266L666.836 235.721V295.267L653.176 287.365L630.676 300.368L610.266 288.733V260.119L609.977 259.942L556.14 228.817V201.845C557.203 201.805 558.243 201.518 559.177 201.008C561.17 199.865 561.17 197.999 559.177 196.84C558.057 196.276 556.822 195.983 555.569 195.983C554.316 195.983 553.081 196.276 551.961 196.84C549.968 197.999 549.968 199.865 551.961 201.008C552.895 201.518 553.935 201.805 554.998 201.845V229.477L555.288 229.638L609.125 260.779V288.137L521.491 237.475V183.708L569.012 156.22H612.613H612.757L687.584 112.881C688.64 113.302 689.773 113.494 690.909 113.444C692.045 113.394 693.157 113.104 694.173 112.591C694.611 112.445 694.993 112.164 695.264 111.789C695.534 111.413 695.68 110.962 695.68 110.499C695.68 110.036 695.534 109.585 695.264 109.209C694.993 108.834 694.611 108.553 694.173 108.407C693.053 107.844 691.818 107.55 690.565 107.55C689.312 107.55 688.076 107.844 686.957 108.407C685.157 109.453 684.996 111.062 686.443 112.221L612.307 155.078H570.989L708.46 75.5927C709.516 76.014 710.649 76.206 711.785 76.1561C712.921 76.1061 714.033 75.8154 715.049 75.3031C715.487 75.1569 715.869 74.8762 716.14 74.5007C716.41 74.1252 716.556 73.6739 716.556 73.2109C716.556 72.7479 716.41 72.2967 716.14 71.9211C715.869 71.5456 715.487 71.2649 715.049 71.1188C713.929 70.5555 712.694 70.2621 711.441 70.2621C710.188 70.2621 708.952 70.5555 707.833 71.1188C706.033 72.1649 705.872 73.7903 707.319 74.9329L520.269 183.048V238.071L520.559 238.232L629.551 301.157L607.647 313.822L421.722 206.383V142.267L421.433 142.106L358.242 105.558C359.689 104.416 359.528 102.79 357.728 101.76C356.611 101.19 355.374 100.892 354.12 100.892C352.866 100.892 351.629 101.19 350.512 101.76C348.519 102.903 348.519 104.77 350.512 105.929C351.527 106.441 352.64 106.732 353.776 106.782C354.912 106.832 356.045 106.64 357.101 106.218L420.63 142.975V207.091L420.919 207.252L606.474 314.53L585.581 326.6L401.778 220.223H292.175L223.681 180.618V119.833C224.375 119.71 225.043 119.471 225.657 119.125C226.09 118.975 226.466 118.694 226.732 118.321C226.998 117.947 227.14 117.5 227.14 117.041C227.14 116.582 226.998 116.135 226.732 115.761C226.466 115.388 226.09 115.107 225.657 114.957C224.54 114.386 223.304 114.089 222.049 114.089C220.795 114.089 219.559 114.386 218.441 114.957C218.008 115.107 217.633 115.388 217.367 115.761C217.101 116.135 216.958 116.582 216.958 117.041C216.958 117.5 217.101 117.947 217.367 118.321C217.633 118.694 218.008 118.975 218.441 119.125C219.703 119.78 221.122 120.07 222.54 119.962V181.342L222.829 181.519L291.934 221.43H401.537L556.686 311.135H525.412L472.458 280.557H431.67H431.542L374.972 313.259C373.915 312.84 372.781 312.651 371.645 312.703C370.509 312.756 369.397 313.05 368.383 313.565C366.39 314.723 366.39 316.59 368.383 317.733C369.505 318.299 370.743 318.594 371.999 318.594C373.255 318.594 374.493 318.299 375.615 317.733C377.399 316.703 377.56 315.077 376.113 313.935L431.992 281.635H472.169L525.123 312.213H558.614L584.44 327.147L528.771 359.334L512.941 350.177V326.214L472.764 302.975C474.21 301.816 474.049 300.191 472.265 299.161C471.144 298.595 469.905 298.3 468.649 298.3C467.394 298.3 466.155 298.595 465.034 299.161C464.601 299.311 464.225 299.592 463.959 299.966C463.693 300.339 463.55 300.786 463.55 301.245C463.55 301.704 463.693 302.151 463.959 302.525C464.225 302.898 464.601 303.18 465.034 303.329C466.048 303.844 467.159 304.138 468.295 304.19C469.431 304.243 470.565 304.054 471.623 303.635L511.8 326.874V349.581L468.842 324.83H448.577L448.448 324.91L424.246 338.912C423.189 338.49 422.056 338.298 420.92 338.348C419.784 338.398 418.672 338.689 417.656 339.201C417.218 339.347 416.836 339.628 416.566 340.004C416.295 340.379 416.15 340.83 416.15 341.293C416.15 341.756 416.295 342.208 416.566 342.583C416.836 342.959 417.218 343.239 417.656 343.386C418.776 343.949 420.011 344.242 421.264 344.242C422.517 344.242 423.753 343.949 424.872 343.386C426.672 342.356 426.833 340.73 425.387 339.587L448.898 325.989H468.585L527.614 360.123L516.894 366.318L551.109 385.985L535.038 395.254H510.852L493.511 385.228C494.893 384.086 494.716 382.492 492.933 381.462C491.813 380.899 490.578 380.606 489.325 380.606C488.072 380.606 486.836 380.899 485.717 381.462C483.724 382.621 483.724 384.488 485.717 385.63C486.744 386.152 487.871 386.446 489.022 386.494C490.173 386.541 491.32 386.34 492.386 385.904L510.627 396.445H533.126L492.258 420.07L396.121 364.484H326.92L326.792 364.564L287.852 387.095C286.794 386.676 285.66 386.487 284.524 386.54C283.389 386.592 282.277 386.886 281.263 387.401C279.27 388.543 279.27 390.41 281.263 391.569C282.382 392.132 283.618 392.426 284.871 392.426C286.123 392.426 287.359 392.132 288.478 391.569C290.262 390.523 290.423 388.914 288.993 387.755L327.225 365.643H395.8L469.951 408.515H438.211L407.178 390.571C408.625 389.429 408.464 387.803 406.664 386.773C405.547 386.202 404.31 385.905 403.056 385.905C401.802 385.905 400.565 386.202 399.448 386.773C397.455 387.916 397.455 389.783 399.448 390.941C400.462 391.456 401.574 391.75 402.71 391.802C403.846 391.855 404.98 391.666 406.037 391.247L437.906 409.658H471.928L491.101 420.746L442.293 448.958H286.293L165.102 378.887C166.532 377.729 166.372 376.119 164.588 375.073C163.466 374.507 162.228 374.213 160.972 374.213C159.716 374.213 158.477 374.507 157.356 375.073C155.363 376.232 155.363 378.099 157.356 379.241C158.37 379.756 159.482 380.05 160.618 380.103C161.753 380.155 162.888 379.966 163.945 379.547L285.971 450.1H440.252L420.887 461.366H305.481H305.353L248.398 494.293C247.341 493.871 246.208 493.679 245.072 493.729C243.936 493.779 242.824 494.07 241.809 494.582C239.816 495.741 239.816 497.608 241.809 498.75C242.926 499.321 244.162 499.619 245.416 499.619C246.671 499.619 247.907 499.321 249.024 498.75C250.824 497.72 250.985 496.095 249.539 494.952L305.787 462.428H421.256L421.385 462.347L552.25 386.709L566.714 395.109L429.131 474.659H328.575L328.447 474.739L206.886 544.987H38.5436L6 526.173V527.493L38.2383 546.129H207.224L207.352 546.049L283.625 501.953V528.056L233.355 557.121C232.299 556.7 231.165 556.508 230.03 556.558C228.894 556.607 227.781 556.898 226.766 557.411C226.327 557.557 225.946 557.837 225.675 558.213C225.405 558.588 225.259 559.04 225.259 559.503C225.259 559.966 225.405 560.417 225.675 560.792C225.946 561.168 226.327 561.449 226.766 561.595C227.886 562.158 229.121 562.452 230.374 562.452C231.627 562.452 232.862 562.158 233.982 561.595C235.782 560.549 235.943 558.939 234.496 557.781L284.766 528.716V501.438H284.509L328.881 475.785H429.501L429.629 475.705L567.839 395.753L584.424 405.297L316.169 560.42V588.455H317.31V561.096L585.694 405.972L606.088 417.769L467.669 497.785V512.092L443.129 526.286V559.181L395.543 586.7C394.487 586.279 393.353 586.087 392.217 586.137C391.081 586.187 389.969 586.478 388.954 586.99C388.336 587.309 387.848 587.832 387.572 588.471H397.536C397.36 588.028 397.065 587.644 396.684 587.36L444.141 559.792V526.93L467.541 513.395V566.085L481.362 574.132L456.468 588.519H458.75L482.503 574.791L506.239 588.519H508.521L468.682 565.425V498.429L607.052 418.413L625.614 429.147L527.71 485.763C526.653 485.344 525.519 485.155 524.383 485.208C523.247 485.26 522.135 485.554 521.121 486.069C519.128 487.212 519.128 489.078 521.121 490.237C522.238 490.808 523.475 491.105 524.729 491.105C525.983 491.105 527.22 490.808 528.337 490.237C530.137 489.207 530.298 487.582 528.851 486.423L626.884 429.807L644.803 440.155L527.63 507.908H495.713C495.444 507.247 494.948 506.705 494.315 506.379C493.195 505.815 491.96 505.522 490.707 505.522C489.454 505.522 488.218 505.815 487.099 506.379C486.66 506.525 486.278 506.805 486.008 507.181C485.738 507.557 485.592 508.008 485.592 508.471C485.592 508.934 485.738 509.385 486.008 509.761C486.278 510.136 486.66 510.417 487.099 510.563C488.218 511.126 489.454 511.42 490.707 511.42C491.96 511.42 493.195 511.126 494.315 510.563C494.943 510.238 495.438 509.703 495.713 509.05H527.855L527.999 508.97L645.863 440.814L653.095 444.999L658.672 441.78L686.732 458.018V480.549L663.541 493.971H627.157H627.012L587.076 517.065C586.021 516.648 584.89 516.46 583.757 516.513C582.624 516.566 581.515 516.858 580.503 517.37C578.51 518.513 578.51 520.38 580.503 521.539C581.62 522.109 582.857 522.407 584.111 522.407C585.365 522.407 586.602 522.109 587.719 521.539C589.503 520.493 589.663 518.883 588.233 517.724L627.462 495.097H661.693L593.504 534.51C592.431 534.06 591.274 533.848 590.111 533.89C588.948 533.931 587.809 534.225 586.771 534.751C584.778 535.894 584.778 537.761 586.771 538.919C587.89 539.483 589.126 539.776 590.379 539.776C591.632 539.776 592.867 539.483 593.987 538.919C595.738 537.905 595.947 536.328 594.613 535.186L679.661 486.021V496.884L629.069 526.141V546.789L587.88 570.607C586.822 570.188 585.688 569.999 584.552 570.052C583.416 570.104 582.305 570.398 581.291 570.913C580.858 571.063 580.482 571.344 580.216 571.717C579.95 572.091 579.807 572.538 579.807 572.997C579.807 573.456 579.95 573.903 580.216 574.277C580.482 574.65 580.858 574.931 581.291 575.081C582.408 575.652 583.644 575.949 584.898 575.949C586.153 575.949 587.389 575.652 588.506 575.081C590.29 574.051 590.451 572.426 589.021 571.267L630.21 547.465V526.801L680.802 497.543V485.361L687.889 481.257V457.358L659.829 441.12L678.278 430.467L736.037 463.86V501.856L696.808 524.532C695.736 524.079 694.579 523.865 693.417 523.904C692.254 523.943 691.114 524.234 690.075 524.757C689.636 524.903 689.254 525.184 688.984 525.56C688.713 525.935 688.568 526.386 688.568 526.849C688.568 527.312 688.713 527.764 688.984 528.139C689.254 528.515 689.636 528.795 690.075 528.941C691.194 529.505 692.43 529.798 693.682 529.798C694.935 529.798 696.171 529.505 697.29 528.941C699.058 527.944 699.251 526.367 697.933 525.224L736.037 503.192V533.866L705.92 551.263V588.503H707.078V551.874L736.005 535.137V588.455H737.227V463.232L679.371 429.807L700.087 417.817L775.62 461.478V565.425L811.908 586.346V588.39H813.049V585.687L776.761 564.765V460.818L701.228 417.157L716.575 408.29L818.465 467.191V555.898L874.794 588.455H877.044L819.574 555.238V466.532L717.684 407.63L742.562 393.243L912.094 491.251V535.379L970.255 568.982V567.646L913.3 534.719V490.591L817.951 435.455H893.356L970.255 479.921V478.602L893.661 434.265H815.974L743.784 392.583L772.711 375.862L834.745 411.734H934.385L970.255 432.462V431.142L962.396 426.604H970.255V425.461H960.419L934.706 410.591H835.066L817.71 400.549H860.073L860.201 400.469L881.447 388.189H969.982L970.271 388.35V387.047H883.472L907.402 373.223C908.459 373.641 909.593 373.831 910.729 373.778C911.865 373.725 912.976 373.432 913.991 372.917C914.424 372.767 914.799 372.486 915.065 372.112C915.331 371.739 915.474 371.291 915.474 370.833C915.474 370.374 915.331 369.927 915.065 369.553C914.799 369.18 914.424 368.898 913.991 368.749C912.873 368.178 911.637 367.88 910.383 367.88C909.128 367.88 907.892 368.178 906.775 368.749C904.975 369.779 904.814 371.404 906.26 372.563L859.816 399.406H815.781L773.9 375.266L789.377 366.318L779.413 360.557H808.34L846.171 382.428C844.725 383.587 844.886 385.196 846.686 386.242C847.803 386.813 849.039 387.11 850.293 387.11C851.548 387.11 852.784 386.813 853.901 386.242C855.894 385.083 855.894 383.216 853.901 382.074C852.887 381.559 851.775 381.265 850.64 381.213C849.504 381.16 848.37 381.349 847.312 381.768L808.646 359.414H777.404L756.238 347.167L769.256 339.636H792.35L812.663 327.904H827.818L862.049 347.682C860.442 348.841 860.635 350.499 862.467 351.561C863.584 352.132 864.821 352.429 866.075 352.429C867.329 352.429 868.566 352.132 869.683 351.561C871.676 350.402 871.676 348.535 869.683 347.393C868.694 346.893 867.612 346.604 866.506 346.543C865.4 346.482 864.293 346.651 863.255 347.039L828.172 326.761H812.406L792.093 338.493H771.201L812.84 314.434H835.34L882.202 341.519H970.255V340.376H882.476L835.629 313.275H812.535L812.39 313.355L755.065 346.508L740.007 337.817L804.805 300.352H850.51L888.197 322.142H970.255V321H888.518L852.793 300.352H970.255V299.081H804.499L804.371 299.161L738.834 337.093L721.75 327.212L812.133 274.941H970.255V273.798H855.026L970.255 207.172V205.852L852.744 273.798H812.953L898.627 224.263V213.352L939.608 189.646C940.664 190.067 941.797 190.259 942.933 190.209C944.069 190.159 945.181 189.869 946.197 189.356C948.19 188.198 948.19 186.331 946.197 185.188C945.079 184.617 943.843 184.32 942.589 184.32C941.334 184.32 940.098 184.617 938.981 185.188C937.181 186.218 937.02 187.844 938.467 188.986L916.144 201.861V171.943L970.255 140.738V139.419L915.003 171.348V202.521L897.486 212.66V223.571L811.121 273.46L811.41 273.959L720.641 326.439L704.137 316.896L797.348 262.983V174.406L970.255 74.4501V73.1305L824.604 157.347V77.1216L936.072 12.6196L936.313 12.7805C937.43 13.3513 938.667 13.6489 939.921 13.6489C941.175 13.6489 942.412 13.3513 943.529 12.7805C945.522 11.6701 945.522 9.80325 943.529 8.66062ZM787.046 366.254L653.111 443.679L519.192 366.254L653.111 288.813L787.046 366.254Z" fill="#FFFEFF"/>
<g opacity="0.67">
<path d="M679.782 505.103L390.747 338.206L679.782 171.31L968.818 338.206L679.782 505.103Z" fill="#88324D" fill-opacity="0.67"/>
</g>
<g opacity="0.67">
<path d="M679.782 479.208L435.577 338.206L679.782 197.187L923.987 338.206L679.782 479.208Z" fill="#88324D" fill-opacity="0.67"/>
</g>
<g opacity="0.9">
<path d="M679.782 449.134L487.651 338.206L679.782 227.261L871.913 338.206L679.782 449.134Z" fill="#92354D" fill-opacity="0.7"/>
</g>
<path d="M617.44 200.251L650.552 3.76378L647.892 2.64882L651.803 0.340659C652.287 0.0846072 652.833 -0.0309382 653.379 0.00708622C653.925 0.0451107 654.45 0.235189 654.893 0.555828L919.552 153.384C920.669 154.099 921.576 155.099 922.178 156.282C922.78 157.465 923.054 158.788 922.974 160.112L889.687 358.184C889.641 358.601 889.489 359 889.246 359.342C889.003 359.685 888.677 359.959 888.298 360.14L884.386 362.409L883.702 358.751H883.937L620.863 206.98C619.745 206.265 618.838 205.264 618.236 204.081C617.635 202.898 617.36 201.576 617.44 200.251Z" fill="url(#paint0_linear_303_442)"/>
<path d="M918.143 158.782L922.505 156.826C923.001 157.846 923.191 158.987 923.052 160.113L889.687 358.184C889.641 358.602 889.489 359 889.246 359.343C889.003 359.685 888.677 359.96 888.298 360.14L884.386 362.409L883.702 358.751H883.937L870.618 351.064L918.143 158.782Z" fill="url(#paint1_linear_303_442)"/>
<path d="M616.716 209.366L881.374 362.194C883.428 363.367 885.168 362.683 885.54 360.57L918.906 162.518C918.983 161.194 918.704 159.874 918.099 158.695C917.493 157.515 916.584 156.519 915.464 155.809L650.805 2.96165C648.85 1.78801 647.011 2.47263 646.659 4.58518L613.274 202.637C613.202 203.963 613.482 205.284 614.087 206.466C614.692 207.648 615.599 208.649 616.716 209.366Z" fill="#24126A"/>
<g opacity="0.51">
<path d="M649.926 6.63916L915.836 160.112L882.255 358.693L616.521 205.317L649.926 6.63916Z" fill="#453C9E"/>
</g>
<path d="M450.356 303.14L464.79 310.671L609.617 227.049C611.114 226.366 612.752 226.046 614.396 226.114C616.041 226.182 617.646 226.636 619.083 227.44L868.857 371.681C871.263 370.331 882.157 365.089 882.157 365.089L876.876 373.696C876.581 374.396 876.057 374.976 875.389 375.339L722.837 463.362C721.341 464.035 719.708 464.35 718.068 464.282C716.428 464.215 714.827 463.765 713.391 462.971L457.769 315.366C456.803 314.882 456.041 314.071 455.617 313.077L450.356 303.14Z" fill="url(#paint2_linear_303_442)"/>
<path d="M452.586 305.507L714.545 456.77C716.028 457.604 717.686 458.076 719.385 458.147C721.085 458.219 722.777 457.888 724.324 457.181L880.651 366.908C883.135 365.48 882.822 362.996 879.947 361.314L617.988 210.051C616.505 209.217 614.847 208.745 613.147 208.674C611.448 208.602 609.756 208.933 608.209 209.64L451.882 299.913C449.398 301.341 449.789 303.844 452.586 305.507Z" fill="url(#paint3_linear_303_442)"/>
<path d="M452.586 304.333L714.545 455.596C716.028 456.43 717.686 456.902 719.386 456.974C721.085 457.045 722.777 456.714 724.324 456.007L880.651 365.735C881.021 365.553 881.351 365.298 881.62 364.985C881.888 364.673 882.091 364.309 882.216 363.915C882.341 364.518 882.254 365.146 881.969 365.692C881.684 366.238 881.218 366.668 880.651 366.908L724.324 457.181C722.777 457.888 721.085 458.219 719.386 458.147C717.686 458.076 716.028 457.604 714.545 456.77L452.586 305.507C450.728 304.431 449.965 303.003 450.317 301.751C450.505 302.311 450.802 302.828 451.192 303.271C451.581 303.714 452.055 304.075 452.586 304.333Z" fill="white"/>
<g opacity="0.15">
<mask id="mask0_303_442" style="mask-type:luminance" maskUnits="userSpaceOnUse" x="616" y="6" width="300" height="353">
<path d="M915.836 160.112L649.926 6.63916L616.521 205.317L882.255 358.693L915.836 160.112Z" fill="white"/>
</mask>
<g mask="url(#mask0_303_442)">
<path d="M616.404 208.095L630.838 215.626L775.664 132.004C777.16 131.326 778.793 131.008 780.434 131.076C782.074 131.144 783.676 131.596 785.111 132.395L1034.9 276.636C1037.29 275.286 1048.2 270.044 1048.2 270.044L1042.9 278.65C1042.63 279.357 1042.11 279.94 1041.44 280.293L888.885 368.317C887.385 368.99 885.749 369.305 884.106 369.237C882.463 369.17 880.858 368.72 879.419 367.925L623.855 220.359C622.89 219.876 622.127 219.065 621.704 218.071L616.404 208.095Z" fill="url(#paint4_linear_303_442)"/>
<path d="M618.634 210.462L880.593 361.725C882.075 362.559 883.734 363.031 885.433 363.102C887.133 363.173 888.825 362.842 890.372 362.135L1046.7 271.863C1049.18 270.435 1048.87 267.951 1045.99 266.268L783.957 115.006C782.475 114.172 780.816 113.7 779.117 113.628C777.418 113.557 775.725 113.888 774.178 114.595L617.988 204.867C615.446 206.295 615.759 208.799 618.634 210.462Z" fill="url(#paint5_linear_303_442)"/>
<path d="M1045.92 266.268L783.957 115.006C781.977 113.937 779.723 113.481 777.483 113.695C779.074 113.79 780.624 114.237 782.021 115.006L1043.98 266.268C1046.86 267.931 1047.17 270.435 1044.68 271.863L888.357 362.135C887.364 362.661 886.271 362.974 885.15 363.055C886.917 363.249 888.703 362.93 890.294 362.135L1046.62 271.863C1049.1 270.435 1048.79 267.931 1045.92 266.268Z" fill="white"/>
<g opacity="0.5">
<path d="M755.852 184.426L747.442 179.575C747.049 179.373 746.613 179.267 746.171 179.267C745.729 179.267 745.293 179.373 744.9 179.575L735.57 185.15C734.827 185.581 734.788 186.246 735.473 186.637L743.863 191.488C744.256 191.69 744.692 191.796 745.134 191.796C745.576 191.796 746.012 191.69 746.405 191.488L755.735 186.05C756.478 185.483 756.517 184.818 755.852 184.426Z" fill="#24126A"/>
<path d="M768.819 191.918L760.409 187.067C760.016 186.865 759.58 186.759 759.138 186.759C758.696 186.759 758.26 186.865 757.867 187.067L748.538 192.525C747.814 192.955 747.755 193.62 748.44 194.011L756.85 198.843C757.243 199.045 757.679 199.151 758.121 199.151C758.563 199.151 758.999 199.045 759.392 198.843L768.721 193.385C769.445 192.974 769.484 192.309 768.819 191.918Z" fill="#24126A"/>
<path d="M781.786 199.39L773.396 194.559C772.999 194.356 772.56 194.251 772.115 194.251C771.67 194.251 771.231 194.356 770.834 194.559L761.505 200.016C760.781 200.447 760.723 201.112 761.407 201.503L769.797 206.354C770.192 206.552 770.627 206.655 771.069 206.655C771.51 206.655 771.945 206.552 772.34 206.354L781.669 200.897C782.412 200.447 782.451 199.782 781.786 199.39Z" fill="#24126A"/>
<path d="M771.909 209.366L763.519 204.515C763.122 204.313 762.683 204.207 762.238 204.207C761.792 204.207 761.353 204.313 760.956 204.515L753.133 209.092C752.39 209.523 752.351 210.168 753.016 210.56L761.426 215.411C761.819 215.613 762.255 215.719 762.697 215.719C763.139 215.719 763.575 215.613 763.968 215.411L771.792 210.833C772.496 210.423 772.593 209.758 771.909 209.366Z" fill="#24126A"/>
<path d="M784.876 216.858L776.408 212.007C776.013 211.809 775.578 211.706 775.136 211.706C774.695 211.706 774.26 211.809 773.865 212.007L766.042 216.604C765.299 217.015 765.26 217.68 765.925 218.071L774.335 222.922C774.728 223.124 775.164 223.23 775.606 223.23C776.048 223.23 776.484 223.124 776.877 222.922L784.7 218.345C785.502 217.914 785.561 217.249 784.876 216.858Z" fill="#24126A"/>
<path d="M797.921 224.272L789.531 219.421C789.138 219.218 788.702 219.113 788.259 219.113C787.817 219.113 787.381 219.218 786.988 219.421L779.165 223.998C778.441 224.428 778.383 225.093 779.067 225.484L787.458 230.336C787.851 230.538 788.287 230.644 788.729 230.644C789.171 230.644 789.607 230.538 790 230.336L797.823 225.758C798.469 225.387 798.527 224.722 797.921 224.272Z" fill="#24126A"/>
<path d="M810.81 231.822L802.419 226.991C802.026 226.788 801.59 226.683 801.148 226.683C800.706 226.683 800.27 226.788 799.877 226.991L792.054 231.568C791.33 231.998 791.271 232.663 791.956 233.055L800.346 237.906C800.739 238.108 801.175 238.214 801.618 238.214C802.06 238.214 802.496 238.108 802.889 237.906L810.712 233.328C811.436 232.878 811.494 232.213 810.81 231.822Z" fill="#24126A"/>
<path d="M823.778 239.314L815.387 234.463C814.994 234.26 814.558 234.155 814.116 234.155C813.674 234.155 813.238 234.26 812.845 234.463L805.021 239.04C804.298 239.47 804.239 240.135 804.924 240.526L813.314 245.377C813.709 245.575 814.144 245.678 814.585 245.678C815.027 245.678 815.462 245.575 815.857 245.377L823.68 240.8C824.403 240.37 824.462 239.705 823.778 239.314Z" fill="#24126A"/>
<path d="M836.744 246.806L828.353 241.876C827.96 241.674 827.524 241.568 827.082 241.568C826.64 241.568 826.204 241.674 825.811 241.876L817.988 246.453C817.264 246.884 817.205 247.549 817.89 247.92L826.28 252.772C826.674 252.974 827.109 253.08 827.552 253.08C827.994 253.08 828.43 252.974 828.823 252.772L836.646 248.194C837.37 247.862 837.428 247.197 836.744 246.806Z" fill="#24126A"/>
<path d="M849.711 254.297L841.32 249.446C840.927 249.244 840.491 249.138 840.049 249.138C839.607 249.138 839.171 249.244 838.778 249.446L830.955 254.023C830.231 254.434 830.172 255.099 830.857 255.491L839.247 260.342C839.642 260.539 840.077 260.643 840.518 260.643C840.96 260.643 841.395 260.539 841.79 260.342L849.613 255.764C850.336 255.354 850.395 254.689 849.711 254.297Z" fill="#24126A"/>
<path d="M862.677 261.789L854.287 256.938C853.894 256.736 853.458 256.63 853.016 256.63C852.574 256.63 852.138 256.736 851.745 256.938L843.921 261.515C843.198 261.945 843.139 262.611 843.824 263.002L852.214 267.853C852.607 268.055 853.043 268.161 853.485 268.161C853.927 268.161 854.363 268.055 854.756 267.853L862.58 263.276C863.303 262.826 863.362 262.18 862.677 261.789Z" fill="#24126A"/>
<path d="M875.664 269.261L867.254 264.43C866.861 264.227 866.425 264.122 865.983 264.122C865.541 264.122 865.105 264.227 864.712 264.43L856.889 269.007C856.165 269.437 856.106 270.102 856.791 270.493L865.181 275.345C865.574 275.547 866.01 275.653 866.452 275.653C866.895 275.653 867.331 275.547 867.724 275.345L875.547 270.767C876.29 270.317 876.329 269.652 875.664 269.261Z" fill="#24126A"/>
<path d="M888.631 276.753L880.221 271.902C879.828 271.7 879.392 271.594 878.95 271.594C878.508 271.594 878.072 271.7 877.679 271.902L869.855 276.479C869.132 276.91 869.073 277.575 869.855 277.966L878.109 282.954C878.506 283.156 878.945 283.262 879.39 283.262C879.835 283.262 880.274 283.156 880.671 282.954L888.494 278.377C889.257 277.809 889.296 277.086 888.631 276.753Z" fill="#24126A"/>
<path d="M766.511 220.046L758.121 215.215C757.724 215.012 757.285 214.907 756.84 214.907C756.395 214.907 755.956 215.012 755.559 215.215L747.736 219.792C746.993 220.223 746.954 220.888 747.618 221.279L756.028 226.13C756.422 226.332 756.857 226.438 757.3 226.438C757.742 226.438 758.178 226.332 758.571 226.13L766.394 221.553C767.137 221.103 767.176 220.359 766.511 220.046Z" fill="#24126A"/>
<path d="M753.349 212.535L744.959 207.684C744.562 207.482 744.123 207.376 743.678 207.376C743.232 207.376 742.793 207.482 742.396 207.684L734.573 212.261C733.83 212.692 733.791 213.337 734.456 213.728L742.866 218.58C743.259 218.782 743.695 218.888 744.137 218.888C744.579 218.888 745.015 218.782 745.408 218.58L753.232 214.002C753.975 213.513 754.014 212.848 753.349 212.535Z" fill="#24126A"/>
<path d="M740.167 204.848L722.076 194.403C721.681 194.205 721.246 194.102 720.804 194.102C720.363 194.102 719.928 194.205 719.533 194.403L711.71 198.98C710.986 199.41 710.928 200.075 711.612 200.466L729.703 210.912C730.096 211.114 730.532 211.22 730.974 211.22C731.417 211.22 731.853 211.114 732.246 210.912L740.069 206.335C740.793 205.904 740.832 205.239 740.167 204.848Z" fill="#24126A"/>
<path d="M724.873 209.816L710.185 201.347C709.791 201.144 709.356 201.039 708.913 201.039C708.471 201.039 708.035 201.144 707.642 201.347L699.819 205.924C699.076 206.335 699.037 207 699.701 207.391L714.39 215.861C714.783 216.063 715.219 216.169 715.661 216.169C716.103 216.169 716.539 216.063 716.932 215.861L724.755 211.283C725.557 210.873 725.557 210.208 724.873 209.816Z" fill="#24126A"/>
<path d="M779.478 227.538L771.088 222.687C770.691 222.485 770.252 222.379 769.807 222.379C769.361 222.379 768.922 222.485 768.526 222.687L760.703 227.265C759.959 227.695 759.92 228.36 760.585 228.751L768.995 233.602C769.39 233.799 769.825 233.901 770.266 233.901C770.708 233.901 771.143 233.799 771.538 233.602L779.361 229.025C780.104 228.595 780.143 227.93 779.478 227.538Z" fill="#24126A"/>
<path d="M792.445 235.03L784.055 230.14C783.658 229.937 783.219 229.832 782.774 229.832C782.328 229.832 781.889 229.937 781.493 230.14L773.669 234.717C772.926 235.148 772.887 235.813 773.552 236.184L781.962 241.035C782.355 241.238 782.791 241.343 783.233 241.343C783.675 241.343 784.111 241.238 784.505 241.035L792.328 236.458C793.071 236.008 793.11 235.421 792.445 235.03Z" fill="#24126A"/>
<path d="M805.412 242.522L797.022 237.671C796.625 237.468 796.186 237.362 795.741 237.362C795.296 237.362 794.857 237.468 794.46 237.671L786.637 242.248C785.894 242.678 785.854 243.324 786.519 243.715L794.929 248.566C795.324 248.764 795.759 248.867 796.201 248.867C796.642 248.867 797.077 248.764 797.472 248.566L805.295 243.989C806.038 243.578 806.097 242.913 805.412 242.522Z" fill="#24126A"/>
<path d="M818.379 250.013L809.989 245.162C809.591 244.964 809.152 244.861 808.708 244.861C808.263 244.861 807.825 244.964 807.427 245.162L799.604 249.74C798.86 250.17 798.821 250.835 799.486 251.226L807.896 256.077C808.289 256.28 808.725 256.385 809.167 256.385C809.61 256.385 810.045 256.28 810.439 256.077L818.262 251.5C819.005 251.05 819.064 250.405 818.379 250.013Z" fill="#24126A"/>
<path d="M831.346 257.525L822.956 252.693C822.559 252.491 822.12 252.385 821.675 252.385C821.229 252.385 820.79 252.491 820.393 252.693L812.57 257.27C811.827 257.701 811.788 258.366 812.453 258.757L820.863 263.608C821.256 263.811 821.692 263.916 822.134 263.916C822.576 263.916 823.012 263.811 823.405 263.608L831.229 259.031C831.972 258.542 832.03 257.877 831.346 257.525Z" fill="#24126A"/>
<path d="M844.313 264.977L835.923 260.126C835.528 259.928 835.093 259.825 834.652 259.825C834.21 259.825 833.775 259.928 833.38 260.126L825.557 264.704C824.814 265.134 824.775 265.799 825.459 266.19L833.85 271.041C834.243 271.244 834.679 271.349 835.121 271.349C835.563 271.349 835.999 271.244 836.392 271.041L844.216 266.464C844.861 266.034 844.998 265.349 844.313 264.977Z" fill="#24126A"/>
<path d="M857.28 272.469L848.89 267.618C848.496 267.416 848.061 267.31 847.618 267.31C847.176 267.31 846.74 267.416 846.347 267.618L838.524 272.195C837.8 272.626 837.742 273.291 838.426 273.682L846.816 278.513C847.21 278.716 847.645 278.822 848.088 278.822C848.53 278.822 848.966 278.716 849.359 278.513L857.182 273.936C857.906 273.525 857.965 272.86 857.28 272.469Z" fill="#24126A"/>
<path d="M870.286 279.961L861.856 275.13C861.463 274.927 861.027 274.822 860.585 274.822C860.143 274.822 859.707 274.927 859.314 275.13L851.491 279.707C850.767 280.137 850.708 280.783 851.393 281.174L859.783 286.025C860.176 286.227 860.612 286.333 861.055 286.333C861.497 286.333 861.933 286.227 862.326 286.025L870.149 281.448C870.873 280.998 870.931 280.352 870.286 279.961Z" fill="#24126A"/>
<path d="M883.214 287.453L874.823 282.602C874.429 282.404 873.993 282.301 873.552 282.301C873.111 282.301 872.675 282.404 872.281 282.602L864.457 287.179C863.734 287.609 863.675 288.274 864.36 288.666L872.75 293.517C873.143 293.719 873.579 293.825 874.021 293.825C874.464 293.825 874.899 293.719 875.293 293.517L883.116 288.939C883.839 288.509 883.976 287.844 883.214 287.453Z" fill="#24126A"/>
<path d="M906.272 300.754L887.888 290.172C887.493 289.974 887.058 289.871 886.616 289.871C886.175 289.871 885.74 289.974 885.345 290.172L877.522 294.749C876.798 295.179 876.759 295.844 877.424 296.236L895.75 306.818C896.143 307.02 896.579 307.126 897.021 307.126C897.464 307.126 897.899 307.02 898.293 306.818L906.116 302.241C906.898 301.81 906.957 301.145 906.272 300.754Z" fill="#24126A"/>
<path d="M882.51 314.642L867.039 305.722C866.646 305.52 866.21 305.414 865.768 305.414C865.326 305.414 864.89 305.52 864.497 305.722L856.595 310.339C855.872 310.749 855.813 311.415 856.595 311.806L872.046 320.745C872.443 320.948 872.882 321.053 873.327 321.053C873.772 321.053 874.211 320.948 874.608 320.745L882.431 316.168C883.135 315.698 883.174 315.033 882.51 314.642Z" fill="#24126A"/>
<path d="M777.679 240.311L769.289 235.46C768.892 235.258 768.453 235.152 768.008 235.152C767.562 235.152 767.123 235.258 766.726 235.46L758.903 240.038C758.16 240.468 758.121 241.133 758.786 241.505L767.196 246.356C767.589 246.558 768.025 246.664 768.467 246.664C768.909 246.664 769.345 246.558 769.738 246.356L777.562 241.778C778.363 241.368 778.363 240.703 777.679 240.311Z" fill="#24126A"/>
<path d="M764.38 232.644L755.989 227.793C755.595 227.595 755.159 227.492 754.718 227.492C754.277 227.492 753.841 227.595 753.447 227.793L745.624 232.37C744.9 232.8 744.841 233.465 745.526 233.856L753.916 238.708C754.309 238.91 754.745 239.016 755.187 239.016C755.63 239.016 756.065 238.91 756.459 238.708L764.282 234.13C765.005 233.68 765.064 233.035 764.38 232.644Z" fill="#24126A"/>
<path d="M751.099 224.956L742.689 220.105C742.294 219.909 741.859 219.806 741.418 219.806C740.977 219.806 740.542 219.909 740.147 220.105L732.324 224.682C731.581 225.113 731.541 225.778 732.206 226.169L740.597 231.02C740.993 231.223 741.432 231.328 741.878 231.328C742.323 231.328 742.762 231.223 743.159 231.02L750.982 226.443C751.725 226.012 751.764 225.347 751.099 224.956Z" fill="#24126A"/>
<path d="M737.8 217.288L729.469 212.535C729.076 212.333 728.64 212.227 728.197 212.227C727.755 212.227 727.319 212.333 726.926 212.535L719.103 217.112C718.379 217.543 718.321 218.208 719.005 218.579L727.396 223.43C727.789 223.633 728.225 223.739 728.667 223.739C729.109 223.739 729.545 223.633 729.938 223.43L737.761 218.853C738.426 218.403 738.485 217.68 737.8 217.288Z" fill="#24126A"/>
<path d="M790.646 247.744L782.275 242.952C781.879 242.749 781.44 242.644 780.994 242.644C780.549 242.644 780.11 242.749 779.713 242.952L771.89 247.529C771.147 247.96 771.108 248.605 771.773 248.996L780.183 253.847C780.577 254.045 781.013 254.148 781.454 254.148C781.895 254.148 782.331 254.045 782.725 253.847L790.548 249.27C791.272 248.859 791.311 248.194 790.646 247.744Z" fill="#24126A"/>
<path d="M803.613 255.295L795.223 250.444C794.826 250.241 794.387 250.136 793.942 250.136C793.496 250.136 793.057 250.241 792.661 250.444L784.837 255.021C784.094 255.452 784.055 256.117 784.72 256.508L793.13 261.359C793.523 261.561 793.959 261.667 794.401 261.667C794.843 261.667 795.279 261.561 795.673 261.359L803.496 256.782C804.239 256.332 804.278 255.686 803.613 255.295Z" fill="#24126A"/>
<path d="M816.58 262.767L808.189 257.936C807.793 257.733 807.354 257.627 806.908 257.627C806.463 257.627 806.024 257.733 805.627 257.936L797.804 262.513C797.061 262.943 797.022 263.608 797.687 264L806.097 268.851C806.49 269.053 806.926 269.159 807.368 269.159C807.81 269.159 808.246 269.053 808.639 268.851L816.462 264.273C817.206 263.823 817.264 263.158 816.58 262.767Z" fill="#24126A"/>
<path d="M829.547 270.259L821.156 265.349C820.758 265.152 820.32 265.05 819.875 265.05C819.431 265.05 818.993 265.152 818.594 265.349L810.771 269.926C810.028 270.357 809.989 271.022 810.654 271.413L819.064 276.264C819.457 276.466 819.893 276.572 820.335 276.572C820.777 276.572 821.213 276.466 821.606 276.264L829.429 271.687C830.172 271.315 830.231 270.65 829.547 270.259Z" fill="#24126A"/>
<path d="M842.514 277.75L834.124 272.899C833.73 272.697 833.295 272.591 832.852 272.591C832.41 272.591 831.974 272.697 831.581 272.899L823.758 277.477C823.015 277.907 822.976 278.572 823.66 278.963L832.05 283.795C832.444 283.997 832.88 284.103 833.322 284.103C833.764 284.103 834.2 283.997 834.593 283.795L842.416 279.217C843.14 278.807 843.198 278.142 842.514 277.75Z" fill="#24126A"/>
<path d="M855.481 285.242L847.09 280.391C846.697 280.189 846.261 280.083 845.819 280.083C845.377 280.083 844.941 280.189 844.548 280.391L836.725 284.968C836.001 285.399 835.942 286.044 836.627 286.435L845.017 291.286C845.41 291.489 845.846 291.594 846.288 291.594C846.731 291.594 847.167 291.489 847.56 291.286L855.383 286.709C856.107 286.298 856.165 285.633 855.481 285.242Z" fill="#24126A"/>
<path d="M868.447 292.734L860.057 287.883C859.662 287.685 859.227 287.582 858.785 287.582C858.344 287.582 857.909 287.685 857.514 287.883L849.691 292.46C848.967 292.891 848.909 293.556 849.691 293.947L858.081 298.798C858.474 299 858.91 299.106 859.353 299.106C859.795 299.106 860.231 299 860.624 298.798L868.447 294.221C869.073 293.79 869.132 293.125 868.447 292.734Z" fill="#24126A"/>
<path d="M881.415 300.226L873.024 295.374C872.631 295.172 872.195 295.066 871.753 295.066C871.311 295.066 870.875 295.172 870.482 295.374L862.659 299.952C861.935 300.382 861.876 301.047 862.659 301.438L871.049 306.289C871.442 306.492 871.878 306.597 872.32 306.597C872.763 306.597 873.198 306.492 873.592 306.289L881.415 301.712C882.021 301.262 882.021 300.558 881.415 300.226Z" fill="#24126A"/>
<path d="M894.382 307.698L885.933 302.847C885.538 302.649 885.103 302.546 884.661 302.546C884.22 302.546 883.785 302.649 883.39 302.847L875.567 307.424C874.843 307.854 874.785 308.519 875.469 308.911L883.859 313.762C884.253 313.964 884.688 314.07 885.131 314.07C885.573 314.07 886.009 313.964 886.402 313.762L894.225 309.185C895.007 308.754 895.066 308.089 894.382 307.698Z" fill="#24126A"/>
<path d="M746.347 236.008L737.937 231.157C737.544 230.954 737.108 230.849 736.666 230.849C736.224 230.849 735.788 230.954 735.395 231.157L727.572 235.734C726.848 236.164 726.789 236.81 727.572 237.201L735.962 242.052C736.36 242.25 736.799 242.353 737.243 242.353C737.688 242.353 738.126 242.25 738.524 242.052L746.347 237.475C747.071 237.084 747.071 236.419 746.347 236.008Z" fill="#24126A"/>
<path d="M733.381 228.575L724.971 223.724C724.578 223.521 724.142 223.416 723.699 223.416C723.257 223.416 722.821 223.521 722.428 223.724L714.605 228.301C713.862 228.731 713.823 229.396 714.488 229.768L722.898 234.619C723.291 234.822 723.727 234.927 724.169 234.927C724.611 234.927 725.047 234.822 725.44 234.619L733.263 230.042C734.065 229.631 734.104 228.966 733.381 228.575Z" fill="#24126A"/>
<path d="M720.531 221.122L712.14 216.271C711.744 216.069 711.304 215.963 710.859 215.963C710.414 215.963 709.975 216.069 709.578 216.271L701.755 220.849C701.012 221.279 700.973 221.944 701.638 222.335L710.047 227.167C710.441 227.369 710.876 227.475 711.319 227.475C711.761 227.475 712.197 227.369 712.59 227.167L720.413 222.589C721.156 222.179 721.215 221.514 720.531 221.122Z" fill="#24126A"/>
<path d="M707.622 213.67L699.232 208.819C698.839 208.616 698.403 208.51 697.961 208.51C697.518 208.51 697.083 208.616 696.689 208.819L688.866 213.396C688.143 213.826 688.084 214.491 688.768 214.882L697.159 219.714C697.552 219.916 697.988 220.022 698.43 220.022C698.872 220.022 699.308 219.916 699.701 219.714L707.524 215.137C708.248 214.726 708.307 214.061 707.622 213.67Z" fill="#24126A"/>
<path d="M695.125 220.966L686.734 216.115C686.34 215.917 685.905 215.814 685.463 215.814C685.022 215.814 684.587 215.917 684.192 216.115L681.591 217.621C680.867 218.051 680.828 218.716 681.591 219.107L689.981 223.958C690.378 224.161 690.817 224.267 691.262 224.267C691.707 224.267 692.147 224.161 692.543 223.958L695.125 222.452C695.77 222.022 695.809 221.357 695.125 220.966Z" fill="#24126A"/>
<path d="M711.964 230.688L703.574 225.856C703.181 225.654 702.745 225.548 702.303 225.548C701.86 225.548 701.425 225.654 701.031 225.856L698.43 227.382C697.707 227.793 697.667 228.458 698.332 228.849L706.723 233.7C707.121 233.898 707.559 234.001 708.004 234.001C708.448 234.001 708.887 233.898 709.285 233.7L711.867 232.096C712.61 231.744 712.649 231.079 711.964 230.688Z" fill="#24126A"/>
<path d="M724.814 238.121L716.424 233.27C716.029 233.072 715.594 232.969 715.152 232.969C714.711 232.969 714.276 233.072 713.881 233.27L711.28 234.795C710.556 235.226 710.517 235.891 711.182 236.282L719.572 241.114C719.969 241.316 720.408 241.422 720.853 241.422C721.299 241.422 721.738 241.316 722.135 241.114L724.716 239.588C725.557 239.177 725.557 238.512 724.814 238.121Z" fill="#24126A"/>
<path d="M737.663 245.534L729.273 240.683C728.88 240.481 728.444 240.375 728.002 240.375C727.56 240.375 727.124 240.481 726.731 240.683L724.129 242.189C723.406 242.62 723.367 243.285 724.129 243.676L732.52 248.527C732.916 248.73 733.355 248.835 733.801 248.835C734.246 248.835 734.685 248.73 735.082 248.527L737.663 247.021C738.309 246.59 738.348 245.925 737.663 245.534Z" fill="#24126A"/>
<path d="M750.513 252.947L742.123 248.116C741.729 247.913 741.294 247.808 740.851 247.808C740.409 247.808 739.973 247.913 739.58 248.116L736.979 249.642C736.255 250.052 736.216 250.718 736.979 251.109L745.369 255.96C745.766 256.162 746.205 256.268 746.65 256.268C747.096 256.268 747.535 256.162 747.931 255.96L750.513 254.454C751.158 254.004 751.198 253.339 750.513 252.947Z" fill="#24126A"/>
<path d="M822.251 294.377L813.861 289.526C813.468 289.324 813.032 289.218 812.59 289.218C812.148 289.218 811.712 289.324 811.319 289.526L808.717 291.032C807.994 291.463 807.935 292.128 808.717 292.519L817.108 297.37C817.504 297.573 817.943 297.678 818.389 297.678C818.834 297.678 819.273 297.573 819.67 297.37L822.251 295.864C822.877 295.433 822.936 294.69 822.251 294.377Z" fill="#24126A"/>
<path d="M835.081 301.79L826.691 296.959C826.298 296.757 825.862 296.651 825.42 296.651C824.978 296.651 824.542 296.757 824.149 296.959L821.547 298.485C820.824 298.895 820.765 299.561 821.547 299.952L829.938 304.803C830.334 305.005 830.773 305.111 831.219 305.111C831.664 305.111 832.103 305.005 832.5 304.803L835.081 303.297C835.727 302.847 835.786 302.182 835.081 301.79Z" fill="#24126A"/>
<path d="M847.951 309.224L839.561 304.471C839.166 304.273 838.731 304.17 838.289 304.17C837.848 304.17 837.413 304.273 837.018 304.471L834.417 305.996C833.693 306.427 833.635 307.092 834.319 307.483L842.71 312.295C843.106 312.498 843.545 312.603 843.991 312.603C844.436 312.603 844.875 312.498 845.272 312.295L847.853 310.769C848.596 310.339 848.636 309.615 847.951 309.224Z" fill="#24126A"/>
<path d="M860.8 316.637L852.41 311.786C852.017 311.584 851.581 311.478 851.139 311.478C850.696 311.478 850.26 311.584 849.867 311.786L847.266 313.292C846.542 313.723 846.484 314.388 847.168 314.779L855.559 319.63C855.955 319.833 856.394 319.938 856.84 319.938C857.285 319.938 857.724 319.833 858.121 319.63L860.702 318.124C861.446 317.693 861.485 317.028 860.8 316.637Z" fill="#24126A"/>
<path d="M759.314 243.519L750.904 238.668C750.51 238.47 750.074 238.367 749.633 238.367C749.192 238.367 748.756 238.47 748.362 238.668L740.539 243.246C739.815 243.676 739.756 244.341 740.539 244.732L748.929 249.583C749.326 249.786 749.765 249.892 750.21 249.892C750.655 249.892 751.094 249.786 751.491 249.583L759.314 245.006C759.94 244.556 759.979 243.832 759.314 243.519Z" fill="#24126A"/>
<path d="M772.281 251.011L763.871 246.16C763.478 245.958 763.042 245.852 762.6 245.852C762.157 245.852 761.722 245.958 761.328 246.16L753.505 250.737C752.782 251.168 752.742 251.833 753.505 252.224L761.896 257.075C762.292 257.278 762.731 257.383 763.177 257.383C763.622 257.383 764.061 257.278 764.458 257.075L772.281 252.498C772.907 252.048 772.946 251.383 772.281 251.011Z" fill="#24126A"/>
<path d="M785.248 258.483L776.838 253.632C776.443 253.436 776.008 253.333 775.567 253.333C775.125 253.333 774.69 253.436 774.295 253.632L766.472 258.209C765.729 258.64 765.69 259.305 766.355 259.696L774.745 264.547C775.142 264.75 775.581 264.855 776.026 264.855C776.472 264.855 776.911 264.75 777.307 264.547L785.13 259.97C785.874 259.481 785.913 258.874 785.248 258.483Z" fill="#24126A"/>
<path d="M798.215 265.975L789.805 261.124C789.412 260.922 788.976 260.816 788.533 260.816C788.091 260.816 787.655 260.922 787.262 261.124L779.439 265.701C778.696 266.132 778.657 266.797 779.322 267.188L787.712 272.019C788.109 272.222 788.548 272.328 788.993 272.328C789.438 272.328 789.877 272.222 790.274 272.019L798.097 267.442C798.84 267.031 798.88 266.366 798.215 265.975Z" fill="#24126A"/>
<path d="M811.181 273.467L802.771 268.616C802.378 268.413 801.942 268.308 801.5 268.308C801.058 268.308 800.622 268.413 800.229 268.616L792.406 273.193C791.663 273.623 791.623 274.269 792.288 274.66L800.698 279.511C801.092 279.713 801.527 279.819 801.97 279.819C802.412 279.819 802.848 279.713 803.241 279.511L811.064 274.934C811.807 274.523 811.846 273.858 811.181 273.467Z" fill="#24126A"/>
<path d="M824.149 280.997L815.758 276.146C815.36 275.948 814.922 275.845 814.477 275.845C814.033 275.845 813.594 275.948 813.196 276.146L805.373 280.743C804.63 281.154 804.591 281.819 805.256 282.21L813.666 287.061C814.059 287.264 814.495 287.369 814.937 287.369C815.379 287.369 815.815 287.264 816.208 287.061L824.031 282.484C824.775 282.015 824.814 281.35 824.149 280.997Z" fill="#24126A"/>
<path d="M837.038 288.45L828.647 283.599C828.251 283.396 827.812 283.291 827.366 283.291C826.921 283.291 826.482 283.396 826.085 283.599L818.262 288.176C817.519 288.607 817.48 289.272 818.145 289.663L826.555 294.514C826.948 294.716 827.384 294.822 827.826 294.822C828.268 294.822 828.704 294.716 829.097 294.514L836.92 289.937C837.742 289.487 837.781 288.822 837.038 288.45Z" fill="#24126A"/>
<path d="M850.082 295.922L841.692 291.091C841.295 290.888 840.856 290.782 840.411 290.782C839.965 290.782 839.526 290.888 839.13 291.091L831.307 295.668C830.563 296.098 830.524 296.763 831.189 297.155L839.599 302.006C839.992 302.208 840.428 302.314 840.87 302.314C841.313 302.314 841.749 302.208 842.142 302.006L849.965 297.428C850.728 296.978 850.728 296.313 850.082 295.922Z" fill="#24126A"/>
<path d="M863.05 303.414L854.64 298.602C854.243 298.4 853.804 298.294 853.359 298.294C852.913 298.294 852.474 298.4 852.078 298.602L844.254 303.18C843.511 303.61 843.472 304.275 844.137 304.666L852.547 309.517C852.941 309.715 853.377 309.818 853.818 309.818C854.26 309.818 854.695 309.715 855.09 309.517L862.913 304.94C863.675 304.471 863.734 303.806 863.05 303.414Z" fill="#24126A"/>
<path d="M758.688 201.738L733.967 187.458C733.574 187.256 733.138 187.15 732.696 187.15C732.254 187.15 731.818 187.256 731.425 187.458L723.602 192.036C722.878 192.466 722.819 193.131 723.504 193.522L748.225 207.802C748.62 208 749.055 208.103 749.496 208.103C749.938 208.103 750.373 208 750.768 207.802L758.591 203.224C759.314 202.755 759.373 202.129 758.688 201.738Z" fill="#24126A"/>
<path d="M918.007 293.732L893.286 279.452C892.889 279.25 892.45 279.144 892.005 279.144C891.56 279.144 891.121 279.25 890.724 279.452L882.901 284.03C882.158 284.46 882.119 285.125 882.784 285.516L907.524 299.795C907.919 299.993 908.354 300.096 908.796 300.096C909.237 300.096 909.672 299.993 910.067 299.795L917.89 295.199C918.633 294.788 918.692 294.123 918.007 293.732Z" fill="#24126A"/>
<path d="M893.951 264.175L885.561 259.324C885.167 259.122 884.732 259.016 884.289 259.016C883.847 259.016 883.411 259.122 883.018 259.324L873.689 264.762C872.946 265.193 872.907 265.858 873.572 266.249L882.021 271.217C882.417 271.42 882.856 271.526 883.302 271.526C883.747 271.526 884.186 271.42 884.583 271.217L893.912 265.779C894.577 265.232 894.635 264.567 893.951 264.175Z" fill="#24126A"/>
<path d="M799.877 209.797L786.461 201.973C786.064 201.77 785.625 201.664 785.18 201.664C784.734 201.664 784.295 201.77 783.899 201.973L774.452 207.567C773.728 207.997 773.67 208.662 774.354 209.034L787.771 216.858C788.168 217.061 788.607 217.166 789.052 217.166C789.497 217.166 789.937 217.061 790.333 216.858L799.662 211.42C800.406 210.853 800.464 210.188 799.877 209.797Z" fill="#24126A"/>
<path d="M881.473 256.958L868.037 249.133C867.644 248.931 867.208 248.825 866.766 248.825C866.323 248.825 865.887 248.931 865.494 249.133L856.146 254.591C855.422 255.021 855.363 255.686 856.146 256.077L869.582 263.902C869.975 264.104 870.411 264.21 870.853 264.21C871.295 264.21 871.731 264.104 872.124 263.902L881.454 258.464C882.021 258.014 882.138 257.349 881.473 256.958Z" fill="#24126A"/>
<path d="M818.496 220.594L805.06 212.77C804.667 212.568 804.231 212.462 803.789 212.462C803.347 212.462 802.911 212.568 802.518 212.77L793.188 218.403C792.445 218.834 792.406 219.499 793.071 219.89L806.507 227.714C806.901 227.917 807.336 228.022 807.779 228.022C808.221 228.022 808.657 227.917 809.05 227.714L818.379 222.257C819.122 221.651 819.161 220.985 818.496 220.594Z" fill="#24126A"/>
<path d="M793.169 219.89L851.549 253.613C851.947 253.811 852.386 253.914 852.83 253.914C853.275 253.914 853.714 253.811 854.112 253.613L863.617 248.057C864.301 247.647 864.262 246.981 863.617 246.571L805.158 212.887L793.169 219.89Z" fill="#24126A"/>
<path d="M904.766 277.379L914.115 282.778C914.44 282.941 914.798 283.026 915.161 283.026C915.525 283.026 915.883 282.941 916.208 282.778L920.021 280.548C920.628 280.196 920.667 279.648 920.119 279.335L910.751 273.936C910.43 273.773 910.075 273.688 909.714 273.688C909.354 273.688 908.999 273.773 908.678 273.936L904.766 276.166C904.258 276.518 904.219 277.086 904.766 277.379Z" fill="#24126A"/>
<path d="M891.8 269.887L901.148 275.286C901.473 275.449 901.831 275.534 902.195 275.534C902.558 275.534 902.916 275.449 903.241 275.286L907.055 273.056C907.661 272.704 907.7 272.156 907.152 271.843L897.784 266.444C897.463 266.281 897.108 266.196 896.748 266.196C896.387 266.196 896.032 266.281 895.711 266.444L891.8 268.674C891.291 269.026 891.252 269.574 891.8 269.887Z" fill="#24126A"/>
<path d="M898.019 281.311L907.367 286.709C907.691 286.877 908.049 286.965 908.414 286.965C908.778 286.965 909.137 286.877 909.46 286.709L913.372 284.479C913.978 284.127 914.017 283.599 913.372 283.267L904.023 277.868C903.698 277.704 903.34 277.619 902.977 277.619C902.613 277.619 902.255 277.704 901.93 277.868L898.116 280.098C897.51 280.45 897.471 280.998 898.019 281.311Z" fill="#24126A"/>
</g>
</g>
</g>
<g opacity="0.8">
<path d="M573.004 288.822L564.692 284.01C564.027 283.619 564.105 282.953 564.888 282.504L574.667 276.831C575.063 276.614 575.504 276.492 575.956 276.475C576.407 276.458 576.856 276.547 577.268 276.733L585.58 281.526C586.245 281.917 586.167 282.601 585.385 283.032L575.606 288.704C575.21 288.921 574.77 289.045 574.319 289.065C573.868 289.086 573.418 289.002 573.004 288.822Z" fill="#24126A"/>
<path d="M585.932 296.176L577.62 291.364C576.955 290.993 577.033 290.308 577.796 289.858L587.575 284.205C587.968 283.981 588.409 283.853 588.862 283.833C589.314 283.812 589.764 283.9 590.176 284.088L598.508 288.9C599.173 289.271 599.075 289.956 598.312 290.386L588.533 296.059C588.139 296.279 587.698 296.404 587.247 296.424C586.795 296.445 586.345 296.36 585.932 296.176Z" fill="#24126A"/>
<path d="M598.782 303.59L590.45 298.778C589.785 298.406 589.883 297.722 590.646 297.291L600.425 291.619C600.818 291.394 601.259 291.267 601.711 291.246C602.163 291.226 602.614 291.313 603.026 291.501L611.338 296.313C612.003 296.685 611.925 297.37 611.162 297.82L601.383 303.473C600.99 303.697 600.549 303.825 600.097 303.845C599.644 303.865 599.194 303.778 598.782 303.59Z" fill="#24126A"/>
<path d="M616.54 297.468L608.209 292.734C607.524 292.362 607.622 291.678 608.385 291.228L616.618 286.475C617.025 286.268 617.474 286.161 617.929 286.161C618.384 286.161 618.833 286.268 619.239 286.475L627.551 291.267C628.216 291.658 628.138 292.323 627.356 292.773L619.122 297.526C618.717 297.72 618.273 297.816 617.824 297.806C617.376 297.795 616.936 297.68 616.54 297.468Z" fill="#24126A"/>
<path d="M629.37 304.881L621.058 300.069C620.393 299.697 620.471 299.013 621.254 298.582L629.488 293.81C629.884 293.593 630.325 293.471 630.777 293.454C631.228 293.437 631.677 293.525 632.089 293.712L640.421 298.504C641.086 298.895 640.988 299.56 640.225 300.01L631.991 304.763C631.594 304.988 631.15 305.116 630.695 305.136C630.239 305.157 629.786 305.069 629.37 304.881Z" fill="#24126A"/>
<path d="M642.22 312.295L633.908 307.502C633.243 307.111 633.321 306.426 634.084 305.996L642.338 301.223C642.734 301.006 643.175 300.885 643.627 300.868C644.078 300.851 644.527 300.939 644.939 301.125L653.251 305.918C653.916 306.309 653.838 306.994 653.075 307.424L644.821 312.295C644.418 312.496 643.972 312.601 643.521 312.601C643.069 312.601 642.624 312.496 642.22 312.295Z" fill="#24126A"/>
<path d="M655.148 319.708L646.836 314.915C646.151 314.524 646.249 313.859 647.012 313.409L655.245 308.656C655.642 308.431 656.086 308.304 656.542 308.283C656.997 308.263 657.451 308.35 657.866 308.538L666.178 313.35C666.843 313.722 666.765 314.407 665.983 314.837L657.749 319.61C657.353 319.827 656.911 319.948 656.46 319.965C656.008 319.982 655.559 319.894 655.148 319.708Z" fill="#24126A"/>
<path d="M667.899 327.122L659.587 322.329C658.922 321.938 659 321.273 659.783 320.823L668.016 316.07C668.41 315.845 668.851 315.718 669.303 315.697C669.755 315.677 670.206 315.764 670.618 315.952L678.949 320.764C679.614 321.136 679.517 321.821 678.754 322.27L670.52 327.024C670.122 327.245 669.677 327.37 669.221 327.386C668.766 327.403 668.313 327.313 667.899 327.122Z" fill="#24126A"/>
<path d="M680.749 334.535L672.436 329.743C671.772 329.351 671.85 328.686 672.613 328.236L680.866 323.483C681.261 323.263 681.701 323.138 682.153 323.118C682.604 323.097 683.054 323.182 683.467 323.366L691.779 328.178C692.444 328.549 692.366 329.234 691.603 329.684L683.35 334.437C682.955 334.658 682.513 334.783 682.061 334.8C681.609 334.817 681.159 334.726 680.749 334.535Z" fill="#24126A"/>
<path d="M693.598 341.968L685.286 337.156C684.602 336.765 684.699 336.1 685.462 335.65L693.696 330.897C694.094 330.677 694.538 330.552 694.993 330.531C695.447 330.511 695.901 330.596 696.317 330.78L704.629 335.592C705.294 335.983 705.216 336.648 704.433 337.098L696.219 341.851C695.822 342.074 695.378 342.201 694.923 342.221C694.468 342.242 694.014 342.155 693.598 341.968Z" fill="#24126A"/>
<path d="M706.429 349.46L698.175 344.569C697.51 344.178 697.589 343.513 698.371 343.063L706.605 338.31C707 338.089 707.441 337.964 707.894 337.947C708.346 337.93 708.796 338.021 709.206 338.212L717.538 343.004C718.203 343.396 718.105 344.061 717.342 344.511L709.108 349.264C708.709 349.506 708.258 349.65 707.792 349.684C707.326 349.718 706.859 349.641 706.429 349.46Z" fill="#24126A"/>
<path d="M719.278 356.795L710.966 351.983C710.301 351.611 710.379 350.927 711.142 350.477L719.395 345.723C719.79 345.502 720.232 345.378 720.684 345.361C721.136 345.344 721.586 345.435 721.996 345.626L730.309 350.418C730.974 350.809 730.895 351.474 730.133 351.924L721.879 356.677C721.486 356.902 721.045 357.03 720.593 357.05C720.14 357.07 719.69 356.983 719.278 356.795Z" fill="#24126A"/>
<path d="M732.128 364.209L723.816 359.397C723.131 359.025 723.229 358.34 723.992 357.91L732.225 353.137C732.633 352.936 733.081 352.831 733.536 352.831C733.99 352.831 734.439 352.936 734.846 353.137L743.158 357.93C743.823 358.321 743.745 358.986 742.963 359.436L734.729 364.189C734.328 364.398 733.883 364.509 733.431 364.512C732.978 364.516 732.532 364.412 732.128 364.209Z" fill="#24126A"/>
<path d="M635.453 293.947L627.141 289.154C626.476 288.763 626.554 288.098 627.336 287.648L635.59 282.954C635.983 282.729 636.424 282.601 636.876 282.581C637.329 282.561 637.779 282.648 638.191 282.836L646.503 287.648C647.188 288.02 647.09 288.704 646.327 289.154L638.093 293.908C637.688 294.123 637.237 294.239 636.778 294.246C636.319 294.253 635.864 294.15 635.453 293.947Z" fill="#24126A"/>
<path d="M622.427 286.435L614.076 281.623C613.411 281.232 613.489 280.567 614.252 280.117L622.506 275.364C622.9 275.144 623.341 275.019 623.792 274.999C624.244 274.978 624.694 275.063 625.107 275.247L633.419 280.059C634.084 280.45 634.006 281.115 633.223 281.565L624.989 286.318C624.6 286.532 624.166 286.653 623.722 286.674C623.278 286.694 622.835 286.613 622.427 286.435Z" fill="#24126A"/>
<path d="M609.362 278.885L591.467 268.537C590.782 268.166 590.88 267.481 591.643 267.031L599.877 262.278C600.275 262.056 600.72 261.932 601.175 261.915C601.631 261.898 602.084 261.989 602.498 262.18L620.393 272.508C621.078 272.899 620.98 273.584 620.217 274.014L611.983 278.787C611.583 279.004 611.139 279.126 610.684 279.143C610.23 279.16 609.777 279.072 609.362 278.885Z" fill="#24126A"/>
<path d="M618.496 269.711L603.965 261.319C603.3 260.948 603.378 260.263 604.141 259.813L612.394 255.06C612.789 254.839 613.231 254.714 613.683 254.697C614.135 254.68 614.585 254.771 614.995 254.962L629.527 263.393C630.192 263.764 630.114 264.449 629.331 264.899L621.098 269.652C620.7 269.867 620.256 269.985 619.804 269.995C619.352 270.005 618.904 269.908 618.496 269.711Z" fill="#24126A"/>
<path d="M648.302 301.36L639.99 296.646C639.325 296.255 639.403 295.59 640.166 295.14L648.42 290.386C648.814 290.167 649.255 290.041 649.706 290.021C650.158 290.001 650.608 290.086 651.021 290.269L659.333 295.081C659.998 295.453 659.92 296.137 659.157 296.587L650.904 301.34C650.502 301.549 650.058 301.66 649.605 301.664C649.153 301.667 648.706 301.563 648.302 301.36Z" fill="#24126A"/>
<path d="M661.152 308.793L652.821 303.981C652.156 303.59 652.254 302.925 653.016 302.475L661.25 297.722C661.648 297.502 662.092 297.376 662.547 297.356C663.001 297.336 663.455 297.421 663.871 297.604L672.183 302.416C672.848 302.807 672.77 303.473 671.987 303.922L663.754 308.676C663.359 308.896 662.918 309.021 662.467 309.041C662.015 309.061 661.565 308.977 661.152 308.793Z" fill="#24126A"/>
<path d="M673.982 316.207L665.67 311.395C665.005 311.004 665.083 310.339 665.866 309.889L674.099 305.135C674.494 304.914 674.936 304.79 675.388 304.773C675.841 304.756 676.29 304.847 676.701 305.038L685.013 309.83C685.697 310.221 685.6 310.886 684.837 311.336L676.662 316.089C676.256 316.319 675.802 316.449 675.336 316.47C674.87 316.49 674.406 316.4 673.982 316.207Z" fill="#24126A"/>
<path d="M686.832 323.62L678.617 318.808C677.952 318.437 678.03 317.752 678.793 317.302L687.047 312.549C687.449 312.343 687.895 312.235 688.347 312.235C688.799 312.235 689.245 312.343 689.648 312.549L697.96 317.341C698.625 317.732 698.547 318.397 697.784 318.847L689.53 323.601C689.117 323.826 688.654 323.946 688.183 323.949C687.713 323.953 687.248 323.84 686.832 323.62Z" fill="#24126A"/>
<path d="M699.681 331.034L691.349 326.222C690.684 325.85 690.782 325.166 691.545 324.735L699.778 319.962C700.186 319.761 700.634 319.656 701.089 319.656C701.543 319.656 701.992 319.761 702.399 319.962L710.711 324.755C711.376 325.146 711.298 325.811 710.516 326.261L702.282 331.014C701.881 331.223 701.436 331.334 700.984 331.337C700.531 331.341 700.085 331.237 699.681 331.034Z" fill="#24126A"/>
<path d="M712.511 338.447L704.199 333.655C703.534 333.263 703.613 332.579 704.395 332.148L712.629 327.376C713.025 327.159 713.466 327.037 713.918 327.02C714.369 327.003 714.819 327.091 715.23 327.278L723.542 332.07C724.227 332.461 724.129 333.146 723.366 333.576L715.132 338.349C714.732 338.566 714.288 338.688 713.833 338.705C713.379 338.722 712.926 338.634 712.511 338.447Z" fill="#24126A"/>
<path d="M725.361 345.861L717.049 341.068C716.384 340.677 716.462 340.012 717.225 339.562L725.478 334.809C725.871 334.585 726.312 334.457 726.765 334.436C727.217 334.416 727.668 334.504 728.08 334.692L736.392 339.504C737.057 339.875 736.978 340.56 736.216 340.99L727.962 345.763C727.566 345.98 727.125 346.101 726.673 346.118C726.222 346.135 725.772 346.047 725.361 345.861Z" fill="#24126A"/>
<path d="M738.21 353.372L729.878 348.579C729.213 348.188 729.311 347.523 730.074 347.073L738.308 342.32C738.705 342.095 739.149 341.968 739.604 341.947C740.06 341.927 740.513 342.014 740.929 342.203L749.241 347.014C749.906 347.386 749.827 348.071 749.045 348.521L740.811 353.274C740.416 353.495 739.975 353.619 739.522 353.636C739.07 353.653 738.62 353.563 738.21 353.372Z" fill="#24126A"/>
<path d="M750.982 360.688L742.67 355.895C742.005 355.504 742.083 354.839 742.865 354.389L751.099 349.636C751.494 349.416 751.934 349.291 752.386 349.271C752.837 349.25 753.287 349.335 753.7 349.519L762.012 354.331C762.697 354.702 762.599 355.387 761.836 355.837L753.602 360.59C753.204 360.811 752.759 360.936 752.304 360.953C751.848 360.97 751.395 360.879 750.982 360.688Z" fill="#24126A"/>
<path d="M773.884 373.871L755.734 363.406C755.069 363.015 755.147 362.35 755.91 361.9L764.163 357.147C764.557 356.922 764.998 356.795 765.45 356.774C765.902 356.754 766.353 356.841 766.765 357.029L784.914 367.514C785.579 367.886 785.501 368.57 784.719 369.02L776.407 373.773C776.022 373.982 775.594 374.099 775.157 374.116C774.719 374.133 774.284 374.049 773.884 373.871Z" fill="#24126A"/>
<path d="M798.879 359.436L783.565 350.594C782.9 350.203 782.978 349.538 783.761 349.088L791.994 344.335C792.397 344.129 792.843 344.021 793.295 344.021C793.747 344.021 794.193 344.129 794.596 344.335L809.91 353.176C810.575 353.548 810.496 354.233 809.734 354.683L801.48 359.436C801.078 359.642 800.632 359.749 800.179 359.749C799.727 359.749 799.281 359.642 798.879 359.436Z" fill="#24126A"/>
<path d="M670.794 299.913L662.481 295.12C661.816 294.729 661.895 294.064 662.657 293.614L670.911 288.861C671.304 288.636 671.745 288.509 672.197 288.488C672.65 288.468 673.1 288.555 673.512 288.743L681.824 293.555C682.489 293.927 682.411 294.612 681.648 295.042L673.395 299.815C673 300.036 672.558 300.16 672.106 300.177C671.654 300.194 671.204 300.104 670.794 299.913Z" fill="#24126A"/>
<path d="M657.631 292.323L649.28 287.511C648.615 287.12 648.693 286.455 649.456 286.005L657.709 281.252C658.112 281.046 658.558 280.938 659.01 280.938C659.462 280.938 659.908 281.046 660.31 281.252L668.623 286.044C669.288 286.435 669.209 287.1 668.447 287.55L660.193 292.303C659.796 292.502 659.358 292.607 658.914 292.61C658.47 292.613 658.031 292.515 657.631 292.323Z" fill="#24126A"/>
<path d="M644.469 284.714L636.157 279.922C635.492 279.53 635.57 278.865 636.333 278.415L644.587 273.662C644.98 273.438 645.421 273.31 645.873 273.29C646.325 273.269 646.776 273.357 647.188 273.545L655.5 278.337C656.165 278.728 656.087 279.413 655.324 279.843L647.071 284.616C646.674 284.833 646.233 284.955 645.781 284.972C645.33 284.989 644.881 284.901 644.469 284.714Z" fill="#24126A"/>
<path d="M631.306 277.085L622.994 272.273C622.329 271.882 622.407 271.217 623.17 270.767L631.424 266.014C631.818 265.794 632.259 265.669 632.71 265.648C633.162 265.628 633.612 265.713 634.025 265.897L642.337 270.708C643.002 271.1 642.924 271.765 642.161 272.215L633.907 277.085C633.504 277.287 633.058 277.392 632.607 277.392C632.155 277.392 631.71 277.287 631.306 277.085Z" fill="#24126A"/>
<path d="M683.644 307.326L675.312 302.514C674.647 302.123 674.745 301.458 675.507 301.008L683.741 296.255C684.14 296.034 684.583 295.909 685.038 295.889C685.493 295.869 685.946 295.954 686.362 296.137L694.674 300.949C695.339 301.321 695.261 302.006 694.479 302.455L686.245 307.209C685.852 307.433 685.411 307.561 684.958 307.581C684.506 307.602 684.055 307.514 683.644 307.326Z" fill="#24126A"/>
<path d="M696.473 314.759L688.161 309.947C687.496 309.556 687.574 308.891 688.357 308.441L696.591 303.688C696.985 303.468 697.426 303.343 697.877 303.323C698.329 303.302 698.779 303.387 699.192 303.571L707.504 308.383C708.189 308.774 708.091 309.439 707.328 309.889L699.094 314.642C698.696 314.862 698.252 314.987 697.797 315.008C697.343 315.028 696.89 314.943 696.473 314.759Z" fill="#24126A"/>
<path d="M709.323 322.173L701.011 317.361C700.346 316.97 700.424 316.305 701.187 315.855L709.44 311.102C709.835 310.882 710.276 310.757 710.727 310.736C711.178 310.716 711.628 310.801 712.041 310.984L720.353 315.796C721.018 316.188 720.94 316.853 720.158 317.303L711.865 322.075C711.477 322.283 711.046 322.399 710.605 322.416C710.165 322.433 709.726 322.35 709.323 322.173Z" fill="#24126A"/>
<path d="M722.172 329.587L713.821 324.775C713.156 324.403 713.254 323.718 714.017 323.268L722.251 318.515C722.649 318.294 723.094 318.169 723.549 318.152C724.005 318.135 724.458 318.226 724.871 318.417L733.184 323.21C733.848 323.601 733.77 324.266 732.988 324.716L724.754 329.469C724.362 329.686 723.925 329.809 723.477 329.83C723.029 329.85 722.583 329.767 722.172 329.587Z" fill="#24126A"/>
<path d="M735.003 337L726.691 332.188C726.026 331.816 726.104 331.132 726.886 330.682L735.12 325.929C735.515 325.707 735.957 325.583 736.409 325.566C736.861 325.549 737.311 325.64 737.721 325.831L746.033 330.623C746.718 331.014 746.62 331.679 745.857 332.129L737.604 336.883C737.211 337.107 736.77 337.235 736.317 337.255C735.865 337.275 735.414 337.188 735.003 337Z" fill="#24126A"/>
<path d="M747.852 344.413L739.54 339.68C738.875 339.288 738.953 338.604 739.716 338.173L747.969 333.401C748.373 333.199 748.819 333.094 749.27 333.094C749.722 333.094 750.167 333.199 750.571 333.401L758.883 338.193C759.548 338.584 759.47 339.249 758.687 339.699L750.453 344.452C750.048 344.652 749.6 344.753 749.148 344.746C748.696 344.74 748.252 344.625 747.852 344.413Z" fill="#24126A"/>
<path d="M760.76 351.826L752.429 347.034C751.764 346.643 751.861 345.958 752.624 345.528L760.858 340.755C761.254 340.538 761.696 340.416 762.147 340.4C762.599 340.383 763.048 340.471 763.459 340.657L771.791 345.45C772.456 345.841 772.378 346.525 771.595 346.956L763.361 351.729C762.965 351.945 762.524 352.067 762.072 352.084C761.621 352.101 761.172 352.013 760.76 351.826Z" fill="#24126A"/>
<path d="M773.532 359.24L765.22 354.448C764.555 354.057 764.633 353.392 765.415 352.942L773.649 348.188C774.043 347.964 774.483 347.836 774.936 347.816C775.388 347.795 775.839 347.883 776.251 348.071L784.563 352.883C785.228 353.255 785.149 353.939 784.387 354.37L776.133 359.24C775.729 359.442 775.284 359.547 774.833 359.547C774.381 359.547 773.936 359.442 773.532 359.24Z" fill="#24126A"/>
<path d="M786.381 366.654L778.069 361.861C777.404 361.47 777.483 360.805 778.245 360.355L786.499 355.602C786.892 355.378 787.333 355.25 787.785 355.229C788.237 355.209 788.688 355.297 789.1 355.485L797.412 360.297C798.077 360.668 797.999 361.353 797.217 361.803L788.983 366.556C788.588 366.777 788.146 366.902 787.694 366.919C787.242 366.936 786.792 366.845 786.381 366.654Z" fill="#24126A"/>
<path d="M664.027 281.584L655.715 276.772C655.05 276.381 655.128 275.716 655.911 275.266L664.144 270.513C664.539 270.293 664.98 270.168 665.431 270.147C665.883 270.127 666.333 270.212 666.746 270.396L675.058 275.207C675.723 275.599 675.644 276.264 674.882 276.714L666.628 281.467C666.233 281.687 665.793 281.812 665.341 281.832C664.89 281.853 664.44 281.768 664.027 281.584Z" fill="#24126A"/>
<path d="M651.236 274.19L642.924 269.398C642.239 269.007 642.337 268.342 643.1 267.892L651.334 263.139C651.731 262.914 652.175 262.786 652.63 262.766C653.086 262.745 653.539 262.833 653.955 263.021L662.267 267.833C662.932 268.205 662.853 268.889 662.071 269.339L653.837 274.093C653.442 274.314 653.001 274.438 652.548 274.455C652.096 274.472 651.646 274.381 651.236 274.19Z" fill="#24126A"/>
<path d="M638.465 266.816L630.152 262.023C629.487 261.632 629.566 260.947 630.348 260.517L638.582 255.744C638.978 255.527 639.42 255.406 639.871 255.389C640.322 255.372 640.772 255.46 641.183 255.646L649.515 260.439C650.18 260.83 650.082 261.515 649.319 261.945L641.085 266.718C640.686 266.935 640.241 267.057 639.786 267.074C639.332 267.091 638.879 267.002 638.465 266.816Z" fill="#24126A"/>
<path d="M625.693 259.481L617.381 254.669C616.716 254.297 616.795 253.613 617.557 253.163L625.811 248.409C626.213 248.203 626.659 248.096 627.111 248.096C627.564 248.096 628.009 248.203 628.412 248.409L636.724 253.202C637.389 253.593 637.311 254.258 636.548 254.708L628.295 259.461C627.894 259.67 627.449 259.781 626.996 259.784C626.544 259.788 626.098 259.684 625.693 259.481Z" fill="#24126A"/>
<path d="M638.836 251.852L630.524 247.04C629.859 246.668 629.937 245.984 630.7 245.534L633.438 243.969C633.841 243.763 634.286 243.656 634.739 243.656C635.191 243.656 635.637 243.763 636.039 243.969L644.351 248.761C645.016 249.153 644.938 249.818 644.156 250.267L641.457 251.656C641.068 251.896 640.626 252.04 640.17 252.074C639.714 252.108 639.257 252.032 638.836 251.852Z" fill="#24126A"/>
<path d="M655.519 261.437L647.187 256.644C646.522 256.253 646.62 255.588 647.383 255.138L650.102 253.554C650.498 253.337 650.939 253.215 651.391 253.198C651.842 253.181 652.291 253.269 652.703 253.456L661.034 258.248C661.699 258.639 661.621 259.304 660.839 259.754L658.12 261.339C657.724 261.556 657.283 261.677 656.831 261.694C656.38 261.711 655.931 261.623 655.519 261.437Z" fill="#24126A"/>
<path d="M668.232 268.831L659.92 264.019C659.255 263.647 659.333 262.962 660.115 262.512L662.834 260.948C663.228 260.726 663.67 260.602 664.122 260.585C664.575 260.568 665.025 260.659 665.435 260.85L673.747 265.642C674.412 266.033 674.334 266.698 673.571 267.148L670.833 268.713C670.44 268.938 669.999 269.065 669.546 269.086C669.094 269.106 668.643 269.019 668.232 268.831Z" fill="#24126A"/>
<path d="M680.964 276.185L672.749 271.373C672.085 270.982 672.163 270.317 672.925 269.867L675.664 268.302C676.057 268.078 676.498 267.95 676.95 267.93C677.402 267.909 677.853 267.997 678.265 268.185L686.577 272.997C687.242 273.369 687.164 274.053 686.381 274.503L683.663 276.068C683.256 276.304 682.798 276.438 682.328 276.458C681.858 276.479 681.39 276.385 680.964 276.185Z" fill="#24126A"/>
<path d="M693.696 283.521L685.365 278.728C684.7 278.337 684.797 277.672 685.56 277.222L688.279 275.638C688.683 275.436 689.128 275.331 689.579 275.331C690.031 275.331 690.476 275.436 690.88 275.638L699.212 280.43C699.877 280.821 699.798 281.486 699.016 281.936L696.298 283.521C695.894 283.722 695.448 283.827 694.997 283.827C694.546 283.827 694.1 283.722 693.696 283.521Z" fill="#24126A"/>
<path d="M764.672 324.539L756.36 319.747C755.695 319.355 755.773 318.69 756.556 318.241L759.274 316.676C759.667 316.451 760.108 316.324 760.561 316.303C761.013 316.283 761.463 316.37 761.875 316.558L770.187 321.37C770.852 321.742 770.774 322.427 770.011 322.876L767.273 324.441C766.878 324.663 766.437 324.787 765.984 324.804C765.532 324.821 765.082 324.73 764.672 324.539Z" fill="#24126A"/>
<path d="M777.463 331.855L769.151 327.063C768.486 326.672 768.564 325.987 769.327 325.557L772.065 323.972C772.461 323.756 772.903 323.634 773.354 323.617C773.806 323.6 774.255 323.688 774.666 323.875L782.978 328.667C783.643 329.058 783.565 329.723 782.783 330.173L780.064 331.757C779.668 331.974 779.227 332.096 778.775 332.113C778.324 332.13 777.874 332.042 777.463 331.855Z" fill="#24126A"/>
<path d="M790.195 339.249L781.863 334.437C781.198 334.066 781.277 333.381 782.059 332.931L784.777 331.366C785.172 331.146 785.613 331.021 786.064 331.001C786.516 330.981 786.966 331.066 787.379 331.249L795.71 336.061C796.375 336.452 796.278 337.117 795.515 337.567L792.796 339.132C792.403 339.356 791.962 339.484 791.51 339.505C791.057 339.525 790.607 339.437 790.195 339.249Z" fill="#24126A"/>
<path d="M802.908 346.584L794.596 341.792C793.931 341.401 794.01 340.736 794.792 340.286L797.51 338.721C797.904 338.497 798.345 338.369 798.797 338.349C799.249 338.328 799.7 338.416 800.112 338.604L808.424 343.416C809.089 343.787 809.011 344.472 808.248 344.922L805.51 346.487C805.115 346.708 804.673 346.832 804.221 346.849C803.769 346.866 803.319 346.776 802.908 346.584Z" fill="#24126A"/>
<path d="M676.877 288.998L668.564 284.186C667.899 283.795 667.978 283.13 668.74 282.68L676.994 277.926C677.389 277.707 677.829 277.581 678.281 277.561C678.732 277.541 679.182 277.626 679.595 277.809L687.907 282.621C688.572 283.012 688.494 283.677 687.712 284.127L679.478 288.822C679.088 289.051 678.649 289.186 678.198 289.217C677.746 289.248 677.294 289.172 676.877 288.998Z" fill="#24126A"/>
<path d="M689.726 296.411L681.394 291.599C680.729 291.227 680.807 290.543 681.59 290.093L689.824 285.34C690.218 285.118 690.66 284.994 691.112 284.977C691.565 284.96 692.015 285.051 692.425 285.242L700.757 290.034C701.421 290.425 701.324 291.091 700.561 291.54L692.307 296.294C691.915 296.511 691.478 296.634 691.03 296.654C690.583 296.675 690.136 296.591 689.726 296.411Z" fill="#24126A"/>
<path d="M702.556 303.825L694.263 299.013C693.598 298.641 693.677 297.957 694.459 297.507L702.673 292.734C703.076 292.528 703.522 292.42 703.974 292.42C704.426 292.42 704.872 292.528 705.274 292.734L713.587 297.526C714.252 297.917 714.173 298.583 713.411 299.032L705.157 303.786C704.758 303.998 704.313 304.112 703.861 304.119C703.409 304.126 702.962 304.025 702.556 303.825Z" fill="#24126A"/>
<path d="M715.406 311.238L707.094 306.426C706.429 306.035 706.507 305.35 707.27 304.92L715.523 300.147C715.92 299.93 716.361 299.809 716.812 299.792C717.264 299.775 717.713 299.863 718.124 300.049L726.437 304.842C727.102 305.233 727.023 305.898 726.241 306.348L718.007 311.101C717.615 311.329 717.175 311.46 716.723 311.484C716.271 311.507 715.819 311.423 715.406 311.238Z" fill="#24126A"/>
<path d="M728.255 318.652L719.923 313.86C719.258 313.468 719.337 312.803 720.119 312.354L728.353 307.581C728.749 307.364 729.191 307.242 729.642 307.225C730.093 307.208 730.543 307.296 730.954 307.483L739.247 312.295C739.912 312.686 739.814 313.371 739.051 313.801L730.817 318.574C730.424 318.781 729.989 318.896 729.545 318.91C729.101 318.923 728.66 318.835 728.255 318.652Z" fill="#24126A"/>
<path d="M741.086 325.987L732.774 321.194C732.109 320.803 732.187 320.138 732.969 319.688L741.203 314.935C741.596 314.711 742.037 314.583 742.489 314.562C742.942 314.542 743.392 314.629 743.804 314.818L752.116 319.63C752.781 320.001 752.703 320.686 751.94 321.116L743.687 325.987C743.284 326.193 742.839 326.3 742.386 326.3C741.934 326.3 741.488 326.193 741.086 325.987Z" fill="#24126A"/>
<path d="M753.935 333.479L745.623 328.686C744.938 328.295 745.036 327.63 745.799 327.18L754.052 322.427C754.447 322.207 754.887 322.082 755.339 322.062C755.79 322.041 756.24 322.126 756.653 322.31L764.965 327.122C765.63 327.493 765.552 328.178 764.77 328.628L756.536 333.381C756.141 333.602 755.699 333.727 755.247 333.744C754.795 333.761 754.345 333.67 753.935 333.479Z" fill="#24126A"/>
<path d="M766.784 340.912L758.453 336.1C757.788 335.709 757.866 335.044 758.648 334.594L766.882 329.841C767.277 329.621 767.718 329.495 768.169 329.475C768.62 329.455 769.07 329.54 769.483 329.723L777.815 334.535C778.48 334.926 778.382 335.591 777.619 336.041L769.386 340.795C768.991 341.014 768.55 341.14 768.099 341.16C767.647 341.18 767.197 341.095 766.784 340.912Z" fill="#24126A"/>
<path d="M779.615 348.325L771.303 343.592C770.638 343.2 770.716 342.535 771.498 342.085L779.732 337.332C780.127 337.112 780.568 336.987 781.019 336.967C781.471 336.946 781.921 337.031 782.333 337.215L790.646 342.027C791.311 342.418 791.232 343.083 790.47 343.533L782.275 348.208C781.873 348.437 781.422 348.568 780.959 348.588C780.496 348.609 780.036 348.519 779.615 348.325Z" fill="#24126A"/>
<path d="M603.456 289.898L578.872 275.755C578.207 275.384 578.285 274.699 579.067 274.269L587.301 269.496C587.697 269.279 588.139 269.157 588.59 269.14C589.042 269.123 589.491 269.212 589.902 269.398L614.408 283.54C615.073 283.912 614.995 284.597 614.213 285.047L605.979 289.8C605.594 290.008 605.166 290.126 604.729 290.143C604.291 290.16 603.856 290.076 603.456 289.898Z" fill="#24126A"/>
<path d="M761.23 381.011L736.744 366.869C736.059 366.478 736.157 365.813 736.92 365.363L745.115 360.609C745.513 360.389 745.957 360.264 746.411 360.244C746.866 360.223 747.319 360.308 747.735 360.492L772.222 374.634C772.887 375.026 772.809 375.71 772.026 376.141L763.792 380.913C763.401 381.124 762.967 381.242 762.523 381.259C762.079 381.276 761.637 381.191 761.23 381.011Z" fill="#24126A"/>
<path d="M709.91 367.73L701.598 362.937C700.913 362.546 701.011 361.881 701.774 361.431L711.553 355.759C711.948 355.537 712.389 355.413 712.842 355.396C713.294 355.379 713.744 355.47 714.154 355.661L722.466 360.453C723.151 360.844 723.053 361.509 722.29 361.959L712.511 367.632C712.116 367.853 711.675 367.978 711.222 367.995C710.77 368.012 710.32 367.921 709.91 367.73Z" fill="#24126A"/>
<path d="M616.599 313.879L603.299 306.211C602.634 305.82 602.713 305.135 603.495 304.705L613.274 299.032C613.669 298.813 614.109 298.687 614.561 298.667C615.012 298.647 615.462 298.732 615.875 298.915L629.175 306.602C629.84 306.994 629.761 307.659 628.979 308.109L619.2 313.781C618.804 313.998 618.362 314.12 617.911 314.137C617.46 314.154 617.01 314.065 616.599 313.879Z" fill="#24126A"/>
<path d="M697.49 360.59L684.191 352.903C683.526 352.531 683.604 351.846 684.387 351.416L694.166 345.743C694.56 345.523 695.001 345.398 695.452 345.378C695.904 345.358 696.354 345.442 696.767 345.626L710.066 353.313C710.731 353.705 710.653 354.37 709.871 354.82L700.092 360.492C699.695 360.709 699.254 360.831 698.803 360.848C698.351 360.865 697.902 360.776 697.49 360.59Z" fill="#24126A"/>
<path d="M635.14 324.578L621.899 316.911C621.234 316.519 621.332 315.835 622.095 315.404L631.874 309.732C632.269 309.512 632.709 309.387 633.161 309.366C633.612 309.346 634.062 309.431 634.475 309.615L647.774 317.302C648.439 317.693 648.361 318.358 647.598 318.808L637.819 324.481C637.413 324.71 636.958 324.839 636.492 324.856C636.025 324.873 635.562 324.778 635.14 324.578Z" fill="#24126A"/>
<path d="M634.533 309.674L692.308 343.064C692.462 343.12 692.595 343.223 692.689 343.357C692.783 343.492 692.834 343.652 692.834 343.817C692.834 343.981 692.783 344.141 692.689 344.276C692.595 344.411 692.462 344.513 692.308 344.57L682.313 350.34C681.91 350.543 681.465 350.649 681.013 350.649C680.561 350.649 680.116 350.543 679.712 350.34L621.899 316.95L634.533 309.674Z" fill="#24126A"/>
<path d="M745.759 381.187L755.03 386.527C755.577 386.84 755.499 387.407 754.873 387.759L750.864 390.087C750.529 390.25 750.161 390.334 749.788 390.334C749.416 390.334 749.048 390.25 748.713 390.087L739.462 384.747C738.914 384.434 738.973 383.867 739.618 383.515L743.627 381.187C743.959 381.023 744.324 380.938 744.693 380.938C745.063 380.938 745.428 381.023 745.759 381.187Z" fill="#24126A"/>
<path d="M732.812 373.695L742.082 379.055C742.63 379.368 742.552 379.916 741.926 380.287L737.897 382.713C737.566 382.877 737.201 382.962 736.831 382.962C736.461 382.962 736.097 382.877 735.765 382.713L726.514 377.373C725.967 377.04 726.025 376.493 726.651 376.141L730.68 373.813C731.001 373.626 731.361 373.518 731.732 373.498C732.103 373.477 732.473 373.545 732.812 373.695Z" fill="#24126A"/>
<path d="M719.963 366.282L729.233 371.642C729.781 371.955 729.703 372.502 729.077 372.874L725.068 375.182C724.737 375.349 724.372 375.436 724.002 375.436C723.631 375.436 723.266 375.349 722.936 375.182L713.665 369.822C713.118 369.509 713.176 368.962 713.822 368.59L717.831 366.282C718.161 366.114 718.526 366.026 718.897 366.026C719.268 366.026 719.633 366.114 719.963 366.282Z" fill="#24126A"/>
<path d="M739.911 369.608L749.162 374.967C749.71 375.28 749.651 375.828 749.006 376.2L744.997 378.508C744.674 378.691 744.313 378.796 743.942 378.813C743.572 378.83 743.203 378.759 742.865 378.606L733.594 373.246C733.047 372.933 733.125 372.385 733.751 372.014L737.76 369.706C738.086 369.523 738.451 369.419 738.824 369.402C739.198 369.385 739.57 369.456 739.911 369.608Z" fill="#24126A"/>
</g>
<path d="M870.93 169.756C870.241 169.756 869.564 169.566 868.974 169.208C868.002 168.633 867.224 167.779 866.739 166.758C866.255 165.737 866.087 164.594 866.256 163.477C866.339 163.026 866.53 162.602 866.812 162.24C867.095 161.879 867.461 161.592 867.879 161.404C868.385 161.214 868.927 161.146 869.464 161.203C870 161.261 870.516 161.444 870.969 161.736C871.938 162.316 872.713 163.169 873.197 164.19C873.681 165.21 873.852 166.35 873.688 167.467C873.583 167.898 873.381 168.299 873.096 168.638C872.811 168.977 872.451 169.246 872.045 169.423C871.701 169.611 871.321 169.724 870.93 169.756ZM868.974 162.069C868.699 162.06 868.425 162.113 868.173 162.225C867.883 162.357 867.63 162.558 867.436 162.811C867.242 163.063 867.112 163.359 867.058 163.673C866.924 164.605 867.072 165.556 867.483 166.403C867.895 167.25 868.55 167.955 869.366 168.426C869.695 168.649 870.071 168.791 870.465 168.842C870.859 168.893 871.26 168.851 871.634 168.719C871.926 168.585 872.181 168.381 872.375 168.125C872.57 167.869 872.698 167.569 872.749 167.252C872.882 166.322 872.736 165.374 872.328 164.527C871.921 163.681 871.271 162.975 870.461 162.499C870.035 162.24 869.551 162.092 869.053 162.069H868.974Z" fill="white"/>
<path d="M881.511 175.878C880.82 175.865 880.146 175.67 879.555 175.311C878.585 174.733 877.808 173.88 877.324 172.859C876.84 171.839 876.67 170.697 876.837 169.58C876.94 169.149 877.142 168.747 877.427 168.408C877.712 168.068 878.073 167.8 878.48 167.624C878.979 167.427 879.519 167.353 880.053 167.407C880.587 167.462 881.1 167.643 881.55 167.937C882.523 168.512 883.301 169.366 883.785 170.387C884.27 171.408 884.438 172.551 884.269 173.668C884.183 174.118 883.991 174.541 883.708 174.902C883.426 175.262 883.062 175.55 882.645 175.741C882.28 175.864 881.895 175.91 881.511 175.878ZM879.555 168.171C879.287 168.172 879.021 168.226 878.773 168.328C878.481 168.462 878.226 168.666 878.032 168.922C877.838 169.178 877.709 169.478 877.658 169.795C877.519 170.725 877.664 171.676 878.072 172.523C878.48 173.371 879.133 174.076 879.946 174.548C880.279 174.772 880.66 174.914 881.057 174.962C881.455 175.009 881.859 174.961 882.235 174.822C882.524 174.69 882.777 174.489 882.971 174.237C883.166 173.984 883.295 173.688 883.349 173.375C883.481 172.443 883.331 171.493 882.92 170.646C882.509 169.799 881.855 169.094 881.042 168.621C880.618 168.355 880.133 168.2 879.633 168.171H879.555Z" fill="white"/>
<path d="M894.439 179.595C894.35 180.017 894.155 180.409 893.871 180.734C893.588 181.059 893.225 181.306 892.819 181.451C892.413 181.596 891.977 181.635 891.552 181.563C891.126 181.492 890.727 181.312 890.391 181.042C889.496 180.52 888.778 179.741 888.332 178.807C887.885 177.872 887.73 176.824 887.887 175.8C887.976 175.378 888.171 174.986 888.455 174.661C888.738 174.336 889.101 174.089 889.507 173.944C889.913 173.799 890.349 173.76 890.774 173.832C891.2 173.903 891.599 174.082 891.936 174.352C892.83 174.874 893.548 175.653 893.994 176.588C894.441 177.523 894.596 178.571 894.439 179.595Z" fill="white"/>
<path d="M691.408 62.7198L685.736 59.4532L686.186 56.832L691.838 60.1182L691.408 62.7198Z" fill="white"/>
<path d="M699.642 67.473L693.97 64.2063L694.4 61.5852L700.072 64.8518L699.642 67.473Z" fill="white"/>
<path d="M683.252 58.025L670.833 50.8462L671.283 48.2251L683.702 55.4039L683.252 58.025Z" fill="white"/>
<path d="M684.817 107.435L675.331 101.958L675.703 99.7871L685.188 105.245L684.817 107.435Z" fill="white"/>
<path d="M692.914 112.11L688.161 109.372L688.533 107.181L693.266 109.92L692.914 112.11Z" fill="white"/>
<path d="M686.754 114.203L682.725 111.856L683.077 109.665L687.125 112.013L686.754 114.203Z" fill="white"/>
<path d="M693.52 118.096L688.787 115.358L689.139 113.167L693.892 115.905L693.52 118.096Z" fill="white"/>
<path d="M700.483 127.759L681.844 117.001L682.216 114.81L700.855 125.568L700.483 127.759Z" fill="white"/>
<path d="M684.328 170.773L665.708 160.015L666.08 157.824L684.699 168.582L684.328 170.773Z" fill="white"/>
<path d="M691.486 174.9L686.753 172.162L687.125 169.971L691.858 172.709L691.486 174.9Z" fill="white"/>
<path d="M685.032 124.473L680.984 122.145L681.355 119.954L685.404 122.282L685.032 124.473Z" fill="white"/>
<path d="M691.799 128.385L687.046 125.647L687.418 123.456L692.171 126.194L691.799 128.385Z" fill="white"/>
<path d="M690.371 133.197L680.123 127.27L680.495 125.079L690.743 131.006L690.371 133.197Z" fill="white"/>
<path d="M697.217 137.148L692.484 134.41L692.855 132.219L697.589 134.957L697.217 137.148Z" fill="white"/>
<path d="M704.121 141.119L699.368 138.38L699.74 136.19L704.473 138.928L704.121 141.119Z" fill="white"/>
<path d="M715.229 147.555L706.272 142.371L706.624 140.18L715.601 145.364L715.229 147.555Z" fill="white"/>
<path d="M708.13 154.714L703.397 151.975L703.769 149.784L708.502 152.523L708.13 154.714Z" fill="white"/>
<path d="M719.258 161.129L710.281 155.965L710.653 153.775L719.61 158.958L719.258 161.129Z" fill="white"/>
<path d="M683.154 140.297L678.402 137.559L678.773 135.368L683.506 138.107L683.154 140.297Z" fill="white"/>
<path d="M690.039 144.268L685.306 141.53L685.658 139.339L690.41 142.078L690.039 144.268Z" fill="white"/>
<path d="M701.148 150.684L692.19 145.501L692.562 143.31L701.52 148.493L701.148 150.684Z" fill="white"/>
<path d="M715.719 153.462L710.986 150.723L711.357 148.532L716.09 151.271L715.719 153.462Z" fill="white"/>
<path d="M722.622 157.452L717.87 154.714L718.241 152.523L722.974 155.261L722.622 157.452Z" fill="white"/>
<path d="M733.731 163.868L724.774 158.684L725.126 156.494L734.103 161.677L733.731 163.868Z" fill="white"/>
<path d="M698.919 179.184L694.166 176.446L694.538 174.255L699.271 176.993L698.919 179.184Z" fill="white"/>
<path d="M710.027 185.62L701.069 180.436L701.421 178.245L710.398 183.409L710.027 185.62Z" fill="white"/>
<path d="M681.434 150.567L676.681 147.828L677.053 145.637L681.786 148.376L681.434 150.567Z" fill="white"/>
<path d="M692.542 156.983L683.585 151.799L683.937 149.608L692.914 154.792L692.542 156.983Z" fill="white"/>
<path d="M704.082 187.81L699.329 185.072L699.701 182.881L704.434 185.62L704.082 187.81Z" fill="white"/>
<path d="M715.19 194.226L706.232 189.043L706.584 186.852L715.562 192.035L715.19 194.226Z" fill="white"/>
<path d="M714.643 135.935L709.91 133.197L710.281 131.006L715.014 133.745L714.643 135.935Z" fill="white"/>
<path d="M707.485 131.808L702.732 129.069L703.104 126.879L707.856 129.617L707.485 131.808Z" fill="white"/>
<path d="M725.771 142.351L716.794 137.187L717.166 134.997L726.143 140.161L725.771 142.351Z" fill="white"/>
<path d="M683.545 134.879L679.262 132.414L679.634 130.224L683.917 132.688L683.545 134.879Z" fill="white"/>
<path d="M696.219 142.214L685.834 136.209L686.206 134.019L696.591 140.024L696.219 142.214Z" fill="white"/>
<path d="M708.912 149.53L698.507 143.525L698.879 141.334L709.264 147.339L708.912 149.53Z" fill="white"/>
<path d="M732.362 146.165L728.079 143.701L728.451 141.51L732.714 143.975L732.362 146.165Z" fill="white"/>
<path d="M745.036 153.481L734.631 147.476L735.003 145.285L745.408 151.291L745.036 153.481Z" fill="white"/>
<path d="M757.709 160.797L747.324 154.811L747.676 152.601L758.081 158.606L757.709 160.797Z" fill="white"/>
<path d="M688.024 148.748L677.639 142.743L678.011 140.552L688.396 146.557L688.024 148.748Z" fill="white"/>
<path d="M693.52 151.917L690.313 150.058L690.685 147.868L693.872 149.726L693.52 151.917Z" fill="white"/>
<path d="M698.997 155.085L695.809 153.246L696.18 151.056L699.368 152.894L698.997 155.085Z" fill="white"/>
<path d="M709.147 160.953L701.304 156.415L701.676 154.225L709.519 158.743L709.147 160.953Z" fill="white"/>
<path d="M720.53 150.606L717.342 148.767L717.713 146.576L720.901 148.415L720.53 150.606Z" fill="white"/>
<path d="M730.68 156.474L722.837 151.936L723.189 149.745L731.052 154.283L730.68 156.474Z" fill="white"/>
<path d="M732.812 157.706L724.969 153.168L725.321 150.978L733.184 155.516L732.812 157.706Z" fill="white"/>
<path d="M691.016 185.893L680.768 179.986L681.14 177.795L691.368 183.702L691.016 185.893Z" fill="white"/>
<path d="M697.862 189.864L693.129 187.126L693.5 184.935L698.234 187.654L697.862 189.864Z" fill="white"/>
<path d="M704.747 193.835L700.014 191.097L700.385 188.906L705.118 191.644L704.747 193.835Z" fill="white"/>
<path d="M715.875 200.251L706.898 195.068L707.27 192.877L716.247 198.06L715.875 200.251Z" fill="white"/>
<path d="M722.974 204.359L718.241 201.62L718.613 199.429L723.346 202.168L722.974 204.359Z" fill="white"/>
<path d="M734.103 210.775L725.126 205.61L725.498 203.42L734.475 208.584L734.103 210.775Z" fill="white"/>
<path d="M699.994 202.363L695.261 199.625L695.613 197.434L700.365 200.173L699.994 202.363Z" fill="white"/>
<path d="M711.123 208.779L702.146 203.596L702.517 201.405L711.475 206.589L711.123 208.779Z" fill="white"/>
<path d="M675.233 188.065L670.5 185.326L670.872 183.135L675.605 185.874L675.233 188.065Z" fill="white"/>
<path d="M682.137 192.035L677.385 189.297L677.756 187.106L682.489 189.844L682.137 192.035Z" fill="white"/>
<path d="M693.247 198.471L684.27 193.287L684.641 191.097L693.618 196.28L693.247 198.471Z" fill="white"/>
<path d="M684.191 187.595L679.908 185.131L680.279 182.94L684.543 185.405L684.191 187.595Z" fill="white"/>
<path d="M696.865 194.911L686.479 188.906L686.832 186.715L697.236 192.72L696.865 194.911Z" fill="white"/>
<path d="M709.539 202.246L699.153 196.241L699.525 194.05L709.91 200.055L709.539 202.246Z" fill="white"/>
<path d="M671.733 191.683L661.348 185.678L661.719 183.487L672.105 189.492L671.733 191.683Z" fill="white"/>
<path d="M677.229 194.852L674.021 192.994L674.393 190.803L677.581 192.661L677.229 194.852Z" fill="white"/>
<path d="M682.705 198.021L679.517 196.163L679.888 193.972L683.076 195.83L682.705 198.021Z" fill="white"/>
<path d="M692.855 203.87L685.013 199.332L685.384 197.141L693.227 201.679L692.855 203.87Z" fill="white"/>
<path d="M694.987 205.102L687.145 200.564L687.516 198.373L695.359 202.911L694.987 205.102Z" fill="white"/>
<path d="M676.426 171.829L673.238 169.991L673.59 167.8L676.778 169.639L676.426 171.829Z" fill="white"/>
<path d="M686.577 177.697L678.715 173.159L679.086 170.969L686.949 175.507L686.577 177.697Z" fill="white"/>
<path d="M696.943 183.683L689.1 179.165L689.452 176.954L697.314 181.492L696.943 183.683Z" fill="white"/>
<path d="M736.92 218.032L732.167 215.293L732.539 213.102L737.272 215.841L736.92 218.032Z" fill="white"/>
<path d="M748.028 224.467L739.071 219.284L739.423 217.093L748.4 222.276L748.028 224.467Z" fill="white"/>
<path d="M719.415 207.938L711.553 203.4L711.924 201.209L719.787 205.748L719.415 207.938Z" fill="white"/>
<path d="M729.781 213.924L721.938 209.386L722.29 207.195L730.152 211.733L729.781 213.924Z" fill="white"/>
<path d="M670.872 150.117L667.684 148.259L668.036 146.068L671.244 147.926L670.872 150.117Z" fill="white"/>
<path d="M681.022 155.965L673.16 151.447L673.532 149.237L681.394 153.775L681.022 155.965Z" fill="white"/>
<path d="M691.389 161.951L683.546 157.433L683.898 155.242L691.76 159.76L691.389 161.951Z" fill="white"/>
<path d="M848.086 241.876C847.314 241.861 846.559 241.646 845.896 241.25L782.411 204.593C781.061 203.674 779.996 202.395 779.336 200.902C778.676 199.408 778.447 197.76 778.675 196.143L782.743 171.927C782.818 171.201 783.07 170.504 783.475 169.897C783.881 169.29 784.429 168.792 785.071 168.445C785.659 168.194 786.301 168.091 786.938 168.146C787.576 168.2 788.191 168.411 788.728 168.758L852.213 205.415C853.561 206.331 854.626 207.606 855.286 209.096C855.946 210.586 856.176 212.231 855.949 213.845L851.881 237.964C851.806 238.69 851.555 239.387 851.149 239.993C850.743 240.6 850.196 241.099 849.553 241.446C849.106 241.704 848.603 241.852 848.086 241.876ZM786.538 169.012C786.16 169.009 785.786 169.089 785.442 169.247C784.931 169.535 784.498 169.945 784.181 170.439C783.863 170.934 783.672 171.498 783.623 172.083L779.555 196.299C779.343 197.736 779.541 199.203 780.125 200.532C780.71 201.861 781.658 202.997 782.861 203.811L846.326 240.468C846.745 240.741 847.223 240.908 847.72 240.956C848.218 241.004 848.719 240.93 849.182 240.741C849.692 240.456 850.124 240.05 850.441 239.559C850.758 239.068 850.95 238.507 851.001 237.925L855.069 213.689C855.267 212.254 855.063 210.791 854.48 209.465C853.896 208.139 852.956 207.001 851.763 206.178L788.298 169.501C787.765 169.179 787.16 168.997 786.538 168.973V169.012Z" fill="white"/>
<path d="M841.105 283.462C840.332 283.448 839.577 283.232 838.914 282.836L775.429 246.18C774.079 245.26 773.014 243.982 772.354 242.488C771.694 240.995 771.465 239.346 771.693 237.729L775.761 213.513C775.836 212.787 776.088 212.09 776.493 211.483C776.899 210.877 777.447 210.378 778.089 210.031C778.68 209.777 779.325 209.672 779.967 209.727C780.608 209.782 781.226 209.994 781.766 210.344L845.231 247.001C846.581 247.915 847.647 249.191 848.307 250.681C848.967 252.172 849.196 253.818 848.967 255.432L844.86 279.648C844.785 280.374 844.534 281.071 844.128 281.678C843.722 282.284 843.175 282.783 842.532 283.13C842.086 283.342 841.599 283.456 841.105 283.462ZM839.364 282.054C839.779 282.327 840.254 282.494 840.748 282.542C841.242 282.59 841.741 282.516 842.2 282.328C842.71 282.041 843.144 281.635 843.464 281.145C843.784 280.654 843.981 280.094 844.038 279.511L848.087 255.275C848.297 253.844 848.107 252.383 847.538 251.054C846.968 249.724 846.041 248.579 844.86 247.744L781.394 211.088C780.976 210.815 780.497 210.647 780 210.599C779.503 210.552 779.001 210.625 778.539 210.814C778.027 211.102 777.594 211.512 777.277 212.006C776.96 212.5 776.769 213.065 776.72 213.65L772.495 237.964C772.297 239.399 772.501 240.862 773.084 242.188C773.668 243.514 774.608 244.652 775.801 245.475L839.364 282.054Z" fill="white"/>
<path style="mix-blend-mode:lighten" opacity="0.5" d="M788.142 201.933C789.256 202.598 790.254 202.344 790.625 201.327L798.038 181.101C798.879 178.793 802.341 180.886 803.064 184.153L807.7 204.515C808.045 206.006 808.947 207.308 810.223 208.154L811.318 208.779C812.374 209.386 813.274 209.21 813.743 208.33L815.249 205.141C816.188 203.185 819.317 205.024 820.158 208.075C820.535 209.468 821.413 210.673 822.622 211.459L823.581 212.007C824.735 212.672 825.752 212.398 826.104 211.342L827.473 207.117C828.255 204.73 831.717 206.706 832.499 209.992L837.076 228.849C837.428 230.326 838.339 231.609 839.618 232.428L788.142 201.933Z" fill="url(#paint6_linear_303_442)"/>
<path d="M831.482 273.877C830.087 272.984 829.097 271.58 828.724 269.965L824.148 251.109C823.993 250.27 823.61 249.49 823.041 248.855C822.471 248.22 821.738 247.754 820.921 247.51C820.701 247.501 820.486 247.571 820.314 247.707C820.142 247.844 820.024 248.037 819.982 248.253L818.613 252.478C818.531 252.751 818.391 253.002 818.202 253.215C818.012 253.428 817.779 253.597 817.518 253.71C817.172 253.818 816.807 253.848 816.448 253.797C816.09 253.746 815.747 253.616 815.445 253.417L814.486 252.85C813.175 252.009 812.221 250.713 811.807 249.211C811.641 248.412 811.263 247.672 810.713 247.07C810.162 246.467 809.459 246.025 808.678 245.788C808.482 245.754 808.28 245.79 808.108 245.89C807.936 245.99 807.805 246.148 807.739 246.336L806.233 249.524C806.137 249.759 805.991 249.97 805.805 250.142C805.619 250.314 805.398 250.444 805.157 250.522C804.824 250.6 804.479 250.609 804.143 250.548C803.806 250.488 803.486 250.359 803.201 250.17L802.106 249.544C800.721 248.644 799.74 247.241 799.368 245.632L794.811 225.269C794.662 224.421 794.282 223.631 793.712 222.986C793.143 222.34 792.406 221.865 791.584 221.611C791.369 221.595 791.156 221.655 790.981 221.78C790.806 221.905 790.68 222.088 790.626 222.296L783.233 242.522C783.141 242.78 782.996 243.016 782.808 243.215C782.619 243.414 782.391 243.571 782.137 243.676C781.808 243.762 781.463 243.778 781.127 243.724C780.79 243.67 780.468 243.547 780.182 243.363L780.612 242.58C780.8 242.713 781.014 242.804 781.24 242.848C781.466 242.892 781.698 242.887 781.922 242.835C782.054 242.777 782.171 242.691 782.266 242.583C782.361 242.474 782.43 242.347 782.47 242.209L789.882 221.983C789.994 221.591 790.239 221.25 790.574 221.018C790.909 220.786 791.315 220.678 791.721 220.711C792.744 220.967 793.67 221.516 794.386 222.291C795.102 223.066 795.576 224.033 795.75 225.073L800.326 245.436C800.634 246.813 801.46 248.018 802.634 248.801L803.729 249.426C803.911 249.549 804.115 249.635 804.33 249.679C804.545 249.722 804.766 249.723 804.981 249.681C805.104 249.641 805.217 249.575 805.312 249.487C805.406 249.4 805.48 249.292 805.529 249.172L807.035 245.984C807.181 245.632 807.437 245.337 807.765 245.143C808.093 244.949 808.475 244.866 808.854 244.908C809.818 245.157 810.695 245.67 811.386 246.388C812.077 247.106 812.554 248.003 812.765 248.977C813.114 250.262 813.921 251.375 815.034 252.106L815.992 252.654C816.176 252.788 816.387 252.879 816.611 252.919C816.834 252.96 817.064 252.95 817.283 252.889C817.426 252.835 817.554 252.746 817.653 252.63C817.752 252.513 817.82 252.374 817.85 252.224L819.239 247.999C819.332 247.612 819.552 247.269 819.864 247.024C820.177 246.779 820.563 246.647 820.96 246.649C821.983 246.883 822.915 247.412 823.641 248.17C824.368 248.927 824.857 249.881 825.048 250.913L829.605 269.77C829.937 271.13 830.777 272.313 831.952 273.075L831.482 273.877Z" fill="white"/>
<path d="M806.018 148.356C805.038 148.338 804.08 148.061 803.241 147.554L753.622 118.898C752.059 117.921 750.84 116.478 750.139 114.773C749.437 113.068 749.287 111.186 749.711 109.391C749.898 108.588 750.269 107.84 750.795 107.205C751.322 106.57 751.988 106.067 752.742 105.734C753.481 105.452 754.276 105.346 755.064 105.424C755.851 105.502 756.61 105.762 757.279 106.183L806.898 134.84C808.446 135.828 809.646 137.276 810.33 138.981C811.014 140.686 811.147 142.562 810.712 144.346C810.529 145.146 810.162 145.892 809.639 146.524C809.116 147.156 808.452 147.656 807.7 147.985C807.168 148.214 806.597 148.34 806.018 148.356ZM754.58 106.281C754.089 106.28 753.603 106.38 753.153 106.575C752.528 106.854 751.976 107.276 751.542 107.805C751.107 108.335 750.802 108.958 750.649 109.626C750.271 111.222 750.395 112.896 751.004 114.419C751.613 115.942 752.678 117.24 754.052 118.135L803.788 146.791C804.342 147.142 804.968 147.36 805.62 147.428C806.271 147.495 806.93 147.412 807.543 147.183C808.169 146.898 808.721 146.473 809.155 145.94C809.589 145.408 809.894 144.782 810.047 144.112C810.442 142.518 810.325 140.841 809.715 139.318C809.104 137.794 808.03 136.501 806.644 135.622L756.849 106.907C756.16 106.506 755.378 106.29 754.58 106.281Z" fill="white"/>
</g>
<defs>
<linearGradient id="paint0_linear_303_442" x1="923.111" y1="181.238" x2="617.381" y2="181.238" gradientUnits="userSpaceOnUse">
<stop stop-color="#C0BFF6"/>
<stop offset="0.29" stop-color="#C5C4F7"/>
<stop offset="0.64" stop-color="#D3D2F9"/>
<stop offset="1" stop-color="#E9E9FD"/>
</linearGradient>
<linearGradient id="paint1_linear_303_442" x1="923.111" y1="259.657" x2="870.618" y2="259.657" gradientUnits="userSpaceOnUse">
<stop stop-color="#5761D7"/>
<stop offset="0.18" stop-color="#5C66D9"/>
<stop offset="0.39" stop-color="#6A73DF"/>
<stop offset="0.61" stop-color="#8289E8"/>
<stop offset="0.85" stop-color="#A3A7F5"/>
<stop offset="1" stop-color="#BCBEFF"/>
</linearGradient>
<linearGradient id="paint2_linear_303_442" x1="882.157" y1="345.215" x2="450.356" y2="345.215" gradientUnits="userSpaceOnUse">
<stop stop-color="#5761D7"/>
<stop offset="0.18" stop-color="#5C66D9"/>
<stop offset="0.39" stop-color="#6A73DF"/>
<stop offset="0.61" stop-color="#8289E8"/>
<stop offset="0.85" stop-color="#A3A7F5"/>
<stop offset="1" stop-color="#BCBEFF"/>
</linearGradient>
<linearGradient id="paint3_linear_303_442" x1="1074" y1="333.42" x2="437.722" y2="333.42" gradientUnits="userSpaceOnUse">
<stop stop-color="#C0BFF6"/>
<stop offset="0.29" stop-color="#C5C4F7"/>
<stop offset="0.64" stop-color="#D3D2F9"/>
<stop offset="1" stop-color="#E9E9FD"/>
</linearGradient>
<linearGradient id="paint4_linear_303_442" x1="1048.2" y1="250.17" x2="616.404" y2="250.17" gradientUnits="userSpaceOnUse">
<stop stop-color="#5761D7"/>
<stop offset="0.18" stop-color="#5C66D9"/>
<stop offset="0.39" stop-color="#6A73DF"/>
<stop offset="0.61" stop-color="#8289E8"/>
<stop offset="0.85" stop-color="#A3A7F5"/>
<stop offset="1" stop-color="#BCBEFF"/>
</linearGradient>
<linearGradient id="paint5_linear_303_442" x1="903.104" y1="238.375" x2="471.089" y2="238.375" gradientUnits="userSpaceOnUse">
<stop stop-color="#C0BFF6"/>
<stop offset="0.29" stop-color="#C5C4F7"/>
<stop offset="0.64" stop-color="#D3D2F9"/>
<stop offset="1" stop-color="#E9E9FD"/>
</linearGradient>
<linearGradient id="paint6_linear_303_442" x1="792.992" y1="194.891" x2="884.195" y2="233.906" gradientUnits="userSpaceOnUse">
<stop stop-color="#42E8E0"/>
<stop offset="0.11" stop-color="#37B6BF"/>
<stop offset="0.22" stop-color="#2C87A1"/>
<stop offset="0.34" stop-color="#235F87"/>
<stop offset="0.46" stop-color="#1C3F72"/>
<stop offset="0.58" stop-color="#162561"/>
<stop offset="0.71" stop-color="#121355"/>
<stop offset="0.85" stop-color="#10084E"/>
<stop offset="1" stop-color="#0F054C"/>
</linearGradient>
<clipPath id="clip0_303_442">
<rect width="976" height="587" fill="white"/>
</clipPath>
</defs>
</svg>
