<svg width="615" height="448" viewBox="0 0 615 448" fill="none" xmlns="http://www.w3.org/2000/svg">
<ellipse cx="307.5" cy="405" rx="307.5" ry="43" fill="#9E3E55"/>
<path d="M300.264 0H78.5435V144.142H300.264V0Z" fill="#D8CFC5"/>
<path d="M133.607 75.1968C133.445 74.8194 132.761 74.6859 132.512 74.3376C131.88 73.4553 131.961 72.631 130.947 71.9518C130.535 71.6732 129.208 71.6848 129.173 70.9359C129.021 69.9441 128.765 68.9712 128.408 68.0335C127.725 65.8392 127.864 63.5231 127.22 61.2882C126.483 59.0208 125.562 56.8173 124.468 54.6996C123.662 53.1104 123.29 51.336 123.39 49.5564C123.597 47.7019 123.711 45.8381 123.731 43.9721C123.627 40.4892 122.097 35.9381 118.834 34.2082C118.342 33.947 113.265 32.281 113.265 32.0546V29.1522H115.044C116.823 29.0825 119.582 27.1785 119.536 25.17C117.507 26.2323 117.669 24.0612 117.183 22.7087C116.673 21.1775 115.887 19.753 114.864 18.5059C114.515 18.079 114.101 17.7106 113.636 17.4146C112.743 16.4889 111.524 15.9494 110.239 15.9111H109.66C108.382 15.9569 107.172 16.4956 106.281 17.4146C105.816 17.7104 105.401 18.0788 105.052 18.5059C103.379 20.4566 102.342 22.8731 102.079 25.4312C101.934 28.2466 104.293 29.1522 106.646 29.1522V32.0546C106.646 32.0952 100.306 34.4404 99.5988 35.137C97.1937 37.5054 96.278 40.6923 96.1852 43.9721C96.2059 45.8381 96.32 47.7019 96.5272 49.5564C96.6277 51.3368 96.2536 53.1118 95.4434 54.6996C94.3548 56.8206 93.4381 59.0258 92.7021 61.294C92.053 63.5289 92.1979 65.845 91.543 68.0393C91.1865 68.9771 90.9301 69.95 90.778 70.9418C90.72 71.6906 89.416 71.679 88.9988 71.9576C87.9903 72.6368 88.0657 73.4611 87.4398 74.3434C87.1906 74.6917 86.5067 74.8252 86.3444 75.2026C85.7649 76.5957 88.1584 75.2026 88.5525 74.9239C88.4772 76.0327 87.973 81.5241 89.8159 81.2455C92.3254 80.8682 92.6036 76.8337 93.2933 75.0226C94.2843 72.3349 94.9218 69.5834 96.0404 66.9248C97.1589 64.2661 99.5177 61.9035 100.005 59.0765C100.306 57.2363 100.005 55.3672 100.149 53.5154C100.199 52.6332 100.377 51.763 100.677 50.9322C100.926 50.2588 101.337 49.7016 101.54 48.9992C101.65 51.3211 102.954 52.6505 103.435 54.8041C104.316 58.7456 101.332 62.931 100.503 66.7216C98.8294 73.9147 98.3866 81.3401 99.1931 88.6816C99.6742 92.5651 101.946 96.0016 102.172 99.9721C102.323 102.677 101.326 105.522 101.227 108.262C101.094 112.052 101.807 115.808 101.766 119.552C101.737 121.624 101.963 123.732 101.766 125.798C101.569 127.865 99.935 129.049 98.5788 130.442C97.1009 131.98 99.6858 132.88 100.897 132.985C102.236 133.095 104.919 133.083 105.533 131.528C105.887 130.645 105.858 129.653 106.229 128.782C106.519 128.103 107.081 127.818 107.011 127.006C106.901 125.758 105.377 125.183 105.134 123.917C104.821 122.275 105.574 120.434 105.922 118.856C106.573 116.359 107.084 113.828 107.452 111.274C107.718 108.801 106.78 106.3 106.739 103.803C106.698 101.127 107.035 98.4629 107.029 95.7868C107.029 91.9091 108.257 88.1824 108.53 84.3395C108.692 81.9421 109.387 79.1151 108.802 76.7931C109.117 76.5901 109.478 76.4702 109.851 76.4448H109.915H110.019H110.083C110.456 76.4702 110.817 76.5901 111.132 76.7931C110.552 79.1151 111.236 81.9595 111.404 84.3395C111.671 88.1824 112.911 91.8859 112.905 95.7868C112.905 98.4629 113.236 101.127 113.195 103.803C113.155 106.3 112.216 108.801 112.477 111.274C112.853 113.831 113.374 116.364 114.036 118.861C114.383 120.446 115.137 122.28 114.818 123.923C114.575 125.189 113.05 125.763 112.946 127.011C112.876 127.824 113.439 128.109 113.728 128.788C114.099 129.658 114.07 130.651 114.424 131.533C115.044 133.089 117.721 133.101 119.06 132.991C120.289 132.886 122.874 131.986 121.378 130.448C120.022 129.043 118.382 127.871 118.191 125.804C118 123.737 118.231 121.63 118.191 119.558C118.139 115.808 118.857 112.058 118.724 108.267C118.631 105.527 117.635 102.683 117.785 99.978C118.011 96.0074 120.283 92.5709 120.764 88.6874C121.639 81.6518 121.668 73.9139 119.454 67.1163C118.237 63.3779 116.105 59.5699 116.499 55.5355C116.736 53.1148 118.162 51.2399 118.429 48.9063C118.359 49.4868 119.066 50.3691 119.28 50.938C119.579 51.7691 119.755 52.6393 119.802 53.5212C119.924 55.373 119.646 57.2421 119.947 59.0823C120.411 61.9093 122.816 64.3067 123.911 66.9306C125.006 69.5544 125.65 72.3407 126.664 75.0284C127.336 76.8395 127.62 80.874 130.141 81.2513C131.996 81.5299 131.48 76.0269 131.405 74.9297C131.793 75.1677 134.21 76.5899 133.607 75.1968Z" fill="#FFFFFD"/>
<g style="mix-blend-mode:multiply" opacity="0.5">
<path d="M180.14 15.8823H140.637V51.8438H180.14V15.8823Z" fill="#BE9CFA"/>
</g>
<mask id="mask0_125_6831" style="mask-type:luminance" maskUnits="userSpaceOnUse" x="140" y="15" width="41" height="37">
<path d="M180.14 15.8823H140.637V51.8438H180.14V15.8823Z" fill="white"/>
</mask>
<g mask="url(#mask0_125_6831)">
<g opacity="0.5">
<path d="M163.124 23.9281V11.3662H157.647V23.9281C157.059 23.9315 156.481 24.0844 155.967 24.3725C155.454 24.6607 155.022 25.0746 154.712 25.5755C154.402 26.0765 154.224 26.648 154.194 27.2367C154.165 27.8254 154.285 28.412 154.544 28.9414C154.802 29.4709 155.191 29.926 155.673 30.2641C156.155 30.6021 156.715 30.8121 157.3 30.8744C157.885 30.9367 158.476 30.8492 159.019 30.6201C159.561 30.391 160.036 30.0279 160.4 29.5646C160.764 30.0285 161.24 30.3919 161.784 30.621C162.327 30.85 162.919 30.9371 163.505 30.874C164.09 30.8109 164.651 30.5998 165.133 30.2604C165.615 29.921 166.003 29.4645 166.26 28.9337C166.518 28.4029 166.637 27.8153 166.605 27.2259C166.574 26.6366 166.394 26.0649 166.081 25.5645C165.769 25.0641 165.335 24.6514 164.82 24.3651C164.304 24.0789 163.725 23.9285 163.136 23.9281H163.124Z" fill="#FFFFFD"/>
<path d="M157.647 42.4688V55.0307H163.124V42.4688C163.713 42.4696 164.293 42.3204 164.809 42.0352C165.324 41.75 165.76 41.3382 166.073 40.8384C166.386 40.3387 166.568 39.7674 166.6 39.1781C166.633 38.5889 166.515 38.001 166.259 37.4697C166.002 36.9384 165.615 36.4811 165.134 36.1407C164.653 35.8003 164.093 35.588 163.507 35.5237C162.921 35.4594 162.329 35.5452 161.786 35.7731C161.242 36.0009 160.765 36.3634 160.4 36.8264C160.035 36.364 159.559 36.0018 159.016 35.7739C158.474 35.546 157.882 35.4597 157.297 35.5232C156.712 35.5867 156.153 35.7979 155.671 36.1369C155.19 36.476 154.802 36.9319 154.545 37.4619C154.287 37.9919 154.168 38.5787 154.199 39.1673C154.23 39.7559 154.409 40.3271 154.72 40.8274C155.031 41.3277 155.464 41.7407 155.978 42.0278C156.492 42.3149 157.07 42.4666 157.659 42.4688H157.647Z" fill="#FFFFFD"/>
<path d="M163.124 23.9281V11.3662H157.647V23.9281C157.059 23.9315 156.481 24.0844 155.967 24.3725C155.454 24.6607 155.022 25.0746 154.712 25.5755C154.402 26.0765 154.224 26.648 154.194 27.2367C154.165 27.8254 154.285 28.412 154.544 28.9414C154.802 29.4709 155.191 29.926 155.673 30.2641C156.155 30.6021 156.715 30.8121 157.3 30.8744C157.885 30.9367 158.476 30.8492 159.019 30.6201C159.561 30.391 160.036 30.0279 160.4 29.5646C160.764 30.0285 161.24 30.3919 161.784 30.621C162.327 30.85 162.919 30.9371 163.505 30.874C164.09 30.8109 164.651 30.5998 165.133 30.2604C165.615 29.921 166.003 29.4645 166.26 28.9337C166.518 28.4029 166.637 27.8153 166.605 27.2259C166.574 26.6366 166.394 26.0649 166.081 25.5645C165.769 25.0641 165.335 24.6514 164.82 24.3651C164.304 24.0789 163.725 23.9285 163.136 23.9281H163.124Z" fill="#FFFFFD"/>
<path d="M157.647 42.4688V55.0307H163.124V42.4688C163.713 42.4696 164.293 42.3204 164.809 42.0352C165.324 41.75 165.76 41.3382 166.073 40.8384C166.386 40.3387 166.568 39.7674 166.6 39.1781C166.633 38.5889 166.515 38.001 166.259 37.4697C166.002 36.9384 165.615 36.4811 165.134 36.1407C164.653 35.8003 164.093 35.588 163.507 35.5237C162.921 35.4594 162.329 35.5452 161.786 35.7731C161.242 36.0009 160.765 36.3634 160.4 36.8264C160.035 36.364 159.559 36.0018 159.016 35.7739C158.474 35.546 157.882 35.4597 157.297 35.5232C156.712 35.5867 156.153 35.7979 155.671 36.1369C155.19 36.476 154.802 36.9319 154.545 37.4619C154.287 37.9919 154.168 38.5787 154.199 39.1673C154.23 39.7559 154.409 40.3271 154.72 40.8274C155.031 41.3277 155.464 41.7407 155.978 42.0278C156.492 42.3149 157.07 42.4666 157.659 42.4688H157.647Z" fill="#FFFFFD"/>
</g>
</g>
<path d="M221.398 15.8823H188.583V21.0951H221.398V15.8823Z" fill="#FFFFFD"/>
<path d="M254.589 25.5415H188.583V28.1479H254.589V25.5415Z" fill="#FFFFFD"/>
<path d="M215.017 32.8848H188.583V35.4912H215.017V32.8848Z" fill="#FFFFFD"/>
<path d="M254.589 40.2222H188.583V42.8286H254.589V40.2222Z" fill="#FFFFFD"/>
<path d="M232.021 47.5654H188.583V50.1718H232.021V47.5654Z" fill="#FFFFFD"/>
<path d="M199.41 54.9028H188.583V57.5092H199.41V54.9028Z" fill="#FFFFFD"/>
<path d="M254.595 54.9028H206.445V57.5092H254.595V54.9028Z" fill="#FFFFFD"/>
<path d="M225.988 62.2461H188.583V64.8525H225.988V62.2461Z" fill="#FFFFFD"/>
<path d="M183.42 74.4541H140.417V77.0605H183.42V74.4541Z" fill="#FFFFFD"/>
<path d="M193.997 81.7969H140.417V84.4033H193.997V81.7969Z" fill="#FFFFFD"/>
<path d="M183.855 89.1343H140.417V91.7407H183.855V89.1343Z" fill="#FFFFFD"/>
<path d="M204.823 96.4775H193.997V99.084H204.823V96.4775Z" fill="#FFFFFD"/>
<path d="M188.566 96.4775H140.417V99.084H188.566V96.4775Z" fill="#FFFFFD"/>
<g style="mix-blend-mode:multiply" opacity="0.5">
<path d="M251.344 112.216C262.621 106.968 267.516 93.5572 262.276 82.2616C257.037 70.9661 243.647 66.0636 232.37 71.3116C221.092 76.5596 216.198 89.9708 221.437 101.266C226.677 112.562 240.066 117.464 251.344 112.216Z" fill="#BE9CFA"/>
</g>
<path d="M255.07 32.8848H225.252V35.4912H255.07V32.8848Z" fill="#FFFFFD"/>
<path d="M285.41 15.8823H265.346V53.237H285.41V15.8823Z" fill="#FFFFFD"/>
<g style="mix-blend-mode:multiply" opacity="0.5">
<path d="M272.712 23.3181C272.712 23.7588 272.581 24.1896 272.336 24.5557C272.091 24.9218 271.743 25.2067 271.336 25.3743C270.929 25.5419 270.482 25.5845 270.051 25.4968C269.619 25.4092 269.224 25.1951 268.914 24.8818C268.605 24.5686 268.395 24.1703 268.312 23.7375C268.229 23.3047 268.277 22.8569 268.448 22.4511C268.62 22.0453 268.908 21.6997 269.276 21.4582C269.644 21.2167 270.075 21.0902 270.515 21.0948C271.1 21.0994 271.66 21.3359 272.072 21.7525C272.483 22.1691 272.713 22.732 272.712 23.3181Z" fill="#BE9CFA"/>
<path d="M272.712 34.1848C272.712 34.6255 272.581 35.0563 272.336 35.4224C272.091 35.7885 271.743 36.0734 271.336 36.241C270.929 36.4086 270.482 36.4512 270.051 36.3635C269.619 36.2759 269.224 36.0618 268.914 35.7485C268.605 35.4353 268.395 35.037 268.312 34.6042C268.229 34.1714 268.277 33.7236 268.448 33.3178C268.62 32.912 268.908 32.5664 269.276 32.3249C269.644 32.0834 270.075 31.9569 270.515 31.9615C271.1 31.9661 271.66 32.2026 272.072 32.6192C272.483 33.0358 272.713 33.5987 272.712 34.1848Z" fill="#BE9CFA"/>
<path d="M272.712 45.0515C272.712 45.4922 272.581 45.923 272.336 46.2891C272.091 46.6552 271.743 46.9401 271.336 47.1077C270.929 47.2753 270.482 47.3179 270.051 47.2302C269.619 47.1426 269.224 46.9285 268.914 46.6152C268.605 46.302 268.395 45.9037 268.312 45.4709C268.229 45.0381 268.277 44.5903 268.448 44.1845C268.62 43.7787 268.908 43.4331 269.276 43.1916C269.644 42.9501 270.075 42.8236 270.515 42.8282C271.1 42.8344 271.659 43.0713 272.07 43.4876C272.481 43.9039 272.712 44.4659 272.712 45.0515Z" fill="#BE9CFA"/>
<path d="M282.483 21.9712H275.424V23.9275H282.483V21.9712Z" fill="#BE9CFA"/>
<path d="M282.483 32.8848H275.424V34.841H282.483V32.8848Z" fill="#BE9CFA"/>
<path d="M282.483 44.0767H275.424V46.0329H282.483V44.0767Z" fill="#BE9CFA"/>
<path d="M272.712 23.3181C272.712 23.7588 272.581 24.1896 272.336 24.5557C272.091 24.9218 271.743 25.2067 271.336 25.3743C270.929 25.5419 270.482 25.5845 270.051 25.4968C269.619 25.4092 269.224 25.1951 268.914 24.8818C268.605 24.5686 268.395 24.1703 268.312 23.7375C268.229 23.3047 268.277 22.8569 268.448 22.4511C268.62 22.0453 268.908 21.6997 269.276 21.4582C269.644 21.2167 270.075 21.0902 270.515 21.0948C271.1 21.0994 271.66 21.3359 272.072 21.7525C272.483 22.1691 272.713 22.732 272.712 23.3181Z" fill="#F75993"/>
<path d="M272.712 34.1848C272.712 34.6255 272.581 35.0563 272.336 35.4224C272.091 35.7885 271.743 36.0734 271.336 36.241C270.929 36.4086 270.482 36.4512 270.051 36.3635C269.619 36.2759 269.224 36.0618 268.914 35.7485C268.605 35.4353 268.395 35.037 268.312 34.6042C268.229 34.1714 268.277 33.7236 268.448 33.3178C268.62 32.912 268.908 32.5664 269.276 32.3249C269.644 32.0834 270.075 31.9569 270.515 31.9615C271.1 31.9661 271.66 32.2026 272.072 32.6192C272.483 33.0358 272.713 33.5987 272.712 34.1848Z" fill="#BE9CFA"/>
<g style="mix-blend-mode:multiply" opacity="0.5">
<path d="M272.712 45.0515C272.712 45.4922 272.581 45.923 272.336 46.2891C272.091 46.6552 271.743 46.9401 271.336 47.1077C270.929 47.2753 270.482 47.3179 270.051 47.2302C269.619 47.1426 269.224 46.9285 268.914 46.6152C268.605 46.302 268.395 45.9037 268.312 45.4709C268.229 45.0381 268.277 44.5903 268.448 44.1845C268.62 43.7787 268.908 43.4331 269.276 43.1916C269.644 42.9501 270.075 42.8236 270.515 42.8282C271.1 42.8344 271.659 43.0713 272.07 43.4876C272.481 43.9039 272.712 44.4659 272.712 45.0515Z" fill="#BE9CFA"/>
</g>
<g style="mix-blend-mode:multiply" opacity="0.5">
<path d="M282.483 21.9712H275.424V23.9275H282.483V21.9712Z" fill="#BE9CFA"/>
</g>
<g style="mix-blend-mode:multiply" opacity="0.5">
<path d="M282.483 32.8848H275.424V34.841H282.483V32.8848Z" fill="#BE9CFA"/>
</g>
<g style="mix-blend-mode:multiply" opacity="0.5">
<path d="M282.483 44.0767H275.424V46.0329H282.483V44.0767Z" fill="#BE9CFA"/>
</g>
</g>
<path d="M184.26 160.599H168.514V190.372H184.26V160.599Z" fill="#D8CFC5"/>
<path d="M221.346 171.088H131.619L138.168 113.242H227.901L221.346 171.088Z" fill="#FFFFFD"/>
<path d="M217.631 167.46H136.157L141.889 116.871H223.363L217.631 167.46Z" fill="#5C5C5E"/>
<path d="M184.388 152.054L186.961 133.13H188.85L186.277 152.054H184.388Z" fill="#B8E4EF"/>
<path d="M163.21 152.054L165.789 133.13H167.679L165.106 152.054H163.21Z" fill="#B8E4EF"/>
<path d="M144.752 133.13C144.845 132.527 145.147 131.976 145.604 131.573C146.062 131.17 146.646 130.94 147.255 130.924C153.683 130.924 155.949 136.567 157.983 141.542C160.075 146.714 161.599 149.848 165.146 149.848C168.693 149.848 171.075 146.714 174.57 141.542C177.943 136.567 181.756 130.924 188.189 130.924C194.622 130.924 196.883 136.567 198.917 141.542C201.009 146.714 202.533 149.848 206.08 149.848C206.359 149.841 206.635 149.895 206.89 150.008C207.145 150.121 207.372 150.288 207.555 150.499C207.737 150.71 207.87 150.959 207.945 151.228C208.02 151.497 208.034 151.779 207.987 152.054C207.892 152.657 207.591 153.209 207.133 153.613C206.676 154.016 206.092 154.248 205.483 154.266C199.05 154.266 196.79 148.624 194.756 143.649C192.663 138.477 191.133 135.342 187.586 135.342C184.04 135.342 181.658 138.477 178.163 143.649C174.796 148.624 170.976 154.266 164.549 154.266C158.122 154.266 155.856 148.624 153.816 143.643C151.724 138.477 150.199 135.342 146.653 135.342C146.374 135.35 146.096 135.295 145.841 135.182C145.586 135.069 145.359 134.901 145.177 134.689C144.995 134.477 144.862 134.227 144.789 133.958C144.715 133.688 144.702 133.405 144.752 133.13Z" fill="#64FFF7"/>
<path d="M142.196 152.054C142.289 151.451 142.591 150.9 143.049 150.497C143.506 150.093 144.09 149.864 144.7 149.848C148.246 149.848 150.623 146.713 154.123 141.541C157.49 136.566 161.31 130.924 167.737 130.924C174.164 130.924 176.43 136.566 178.464 141.541C180.557 146.713 182.081 149.848 185.634 149.848C189.186 149.848 191.557 146.713 195.057 141.541C198.424 136.566 202.244 130.924 208.671 130.924C208.949 130.917 209.226 130.971 209.481 131.084C209.736 131.196 209.963 131.364 210.145 131.575C210.328 131.786 210.461 132.035 210.536 132.304C210.611 132.573 210.625 132.855 210.578 133.13C210.483 133.733 210.181 134.284 209.724 134.688C209.267 135.092 208.683 135.323 208.074 135.342C204.521 135.342 202.145 138.476 198.65 143.648C195.277 148.623 191.464 154.266 185.031 154.266C178.598 154.266 176.337 148.623 174.303 143.648C172.211 138.476 170.687 135.342 167.14 135.342C163.593 135.342 161.211 138.476 157.711 143.648C154.343 148.623 150.524 154.266 144.097 154.266C143.818 154.273 143.541 154.219 143.285 154.106C143.03 153.993 142.803 153.824 142.621 153.613C142.439 153.401 142.306 153.151 142.233 152.881C142.159 152.612 142.147 152.329 142.196 152.054Z" fill="#F75993"/>
<g style="mix-blend-mode:multiply" opacity="0.5">
<path d="M195.069 163.647C167.702 163.647 145.517 147.352 145.517 127.25C145.524 123.69 146.219 120.166 147.563 116.871H141.889L136.157 167.46H217.631L218.553 159.334C211.063 162.23 203.097 163.693 195.069 163.647Z" fill="#5C5C5E"/>
</g>
<path d="M152.355 124.649C152.263 125.163 151.997 125.629 151.603 125.971C151.208 126.312 150.709 126.507 150.188 126.524C149.952 126.532 149.718 126.486 149.503 126.389C149.288 126.293 149.098 126.15 148.946 125.969C148.794 125.789 148.685 125.576 148.628 125.348C148.57 125.119 148.564 124.88 148.611 124.649C148.702 124.135 148.966 123.668 149.36 123.327C149.754 122.986 150.253 122.79 150.773 122.774C151.009 122.767 151.243 122.813 151.458 122.909C151.673 123.005 151.864 123.149 152.016 123.329C152.168 123.509 152.278 123.722 152.337 123.95C152.395 124.179 152.402 124.418 152.355 124.649Z" fill="#F75993"/>
<path d="M162.944 124.649C162.854 125.163 162.589 125.63 162.196 125.971C161.802 126.313 161.303 126.508 160.782 126.524C160.547 126.532 160.313 126.486 160.098 126.389C159.883 126.293 159.692 126.15 159.54 125.969C159.389 125.789 159.28 125.576 159.222 125.348C159.164 125.119 159.158 124.88 159.206 124.649C159.296 124.135 159.56 123.669 159.954 123.327C160.348 122.986 160.847 122.79 161.367 122.774C161.603 122.767 161.837 122.813 162.052 122.909C162.267 123.005 162.458 123.149 162.609 123.329C162.761 123.51 162.87 123.722 162.928 123.951C162.986 124.179 162.991 124.418 162.944 124.649Z" fill="#BE9CFA"/>
<path d="M180.104 125.583H166.444L166.734 123.708H180.394L180.104 125.583Z" fill="#FFFFFD"/>
<path d="M187.987 125.583H183.42L183.716 123.708H188.277L187.987 125.583Z" fill="#FFFFFD"/>
<path d="M232.021 186.007H146.989V190.372H232.021V186.007Z" fill="#D8CFC5"/>
<path d="M232.027 211.74H128.246L136.157 188.59H232.027V211.74Z" fill="#FFFFFD"/>
<path d="M164.057 197.861H162.492V198.25C161.94 198.535 161.477 198.967 161.153 199.499C160.83 200.03 160.659 200.64 160.659 201.263C160.659 201.885 160.83 202.495 161.153 203.027C161.477 203.558 161.94 203.99 162.492 204.275V204.658H164.057C164.932 204.622 165.76 204.248 166.367 203.615C166.974 202.981 167.313 202.137 167.313 201.26C167.313 200.382 166.974 199.538 166.367 198.904C165.76 198.271 164.932 197.897 164.057 197.861Z" fill="#BE9CFA"/>
<path d="M165.882 201.263C165.882 201.936 165.683 202.593 165.309 203.153C164.936 203.713 164.405 204.149 163.784 204.406C163.163 204.663 162.48 204.73 161.821 204.598C161.162 204.467 160.557 204.142 160.083 203.666C159.608 203.19 159.285 202.583 159.154 201.923C159.024 201.262 159.092 200.578 159.35 199.957C159.608 199.335 160.044 198.804 160.603 198.431C161.163 198.058 161.82 197.86 162.492 197.861C162.938 197.861 163.379 197.949 163.791 198.12C164.202 198.291 164.576 198.542 164.891 198.858C165.206 199.173 165.456 199.549 165.626 199.961C165.796 200.374 165.883 200.816 165.882 201.263Z" fill="#985499"/>
<path d="M145.592 197.861H144.027V198.25C143.477 198.536 143.015 198.969 142.693 199.5C142.371 200.031 142.201 200.641 142.201 201.262C142.201 201.884 142.371 202.493 142.693 203.025C143.015 203.556 143.477 203.988 144.027 204.275V204.658H145.592C146.049 204.677 146.506 204.603 146.934 204.441C147.362 204.279 147.753 204.032 148.084 203.714C148.414 203.397 148.677 203.016 148.856 202.594C149.036 202.172 149.128 201.718 149.128 201.26C149.128 200.801 149.036 200.347 148.856 199.925C148.677 199.504 148.414 199.123 148.084 198.805C147.753 198.488 147.362 198.24 146.934 198.078C146.506 197.916 146.049 197.842 145.592 197.861Z" fill="#BE9CFA"/>
<path d="M147.424 201.263C147.424 201.935 147.225 202.593 146.851 203.152C146.478 203.712 145.948 204.148 145.327 204.405C144.707 204.663 144.024 204.73 143.365 204.599C142.706 204.468 142.101 204.144 141.626 203.668C141.151 203.192 140.828 202.586 140.697 201.926C140.566 201.266 140.633 200.582 140.89 199.961C141.147 199.339 141.582 198.808 142.141 198.434C142.699 198.06 143.356 197.861 144.028 197.861C144.474 197.86 144.916 197.948 145.328 198.118C145.74 198.289 146.115 198.539 146.431 198.855C146.746 199.171 146.996 199.547 147.167 199.96C147.337 200.373 147.424 200.816 147.424 201.263Z" fill="#985499"/>
<path d="M182.516 197.861H180.951V198.25C180.399 198.535 179.936 198.967 179.612 199.498C179.289 200.03 179.118 200.64 179.118 201.262C179.118 201.885 179.289 202.495 179.612 203.026C179.936 203.558 180.399 203.99 180.951 204.275V204.658H182.516C182.973 204.677 183.43 204.603 183.858 204.441C184.286 204.279 184.677 204.032 185.007 203.714C185.338 203.397 185.601 203.016 185.78 202.594C185.96 202.172 186.052 201.718 186.052 201.26C186.052 200.801 185.96 200.347 185.78 199.925C185.601 199.504 185.338 199.123 185.007 198.805C184.677 198.488 184.286 198.24 183.858 198.078C183.43 197.916 182.973 197.842 182.516 197.861Z" fill="#BE9CFA"/>
<path d="M184.347 201.263C184.347 201.935 184.148 202.593 183.775 203.152C183.402 203.712 182.871 204.148 182.251 204.405C181.63 204.663 180.947 204.73 180.288 204.599C179.63 204.468 179.024 204.144 178.549 203.668C178.074 203.192 177.751 202.586 177.62 201.926C177.489 201.266 177.556 200.582 177.813 199.961C178.07 199.339 178.506 198.808 179.064 198.434C179.623 198.06 180.279 197.861 180.951 197.861C181.852 197.861 182.715 198.219 183.352 198.857C183.989 199.495 184.347 200.36 184.347 201.263Z" fill="#985499"/>
<path d="M230.601 211.74H118.434V215.74H230.601V211.74Z" fill="#BE9CFA"/>
<path d="M129.788 213.737H124.861V281.307H129.788V213.737Z" fill="#BE9CFA"/>
<path d="M193.51 213.737H188.583V281.307H193.51V213.737Z" fill="#BE9CFA"/>
<path d="M394.806 28.1479C307.937 28.1479 237.515 101.772 237.515 192.595V399.204H552.097V192.595C552.097 101.772 481.676 28.1479 394.806 28.1479ZM354.058 321.389C294.636 321.389 246.463 271.902 246.463 210.852C246.463 149.802 294.636 100.309 354.058 100.309C413.48 100.309 461.658 149.802 461.658 210.852C461.658 271.902 413.485 321.389 354.058 321.389Z" fill="#D8CFC5"/>
<path d="M358.254 28.1479C271.385 28.1479 200.969 101.772 200.969 192.595V399.204H515.545V192.595C515.545 101.772 445.124 28.1479 358.254 28.1479ZM386.252 270.991C350.859 270.991 322.165 240.933 322.165 203.863C322.165 166.793 350.859 136.741 386.252 136.741C421.646 136.741 450.345 166.793 450.345 203.863C450.345 240.933 421.652 270.991 386.252 270.991Z" fill="#FFFFFD"/>
<mask id="mask1_125_6831" style="mask-type:luminance" maskUnits="userSpaceOnUse" x="200" y="28" width="316" height="372">
<path d="M358.254 28.1479C271.385 28.1479 200.969 101.772 200.969 192.595V399.204H515.545V192.595C515.545 101.772 445.124 28.1479 358.254 28.1479ZM386.252 270.991C350.859 270.991 322.165 240.933 322.165 203.863C322.165 166.793 350.859 136.741 386.252 136.741C421.646 136.741 450.345 166.793 450.345 203.863C450.345 240.933 421.652 270.991 386.252 270.991Z" fill="white"/>
</mask>
<g mask="url(#mask1_125_6831)">
<g opacity="0.5">
<path d="M489.465 437H227.049V265.755C227.049 229.184 240.68 194.79 265.427 168.912C290.174 143.033 323.185 128.724 358.26 128.724C393.335 128.724 426.3 142.975 451.087 168.888C475.875 194.801 489.465 229.155 489.465 265.732V437ZM234.003 430.04H482.516V265.732C482.516 194.012 426.775 135.661 358.254 135.661C289.733 135.661 234.003 194.012 234.003 265.732V430.04Z" fill="#D8CFC5"/>
</g>
</g>
<path d="M322.165 203.863C322.165 171.007 344.704 143.672 374.47 137.873C364.752 135.452 354.616 135.242 344.807 137.261C334.997 139.279 325.764 143.474 317.786 149.536C309.808 155.598 303.288 163.374 298.704 172.292C294.121 181.21 291.591 191.044 291.301 201.07C291.011 211.096 292.967 221.06 297.027 230.229C301.087 239.398 307.146 247.54 314.76 254.055C322.374 260.57 331.349 265.293 341.025 267.877C350.701 270.462 360.832 270.841 370.674 268.988C342.809 261.697 322.165 235.308 322.165 203.863Z" fill="#D8CFC5"/>
<path d="M392.842 114.624C386.067 120.069 381.83 130.152 381.372 139.991C396.12 145.419 408.496 155.863 416.337 169.501C424.178 183.139 426.986 199.102 424.271 214.603C421.555 230.103 413.489 244.155 401.481 254.305C389.473 264.454 374.287 270.055 358.575 270.129C342.863 270.203 327.625 264.745 315.522 254.71C303.419 244.674 295.221 230.698 292.36 215.224C289.499 199.75 292.157 183.761 299.87 170.05C307.583 156.339 319.859 145.778 334.556 140.212C329.062 132.828 326.367 122.867 326.958 113.405C305.977 120.759 288.246 135.268 276.865 154.392C265.483 173.517 261.177 196.04 264.698 218.023C268.22 240.006 279.345 260.05 296.128 274.648C312.911 289.247 334.284 297.471 356.509 297.882C378.733 298.293 400.395 290.865 417.705 276.898C435.015 262.93 446.872 243.312 451.201 221.474C455.531 199.636 452.058 176.969 441.389 157.436C430.721 137.904 413.537 122.749 392.842 114.624Z" fill="#BE9CFA"/>
<g opacity="0.5">
<g style="mix-blend-mode:multiply">
<path d="M423.83 189.153C426.789 175.099 425.173 160.465 419.219 147.399C413.266 134.332 403.288 123.521 390.749 116.551C385.209 122.251 381.789 131.191 381.372 139.991C392.021 143.922 401.501 150.494 408.927 159.091C416.352 167.689 421.479 178.032 423.83 189.153Z" fill="#BE9CFA"/>
</g>
<g style="mix-blend-mode:multiply">
<path d="M291.24 175.262C291.239 179.932 291.72 184.589 292.677 189.159C295.007 178.14 300.063 167.885 307.38 159.333C314.697 150.78 324.042 144.206 334.556 140.212C329.554 133.484 326.882 124.626 326.888 115.947C316.125 121.655 307.118 130.193 300.837 140.644C294.556 151.095 291.238 163.063 291.24 175.262Z" fill="#BE9CFA"/>
</g>
<g style="mix-blend-mode:multiply">
<path d="M358.254 270.178C335.521 270.177 313.546 261.991 296.337 247.114C279.128 232.237 267.83 211.66 264.505 189.136C262.522 202.624 263.463 216.381 267.264 229.472C271.065 242.564 277.637 254.681 286.533 265C295.429 275.318 306.44 283.596 318.817 289.271C331.193 294.945 344.645 297.882 358.257 297.882C371.868 297.882 385.32 294.945 397.696 289.271C410.073 283.596 421.084 275.318 429.98 265C438.876 254.681 445.448 242.564 449.249 229.472C453.051 216.381 453.992 202.624 452.008 189.136C448.682 211.661 437.383 232.238 420.173 247.115C402.963 261.991 380.987 270.177 358.254 270.178Z" fill="#BE9CFA"/>
</g>
</g>
<path opacity="0.5" d="M405.551 260.827C390.558 271.612 374.041 277.945 354.348 277.945C335.343 277.954 316.818 271.965 301.405 260.827C297.789 271.339 289.617 281.91 286.036 291.308C278.113 312.107 304.338 329.557 316.3 335.025C339.077 345.439 369.567 345.474 392.401 335.025C404.358 329.551 430.582 312.107 422.66 291.308C419.067 281.91 409.156 271.339 405.551 260.827Z" fill="#D8CFC5"/>
<path d="M402.856 253.321C387.439 264.447 368.917 270.434 349.914 270.434C330.911 270.434 312.39 264.447 296.972 253.321C293.355 263.834 285.184 274.404 281.602 283.802C273.674 304.596 299.899 322.045 311.861 327.513C334.643 337.933 365.133 337.962 387.962 327.513C399.924 322.045 426.149 304.596 418.22 283.802C414.639 274.404 406.467 263.834 402.856 253.321Z" fill="#FFFFFD"/>
<path d="M388.066 69.0205H331.739V104.785H388.066V69.0205Z" fill="#5C5C5E"/>
<mask id="mask2_125_6831" style="mask-type:luminance" maskUnits="userSpaceOnUse" x="291" y="135" width="84" height="136">
<path d="M322.165 203.863C322.165 171.007 344.704 143.672 374.47 137.873C364.752 135.452 354.616 135.242 344.807 137.261C334.997 139.279 325.764 143.474 317.786 149.536C309.808 155.598 303.288 163.374 298.704 172.292C294.121 181.21 291.591 191.044 291.301 201.07C291.011 211.096 292.967 221.06 297.027 230.229C301.087 239.398 307.146 247.54 314.76 254.055C322.374 260.57 331.349 265.293 341.025 267.877C350.701 270.462 360.832 270.841 370.674 268.988C342.809 261.697 322.165 235.308 322.165 203.863Z" fill="white"/>
</mask>
<g mask="url(#mask2_125_6831)">
<g style="mix-blend-mode:multiply">
<path d="M429.615 144.107H242.192V149.175H429.615V144.107Z" fill="#EDE5DB"/>
</g>
<g style="mix-blend-mode:multiply">
<path d="M429.615 158.643H242.192V163.71H429.615V158.643Z" fill="#EDE5DB"/>
</g>
<g style="mix-blend-mode:multiply">
<path d="M429.615 173.184H242.192V178.251H429.615V173.184Z" fill="#EDE5DB"/>
</g>
<g style="mix-blend-mode:multiply">
<path d="M429.615 187.719H242.192V192.787H429.615V187.719Z" fill="#EDE5DB"/>
</g>
<g style="mix-blend-mode:multiply">
<path d="M429.615 202.261H242.192V207.328H429.615V202.261Z" fill="#EDE5DB"/>
</g>
<g style="mix-blend-mode:multiply">
<path d="M429.615 216.796H242.192V221.864H429.615V216.796Z" fill="#EDE5DB"/>
</g>
<g style="mix-blend-mode:multiply">
<path d="M429.615 231.337H242.192V236.405H429.615V231.337Z" fill="#EDE5DB"/>
</g>
<g style="mix-blend-mode:multiply">
<path d="M429.615 245.879H242.192V250.947H429.615V245.879Z" fill="#EDE5DB"/>
</g>
<g style="mix-blend-mode:multiply">
<path d="M429.615 260.414H242.192V265.482H429.615V260.414Z" fill="#EDE5DB"/>
</g>
</g>
<path d="M248.226 143.138C248.227 143.769 248.041 144.387 247.691 144.913C247.342 145.439 246.844 145.849 246.262 146.091C245.68 146.334 245.039 146.398 244.42 146.275C243.801 146.153 243.233 145.849 242.786 145.403C242.34 144.957 242.036 144.388 241.912 143.768C241.789 143.149 241.852 142.507 242.093 141.923C242.334 141.339 242.742 140.84 243.267 140.489C243.791 140.138 244.407 139.951 245.038 139.951C245.883 139.951 246.692 140.286 247.29 140.884C247.888 141.481 248.224 142.292 248.226 143.138Z" fill="#D8CFC5"/>
<path d="M474.281 143.138C474.281 143.768 474.094 144.384 473.744 144.908C473.395 145.432 472.898 145.841 472.316 146.082C471.735 146.323 471.095 146.386 470.478 146.263C469.861 146.14 469.294 145.837 468.849 145.391C468.404 144.945 468.101 144.378 467.978 143.759C467.855 143.141 467.918 142.5 468.159 141.918C468.4 141.336 468.808 140.838 469.331 140.488C469.854 140.138 470.469 139.951 471.099 139.951C471.943 139.951 472.752 140.286 473.349 140.884C473.945 141.482 474.281 142.292 474.281 143.138Z" fill="#D8CFC5"/>
<mask id="mask3_125_6831" style="mask-type:luminance" maskUnits="userSpaceOnUse" x="280" y="253" width="140" height="83">
<path d="M402.856 253.321C387.439 264.447 368.917 270.434 349.914 270.434C330.911 270.434 312.39 264.447 296.972 253.321C293.355 263.834 285.184 274.404 281.602 283.802C273.674 304.596 299.899 322.045 311.861 327.513C334.643 337.933 365.133 337.962 387.962 327.513C399.924 322.045 426.149 304.596 418.22 283.802C414.639 274.404 406.467 263.834 402.856 253.321Z" fill="white"/>
</mask>
<g mask="url(#mask3_125_6831)">
<path d="M349.914 322.986C338.265 322.986 327.068 320.664 317.546 316.327C305.665 310.894 284.964 296.01 291.646 278.456C293.066 274.724 295.28 270.875 297.621 266.794C300.247 262.231 302.959 257.506 304.576 252.862L304.953 251.759L305.903 252.438C318.721 261.693 334.122 266.672 349.923 266.672C365.724 266.672 381.125 261.693 393.943 252.438L394.894 251.759L395.27 252.862C396.876 257.506 399.588 262.249 402.225 266.794C404.543 270.857 406.78 274.724 408.2 278.456C414.882 295.987 394.181 310.894 382.3 316.327C372.755 320.681 361.563 322.986 349.914 322.986ZM305.804 254.488C304.13 258.94 301.585 263.363 299.122 267.653C296.804 271.67 294.636 275.461 293.263 279.066C290.481 286.357 292.596 293.862 299.539 301.386C305.184 307.492 312.916 312.287 318.265 314.737C327.538 318.992 338.503 321.238 349.909 321.238C361.308 321.238 372.25 318.992 381.546 314.737C386.902 312.293 394.627 307.498 400.272 301.386C407.227 293.839 409.33 286.357 406.548 279.066C405.175 275.461 402.996 271.67 400.689 267.653C398.226 263.363 395.682 258.946 394.007 254.488C381.074 263.533 365.68 268.384 349.906 268.384C334.131 268.384 318.737 263.533 305.804 254.488Z" fill="#D8CFC5"/>
</g>
<g style="mix-blend-mode:multiply" opacity="0.5">
<path d="M366.721 99.0842C348.975 99.0842 334.585 85.907 334.585 69.6532C334.585 69.4385 334.585 69.2295 334.585 69.0205H331.751V104.785H388.078V91.6249C382.027 96.4966 374.485 99.1309 366.721 99.0842Z" fill="#5C5C5E"/>
</g>
<path d="M416.858 296.283H369.636V404.615H416.858V296.283Z" fill="#985499"/>
<path d="M428.855 296.283H381.633V404.615H428.855V296.283Z" fill="#BE9CFA"/>
<path d="M387.585 308.903V395.895H422.938V308.903H387.585ZM421.779 310.104V328.355H388.744V310.104H421.779ZM388.744 349.723V329.557H421.727V349.723H388.744ZM421.727 350.93V370.626H388.744V350.93H421.727ZM388.744 394.734V371.828H421.727V394.734H388.744Z" fill="#FFFFFD"/>
<path d="M411.672 312.096H398.829V314.603H411.672V312.096Z" fill="#FFFFFD"/>
<path d="M411.672 332.239H398.829V334.746H411.672V332.239Z" fill="#FFFFFD"/>
<path d="M411.672 352.863H398.829V355.371H411.672V352.863Z" fill="#FFFFFD"/>
<path d="M411.672 374.493H398.829V377H411.672V374.493Z" fill="#FFFFFD"/>
<mask id="mask4_125_6831" style="mask-type:luminance" maskUnits="userSpaceOnUse" x="381" y="296" width="48" height="109">
<path d="M428.855 296.283H381.633V404.615H428.855V296.283Z" fill="white"/>
</mask>
<g mask="url(#mask4_125_6831)">
<g style="mix-blend-mode:multiply">
<path d="M436.059 299.151H379.68V304.706H436.059V299.151Z" fill="#BE9CFA"/>
</g>
</g>
<path d="M554.224 294.791H348.036V300.515H554.224V294.791Z" fill="#BE9CFA"/>
<path d="M461.463 274.866L458.98 277.297L470.312 288.907L472.794 286.477L461.463 274.866Z" fill="#5C5C5E"/>
<g style="mix-blend-mode:multiply">
<path d="M503.334 240.527C504.852 241.862 506.802 242.598 508.822 242.598C510.842 242.598 512.793 241.862 514.311 240.527V234.35H503.334V240.527Z" fill="#FCBA93"/>
</g>
<path d="M527.345 203.369C526.591 195.115 514.235 191.51 507.854 191.568C500.813 191.626 491.047 194.859 490.294 203.381C489.796 208.501 489.574 213.644 489.627 218.787C489.691 223.431 489.343 228.725 490.786 233.189C495.249 246.767 521.538 246.425 526.638 233.601C528.33 229.358 527.861 224.047 527.976 219.565C528.082 214.159 527.871 208.751 527.345 203.369Z" fill="#FD8A6D"/>
<path d="M530.805 258.998C529.425 255.788 527.965 253.455 525.728 252.114C520.477 248.985 514.803 247.899 509.349 246.384C509.132 246.323 508.904 246.313 508.683 246.355C508.46 246.313 508.23 246.323 508.011 246.384C502.557 247.899 496.877 248.985 491.632 252.114C489.39 253.455 487.935 255.788 486.556 258.998C484.782 263.114 484.359 269.598 484.585 274.056C484.828 278.874 485.014 283.698 485.223 288.516C485.524 295.372 485.802 315.376 486.109 322.237L532.659 316.467L533.088 266.632C532.686 263.993 531.917 261.424 530.805 258.998Z" fill="#B7702F"/>
<path d="M505.925 247.696C512.161 253.965 526.789 255.626 534.949 252.503C541.741 249.896 546.134 243.052 546.192 236.04C546.221 232.029 544.772 228.354 542.628 225.01C541.277 222.886 534.862 218.521 534.578 216.495C533.894 211.677 535.627 206.795 534.659 201.866C533.755 197.222 531.251 192.306 527.339 189.357C520.257 184.01 509.993 181.973 502.094 186.762C492.566 192.567 493.331 204.177 493.713 214.045C493.765 215.514 494.015 218.079 494.872 219.316C495.73 220.552 497.44 220.697 498.147 222.062C499.254 224.198 498.274 226.63 498.541 228.871C499.294 234.925 501.514 243.273 505.925 247.696Z" fill="#5C5C5E"/>
<path d="M483.414 197.727C483.996 196.094 484.879 194.586 486.017 193.28C490.74 187.83 499.172 188.265 505.646 189.914C508.642 190.68 509.297 193.594 508.277 195.8C512.549 198.894 514.293 205.918 509.813 209.969C505.177 214.184 497.063 216.448 491.03 214.172C489.451 213.595 488.001 212.711 486.763 211.571C485.525 210.432 484.524 209.059 483.817 207.532C483.109 206.004 482.71 204.352 482.641 202.669C482.572 200.987 482.835 199.307 483.414 197.727Z" fill="#5C5C5E"/>
<path d="M459.16 291.407C459.09 289.819 459.341 288.234 459.899 286.746C460.457 285.258 461.31 283.899 462.407 282.751C463.503 281.602 464.821 280.688 466.28 280.064C467.739 279.44 469.309 279.118 470.896 279.118C472.483 279.118 474.053 279.44 475.512 280.064C476.971 280.688 478.289 281.602 479.385 282.751C480.482 283.899 481.335 285.258 481.893 286.746C482.451 288.234 482.702 289.819 482.632 291.407H459.16Z" fill="#FD8A6D"/>
<path d="M469.221 305.478C475.231 304.782 480.019 300.834 483.826 296.295C487.578 291.748 490.739 286.743 493.232 281.399C496.281 275.049 502.43 259.306 492.143 255.701C487.217 253.96 486.272 259.358 484.777 262.858C482.561 268.177 479.942 273.318 476.941 278.236C475.266 280.923 473.307 284.818 470.311 286.206C466.48 287.947 461.913 284.842 459.398 289.793C455.729 297.032 460.291 306.5 469.221 305.478Z" fill="#B7702F"/>
<path d="M499.827 227.553C500.412 227.568 500.993 227.453 501.527 227.215C502.062 226.977 502.536 226.622 502.916 226.177C504.551 224.139 505.136 220.912 503.299 218.776C501.224 216.361 496.564 217.319 495.678 220.401C495.62 220.607 495.577 220.816 495.55 221.028C495.185 223.727 496.988 227.413 499.827 227.553Z" fill="#FD8A6D"/>
<path d="M503.085 220.587C500.882 219.74 498.738 221.435 497.364 223.008C496.999 223.431 497.608 224.064 497.979 223.635C499.138 222.299 500.946 220.732 502.841 221.429C503.369 221.638 503.606 220.79 503.085 220.587Z" fill="#EA5D49"/>
<path d="M469.801 394.827C464.689 397.149 459.236 398.943 454.553 402.124C449.557 405.514 454.553 408.231 458.442 408.945C461.988 409.601 466.555 409.949 470.079 408.898C472.397 408.202 473.122 406.303 473.556 404.01C473.939 401.868 474.176 392.83 469.801 394.827Z" fill="#5C5C5E"/>
<path d="M473.643 387.606C473.494 387.46 473.304 387.362 473.098 387.327C470.844 386.973 468.653 387.327 466.41 387.647C466.19 387.67 465.979 387.747 465.795 387.87C465.612 387.993 465.461 388.16 465.355 388.355V396.871C465.482 397.477 465.797 398.028 466.255 398.445C466.713 398.862 467.291 399.124 467.906 399.193C469.03 399.419 472.646 399.831 473.643 398.531V387.606Z" fill="#FD8A6D"/>
<path d="M499.764 394.827C497.219 395.988 495.127 396.284 494.136 399.03C493.365 401.242 491.059 405.415 493.325 407.401C495.005 408.875 497.515 408.834 499.613 408.788C501.856 408.742 505.803 409.09 505.832 406.257C505.832 404.092 504.881 401.99 504.33 399.941C503.815 397.997 502.795 393.446 499.764 394.827Z" fill="#5C5C5E"/>
<path d="M503.606 387.606C503.457 387.461 503.267 387.364 503.062 387.327C500.807 386.973 498.611 387.327 496.374 387.647C496.153 387.67 495.941 387.747 495.756 387.87C495.572 387.993 495.419 388.16 495.313 388.355V396.871C495.44 397.477 495.755 398.028 496.212 398.445C496.67 398.862 497.248 399.124 497.863 399.193C498.987 399.419 502.61 399.831 503.606 398.531V387.606Z" fill="#FD8A6D"/>
<path d="M520.303 317.378C520.303 317.245 498.645 315.637 497.092 315.637C488.181 315.366 479.273 316.238 470.583 318.231C466.689 319.154 461.09 320.118 456.929 322.248C450.768 325.406 450.299 330.683 451.133 336.97C452.182 345.097 453.51 353.223 454.918 361.298C456.85 372.424 458.932 383.529 461.165 394.612L475.307 394.717C475.15 378.092 475.782 361.141 475.782 343.901C477.066 343.733 478.34 343.488 479.595 343.169C482.939 342.449 486.301 342.31 489.691 341.747C497.457 340.458 506.168 338.583 513.221 335.054C515.748 333.794 518.652 333.568 521.404 333.069C521.636 333.005 520.39 318.876 520.303 317.378Z" fill="#B7702F"/>
<path d="M550.295 317.378C550.295 317.245 528.637 315.637 527.113 315.637C518.201 315.361 509.29 316.23 500.598 318.22C496.704 319.143 491.105 320.106 486.944 322.237C480.783 325.395 480.314 330.671 481.149 336.958C482.198 345.085 483.525 353.212 484.933 361.286C486.865 372.413 488.947 383.517 491.181 394.601L505.669 394.537C505.513 377.912 505.768 360.41 505.432 343.936C506.832 343.752 508.221 343.492 509.593 343.158C512.937 342.438 516.299 342.299 519.689 341.736C527.455 340.447 536.166 338.572 543.219 335.042C545.746 333.783 548.649 333.556 551.402 333.057C551.646 333.005 550.4 318.876 550.295 317.378Z" fill="#B7702F"/>
<mask id="mask5_125_6831" style="mask-type:luminance" maskUnits="userSpaceOnUse" x="484" y="246" width="50" height="77">
<path d="M530.805 258.998C529.425 255.788 527.965 253.455 525.728 252.114C520.477 248.985 514.803 247.899 509.349 246.384C509.132 246.323 508.904 246.313 508.683 246.355C508.46 246.313 508.23 246.323 508.011 246.384C502.557 247.899 496.877 248.985 491.632 252.114C489.39 253.455 487.935 255.788 486.556 258.998C484.782 263.114 484.359 269.598 484.585 274.056C484.828 278.874 485.014 283.698 485.223 288.516C485.524 295.372 485.802 315.376 486.109 322.237L532.659 316.467L533.088 266.632C532.686 263.993 531.917 261.424 530.805 258.998Z" fill="white"/>
</mask>
<g mask="url(#mask5_125_6831)">
<g style="mix-blend-mode:multiply">
<path d="M486.109 293.421L484.371 303.202L498.773 277.736C495.029 283.861 486.109 293.421 486.109 293.421Z" fill="#B7702F"/>
<path d="M498.738 277.737C499.004 277.29 499.254 276.86 499.462 276.459L498.738 277.737Z" fill="#B7702F"/>
<path d="M486.109 293.421L484.371 303.202L498.773 277.736C495.029 283.861 486.109 293.421 486.109 293.421Z" fill="#B7702F"/>
<path d="M498.738 277.737C499.004 277.29 499.254 276.86 499.462 276.459L498.738 277.737Z" stroke="#C7E2FD" stroke-width="0.5" stroke-miterlimit="10"/>
</g>
</g>
<mask id="mask6_125_6831" style="mask-type:luminance" maskUnits="userSpaceOnUse" x="450" y="246" width="84" height="149">
<path d="M533.088 266.632C532.686 263.993 531.917 261.424 530.805 258.998C529.425 255.788 527.965 253.455 525.728 252.114C520.477 248.985 514.803 247.899 509.349 246.384C509.132 246.323 508.904 246.313 508.683 246.355C508.46 246.313 508.23 246.323 508.011 246.384C502.557 247.899 496.877 248.985 491.632 252.114C489.39 253.455 487.935 255.788 486.556 258.998C484.782 263.114 484.359 269.598 484.585 274.056C484.829 278.874 485.014 283.698 485.223 288.516C485.454 293.834 485.68 307.034 485.906 315.904C480.739 316.267 475.609 317.044 470.566 318.226C466.671 319.149 461.073 320.112 456.911 322.243C450.751 325.401 450.281 330.677 451.116 336.964C452.165 345.091 453.492 353.218 454.9 361.293C456.832 372.419 458.915 383.523 461.148 394.607L475.289 394.711C475.133 378.086 475.764 361.136 475.764 343.895C477.049 343.727 478.322 343.483 479.578 343.164C482.922 342.444 486.283 342.305 489.674 341.742C497.44 340.453 506.15 338.578 513.204 335.048C515.73 333.789 518.634 333.562 521.387 333.063C521.642 333.017 520.61 321.105 520.367 317.97L532.688 316.444L533.088 266.632Z" fill="white"/>
</mask>
<g mask="url(#mask6_125_6831)">
<g style="mix-blend-mode:multiply">
<path d="M484.527 313.918C484.527 313.918 492.062 329.307 505.693 330.567L494.102 337.405C494.102 337.405 485.101 320.298 484.527 313.918Z" fill="#B7702F"/>
</g>
</g>
<path d="M547.624 402.228H547.421C546.624 400.658 545.41 399.339 543.911 398.417C542.413 397.495 540.689 397.006 538.93 397.004H512.52V383.891C513.879 383.615 515.1 382.877 515.978 381.802C516.856 380.727 517.336 379.382 517.336 377.993V352.451C517.288 350.886 516.633 349.402 515.51 348.312C514.388 347.222 512.886 346.613 511.323 346.613C509.76 346.613 508.258 347.222 507.136 348.312C506.014 349.402 505.359 350.886 505.31 352.451V377.993C505.309 379.381 505.788 380.727 506.665 381.802C507.541 382.877 508.762 383.615 510.121 383.891V397.004H483.704C481.947 397.007 480.224 397.496 478.727 398.418C477.23 399.34 476.016 400.659 475.22 402.228H475.017C473.537 402.223 472.106 402.763 470.999 403.746C469.891 404.729 469.184 406.087 469.012 407.559C468.84 409.032 469.216 410.516 470.067 411.729C470.918 412.942 472.186 413.798 473.627 414.134C475.069 414.47 476.584 414.263 477.882 413.551C479.181 412.84 480.172 411.674 480.667 410.277C481.163 408.88 481.127 407.349 480.566 405.977C480.006 404.605 478.961 403.487 477.631 402.838C478.265 401.793 479.156 400.928 480.22 400.327C481.283 399.727 482.483 399.41 483.704 399.407H510.121V402.35C508.664 402.648 507.37 403.477 506.489 404.676C505.608 405.875 505.203 407.36 505.352 408.841C505.502 410.322 506.195 411.695 507.298 412.694C508.4 413.692 509.834 414.245 511.32 414.245C512.807 414.245 514.24 413.692 515.343 412.694C516.446 411.695 517.139 410.322 517.288 408.841C517.438 407.36 517.033 405.875 516.152 404.676C515.271 403.477 513.976 402.648 512.52 402.35V399.407H538.93C540.155 399.411 541.357 399.731 542.422 400.336C543.487 400.941 544.378 401.811 545.01 402.861C543.69 403.508 542.654 404.619 542.099 405.982C541.545 407.345 541.511 408.864 542.003 410.251C542.496 411.637 543.481 412.794 544.77 413.499C546.06 414.205 547.563 414.411 548.994 414.077C550.426 413.743 551.684 412.894 552.53 411.69C553.375 410.486 553.749 409.013 553.579 407.551C553.41 406.089 552.709 404.741 551.611 403.764C550.512 402.786 549.093 402.248 547.624 402.252V402.228Z" fill="#BE9CFA"/>
<path d="M495.886 342.548H475.735V350.292H495.886V342.548Z" fill="#FFFFFD"/>
<path d="M564.535 256.119H510.451L496.634 330.067L494.125 342.548H495.863V350.292H544.859V346.06C548.858 344.754 553.703 340.836 555.812 330.067L569.971 256.119H564.535ZM550.37 330.131V330.067C550.367 330.089 550.367 330.11 550.37 330.131Z" fill="#BE9CFA"/>
<path d="M484.336 342.548C484.597 342.507 484.858 342.461 485.113 342.409L485.582 342.287L485.854 342.211C486.04 342.159 486.219 342.095 486.399 342.031L486.561 341.979C486.747 341.91 486.927 341.834 487.1 341.753C490.033 340.464 492.125 337.985 493.545 335.623C493.916 335.007 494.241 334.398 494.519 333.817C494.517 333.804 494.517 333.79 494.519 333.777C494.936 332.912 495.261 332.122 495.498 331.455V331.403C495.574 331.205 495.637 331.02 495.695 330.822V330.776C495.805 330.433 495.886 330.195 495.933 330.015L498.987 314.058L510.086 256.066H515.551L501.45 330.067V330.114C497.683 349.27 485.286 346.646 484.405 346.432H484.353L484.336 342.548Z" fill="#FFFFFD"/>
<g style="mix-blend-mode:multiply" opacity="0.5">
<path d="M505.71 350.292C505.446 350.977 505.311 351.705 505.31 352.44V367.364C509.865 367.329 514.05 365.176 517.336 361.612V352.44C517.333 351.705 517.196 350.977 516.93 350.292H505.71Z" fill="#BE9CFA"/>
</g>
<g style="mix-blend-mode:multiply">
<path d="M506.324 237.189C508.7 247.028 522.992 250.378 531.129 246.169C531.929 245.751 531.222 244.549 530.428 244.962C523.062 248.775 509.819 245.734 507.669 236.835C507.454 235.964 506.116 236.33 506.324 237.206V237.189Z" fill="#5C5C5E"/>
</g>
<g style="mix-blend-mode:multiply">
<path d="M512.34 238.1C515.325 242.495 520.048 243.905 525.015 242.164C525.861 241.868 525.496 240.521 524.65 240.823C520.303 242.349 516.183 241.305 513.54 237.421C513.041 236.678 511.801 237.375 512.34 238.123V238.1Z" fill="#5C5C5E"/>
</g>
<g style="mix-blend-mode:multiply">
<path d="M514.983 190.035C521.543 191.608 528.724 196.16 529.338 203.509C529.414 204.397 530.805 204.403 530.729 203.509C530.063 195.509 522.615 190.424 515.354 188.689C514.484 188.48 514.113 189.85 514.983 190.035Z" fill="#5C5C5E"/>
</g>
<g style="mix-blend-mode:multiply">
<path d="M489.036 191.475C483.82 196.229 483.374 202.835 487.071 208.698C487.547 209.459 488.758 208.756 488.277 207.996C484.898 202.638 485.246 196.81 490.016 192.462C490.682 191.881 489.697 190.871 489.03 191.475H489.036Z" fill="#5C5C5E"/>
</g>
<g style="mix-blend-mode:multiply">
<path d="M488.932 200.548C487.071 204.403 489.14 208.095 491.638 211.072C492.218 211.763 493.197 210.771 492.624 210.086C490.584 207.642 488.567 204.467 490.131 201.256C490.52 200.45 489.32 199.741 488.932 200.548Z" fill="#5C5C5E"/>
</g>
<path d="M210.206 245.42C209.331 243.3 208.113 241.339 206.602 239.616C193.272 223.518 168.49 238.495 151.845 239.465C136.487 240.364 120.399 244.155 105.064 241.16C95.617 239.314 94.5274 237.096 91.1022 229.41C87.3815 221.022 82.0264 209.714 70.8758 211.102C70.6549 211.107 70.4381 211.163 70.2413 211.263C70.0445 211.364 69.8728 211.508 69.7388 211.684C69.6048 211.86 69.5119 212.064 69.4669 212.28C69.422 212.497 69.4261 212.721 69.4791 212.936C71.4993 220.453 74.2761 227.744 77.7667 234.699C80.2472 239.743 83.3826 246.053 87.9553 249.966C87.8141 250.151 87.7205 250.368 87.6827 250.598C87.6449 250.828 87.664 251.063 87.7384 251.284C87.8128 251.505 87.9402 251.704 88.1094 251.863C88.2786 252.023 88.4844 252.139 88.7087 252.201C92.186 253.135 95.5069 254.581 99.0074 255.463C103.464 256.583 107.863 257.82 112.383 258.679C120.996 260.223 129.716 261.085 138.463 261.256C147.36 261.529 156.331 261.39 165.216 260.85C174.518 260.281 216.437 262.081 210.206 245.42Z" fill="#FD8A6D"/>
<mask id="mask7_125_6831" style="mask-type:luminance" maskUnits="userSpaceOnUse" x="69" y="210" width="142" height="52">
<path d="M210.206 245.42C209.331 243.3 208.113 241.339 206.602 239.616C193.272 223.518 168.49 238.495 151.845 239.465C136.487 240.364 120.399 244.155 105.064 241.16C95.617 239.314 94.5274 237.096 91.1022 229.41C87.3815 221.022 82.0264 209.714 70.8758 211.102C70.6549 211.107 70.4381 211.163 70.2413 211.263C70.0445 211.364 69.8728 211.508 69.7388 211.684C69.6048 211.86 69.5119 212.064 69.4669 212.28C69.422 212.497 69.4261 212.721 69.4791 212.936C71.4993 220.453 74.2761 227.744 77.7667 234.699C80.2472 239.743 83.3826 246.053 87.9553 249.966C87.8141 250.151 87.7205 250.368 87.6827 250.598C87.6449 250.828 87.664 251.063 87.7384 251.284C87.8128 251.505 87.9402 251.704 88.1094 251.863C88.2786 252.023 88.4844 252.139 88.7087 252.201C92.186 253.135 95.5069 254.581 99.0074 255.463C103.464 256.583 107.863 257.82 112.383 258.679C120.996 260.223 129.716 261.085 138.463 261.256C147.36 261.529 156.331 261.39 165.216 260.85C174.518 260.281 216.437 262.081 210.206 245.42Z" fill="white"/>
</mask>
<g mask="url(#mask7_125_6831)">
<path d="M201.774 245.42C200.904 243.299 199.687 241.337 198.175 239.615C184.874 223.518 160.063 238.495 143.419 239.465C128.06 240.364 111.972 244.155 96.637 241.16C87.1902 239.314 86.1007 237.096 82.6755 229.41C78.949 221.022 73.5997 209.714 62.449 211.102C62.2281 211.107 62.0113 211.163 61.8145 211.263C61.6178 211.364 61.446 211.508 61.312 211.684C61.178 211.86 61.0851 212.064 61.0402 212.28C60.9952 212.497 60.9994 212.721 61.0523 212.936C63.07 220.453 65.8468 227.745 69.3399 234.699C71.8204 239.784 74.9558 246.071 79.5459 249.983C79.4047 250.168 79.3111 250.385 79.2733 250.615C79.2355 250.845 79.2547 251.081 79.3291 251.301C79.4035 251.522 79.5309 251.721 79.7 251.881C79.8692 252.041 80.075 252.156 80.2993 252.218C83.7766 253.153 87.0975 254.598 90.598 255.48C95.0548 256.601 99.4478 257.837 103.974 258.696C112.586 260.241 121.307 261.103 130.054 261.274C138.956 261.546 147.928 261.407 156.812 260.867C166.091 260.281 208.01 262.081 201.774 245.42Z" fill="#EA5D49"/>
</g>
<path d="M196.332 245.42C195.462 243.299 194.246 241.337 192.733 239.615C179.432 223.518 154.622 238.495 137.977 239.464C122.619 240.364 106.53 244.155 91.1953 241.159C81.7486 239.313 80.659 237.096 77.2338 229.41C73.4667 221.005 68.1348 209.697 56.9842 211.084C56.7633 211.09 56.5465 211.145 56.3497 211.246C56.1529 211.347 55.9812 211.49 55.8472 211.666C55.7132 211.842 55.6203 212.046 55.5753 212.263C55.5304 212.48 55.5345 212.704 55.5875 212.919C57.6051 220.436 60.382 227.728 63.8751 234.681C66.3556 239.766 69.491 246.053 74.081 249.965C73.9399 250.151 73.8463 250.368 73.8085 250.598C73.7707 250.827 73.7898 251.063 73.8642 251.284C73.9386 251.504 74.066 251.703 74.2352 251.863C74.4044 252.023 74.6102 252.139 74.8345 252.2C78.3118 253.135 81.6326 254.58 85.1332 255.463C89.5899 256.583 93.9888 257.82 98.5093 258.679C107.121 260.223 115.842 261.085 124.589 261.256C133.491 261.529 142.463 261.39 151.347 260.85C160.626 260.281 202.545 262.08 196.332 245.42Z" fill="#FD8A6D"/>
<path d="M308.632 225.904C301.788 228.261 292.434 229.033 286.517 223.983C283.399 221.318 281.405 217.441 277.777 215.31C272.149 212.013 263.161 214.149 257.869 217.603C237.139 231.03 215.857 222.073 193.973 221.905C175.619 221.759 157.108 221.655 139.072 226.073C138.098 226.311 137.913 227.744 138.493 228.499C145.094 236.481 151.272 241.717 153.045 252.537C157.264 252.781 161.489 252.99 165.72 252.984C171.747 252.984 177.549 251.109 183.605 251.678C190.444 252.317 197.288 251.713 204.226 251.864C212.56 252.05 220.882 252.607 229.21 252.961C235.551 253.234 241.891 253.141 248.225 253.437C257.382 253.855 266.516 254.859 275.696 254.673C285.062 254.488 295.581 253.106 303.689 247.377C309.229 243.458 316.439 240.126 320.026 234.06C321.765 231.158 321.939 227.808 319.035 225.521C316.132 223.234 312.301 224.65 308.632 225.904Z" fill="#5C5C5E"/>
<mask id="mask8_125_6831" style="mask-type:luminance" maskUnits="userSpaceOnUse" x="138" y="213" width="184" height="42">
<path d="M308.632 225.904C301.788 228.261 292.434 229.033 286.517 223.983C283.399 221.318 281.405 217.441 277.777 215.31C272.149 212.013 263.161 214.149 257.869 217.603C237.139 231.03 215.857 222.073 193.973 221.905C175.619 221.759 157.108 221.655 139.072 226.073C138.098 226.311 137.913 227.744 138.493 228.499C146.062 237.648 154.5 245.96 165.216 249.745C177.746 254.163 191.36 251.579 204.226 251.864C212.56 252.05 220.882 252.607 229.21 252.961C235.551 253.234 241.891 253.141 248.225 253.437C257.382 253.855 266.516 254.859 275.696 254.673C285.062 254.488 295.581 253.106 303.689 247.377C309.229 243.458 316.439 240.126 320.026 234.06C321.765 231.158 321.939 227.808 319.035 225.521C316.132 223.234 312.301 224.65 308.632 225.904Z" fill="white"/>
</mask>
<g mask="url(#mask8_125_6831)">
<path d="M284.007 227.065C284.007 232.911 292.533 237.653 303.046 237.653C313.559 237.653 322.096 232.911 322.096 227.065C322.096 221.22 313.57 216.477 303.051 216.477C292.533 216.477 284.007 221.214 284.007 227.065Z" fill="#FD8A6D"/>
</g>
<path d="M328.917 192.857C318.178 196.537 312.689 208.913 316.636 220.505C320.583 232.098 332.51 238.501 343.249 234.826C353.988 231.152 359.477 218.77 355.524 207.183C351.571 195.597 339.65 189.176 328.917 192.857Z" fill="#5C5C5E"/>
<path d="M314.672 198.714C315.16 198.287 315.792 198.065 316.439 198.093C317.129 198.151 317.963 199.068 318.653 199.387C319.714 199.821 320.846 200.055 321.991 200.078C327.173 200.391 332.342 198.58 337.558 198.731C344.246 198.929 347.498 203.694 349.532 209.824C351.723 216.425 351.821 226.543 344.142 229.991C339.506 232.051 339.187 232.464 334.388 234.025C330.047 235.441 325.219 237.456 320.606 237.508C319.455 237.522 318.308 237.373 317.198 237.067C309.763 235.035 307.108 228.429 304.976 221.858C303.903 218.549 302.304 214.944 302.657 211.409C302.692 210.562 302.919 209.734 303.321 208.988C303.723 208.242 304.288 207.597 304.976 207.102C307.062 205.662 308.969 204.083 311.102 202.568C312.295 201.709 313.362 199.73 314.672 198.714Z" fill="#FD8A6D"/>
<path d="M349.949 204.293V204.357C350.119 204.261 350.309 204.207 350.503 204.2C350.698 204.192 350.892 204.23 351.069 204.312C351.245 204.393 351.401 204.516 351.521 204.669C351.642 204.822 351.725 205.001 351.763 205.192C352.47 208.194 352.505 211.235 352.58 214.283C352.58 214.718 354.249 216.204 354.557 216.651C355.231 217.656 355.793 218.733 356.231 219.861C357.848 224.029 357.541 227.164 356.202 231.291C354.945 235.157 352.337 238.397 349.335 241.073C343.655 246.129 337.216 248.927 329.659 249.234C324.657 249.495 319.672 248.478 315.17 246.28C310.592 244.033 304.57 243.807 299.615 244.468C299.69 243.547 299.936 242.647 300.339 241.816C301.648 239.368 303.419 237.2 305.555 235.43C307.74 233.503 310.47 232.261 312.968 230.746C315.245 229.358 319.464 228.087 320.421 225.359C321.377 222.63 322.241 220.076 323.852 217.598C327.062 212.652 332.244 209.471 337.413 206.911C341.221 205.03 345.174 203.428 349.004 201.553C350.679 200.717 351.595 203.468 349.949 204.293Z" fill="#5C5C5E"/>
<path d="M323.487 222.253C323.865 222.398 324.222 222.593 324.547 222.834C329.045 226.264 324.628 233.549 319.366 232.313C318.777 232.172 318.207 231.962 317.668 231.686C315.547 230.618 314.428 228.453 314.133 226.177C313.547 221.678 320.16 220.947 323.487 222.253Z" fill="#FD8A6D"/>
<g style="mix-blend-mode:multiply">
<path d="M322.096 227.553C321.953 227.028 321.647 226.563 321.222 226.226C320.796 225.888 320.274 225.696 319.731 225.678C318.879 225.678 318.792 224.366 319.65 224.354C320.483 224.356 321.293 224.626 321.959 225.127C322.625 225.627 323.112 226.329 323.348 227.129C323.539 227.954 322.287 228.389 322.096 227.553Z" fill="#FFB381"/>
</g>
<path d="M350.818 253.948C350.819 255.674 350.48 257.383 349.821 258.978C349.162 260.573 348.195 262.022 346.977 263.242C345.758 264.463 344.312 265.431 342.719 266.091C341.127 266.751 339.421 267.091 337.697 267.09H306.123C304.4 267.091 302.693 266.751 301.101 266.091C299.509 265.431 298.062 264.463 296.843 263.242C295.625 262.022 294.658 260.573 293.999 258.978C293.34 257.383 293.001 255.674 293.002 253.948C293.002 250.462 294.384 247.119 296.845 244.654C299.306 242.19 302.643 240.805 306.123 240.805H337.697C341.177 240.805 344.515 242.19 346.975 244.654C349.436 247.119 350.818 250.462 350.818 253.948Z" fill="#FFFFFD"/>
<path d="M229.726 240.806C221.612 241.543 214.154 243.708 205.964 244.422C196.61 245.229 186.642 245.548 177.781 247.475C176.222 247.818 172.182 248.956 172.785 251.034C174.135 255.713 187.558 253.356 191.105 253.617C197.63 254.145 204.434 253.495 210.96 253.362L254.23 252.473C254.89 252.473 266.644 252.259 266.644 252.218V240.806C254.359 239.783 242.011 239.783 229.726 240.806Z" fill="#FD8A6D"/>
<g style="mix-blend-mode:multiply">
<path d="M328.193 221.928C330.685 215.542 338.706 211.079 345.353 210.899C345.538 210.899 345.715 210.825 345.845 210.695C345.975 210.564 346.049 210.387 346.049 210.202C346.049 210.017 345.975 209.84 345.845 209.709C345.715 209.579 345.538 209.505 345.353 209.505C338.022 209.691 329.584 214.538 326.848 221.551C326.518 222.392 327.868 222.752 328.193 221.922V221.928Z" fill="#5C5C5E"/>
</g>
<g style="mix-blend-mode:multiply">
<path d="M331.536 223.791C332.397 221.8 333.802 220.093 335.59 218.867C337.377 217.64 339.473 216.945 341.638 216.86C341.812 216.844 341.974 216.763 342.092 216.634C342.21 216.505 342.276 216.336 342.276 216.16C342.276 215.985 342.21 215.816 342.092 215.687C341.974 215.557 341.812 215.477 341.638 215.461C339.174 215.559 336.789 216.36 334.764 217.77C332.74 219.18 331.159 221.14 330.209 223.419C329.873 224.255 331.218 224.615 331.554 223.791H331.536Z" fill="#5C5C5E"/>
</g>
<g style="mix-blend-mode:multiply">
<path d="M350.975 225.469C350.975 230.548 350.847 236.005 345.759 238.635C344.959 239.047 345.666 240.248 346.46 239.842C352.018 236.98 352.377 231.077 352.377 225.469C352.377 225.284 352.304 225.107 352.174 224.976C352.043 224.846 351.866 224.772 351.682 224.772C351.497 224.772 351.321 224.846 351.19 224.976C351.06 225.107 350.986 225.284 350.986 225.469H350.975Z" fill="#5C5C5E"/>
</g>
<path d="M261.868 295.522H123.743V393.713H261.868V295.522Z" fill="#FFFFFD"/>
<path d="M119.599 267.09L123.743 295.522H261.862L266.429 267.09H119.599Z" fill="#91BAF0"/>
<path d="M289.408 295.522H151.283V393.713H289.408V295.522Z" fill="#985499"/>
<path d="M147.14 267.09L151.283 295.522H289.403L293.97 267.09H147.14Z" fill="#BE9CFA"/>
<path d="M376.382 263.828H37.1807V270.358H376.382V263.828Z" fill="#BE9CFA"/>
<path d="M293.952 341.997C293.952 344.835 291.86 347.14 289.275 347.14H119.738C117.159 347.14 115.067 344.818 115.067 341.997C115.067 339.158 117.159 336.854 119.738 336.854H289.275C291.86 336.854 293.952 339.176 293.952 341.997Z" fill="#BE9CFA"/>
<path d="M293.952 316.624C293.952 319.462 291.86 321.767 289.275 321.767H119.738C117.159 321.767 115.067 319.445 115.067 316.624C115.067 313.785 117.159 311.48 119.738 311.48H289.275C291.86 311.48 293.952 313.802 293.952 316.624Z" fill="#BE9CFA"/>
<path d="M293.952 367.37C293.952 370.209 291.86 372.513 289.275 372.513H119.738C117.159 372.513 115.067 370.191 115.067 367.37C115.067 364.532 117.159 362.227 119.738 362.227H289.275C291.86 362.227 293.952 364.549 293.952 367.37Z" fill="#BE9CFA"/>
<path d="M385.313 256.636C385.312 258.544 384.554 260.373 383.206 261.722C381.859 263.07 380.032 263.828 378.127 263.828H37.1807C35.2762 263.828 33.4498 263.07 32.1032 261.721C30.7565 260.373 30 258.543 30 256.636C30 254.728 30.7565 252.899 32.1032 251.55C33.4498 250.201 35.2762 249.443 37.1807 249.443H378.127C379.07 249.443 380.005 249.628 380.877 249.989C381.748 250.35 382.541 250.88 383.208 251.548C383.876 252.216 384.405 253.009 384.766 253.882C385.127 254.755 385.313 255.691 385.313 256.636Z" fill="#985499"/>
<path d="M52.4463 403.355L59.7835 392.889H304.292L312.371 403.355H52.4463Z" fill="#FFFFFD"/>
<path d="M101.198 403.355L108.535 392.889H353.044L361.123 403.355H101.198Z" fill="#BE9CFA"/>
<g style="mix-blend-mode:multiply" opacity="0.5">
<path d="M293.958 341.997C293.958 344.835 291.866 347.14 289.281 347.14H146.392C143.807 347.14 141.715 344.818 141.715 341.997C141.715 339.158 143.807 336.854 146.392 336.854H289.281C291.866 336.854 293.958 339.176 293.958 341.997Z" fill="#BE9CFA"/>
<path d="M293.958 316.624C293.958 319.462 291.866 321.767 289.281 321.767H146.392C143.807 321.767 141.715 319.445 141.715 316.624C141.715 313.785 143.807 311.48 146.392 311.48H289.281C291.866 311.48 293.958 313.802 293.958 316.624Z" fill="#BE9CFA"/>
<path d="M293.958 367.37C293.958 370.209 291.866 372.513 289.281 372.513H146.392C143.807 372.513 141.715 370.191 141.715 367.37C141.715 364.532 143.807 362.227 146.392 362.227H289.281C291.866 362.227 293.958 364.549 293.958 367.37Z" fill="#BE9CFA"/>
</g>
</svg>
