<svg width="214" height="213" viewBox="0 0 214 213" fill="none" xmlns="http://www.w3.org/2000/svg">
<circle cx="106.97" cy="106.47" r="106.47" fill="#F87F0F"/>
<path fill-rule="evenodd" clip-rule="evenodd" d="M135.964 54.7228C135.964 67.1293 126.098 76.9155 114.259 76.9155C102.421 76.9155 92.5551 67.1293 92.5551 54.7228C92.5551 42.3162 102.421 32.53 114.259 32.53C126.098 32.53 135.964 42.3162 135.964 54.7228ZM146.494 54.7228C146.494 72.795 132.062 87.4455 114.259 87.4455C109.018 87.4455 104.068 86.1754 99.6929 83.9217L75.6074 114.691C73.8729 116.907 70.6706 117.297 68.4548 115.563C66.2389 113.828 65.8487 110.626 67.5832 108.41L91.4828 77.878C85.6398 71.955 82.0251 63.7674 82.0251 54.7228C82.0251 36.6505 96.4569 22 114.259 22C132.062 22 146.494 36.6505 146.494 54.7228Z" fill="white"/>
<path d="M47.2 160.6C42.6 160.6 38.6667 159 35.4 155.8L38.8 151.85C39.9667 152.95 41.3 153.85 42.8 154.55C44.3 155.217 45.8 155.55 47.3 155.55C49.1667 155.55 50.5833 155.167 51.55 154.4C52.5167 153.633 53 152.617 53 151.35C53 149.983 52.5167 149 51.55 148.4C50.6167 147.8 49.4167 147.183 47.95 146.55L43.45 144.6C41.85 143.933 40.35 142.917 38.95 141.55C37.55 140.183 36.85 138.3 36.85 135.9C36.85 133.3 37.8833 131.117 39.95 129.35C42.0167 127.583 44.65 126.7 47.85 126.7C49.75 126.7 51.5833 127.083 53.35 127.85C55.1167 128.583 56.6333 129.583 57.9 130.85L54.95 134.55C53.9167 133.683 52.8167 133 51.65 132.5C50.5167 132 49.25 131.75 47.85 131.75C46.2833 131.75 45.0333 132.1 44.1 132.8C43.1667 133.467 42.7 134.4 42.7 135.6C42.7 136.867 43.2333 137.817 44.3 138.45C45.3667 139.083 46.5667 139.667 47.9 140.2L52.35 142.05C54.2833 142.883 55.8667 143.983 57.1 145.35C58.3333 146.683 58.95 148.533 58.95 150.9C58.95 153.567 57.9 155.85 55.8 157.75C53.7333 159.65 50.8667 160.6 47.2 160.6ZM74.8961 160.6C71.4961 160.6 68.6294 159.467 66.2961 157.2C63.9628 154.933 62.7961 151.783 62.7961 147.75C62.7961 145.083 63.3294 142.783 64.3961 140.85C65.4961 138.917 66.9128 137.433 68.6461 136.4C70.3794 135.367 72.1961 134.85 74.0961 134.85C77.4294 134.85 79.9461 135.933 81.6461 138.1C83.3794 140.267 84.2461 143.067 84.2461 146.5C84.2461 147.7 84.1628 148.633 83.9961 149.3H68.3961C68.6294 151.467 69.3961 153.15 70.6961 154.35C72.0294 155.55 73.6794 156.15 75.6461 156.15C76.7128 156.15 77.6961 156 78.5961 155.7C79.5294 155.367 80.4461 154.917 81.3461 154.35L83.2961 157.95C82.1294 158.717 80.8294 159.35 79.3961 159.85C77.9628 160.35 76.4628 160.6 74.8961 160.6ZM68.3461 145.4H79.2461C79.2461 143.5 78.8294 142.017 77.9961 140.95C77.1628 139.85 75.9128 139.3 74.2461 139.3C72.7794 139.3 71.4961 139.833 70.3961 140.9C69.2961 141.933 68.6128 143.433 68.3461 145.4ZM96.952 156.1C97.952 156.1 98.852 155.867 99.652 155.4C100.485 154.933 101.369 154.267 102.302 153.4V147.9C98.9686 148.333 96.652 148.983 95.352 149.85C94.052 150.683 93.402 151.717 93.402 152.95C93.402 154.05 93.7353 154.85 94.402 155.35C95.0686 155.85 95.9186 156.1 96.952 156.1ZM95.102 160.6C92.9686 160.6 91.2186 159.933 89.852 158.6C88.5186 157.267 87.852 155.533 87.852 153.4C87.852 150.767 88.9853 148.733 91.252 147.3C93.552 145.833 97.2353 144.833 102.302 144.3C102.235 143 101.885 141.883 101.252 140.95C100.619 139.983 99.4686 139.5 97.802 139.5C96.602 139.5 95.4186 139.733 94.252 140.2C93.1186 140.667 92.002 141.233 90.902 141.9L88.802 138.05C90.1353 137.217 91.6686 136.483 93.402 135.85C95.1353 135.183 96.9686 134.85 98.902 134.85C105.002 134.85 108.052 138.383 108.052 145.45V160H103.302L102.902 157.3H102.702C101.602 158.233 100.419 159.017 99.152 159.65C97.9186 160.283 96.5686 160.6 95.102 160.6ZM114.933 160V135.45H119.683L120.083 139.8H120.283C122.083 136.5 124.4 134.85 127.233 134.85C128.4 134.85 129.333 135.017 130.033 135.35L129.033 140.35C128.6 140.217 128.2 140.117 127.833 140.05C127.467 139.983 127.017 139.95 126.483 139.95C125.517 139.95 124.483 140.333 123.383 141.1C122.317 141.833 121.417 143.133 120.683 145V160H114.933ZM143.347 160.6C140.014 160.6 137.197 159.483 134.897 157.25C132.631 154.983 131.497 151.817 131.497 147.75C131.497 143.65 132.731 140.483 135.197 138.25C137.664 135.983 140.531 134.85 143.797 134.85C145.364 134.85 146.731 135.117 147.897 135.65C149.064 136.183 150.097 136.833 150.997 137.6L148.197 141.35C146.831 140.15 145.464 139.55 144.097 139.55C142.131 139.55 140.514 140.3 139.247 141.8C138.014 143.3 137.397 145.283 137.397 147.75C137.397 150.183 137.997 152.15 139.197 153.65C140.431 155.15 142.014 155.9 143.947 155.9C144.881 155.9 145.781 155.7 146.647 155.3C147.514 154.867 148.297 154.367 148.997 153.8L151.347 157.6C150.214 158.6 148.947 159.35 147.547 159.85C146.147 160.35 144.747 160.6 143.347 160.6ZM156.193 160V124.7H161.943V133.8L161.743 138.55C162.776 137.583 163.926 136.733 165.193 136C166.46 135.233 167.926 134.85 169.593 134.85C172.226 134.85 174.143 135.7 175.343 137.4C176.543 139.1 177.143 141.5 177.143 144.6V160H171.393V145.35C171.393 143.317 171.076 141.883 170.443 141.05C169.843 140.217 168.876 139.8 167.543 139.8C166.476 139.8 165.526 140.067 164.693 140.6C163.893 141.1 162.976 141.85 161.943 142.85V160H156.193Z" fill="white"/>
</svg>
