<svg width="496" height="442" viewBox="0 0 496 442" fill="none" xmlns="http://www.w3.org/2000/svg">
<ellipse opacity="0.6" cx="248" cy="422.5" rx="248" ry="16.3611" fill="black" fill-opacity="0.21"/>
<g clip-path="url(#clip0_117_3882)">
<path d="M461.342 150.65C423.581 29.4703 269.454 -20.583 162.445 8.72586C150.872 11.8959 54.4725 39.9196 24.878 127.384C23.3993 131.755 -4.27859 217.449 43.2115 268.203C78.3422 305.745 126.75 294.411 145.912 332.353C162.611 365.414 133.759 389.654 149.085 411.653C172.437 445.164 273.351 437.636 343.369 397.848C415.667 356.769 494.975 258.584 461.342 150.65Z" fill="#D6D6D6"/>
<path d="M418.605 136.385L352.501 67.9282L166.619 247.319L232.723 315.776L418.605 136.385Z" fill="url(#paint0_linear_117_3882)"/>
<path d="M399.502 134.439L349.968 82.7655L318.672 112.749L368.206 164.422L399.502 134.439Z" fill="url(#paint1_linear_117_3882)"/>
<path d="M363.047 169.582L313.513 117.909L282.217 147.893L331.75 199.566L363.047 169.582Z" fill="url(#paint2_linear_117_3882)"/>
<path d="M326.59 204.727L277.056 153.054L245.76 183.038L295.293 234.711L326.59 204.727Z" fill="url(#paint3_linear_117_3882)"/>
<path d="M291.489 240.663L241.63 189.028L210.357 219.209L260.216 270.843L291.489 240.663Z" fill="url(#paint4_linear_117_3882)"/>
<g style="mix-blend-mode:multiply" opacity="0.3">
<path d="M418.584 136.39L383.449 100.003C381.197 110.128 376.965 120.696 369.27 130.01C354.635 147.734 337.841 148.359 312.449 164.011C285.948 180.345 278.559 195.496 258.206 217.1C243.355 232.864 221.473 252.199 189.066 270.596L232.695 315.771L418.584 136.39Z" fill="url(#paint5_linear_117_3882)"/>
</g>
<path d="M449.759 245.963L424.901 154.115L175.506 221.575L200.364 313.422L449.759 245.963Z" fill="url(#paint6_linear_117_3882)"/>
<path d="M435.413 236.132L416.663 166.855L374.705 178.204L393.454 247.481L435.413 236.132Z" fill="url(#paint7_linear_117_3882)"/>
<path d="M386.306 249.414L367.557 180.136L325.598 191.486L344.348 260.763L386.306 249.414Z" fill="url(#paint8_linear_117_3882)"/>
<path d="M337.199 262.698L318.449 193.421L276.491 204.771L295.241 274.048L337.199 262.698Z" fill="url(#paint9_linear_117_3882)"/>
<path d="M288.094 275.981L269.344 206.704L227.386 218.054L246.136 287.331L288.094 275.981Z" fill="url(#paint10_linear_117_3882)"/>
<g style="mix-blend-mode:multiply" opacity="0.3">
<path d="M449.763 245.964L433.387 185.472C423.008 198.797 412.572 204.8 404.217 207.768C380.742 216.106 366.717 202.979 335.904 208.547C307.012 213.771 294.997 229.716 275.493 241.491C256.936 252.693 228.859 261.776 185.029 256.757L200.364 313.414L449.763 245.964Z" fill="url(#paint11_linear_117_3882)"/>
</g>
<path d="M430.492 363.765L453.034 271.322L202.022 210.149L179.48 302.592L430.492 363.765Z" fill="url(#paint12_linear_117_3882)"/>
<path d="M422.676 348.246L439.678 278.519L397.448 268.227L380.445 337.954L422.676 348.246Z" fill="url(#paint13_linear_117_3882)"/>
<path d="M373.247 336.195L390.25 266.469L348.019 256.177L331.017 325.904L373.247 336.195Z" fill="url(#paint14_linear_117_3882)"/>
<path d="M323.819 324.144L340.821 254.417L298.591 244.126L281.589 313.852L323.819 324.144Z" fill="url(#paint15_linear_117_3882)"/>
<path d="M274.39 312.092L291.392 242.366L249.162 232.074L232.16 301.8L274.39 312.092Z" fill="url(#paint16_linear_117_3882)"/>
<g style="mix-blend-mode:multiply" opacity="0.3">
<path d="M430.467 363.746L444.939 304.418C424.711 316.026 409.455 316.87 398.917 315.272C374.287 311.534 368.127 293.341 338.338 283.7C310.404 274.665 292.28 283.039 269.526 284.206C249.35 285.24 222.76 280.743 189.887 259.806L179.46 302.552L430.467 363.746Z" fill="url(#paint17_linear_117_3882)"/>
</g>
<path d="M217.111 268.172C221.063 264.22 221.063 257.813 217.111 253.861C213.158 249.909 206.749 249.909 202.796 253.861C198.843 257.813 198.843 264.22 202.796 268.172C206.749 272.123 213.158 272.123 217.111 268.172Z" fill="url(#paint18_linear_117_3882)"/>
<path d="M193.878 254.156C183.898 244.792 170.729 229.587 164.771 208.087C156.957 179.892 168.408 165.642 167.118 117.903C166.3 87.7251 165.427 66.6691 150.205 55.4051C138.276 46.5789 118.965 44.8249 107.245 53.0061C97.4998 59.8072 91.8624 74.2755 90.1421 84.6018C88.7398 93.0136 89.8663 99.1293 85.0126 103.563C80.0545 108.094 74.699 105.528 70.0541 108.885C60.6505 115.691 66.0948 138.235 66.9752 141.878C76.7652 182.408 114.121 209.743 130.56 221.47C144.158 231.166 165.184 244.088 193.878 254.156Z" fill="url(#paint19_linear_117_3882)"/>
<mask id="mask0_117_3882" style="mask-type:luminance" maskUnits="userSpaceOnUse" x="64" y="47" width="130" height="208">
<path d="M193.878 254.156C183.898 244.792 170.729 229.587 164.771 208.087C156.957 179.892 168.408 165.642 167.118 117.903C166.3 87.7251 165.427 66.6691 150.205 55.4051C138.276 46.5789 118.965 44.8249 107.245 53.0061C97.4998 59.8072 91.8624 74.2755 90.1421 84.6018C88.7398 93.0136 89.8663 99.1293 85.0126 103.563C80.0545 108.094 74.699 105.528 70.0541 108.885C60.6505 115.691 66.0948 138.235 66.9752 141.878C76.7652 182.408 114.121 209.743 130.56 221.47C144.158 231.166 165.184 244.088 193.878 254.156Z" fill="white"/>
</mask>
<g mask="url(#mask0_117_3882)">
<g style="mix-blend-mode:soft-light" opacity="0.5">
<path d="M205.232 261.789C187.819 255.174 172.831 247.283 160.682 238.332C142.687 225.074 131.477 209.839 127.365 193.049C124.151 179.923 125.339 165.715 126.849 147.728C128.096 132.814 130.329 122.369 132.295 113.155C134.838 101.234 136.848 91.8142 135.454 78.212C134.039 64.387 129.475 50.64 121.897 37.3447L122.867 36.7932C130.527 50.2209 135.136 64.1175 136.568 78.0983C137.979 91.878 135.954 101.371 133.389 113.387C131.43 122.578 129.21 132.977 127.965 147.813C126.407 166.403 125.282 179.833 128.453 192.781C132.504 209.31 143.567 224.333 161.349 237.432C173.415 246.322 188.315 254.165 205.632 260.745L205.232 261.789Z" fill="white"/>
<path d="M128.236 137.514L128.056 136.911C120.037 110.016 105.658 93.1834 95.0021 83.798C83.4513 73.626 73.6675 69.7644 73.5693 69.727L73.9729 68.6864C74.0711 68.7253 84.0044 72.6384 95.6986 82.9273C106.395 92.3376 120.805 109.161 128.938 135.973C131.166 134.883 139.558 130.485 147.947 121.835C156.936 112.584 167.764 96.4329 168.341 72.0402L169.456 72.0651C168.869 96.8426 157.856 113.247 148.722 122.645C138.823 132.829 128.919 137.219 128.813 137.263L128.236 137.514Z" fill="white"/>
<path d="M126.153 177.699L125.765 177.585C112.609 173.725 97.6927 158.61 81.4269 132.652C69.3463 113.384 60.9976 94.9982 60.915 94.8144L61.9294 94.347C62.2582 95.0745 95.0142 166.874 125.695 176.392C127.253 174.156 136.463 161.218 148.044 149.859C154.722 143.307 165.984 139.07 174.257 136.669C179.668 135.098 185.172 133.87 190.738 132.993L190.893 134.097C190.599 134.14 161.313 138.403 148.823 150.653C136.239 162.997 126.477 177.214 126.385 177.356L126.153 177.699Z" fill="white"/>
<path d="M156.223 234.738L155.12 234.606C154.973 234.589 140.208 232.782 120.928 226.062C103.131 219.857 77.7202 208.075 57.7428 187.173L19.2231 146.88L20.0287 146.101L58.5562 186.4C78.3731 207.129 103.602 218.828 121.276 224.992C137.445 230.631 150.414 232.791 154.161 233.341C146.814 219.789 148.189 205.045 158.166 190.633C165.844 179.541 176.021 172.452 176.122 172.382L176.755 173.309C176.654 173.379 166.627 180.369 159.063 191.301C148.982 205.88 147.844 220.17 155.674 233.777L156.223 234.738Z" fill="white"/>
</g>
</g>
<path d="M188.413 232.561C169.008 242.063 142.932 251.409 113.984 252.095C106.595 252.271 60.9575 253.363 57.1665 234.168C55.8295 227.408 60.8141 223.839 59.1921 214.768C57.2631 204.02 49.0297 202.151 39.2131 192.323C33.356 186.458 16.216 169.296 23.0782 151.923C27.17 141.54 39.6603 131.561 51.5492 128.902C68.9883 125.019 81.7249 137.677 102.897 159.472C121.673 178.788 122.42 185.395 136.182 199.071C146.403 209.221 162.653 222.144 188.413 232.561Z" fill="url(#paint20_linear_117_3882)"/>
<mask id="mask1_117_3882" style="mask-type:luminance" maskUnits="userSpaceOnUse" x="21" y="128" width="168" height="125">
<path d="M188.413 232.561C169.008 242.063 142.932 251.409 113.984 252.095C106.595 252.271 60.9575 253.363 57.1665 234.168C55.8295 227.408 60.8141 223.839 59.1921 214.768C57.2631 204.02 49.0297 202.151 39.2131 192.323C33.356 186.458 16.216 169.296 23.0782 151.923C27.17 141.54 39.6603 131.561 51.5492 128.902C68.9883 125.019 81.7249 137.677 102.897 159.472C121.673 178.788 122.42 185.395 136.182 199.071C146.403 209.221 162.653 222.144 188.413 232.561Z" fill="white"/>
</mask>
<g mask="url(#mask1_117_3882)">
<g style="mix-blend-mode:soft-light" opacity="0.5">
<path d="M187.953 232.414C166.606 232.414 144.859 226.778 123.016 215.553C91.2467 199.228 67.2337 175.163 52.6787 157.848C42.5257 145.77 35.8645 130.212 32.8774 111.607L33.9775 111.431C36.938 129.834 43.512 145.209 53.5311 157.132C68.0221 174.368 91.9214 198.322 123.526 214.563C153.864 230.152 184.002 234.88 213.104 228.62C234.951 223.92 255.443 213.464 274.011 197.543L274.738 198.389C256.025 214.433 235.369 224.97 213.345 229.71C205.001 231.508 196.489 232.415 187.953 232.414Z" fill="white"/>
<path d="M85.6016 190.156L85.1045 190.092C29.9747 183.146 15.3465 151.656 12.1741 142.173C12.1149 141.998 12.0775 141.88 12.0557 141.827L13.0591 141.344C13.0872 141.4 13.1448 141.561 13.2321 141.819C16.3484 151.119 30.6837 181.929 84.743 188.922C85.6577 184.448 91.7377 150.471 71.2009 126.416L72.0486 125.693C94.3274 151.793 85.8119 189.291 85.7231 189.665L85.6016 190.156Z" fill="white"/>
<path d="M72.0656 232.917C70.4794 232.917 68.9882 232.86 67.5889 232.762C54.3289 231.815 46.8122 227.115 46.499 226.915L47.0974 225.981C47.1722 226.029 54.7324 230.748 67.7416 231.662C79.7069 232.502 98.8475 230.199 122.18 214.5C122.091 211.361 120.83 183.842 103.865 154.474L85.6342 122.921L86.6003 122.365L104.831 153.917C122.921 185.227 123.298 214.497 123.3 214.788V215.088L123.054 215.254C102.032 229.461 84.316 232.917 72.0656 232.917Z" fill="white"/>
</g>
</g>
<path d="M468.734 383.852L29.9668 380.113V391.173C29.9668 394.175 31.8802 396.728 34.473 397.183L158.543 418.965C160.012 419.223 161.508 419.292 162.995 419.17L463.966 394.332C466.654 394.109 468.734 391.548 468.734 388.464V383.852Z" fill="#26264F"/>
<path d="M309.512 366.123L34.5046 386.361C29.5839 386.722 25.5825 382.875 25.5825 377.765V173.035C25.5825 167.925 29.5839 163.782 34.5046 163.782H309.512C313.563 163.782 316.845 167.52 316.845 172.147V357.219C316.835 361.838 313.563 365.824 309.512 366.123Z" fill="#26264F"/>
<path d="M313.891 366.123L38.8889 386.361C33.9682 386.719 29.9746 382.875 29.9746 377.765V173.035C29.9746 167.925 33.976 163.782 38.8967 163.782H313.899C317.951 163.782 321.232 167.52 321.232 172.147V357.219C321.224 361.838 317.946 365.824 313.891 366.123Z" fill="url(#paint21_linear_117_3882)"/>
<path d="M305.325 353.072L49.1887 370.654C45.1842 370.929 41.9292 367.771 41.9292 363.599V184.358C41.9292 180.186 45.1842 176.79 49.1887 176.773L305.325 175.669C308.67 175.655 311.375 178.724 311.375 182.523V345.774C311.382 349.58 308.67 352.845 305.325 353.072Z" fill="url(#paint22_linear_117_3882)"/>
<path d="M186.104 169.382C186.104 171.284 184.689 172.831 182.941 172.837C181.193 172.843 179.771 171.301 179.771 169.394C179.771 167.488 181.191 165.941 182.941 165.941C184.691 165.941 186.104 167.48 186.104 169.382Z" fill="white"/>
<g style="mix-blend-mode:soft-light" opacity="0.48">
<path d="M38.8874 386.361L312.503 366.226L313.895 366.123C315.755 365.986 317.447 365.067 318.739 363.673C299.05 362.595 286.82 355.61 278.931 348.391C263.089 333.904 265.842 319.603 248.752 310.071C227.444 298.184 210.689 313.245 194.518 298.388C184.716 289.378 189.532 282.654 177.465 269.196C164.102 254.282 155.408 259.296 141.976 245.873C125 228.902 133.49 215.698 118.867 203.515C101.126 188.734 81.9927 202.414 65.1099 188.238C57.827 182.124 53.8303 173.236 51.7423 163.782H38.8889C33.9682 163.782 29.9668 167.925 29.9668 173.035V377.765C29.9746 382.875 33.9666 386.719 38.8874 386.361Z" fill="white"/>
</g>
<path d="M324.853 365L29.9746 386.304L158.551 408.878C160.02 409.137 161.516 409.206 163.002 409.084L468.742 383.849L329.543 365.145C327.989 364.936 326.418 364.888 324.853 365Z" fill="url(#paint23_linear_117_3882)"/>
<path d="M72.9961 386.486L318.498 368.486L394.477 378.616L151.09 397.857L72.9961 386.486Z" fill="#26264F"/>
<path d="M348.036 311.102C348.036 333.753 329.554 353.289 306.433 354.756L48.9189 371.1C76.1496 369.372 97.8924 348.081 97.8924 323.519V40.9757L348.036 50.5418V311.102Z" fill="url(#paint24_linear_117_3882)"/>
<path d="M229.393 114.165C229.393 139.751 207.661 160.469 180.431 160.439C152.717 160.408 129.888 138.97 129.888 112.559C129.888 86.1472 152.717 65.4448 180.431 66.3093C207.661 67.1567 229.393 88.5772 229.393 114.165Z" fill="#E8EEF8"/>
<path d="M197.843 128.524L204.277 123.282L203.562 122.448L197.248 127.69L197.843 128.524Z" fill="#771079"/>
<path d="M197.605 141.511L196.389 131.477L195.301 131.627L196.581 141.561L197.605 141.511Z" fill="#771079"/>
<path d="M193.858 128.564L181.515 122.647L181.044 123.639L193.339 129.447L193.858 128.564Z" fill="#771079"/>
<path d="M165.48 105.167L162.933 94.0914L161.85 94.2742L164.458 105.248L165.48 105.167Z" fill="#771079"/>
<path d="M163.768 106.959L147.207 116.49L147.836 117.391L164.278 107.847L163.768 106.959Z" fill="#771079"/>
<path d="M182.222 105.45L167.18 106.47L167.163 107.568L182.116 106.47L182.222 105.45Z" fill="#771079"/>
<path d="M167.081 105.511L177.827 89.8022L176.903 89.2085L166.271 104.883L167.081 105.511Z" fill="#771079"/>
<ellipse cx="148.875" cy="100.406" rx="1.78717" ry="1.78716" fill="#F87F0F"/>
<ellipse cx="159.24" cy="123.401" rx="2.62118" ry="2.62117" fill="#F87F0F"/>
<ellipse cx="193.554" cy="117.682" rx="2.62118" ry="2.62117" fill="#F87F0F"/>
<ellipse cx="195.579" cy="129.477" rx="2.50203" ry="2.50203" fill="#771079"/>
<ellipse cx="178.78" cy="121.256" rx="3.57433" ry="3.57432" fill="#771079"/>
<ellipse cx="185.452" cy="105.529" rx="3.57433" ry="3.57432" fill="#771079"/>
<ellipse cx="165.674" cy="106.482" rx="2.38289" ry="2.38288" fill="#771079"/>
<ellipse cx="178.9" cy="87.3001" rx="3.2169" ry="3.21689" fill="#771079"/>
<ellipse cx="161.623" cy="91.2319" rx="3.57433" ry="3.57432" fill="#771079"/>
<ellipse cx="145.181" cy="117.444" rx="3.09775" ry="3.09775" fill="#771079"/>
<ellipse cx="197.248" cy="143.06" rx="2.02545" ry="2.02545" fill="#771079"/>
<ellipse cx="201.06" cy="98.0231" rx="2.50203" ry="2.50203" fill="#F87F0F"/>
<ellipse cx="205.111" cy="109.699" rx="1.54888" ry="1.54887" fill="#F87F0F"/>
<ellipse cx="205.111" cy="133.766" rx="1.54888" ry="1.54887" fill="#F87F0F"/>
<ellipse cx="187.597" cy="132.456" rx="1.66802" ry="1.66802" fill="#F87F0F"/>
<ellipse cx="170.202" cy="115.299" rx="1.90631" ry="1.90631" fill="#F87F0F"/>
<ellipse cx="177.946" cy="100.406" rx="1.54888" ry="1.54887" fill="#F87F0F"/>
<ellipse cx="192.244" cy="90.6362" rx="1.54888" ry="1.54887" fill="#F87F0F"/>
<ellipse cx="205.945" cy="120.78" rx="3.33604" ry="3.33604" fill="#771079"/>
<path d="M331.853 113.007L241.899 111.471V95.8363L331.853 97.8318V113.007Z" fill="#D8DEE8"/>
<path d="M331.853 125.536L241.899 124.377V116.56L331.853 117.948V125.536Z" fill="#D8DEE8"/>
<path d="M331.853 138.065L241.899 137.285V129.468L331.853 130.477V138.065Z" fill="#D8DEE8"/>
<path d="M331.853 205.235L138.327 207.917V200.153L331.853 197.945V205.235Z" fill="#D8DEE8"/>
<path d="M122.54 208.135L131.305 208.014V200.233L122.54 200.333V208.135Z" fill="url(#paint25_linear_117_3882)"/>
<path d="M331.853 217.273L138.327 220.736V212.972L331.853 209.983V217.273Z" fill="#D8DEE8"/>
<path d="M122.54 221.018L131.305 220.862V213.081L122.54 213.215V221.018Z" fill="url(#paint26_linear_117_3882)"/>
<path d="M331.853 229.31L138.327 233.555V225.791L331.853 222.02V229.31Z" fill="#D8DEE8"/>
<path d="M122.54 233.9L131.305 233.709V225.928L122.54 226.099V233.9Z" fill="url(#paint27_linear_117_3882)"/>
<path d="M331.853 241.348L138.327 246.373V238.609L331.853 234.058V241.348Z" fill="#D8DEE8"/>
<path d="M122.54 246.783L131.305 246.555V238.775L122.54 238.982V246.783Z" fill="url(#paint28_linear_117_3882)"/>
<path d="M331.853 265.423L122.54 272.549V264.747L331.853 258.133V265.423Z" fill="#D8DEE8"/>
<path d="M331.853 277.46L122.54 285.432V277.629L331.853 270.169V277.46Z" fill="#D8DEE8"/>
<path d="M331.853 289.498L122.54 298.315V290.512L331.853 282.208V289.498Z" fill="#D8DEE8"/>
<path d="M331.853 301.534L122.54 311.197V303.394L331.853 294.244V301.534Z" fill="#D8DEE8"/>
<path d="M447.189 422.895L380.158 429.074C379.247 429.158 378.339 428.878 377.635 428.294C376.931 427.709 376.487 426.87 376.401 425.959C376.318 425.048 376.599 424.141 377.183 423.437C377.767 422.733 378.607 422.289 379.518 422.203L446.547 416.024C447.458 415.94 448.366 416.22 449.07 416.805C449.775 417.389 450.218 418.228 450.304 419.139C450.389 420.05 450.108 420.957 449.524 421.661C448.94 422.365 448.1 422.809 447.189 422.895Z" fill="#D8DEE8"/>
<path d="M449.825 407.228L464.72 405.855C464.777 405.85 464.833 405.867 464.877 405.904C464.921 405.94 464.949 405.992 464.954 406.049L465.691 414.036C465.693 414.064 465.69 414.093 465.682 414.12C465.674 414.146 465.66 414.172 465.642 414.193C465.624 414.215 465.602 414.233 465.577 414.246C465.552 414.259 465.524 414.267 465.496 414.27L450.601 415.643L449.825 407.235L449.825 407.228Z" fill="#D8DEE8"/>
<path d="M193.878 436.89L187.628 437.466C187.29 437.497 186.954 437.392 186.693 437.176C186.433 436.959 186.268 436.648 186.237 436.31C186.206 435.973 186.31 435.637 186.527 435.376C186.744 435.116 187.055 434.952 187.393 434.921L193.644 434.344L193.878 436.89Z" fill="#26264F"/>
<path d="M190.155 435.944C190.212 436.569 190.484 437.156 190.924 437.604C191.363 438.053 191.944 438.336 192.569 438.405L219.126 441.373L217.645 425.311L192.078 433.084C191.477 433.266 190.958 433.651 190.607 434.172C190.257 434.693 190.097 435.319 190.155 435.944Z" fill="#D8DEE8"/>
<g style="mix-blend-mode:soft-light">
<path d="M191.759 434.676C191.791 435.028 192.725 435.249 193.995 435.204L219.99 432.073L219.585 427.674L193.859 433.749C192.603 433.935 191.726 434.322 191.759 434.676Z" fill="white"/>
</g>
<path d="M451.773 419.631L218.497 441.44C214.061 441.848 212.576 425.786 217.015 425.376L450.291 403.568C450.921 403.51 451.555 403.576 452.159 403.763C452.763 403.95 453.324 404.254 453.81 404.658C454.296 405.062 454.698 405.558 454.992 406.117C455.286 406.676 455.467 407.288 455.525 407.917L456.123 414.399C456.182 415.028 456.115 415.662 455.928 416.266C455.741 416.869 455.437 417.43 455.033 417.916C454.629 418.402 454.133 418.804 453.573 419.098C453.014 419.392 452.402 419.573 451.773 419.631Z" fill="url(#paint29_linear_117_3882)"/>
<g style="mix-blend-mode:soft-light">
<path d="M400.108 415.01L216.731 432.215L216.382 428.429L399.759 411.224L400.108 415.01Z" fill="white"/>
</g>
<path style="mix-blend-mode:multiply" d="M401.049 408.076L398.914 408.272L400.402 424.4L402.537 424.203L401.049 408.076Z" fill="url(#paint30_linear_117_3882)"/>
<g style="mix-blend-mode:soft-light">
<path d="M449.974 403.573L447.839 403.77L449.327 419.898L451.462 419.701L449.974 403.573Z" fill="white"/>
</g>
<path style="mix-blend-mode:multiply" opacity="0.3" d="M450.288 403.568L338.494 414.173C325.752 425.892 316.861 427.772 310.702 426.677C306.425 425.915 300.903 423.267 292.42 424.532C284.227 425.755 283.777 429.06 277.103 429.275C267.209 429.587 263.813 422.468 256.424 424.671C252.453 425.854 253.087 428.02 247.591 431.347C245.553 432.582 237.064 437.723 227.335 435.343C221.672 433.959 217.649 430.534 214.989 427.373C213.321 431.752 214.977 441.761 218.492 441.437L451.768 419.628C452.398 419.57 453.01 419.389 453.569 419.095C454.128 418.8 454.624 418.399 455.028 417.913C455.432 417.427 455.736 416.866 455.923 416.263C456.11 415.659 456.177 415.025 456.119 414.396L455.52 407.914C455.462 407.285 455.281 406.674 454.987 406.115C454.692 405.556 454.291 405.061 453.805 404.658C453.319 404.254 452.758 403.95 452.155 403.763C451.551 403.576 450.917 403.51 450.288 403.568Z" fill="url(#paint31_linear_117_3882)"/>
</g>
<defs>
<linearGradient id="paint0_linear_117_3882" x1="294.029" y1="152.899" x2="290.685" y2="244.753" gradientUnits="userSpaceOnUse">
<stop stop-color="white"/>
<stop offset="1" stop-color="#F4F7FA"/>
</linearGradient>
<linearGradient id="paint1_linear_117_3882" x1="387.14" y1="83.4804" x2="264.666" y2="258.657" gradientUnits="userSpaceOnUse">
<stop stop-color="#FFC444"/>
<stop offset="1" stop-color="#F36F56"/>
</linearGradient>
<linearGradient id="paint2_linear_117_3882" x1="389.18" y1="63.5922" x2="266.705" y2="238.77" gradientUnits="userSpaceOnUse">
<stop stop-color="#FFC444"/>
<stop offset="1" stop-color="#F36F56"/>
</linearGradient>
<linearGradient id="paint3_linear_117_3882" x1="381.468" y1="57.644" x2="258.993" y2="232.822" gradientUnits="userSpaceOnUse">
<stop stop-color="#FFC444"/>
<stop offset="1" stop-color="#F36F56"/>
</linearGradient>
<linearGradient id="paint4_linear_117_3882" x1="366.165" y1="63.8965" x2="243.994" y2="240.003" gradientUnits="userSpaceOnUse">
<stop stop-color="#FFC444"/>
<stop offset="1" stop-color="#F36F56"/>
</linearGradient>
<linearGradient id="paint5_linear_117_3882" x1="420.27" y1="135.236" x2="290.787" y2="219.164" gradientUnits="userSpaceOnUse">
<stop stop-color="#FFC444"/>
<stop offset="1" stop-color="#F36F56"/>
</linearGradient>
<linearGradient id="paint6_linear_117_3882" x1="422.152" y1="179.719" x2="285.985" y2="246.99" gradientUnits="userSpaceOnUse">
<stop stop-color="white"/>
<stop offset="1" stop-color="#F4F7FA"/>
</linearGradient>
<linearGradient id="paint7_linear_117_3882" x1="440.317" y1="190.192" x2="278.092" y2="268.258" gradientUnits="userSpaceOnUse">
<stop stop-color="#E38DDD"/>
<stop offset="1" stop-color="#9571F6"/>
</linearGradient>
<linearGradient id="paint8_linear_117_3882" x1="436.279" y1="181.797" x2="274.055" y2="259.863" gradientUnits="userSpaceOnUse">
<stop stop-color="#E38DDD"/>
<stop offset="1" stop-color="#9571F6"/>
</linearGradient>
<linearGradient id="paint9_linear_117_3882" x1="432.241" y1="173.405" x2="270.016" y2="251.471" gradientUnits="userSpaceOnUse">
<stop stop-color="#E38DDD"/>
<stop offset="1" stop-color="#9571F6"/>
</linearGradient>
<linearGradient id="paint10_linear_117_3882" x1="457.932" y1="150.714" x2="295.707" y2="228.78" gradientUnits="userSpaceOnUse">
<stop stop-color="#E38DDD"/>
<stop offset="1" stop-color="#9571F6"/>
</linearGradient>
<linearGradient id="paint11_linear_117_3882" x1="430.071" y1="195.762" x2="293.904" y2="263.033" gradientUnits="userSpaceOnUse">
<stop stop-color="#E38DDD"/>
<stop offset="1" stop-color="#9571F6"/>
</linearGradient>
<linearGradient id="paint12_linear_117_3882" x1="326.385" y1="253.086" x2="296.996" y2="335.205" gradientUnits="userSpaceOnUse">
<stop stop-color="white"/>
<stop offset="1" stop-color="#F4F7FA"/>
</linearGradient>
<linearGradient id="paint13_linear_117_3882" x1="417.216" y1="308.689" x2="237.438" y2="298.798" gradientUnits="userSpaceOnUse">
<stop stop-color="#FF9085"/>
<stop offset="1" stop-color="#FB6FBB"/>
</linearGradient>
<linearGradient id="paint14_linear_117_3882" x1="428.741" y1="299.988" x2="248.962" y2="290.097" gradientUnits="userSpaceOnUse">
<stop stop-color="#FF9085"/>
<stop offset="1" stop-color="#FB6FBB"/>
</linearGradient>
<linearGradient id="paint15_linear_117_3882" x1="435.689" y1="291.036" x2="255.911" y2="281.144" gradientUnits="userSpaceOnUse">
<stop stop-color="#FF9085"/>
<stop offset="1" stop-color="#FB6FBB"/>
</linearGradient>
<linearGradient id="paint16_linear_117_3882" x1="447.11" y1="282.331" x2="267.332" y2="272.439" gradientUnits="userSpaceOnUse">
<stop stop-color="#FF9085"/>
<stop offset="1" stop-color="#FB6FBB"/>
</linearGradient>
<linearGradient id="paint17_linear_117_3882" x1="443.995" y1="255.367" x2="327.006" y2="304.733" gradientUnits="userSpaceOnUse">
<stop stop-color="#FF9085"/>
<stop offset="1" stop-color="#FB6FBB"/>
</linearGradient>
<linearGradient id="paint18_linear_117_3882" x1="201.407" y1="254.672" x2="215.431" y2="269.272" gradientUnits="userSpaceOnUse">
<stop stop-color="#E38DDD"/>
<stop offset="1" stop-color="#9571F6"/>
</linearGradient>
<linearGradient id="paint19_linear_117_3882" x1="64.6176" y1="150.948" x2="193.878" y2="150.948" gradientUnits="userSpaceOnUse">
<stop stop-color="#AA80F9"/>
<stop offset="1" stop-color="#6165D7"/>
</linearGradient>
<linearGradient id="paint20_linear_117_3882" x1="122.001" y1="148.608" x2="90.393" y2="233.472" gradientUnits="userSpaceOnUse">
<stop stop-color="#E38DDD"/>
<stop offset="1" stop-color="#9571F6"/>
</linearGradient>
<linearGradient id="paint21_linear_117_3882" x1="29.9668" y1="275.084" x2="321.224" y2="275.084" gradientUnits="userSpaceOnUse">
<stop stop-color="#444B8C"/>
<stop offset="1" stop-color="#26264F"/>
</linearGradient>
<linearGradient id="paint22_linear_117_3882" x1="41.9292" y1="273.169" x2="311.375" y2="273.169" gradientUnits="userSpaceOnUse">
<stop stop-color="#AA80F9"/>
<stop offset="1" stop-color="#6165D7"/>
</linearGradient>
<linearGradient id="paint23_linear_117_3882" x1="29.9668" y1="387.042" x2="468.734" y2="387.042" gradientUnits="userSpaceOnUse">
<stop stop-color="#444B8C"/>
<stop offset="1" stop-color="#26264F"/>
</linearGradient>
<linearGradient id="paint24_linear_117_3882" x1="266.147" y1="91.5664" x2="102.356" y2="430.388" gradientUnits="userSpaceOnUse">
<stop stop-color="white"/>
<stop offset="1" stop-color="#EBEFF2"/>
</linearGradient>
<linearGradient id="paint25_linear_117_3882" x1="124.397" y1="197.345" x2="140.116" y2="239.944" gradientUnits="userSpaceOnUse">
<stop stop-color="#FF9085"/>
<stop offset="1" stop-color="#FB6FBB"/>
</linearGradient>
<linearGradient id="paint26_linear_117_3882" x1="120.195" y1="198.828" x2="135.863" y2="241.289" gradientUnits="userSpaceOnUse">
<stop stop-color="#FF9085"/>
<stop offset="1" stop-color="#FB6FBB"/>
</linearGradient>
<linearGradient id="paint27_linear_117_3882" x1="124.413" y1="223.119" x2="140.031" y2="265.441" gradientUnits="userSpaceOnUse">
<stop stop-color="#FF9085"/>
<stop offset="1" stop-color="#FB6FBB"/>
</linearGradient>
<linearGradient id="paint28_linear_117_3882" x1="120.239" y1="224.677" x2="135.805" y2="266.86" gradientUnits="userSpaceOnUse">
<stop stop-color="#FF9085"/>
<stop offset="1" stop-color="#FB6FBB"/>
</linearGradient>
<linearGradient id="paint29_linear_117_3882" x1="323.296" y1="390.901" x2="343.636" y2="446.279" gradientUnits="userSpaceOnUse">
<stop stop-color="#FFC444"/>
<stop offset="1" stop-color="#F36F56"/>
</linearGradient>
<linearGradient id="paint30_linear_117_3882" x1="399.683" y1="416.407" x2="401.818" y2="416.21" gradientUnits="userSpaceOnUse">
<stop stop-color="#AA80F9"/>
<stop offset="1" stop-color="#6165D7"/>
</linearGradient>
<linearGradient id="paint31_linear_117_3882" x1="323.233" y1="390.728" x2="343.622" y2="446.241" gradientUnits="userSpaceOnUse">
<stop stop-color="#F36F56"/>
<stop offset="1" stop-color="#FFC444"/>
</linearGradient>
<clipPath id="clip0_117_3882">
<rect width="457.25" height="440.889" fill="white" transform="translate(12.0557 0.555542)"/>
</clipPath>
</defs>
</svg>
