<svg width="503" height="515" viewBox="0 0 503 515" fill="none" xmlns="http://www.w3.org/2000/svg">
<g clip-path="url(#clip0_117_4114)">
<path d="M260.11 504.524C394.255 504.524 503 396.028 503 262.191C503 128.355 394.255 19.8586 260.11 19.8586C125.966 19.8586 17.2212 128.355 17.2212 262.191C17.2212 396.028 125.966 504.524 260.11 504.524Z" fill="#F3F3F3"/>
<path d="M460.23 351.958H405.188V356.221H460.23V351.958Z" fill="#FF8083"/>
<path d="M460.23 365.084H405.188V369.347H460.23V365.084Z" fill="#FF8083"/>
<path d="M460.23 297.047H405.188V301.31H460.23V297.047Z" fill="#FF8083"/>
<path d="M460.23 310.173H405.188V314.436H460.23V310.173Z" fill="#FF8083"/>
<path d="M460.23 324.131H405.188V328.394H460.23V324.131Z" fill="#FF8083"/>
<path d="M460.23 337.257H405.188V341.52H460.23V337.257Z" fill="#FF8083"/>
<path d="M460.23 118.428H405.188V122.692H460.23V118.428Z" fill="#FF8083"/>
<path d="M460.23 131.555H405.188V135.818H460.23V131.555Z" fill="#FF8083"/>
<path d="M460.23 63.5125H405.188V67.7756H460.23V63.5125Z" fill="#FF8083"/>
<path d="M460.23 76.6382H405.188V80.9013H460.23V76.6382Z" fill="#FF8083"/>
<path d="M460.23 90.6011H405.188V94.8642H460.23V90.6011Z" fill="#FF8083"/>
<path d="M460.23 103.727H405.188V107.99H460.23V103.727Z" fill="#FF8083"/>
<path d="M460.23 235.913H405.188V240.177H460.23V235.913Z" fill="#FF8083"/>
<path d="M460.23 249.039H405.188V253.302H460.23V249.039Z" fill="#FF8083"/>
<path d="M460.23 181.002H405.188V185.265H460.23V181.002Z" fill="#FF8083"/>
<path d="M460.23 194.128H405.188V198.391H460.23V194.128Z" fill="#FF8083"/>
<path d="M460.23 208.086H405.188V212.349H460.23V208.086Z" fill="#FF8083"/>
<path d="M460.23 221.217H405.188V225.48H460.23V221.217Z" fill="#FF8083"/>
<path d="M460.23 57.8V119.77C460.23 123.376 459.518 126.947 458.135 130.278C456.752 133.609 454.725 136.636 452.169 139.186C449.613 141.736 446.579 143.758 443.24 145.138C439.901 146.518 436.323 147.228 432.709 147.228C429.094 147.228 425.516 146.518 422.177 145.138C418.838 143.758 415.804 141.736 413.248 139.186C410.692 136.636 408.665 133.609 407.282 130.278C405.899 126.947 405.187 123.376 405.187 119.77V57.8H397.967V119.77C397.967 128.963 401.628 137.779 408.143 144.28C414.658 150.78 423.495 154.432 432.709 154.432C441.922 154.432 450.759 150.78 457.274 144.28C463.789 137.779 467.45 128.963 467.45 119.77V57.8H460.23Z" fill="#B4AFA5"/>
<path d="M432.709 147.761C423.498 147.771 414.668 151.425 408.155 157.923C401.642 164.42 397.978 173.229 397.967 182.418V246.992C397.967 251.544 398.866 256.051 400.612 260.256C402.358 264.462 404.917 268.283 408.143 271.501C411.369 274.72 415.199 277.273 419.414 279.015C423.629 280.757 428.146 281.654 432.709 281.654C437.271 281.654 441.788 280.757 446.003 279.015C450.218 277.273 454.048 274.72 457.274 271.501C460.5 268.283 463.059 264.462 464.805 260.256C466.551 256.051 467.45 251.544 467.45 246.992V182.395C467.432 173.21 463.766 164.406 457.253 157.914C450.741 151.422 441.915 147.771 432.709 147.761ZM460.23 244.388V247.015C460.23 250.621 459.518 254.192 458.135 257.523C456.752 260.854 454.725 263.881 452.169 266.431C449.613 268.981 446.579 271.003 443.24 272.383C439.901 273.763 436.323 274.473 432.709 274.473C429.094 274.473 425.516 273.763 422.177 272.383C418.838 271.003 415.804 268.981 413.248 266.431C410.692 263.881 408.665 260.854 407.282 257.523C405.899 254.192 405.187 250.621 405.187 247.015V182.395C405.187 178.789 405.899 175.218 407.282 171.887C408.665 168.556 410.692 165.529 413.248 162.979C415.804 160.429 418.838 158.407 422.177 157.027C425.516 155.647 429.094 154.937 432.709 154.937C436.323 154.937 439.901 155.647 443.24 157.027C446.579 158.407 449.613 160.429 452.169 162.979C454.725 165.529 456.752 168.556 458.135 171.887C459.518 175.218 460.23 178.789 460.23 182.395V244.365V244.388Z" fill="#B4AFA5"/>
<path d="M460.23 371.545V309.574C460.23 305.969 459.518 302.398 458.135 299.067C456.752 295.735 454.725 292.708 452.169 290.159C449.613 287.609 446.579 285.586 443.24 284.206C439.901 282.827 436.323 282.116 432.709 282.116C429.094 282.116 425.516 282.827 422.177 284.206C418.838 285.586 415.804 287.609 413.248 290.159C410.692 292.708 408.665 295.735 407.282 299.067C405.899 302.398 405.187 305.969 405.187 309.574V371.545H397.967V309.574C397.967 300.382 401.628 291.565 408.143 285.065C414.658 278.565 423.495 274.913 432.709 274.913C441.922 274.913 450.759 278.565 457.274 285.065C463.789 291.565 467.45 300.382 467.45 309.574V371.545H460.23Z" fill="#B4AFA5"/>
<path d="M167.02 245.232L148.367 263.848L150.58 266.055L169.232 247.439L167.02 245.232Z" fill="#8E8383"/>
<path d="M42.9515 380.738L26.6216 401.413L29.0791 403.345L45.4091 382.67L42.9515 380.738Z" fill="#8E8383"/>
<path d="M159.034 244.019C200.429 280.29 204.532 343.394 168.165 384.688C131.799 425.981 68.5686 430.081 27.1739 393.798L22.584 399.015C66.858 437.806 134.514 433.427 173.395 389.255C212.275 345.082 207.892 277.575 163.612 238.784L159.034 244.019Z" fill="#595959"/>
<path d="M98.2207 425.489L117.932 459.556H78.5034L98.2207 425.489Z" fill="#595959"/>
<path d="M153.769 459.556H42.6729V471.733H153.769V459.556Z" fill="#696767"/>
<path d="M162.687 470.761H33.7485V484.906H162.687V470.761Z" fill="#771079" fill-opacity="0.55"/>
<path d="M184.139 318.735C184.14 336.904 178.741 354.665 168.625 369.773C158.509 384.88 144.129 396.655 127.305 403.609C110.481 410.563 91.9684 412.383 74.1076 408.839C56.2469 405.295 39.8405 396.546 26.9633 383.7C14.0861 370.853 5.31643 354.485 1.76329 336.665C-1.78985 318.845 0.0331427 300.375 7.00173 283.589C13.9703 266.803 25.7715 252.456 40.9129 242.362C56.0543 232.268 73.8559 226.88 92.0664 226.88C116.485 226.88 139.903 236.557 157.169 253.783C174.436 271.009 184.137 294.373 184.139 318.735Z" fill="#BB9BF8"/>
<path d="M145.088 365.295C144.479 365.295 143.81 364.195 143.049 363.473C142.288 362.75 138.24 363.667 137.272 363.667C136.304 363.667 135.799 363.242 134.904 362.701C134.009 362.161 133.041 362.817 132.341 362.969C131.641 363.12 131.337 362.507 131.732 361.754C132.128 361.001 130.296 361.177 128.896 361.45C127.495 361.724 128.043 362.41 126.923 362.058C125.803 361.705 128.238 360.393 129.054 359.422C129.87 358.45 128.896 356.828 128.445 356.676C127.995 356.525 127.088 355.128 125.687 354.047C124.287 352.966 123.253 353.773 121.578 353.773C119.904 353.773 119.521 353.038 118.748 352.455C117.975 351.872 118.2 350.718 115.095 349.091C111.991 347.463 113.312 348.356 113.506 348.046C113.701 347.736 114.012 347.773 112.898 347.269C111.784 346.765 110.913 347.876 109.854 348.277C108.933 348.595 107.943 348.662 106.987 348.471C106.518 348.356 105.976 347.257 105.428 346.995C104.862 346.71 104.391 346.267 104.071 345.72C103.951 345.586 103.79 345.495 103.613 345.461C103.436 345.427 103.253 345.451 103.091 345.53C102.93 345.609 102.798 345.739 102.717 345.899C102.635 346.059 102.608 346.242 102.64 346.418C102.677 347.427 102.093 348.004 101.009 348.429C99.9254 348.854 100.4 347.214 100.4 346.728C100.4 346.242 101.368 345.72 101.447 344.949C101.526 344.177 100.473 345.683 99.4688 346.771C98.4644 347.858 97.7582 346.85 95.8163 347.044C93.8745 347.238 94.8058 349.249 94.8058 350.372C94.8058 351.496 93.1805 351.884 92.9065 351.587C92.6326 351.289 92.6326 350.7 92.0482 350.7C91.4638 350.7 91.3116 349.765 91.1595 349.419C91.0073 349.072 89.0228 348.726 88.2862 350.117C87.5496 351.508 86.7765 350.384 85.8816 350.117C84.9868 349.85 83.2458 346.358 83.6354 345.744C84.025 345.131 84.0189 344.851 83.5928 344.426C83.1666 344.001 83.3614 343.691 83.7084 343.035C84.0554 342.379 84.9868 341.754 83.1301 340.551C81.2734 339.349 78.3575 340.4 76.7992 340.248C75.2408 340.096 76.4948 338.966 76.7992 338.656C77.335 337.958 77.7468 337.173 78.0166 336.336C78.3332 335.407 77.7488 335.328 78.2906 334.089C78.8324 332.85 78.6802 332 77.4383 331.921C76.1965 331.842 75.0034 332.777 74.9547 334.557C74.906 336.336 73.0919 336.257 68.9829 335.948C64.8738 335.638 65.2573 332.389 64.7886 329.753C64.3199 327.117 65.6409 324.894 65.72 323.564C65.7991 322.234 67.4245 320.776 68.9829 319.61C70.5413 318.444 72.7449 318.747 72.7449 318.747C74.0325 319.037 75.3415 319.222 76.6591 319.3C77.5905 319.227 76.8174 318.529 76.8966 317.6C76.9757 316.67 81.4743 317.29 82.2474 317.29C83.0205 317.29 82.8562 317.897 83.7206 318.747C84.585 319.598 84.4206 317.909 85.2729 318.067C86.1251 318.225 85.4312 318.766 86.673 320.776C87.9148 322.786 87.6774 323.485 88.067 325.185C88.4566 326.886 89.2845 326.036 89.8567 324.645C90.429 323.254 89.248 318.766 88.9254 316.44C88.6027 314.113 90.709 314.964 92.7239 312.795C94.7389 310.627 96.8391 310.469 97.7704 308.921C98.7018 307.372 97.6913 304.821 98.2331 306.212C98.7749 307.603 98.8418 305.671 98.9331 304.201C99.0244 302.732 99.7854 302.106 100.151 302.987C100.516 303.867 101.003 303.218 101.313 301.772C101.624 300.327 102.945 298.79 103.566 298.055C104.187 297.32 105.428 298.019 107.133 298.055C108.837 298.092 107.212 297.745 106.707 296.045C106.202 294.344 107.79 293.755 108.454 293.755C109.117 293.755 111.942 292.249 112.569 291.86C113.196 291.471 114 291.514 115.089 292.328C116.179 293.142 114.079 292.516 113.379 293.719C112.679 294.921 114.389 295.073 115.126 293.992C115.862 292.911 117.494 293.385 118.888 292.018C120.282 290.652 117.299 291.125 116.642 290.931C115.984 290.737 115.57 289.109 115.631 288.587C115.583 287.666 115.187 286.798 114.523 286.157C113.823 285.55 112.021 286.218 110.451 286.856C108.88 287.493 108.411 288.07 108.533 287.317C108.655 286.564 111.266 284.821 111.966 284.706C113.358 284.369 114.634 283.666 115.661 282.671C116.593 281.626 119.271 282.847 120.495 282.962C121.718 283.078 123.466 283.776 124.099 282.902C124.732 282.027 125.267 282.033 126.534 281.857C127.8 281.681 128.049 279.829 127.179 279.015C126.308 278.201 125.024 275.237 123.222 274.314C121.42 273.391 122.114 272.802 122.692 272.042C123.271 271.283 120.866 269.431 120.099 267.499C119.332 265.568 120.172 265.07 119.241 265.021C118.309 264.973 118.93 266.412 118.462 267.73C117.993 269.048 116.027 268.337 115.747 268.271C115.341 267.961 115.011 267.563 114.782 267.108C114.553 266.652 114.431 266.15 114.426 265.641C114.505 264.426 114.815 263.315 114.426 262.926C114.036 262.537 113.208 262.853 112.721 262.385C112.234 261.918 111.638 260.527 110.938 259.907C110.238 259.288 108.685 259.677 107.602 259.446C106.518 259.215 105.508 259.598 105.739 260.296C105.97 260.995 105.818 261.924 105.428 264.402C105.039 266.88 104.266 265.562 103.645 266.181C103.024 266.801 104.028 266.953 104.576 268.732C105.124 270.512 103.876 271.836 103.359 272.376C102.841 272.917 101.027 273.312 99.8645 273.7C98.7018 274.089 99.9436 275.553 100.102 276.792C100.26 278.031 99.0914 279.829 98.4705 280.047C97.8496 280.266 95.8285 277.721 95.6763 276.251C95.5242 274.781 96.8938 273.154 96.2851 272.692C95.6763 272.231 93.2414 272.225 91.0073 270.366C88.7732 268.508 86.0399 267.505 85.1085 265.258C84.1771 263.011 86.0399 261.007 86.8191 259.373C87.5983 257.739 89.1445 257.982 91.6282 257.053C94.1119 256.124 92.5291 255.279 93.1379 255.279C93.7466 255.279 95.7738 254.976 96.2425 254.356C96.9818 253.612 97.85 253.007 98.8053 252.571C99.8097 252.03 100.023 250.949 100.431 250.33C100.839 249.71 101.904 251.18 103.152 251.028C104.4 250.876 104.308 251.259 106.019 250.481C107.729 249.704 106.25 249.267 106.098 248.392C105.946 247.518 107.182 247.785 106.798 246.843C106.415 245.902 104.698 244.985 103.578 245.143C102.458 245.301 103.925 246.358 102.762 247.463C101.599 248.568 101.831 249.242 101.441 249.4C101.052 249.558 99.3471 249.012 99.3471 248.471C99.3471 247.931 100.12 247.463 100.431 247.256C100.741 247.05 100.199 245.859 100.047 245.477C99.895 245.094 99.1888 245.938 99.0366 246.692C98.8844 247.445 98.0261 247.542 98.2574 246.843C98.4887 246.145 97.6487 245.295 97.0399 244.444C96.4312 243.594 97.6487 243.667 98.3609 242.586C99.0731 241.505 98.8296 241.037 97.8922 240.497C96.9547 239.956 95.8772 240.806 94.7937 241.966C93.7101 243.126 94.0936 243.047 94.4832 244.523C94.8728 245.999 94.4832 244.523 94.7145 245.914C94.9458 247.305 92.9309 247.129 92.9309 247.129C92.4579 247.097 91.989 247.02 91.5308 246.898C91.1412 246.74 91.5308 246.2 90.6785 245.89C89.8263 245.58 89.4611 246.977 89.4611 246.977C89.4611 246.977 87.1296 246.898 86.2043 246.898C85.279 246.898 83.9519 246.43 83.7206 246.048C83.1041 245.359 82.2401 244.94 81.316 244.882C80.3055 244.882 79.9159 245.738 79.9159 246.74C79.9159 247.742 78.2114 247.827 78.2845 247.347C78.2739 246.643 78.1965 245.942 78.0532 245.252L77.1279 245.793C77.1279 245.793 74.5651 245.641 73.7067 245.562C72.8484 245.483 73.1649 244.402 73.1649 244.402L74.8694 244.244L75.1068 243.861C74.8382 243.601 74.522 243.395 74.1755 243.254C73.7067 243.096 71.6918 242.713 71.6918 242.713L71.083 241.857H69.7621C69.3785 241.857 68.7576 242.634 68.4472 242.634C68.1367 242.634 68.1306 241.778 68.1306 241.778L68.2889 241.086L67.5097 241.468C66.7366 241.857 66.4261 241.553 66.4261 241.553L66.7366 240.776L66.8157 239.926C66.8157 239.926 66.3531 239.379 66.3531 239.768C66.2586 240.091 66.0653 240.378 65.8002 240.587C65.5351 240.796 65.2113 240.917 64.8738 240.934C64.1738 240.855 63.7111 241.541 62.7006 241.317C61.6901 241.092 59.7543 241.778 58.6646 242.713C57.575 243.649 56.881 243.928 57.1123 242.865C57.3437 241.802 54.0686 241.936 53.5451 241.705C52.48 241.419 51.3891 241.238 50.2883 241.165C49.9284 241.139 49.5835 241.011 49.2943 240.796C49.0052 240.58 48.784 240.287 48.6569 239.95L48.0907 238.025C41.3357 241.699 35.0678 246.202 29.4327 251.429C29.9158 252.427 30.497 253.375 31.1676 254.259C31.327 254.369 31.5159 254.427 31.7094 254.427C31.9029 254.427 32.0918 254.369 32.2512 254.259C30.2799 255.666 28.3898 257.183 26.5899 258.802C23.0957 261.875 24.2584 262.234 24.2584 263.394C24.2584 264.554 24.9584 264.092 24.9584 264.092C24.9584 264.092 22.2434 266.88 21.4703 267.651C20.6972 268.423 19.2971 269.51 19.2971 269.51L17.897 271.21L18.5057 271.447L26.9429 264.39C26.9429 264.39 27.4664 264.268 27.5517 263.977C27.6904 263.488 27.9288 263.033 28.2517 262.641C28.5984 262.244 28.9024 261.813 29.1588 261.353C29.5837 261.142 29.9754 260.87 30.3215 260.545C30.9302 259.938 31.5998 259.088 32.1477 259.033C32.6956 258.978 32.1477 259.786 31.2163 260.545C30.4508 261.258 29.7687 262.054 29.1831 262.92C29.1831 262.92 32.2634 261.298 33.3104 260.6C34.3574 259.901 34.0105 258.857 34.4183 258.778C34.8262 258.699 35.7576 259.586 36.0498 260.46C36.342 261.335 36.6585 260.284 38.2595 260.46C39.8605 260.636 38.783 261.851 39.3674 262.665C39.9518 263.479 39.9762 263.709 41.4615 263.363C42.9468 263.017 40.8528 266.613 40.8528 266.613L40.7371 267.779C40.9662 268.068 41.1698 268.377 41.3458 268.702C41.3458 268.823 40.6458 270.913 40.6458 270.913H41.8085C41.5108 271.276 41.1574 271.589 40.7614 271.842C40.1527 272.188 40.8771 273.117 41.4615 273.585C42.0459 274.053 41.4615 273.585 40.6458 275.437C39.8301 277.29 40.6458 276.719 41.5772 277.994C42.5085 279.27 43.0929 279.853 43.7869 280.667C44.4809 281.481 43.7869 283.339 43.0929 283.454C42.399 283.57 40.8771 282.41 40.8771 282.41C40.9928 299.829 39.8301 288.21 39.2518 289.698C38.6734 291.186 37.8516 292.024 37.8516 292.953C37.9486 294.224 37.6211 295.49 36.9203 296.555C35.9889 297.83 36.8046 300.734 36.9203 301.08C37.0359 301.426 37.7725 302.938 37.7725 302.938V307.7C37.7725 309.249 40.5666 310.026 41.498 311.344C42.4294 312.662 42.1981 315.219 42.2772 315.644C42.522 316.388 42.9391 317.064 43.4947 317.618C44.0365 318.122 44.1035 318.972 44.4991 319.744C44.8948 320.515 43.8417 320.248 43.7199 321.256C43.5982 322.264 44.6939 322.3 45.2783 322.531C45.4528 322.57 45.6165 322.647 45.7578 322.757C45.8991 322.866 46.0145 323.005 46.0959 323.164C46.1772 323.323 46.2225 323.497 46.2285 323.676C46.2345 323.854 46.2011 324.031 46.1306 324.195C45.8201 325.283 45.9723 324.894 46.5567 325.513C47.1411 326.133 46.8672 325.744 47.1654 326.91C47.4637 328.076 48.249 327.566 48.249 327.566V328.259C48.249 328.453 48.9491 328.647 48.9491 328.647L49.4178 327.949C49.4178 327.949 49.0647 327.797 49.0647 327.682C49.0647 327.566 48.9856 326.983 48.9856 326.983L47.9385 326.558C47.8661 326.291 47.8152 326.019 47.7864 325.744V324.736C47.7864 324.584 47.3968 324.469 47.3968 324.469C47.3968 324.469 47.3602 323.424 47.3602 322.805C47.3602 322.185 46.3497 321.59 46.3132 321.335C46.2693 320.725 46.0972 320.131 45.8079 319.592C45.4183 318.984 44.487 317.77 44.5235 316.458C44.56 315.146 44.213 314.29 44.7183 314.29C45.2235 314.29 46.0819 315.565 46.3132 315.796C46.5445 316.027 46.3497 317.575 47.3176 319.009C48.2855 320.442 50.7996 323.382 50.5683 323.618C50.337 323.855 49.6978 323.758 50.0448 324.633C50.3918 325.507 51.2623 325.708 51.871 325.878C52.4798 326.048 53.5634 329.595 54.2573 330.737C54.9513 331.878 54.0808 331.897 53.9103 332.65C53.7399 333.403 53.9651 333.81 55.1278 334.332C56.2905 334.854 56.0592 336.154 57.3924 336.537C58.7255 336.919 61.3553 338.65 62.0493 338.802C62.7432 338.954 62.658 339.58 63.6016 339.665C64.1848 339.7 64.7357 339.944 65.1539 340.351C65.6226 340.661 67.254 340.041 67.5584 339.81C67.8628 339.58 68.1671 339.659 69.0377 339.81C69.9082 339.962 72.3736 342.598 73.1467 343.376C73.9198 344.153 74.5468 343.06 75.1677 343.376C75.7886 343.691 76.9513 344.378 77.414 344.305C77.8766 344.232 77.8827 343.837 78.1932 343.837C78.5036 343.837 78.2662 344.444 79.4107 345.926C80.5551 347.408 80.342 347.712 80.342 347.943C80.342 348.174 80.8838 349.334 81.6569 349.158C82.43 348.981 83.2092 349.807 83.2092 349.807V351.089C83.2092 351.089 85.8512 351.247 86.3869 351.405C86.9226 351.563 86.9956 352.717 87.2452 352.868C87.4948 353.02 88.4079 351.939 88.2557 351.326C88.1035 350.712 89.2663 350.397 89.7289 349.929C90.1915 349.461 90.8125 350.469 91.2021 350.937C91.5917 351.405 92.4196 352.565 92.4196 353.488C92.4196 354.411 92.3465 355.814 92.3465 357.284C92.3465 358.754 91.1777 359.452 90.3255 360.46C89.4732 361.468 88.694 361.93 88.3105 362.392C87.8339 363.239 87.6419 364.216 87.7626 365.179C87.9209 366.036 88.9801 365.258 88.9801 366.267C88.9801 367.275 87.9696 366.728 86.813 367.657C85.6564 368.587 86.9652 368.666 87.3487 369.443C87.7322 370.22 86.813 369.595 86.813 370.524C86.813 371.453 88.207 371.295 89.528 371.684C90.849 372.073 92.243 375.48 93.0161 377.26C93.7892 379.039 94.5684 380.588 95.3476 380.904C96.1268 381.219 96.1999 381.912 97.8252 382.294C99.4506 382.677 100.735 383.965 101.654 383.965C102.573 383.965 102.543 385.526 102.263 386.169C101.983 386.813 102.208 386.983 102.44 389.303C102.511 392.035 102.251 394.766 101.666 397.436C101.417 398.013 101.49 397.897 101.916 398.322C102.342 398.748 101.216 400.606 101.179 401.189C101.143 401.772 100.053 402.112 99.828 402.659C99.6028 403.206 100.364 403.199 100.522 403.704C100.68 404.208 100.205 405.447 100.674 405.908C101.143 406.37 101.563 406.218 101.685 406.953C101.717 407.13 101.71 407.311 101.663 407.485C101.617 407.659 101.532 407.82 101.416 407.957C101.299 408.094 101.154 408.204 100.99 408.278C100.826 408.352 100.647 408.389 100.467 408.386C99.6941 408.386 99.6941 409.2 100.041 408.927C100.163 408.854 100.303 408.816 100.446 408.816C100.588 408.816 100.728 408.854 100.851 408.927L101.459 410.026C103.359 409.832 105.24 409.571 107.102 409.267C107.504 408.805 107.851 408.435 108.131 408.386C109.063 408.234 108.594 407.305 108.052 405.35C107.51 403.394 109.373 405.04 110.536 404.578C111.699 404.117 111.309 402.562 112.94 402.331C114.572 402.1 116.355 400.63 117.055 399.543C117.756 398.456 116.745 397.922 119.308 398.231C121.871 398.541 124.178 395.286 126.211 392.887C128.244 390.488 126.442 389.71 130.016 387.469C133.589 385.228 139.366 379.124 139.713 377.211C140.06 375.298 139.104 375.231 141.107 373.901C143.11 372.571 145.709 368.848 145.94 367.827C146.172 366.807 145.673 365.295 145.088 365.295Z" fill="#B657B8"/>
<path d="M125.438 237.922C122.491 237.922 121.864 240.867 124.506 241.329C127.148 241.79 132.578 241.79 133.51 245.665C134.441 249.54 130.715 250.621 133.51 252.474C136.304 254.326 132.901 256.349 132.901 258.978C132.891 260.182 133.167 261.371 133.707 262.448C134.246 263.525 135.034 264.459 136.005 265.173C137.832 266.57 139.725 268.429 139.883 269.51C140.041 270.591 141.898 270.287 141.898 270.287C141.802 269.773 141.802 269.246 141.898 268.732C142.056 267.809 143.609 266.722 143.609 264.092C143.609 261.462 144.991 261.614 146.086 261.766C147.182 261.918 149.349 261.614 149.97 261.766C150.591 261.918 154.317 261.924 154.627 260.066C154.937 258.207 152.143 255.419 152.143 255.419C152.143 255.419 153.708 252.826 153.696 251.648C153.612 251.116 153.465 250.596 153.257 250.099C145.722 243.398 137.134 237.979 127.836 234.059C127.836 235.523 127.489 237.922 125.438 237.922Z" fill="#B657B8"/>
<path d="M180.529 313.585C175.178 309.17 171.684 309.17 171.216 310.336C170.747 311.502 174.947 315.674 171.216 320.788C167.484 325.902 164.702 327.985 166.102 332.164C167.502 336.343 160.246 340.059 165.731 343.776C171.216 347.493 170.059 347.5 174.01 347.263C177.96 347.026 177.394 353.172 177.108 354.016C181.76 342.853 184.15 330.88 184.139 318.79C184.139 318.407 184.139 318.031 184.139 317.648C183.185 316.092 181.963 314.717 180.529 313.585Z" fill="#E2E2E2"/>
<path opacity="0.1" d="M100.589 410.202C122.788 408.141 143.484 398.115 158.834 381.983C174.185 365.852 183.148 344.711 184.06 322.486C184.971 300.261 177.77 278.461 163.791 261.132C149.813 243.803 130.008 232.122 108.052 228.259C161.439 249.692 187.98 379.786 100.589 410.202Z" fill="#4B3E41"/>
<path d="M235.647 98.8653L230.759 127.188L236.261 128.133L241.149 99.8103L235.647 98.8653Z" fill="#B4AFA5"/>
<path d="M279.634 76.961L277.087 81.9167L302.719 95.0313L305.266 90.0756L279.634 76.961Z" fill="#B4AFA5"/>
<path d="M295.949 137.063L271.149 151.684L273.989 156.479L298.789 141.858L295.949 137.063Z" fill="#B4AFA5"/>
<path d="M205.671 24.7358L249.111 5.71973L287.328 33.7489L282.111 80.7942L238.677 99.7982L200.454 71.769L205.671 24.7358ZM248.411 12.024L210.79 28.4893L206.273 69.2303L239.377 93.5243L276.979 77.0408L281.502 36.2998L248.411 12.024Z" fill="#B4AFA5"/>
<path d="M282.324 44.2257C280.676 43.821 279.186 42.938 278.042 41.6884C276.898 40.4388 276.151 38.8787 275.895 37.2054C275.64 35.5322 275.887 33.8209 276.607 32.288C277.326 30.7551 278.485 29.4694 279.936 28.5936C281.388 27.7178 283.067 27.2911 284.762 27.3676C286.457 27.4441 288.091 28.0203 289.457 29.0233C290.824 30.0263 291.862 31.4111 292.439 33.0025C293.017 34.594 293.109 36.3205 292.703 37.964C292.434 39.0554 291.952 40.0833 291.285 40.9889C290.618 41.8944 289.778 42.6599 288.814 43.2414C287.85 43.823 286.781 44.2093 285.667 44.3782C284.553 44.5471 283.417 44.4953 282.324 44.2257Z" fill="#FF8083"/>
<path opacity="0.2" d="M290.42 36.731C289.586 37.1076 288.326 36.1237 287.602 34.5506C286.877 32.9776 286.962 31.3803 287.796 31.0037C288.63 30.6271 289.89 31.6111 290.615 33.178C291.339 34.745 291.254 36.3484 290.42 36.731Z" fill="white"/>
<path opacity="0.1" d="M282.324 44.2257C283.271 44.4574 284.251 44.5252 285.222 44.4261C281.624 42.3611 275.086 37.1379 280.4 28.3435C278.858 29.1482 277.597 30.4025 276.786 31.9395C275.976 33.4765 275.653 35.2234 275.862 36.9477C276.071 38.672 276.801 40.292 277.955 41.5921C279.11 42.8922 280.634 43.8108 282.324 44.2257Z" fill="black"/>
<path d="M276.181 86.1996C274.534 85.7949 273.044 84.9119 271.9 83.6623C270.756 82.4126 270.009 80.8526 269.753 79.1793C269.498 77.506 269.745 75.7947 270.464 74.2618C271.184 72.7289 272.343 71.4433 273.794 70.5675C275.246 69.6917 276.925 69.265 278.62 69.3415C280.315 69.418 281.949 69.9942 283.315 70.9972C284.682 72.0002 285.719 73.385 286.297 74.9764C286.875 76.5678 286.966 78.2944 286.561 79.9378C286.016 82.1413 284.617 84.0389 282.671 85.2132C280.724 86.3874 278.39 86.7423 276.181 86.1996Z" fill="#FF8083"/>
<path opacity="0.2" d="M284.284 78.6987C283.45 79.0814 282.19 78.0914 281.465 76.5244C280.741 74.9575 280.826 73.3541 281.66 72.9714C282.494 72.5888 283.754 73.5788 284.479 75.1518C285.203 76.7249 285.112 78.3222 284.284 78.6987Z" fill="white"/>
<path opacity="0.1" d="M276.181 86.1996C277.129 86.4313 278.109 86.4991 279.079 86.4C275.487 84.335 268.943 79.1118 274.258 70.3174C272.715 71.1221 271.454 72.3764 270.644 73.9134C269.833 75.4504 269.511 77.1973 269.72 78.9216C269.928 80.6459 270.659 82.2658 271.813 83.566C272.967 84.8661 274.491 85.7847 276.181 86.1996Z" fill="black"/>
<path d="M236.394 104.39C234.747 103.984 233.258 103.1 232.115 101.85C230.972 100.6 230.225 99.0398 229.971 97.3667C229.716 95.6936 229.964 93.9828 230.684 92.4504C231.404 90.9181 232.563 89.633 234.014 88.7577C235.466 87.8825 237.145 87.4562 238.84 87.533C240.534 87.6097 242.168 88.1859 243.534 89.1888C244.9 90.1917 245.938 91.5762 246.515 93.1673C247.093 94.7584 247.185 96.4847 246.779 98.1278C246.234 100.332 244.833 102.229 242.886 103.404C240.938 104.578 238.603 104.932 236.394 104.39Z" fill="#FF8083"/>
<path opacity="0.2" d="M244.496 96.8951C243.662 97.2716 242.402 96.2877 241.678 94.7208C240.953 93.1538 241.039 91.5443 241.873 91.1678C242.707 90.7912 243.967 91.7751 244.691 93.3421C245.415 94.909 245.324 96.5124 244.496 96.8951Z" fill="white"/>
<path opacity="0.1" d="M236.394 104.39C237.341 104.624 238.321 104.692 239.291 104.59C235.7 102.531 229.156 97.302 234.47 88.5076C232.927 89.3123 231.667 90.5666 230.856 92.1036C230.046 93.6406 229.723 95.3875 229.932 97.1118C230.141 98.8361 230.871 100.456 232.025 101.756C233.18 103.056 234.703 103.975 236.394 104.39Z" fill="black"/>
<path d="M201.111 78.9357C199.462 78.5307 197.971 77.647 196.826 76.3962C195.681 75.1455 194.933 73.5841 194.678 71.9094C194.422 70.2347 194.67 68.522 195.391 66.988C196.111 65.454 197.271 64.1675 198.724 63.2913C200.177 62.4152 201.858 61.9887 203.554 62.0658C205.25 62.1429 206.885 62.7201 208.253 63.7245C209.62 64.7289 210.658 66.1153 211.235 67.7083C211.813 69.3013 211.903 71.0294 211.496 72.674C210.951 74.8779 209.55 76.7755 207.603 77.9497C205.655 79.1239 203.32 79.4786 201.111 78.9357Z" fill="#FF8083"/>
<path opacity="0.2" d="M209.214 71.441C208.38 71.8175 207.119 70.8336 206.395 69.2606C205.671 67.6876 205.756 66.0902 206.59 65.7137C207.424 65.3371 208.684 66.321 209.408 67.888C210.133 69.4549 210.048 71.0583 209.214 71.441Z" fill="white"/>
<path opacity="0.1" d="M201.111 78.9357C202.06 79.1671 203.043 79.2349 204.015 79.1361C200.417 77.0711 193.873 71.8479 199.187 63.0535C197.645 63.8582 196.384 65.1125 195.574 66.6495C194.763 68.1865 194.44 69.9334 194.649 71.6577C194.858 73.382 195.588 75.0019 196.743 76.302C197.897 77.6021 199.421 78.5208 201.111 78.9357Z" fill="black"/>
<path d="M206.249 34.3319C204.602 33.9272 203.112 33.0442 201.967 31.7946C200.823 30.545 200.076 28.9849 199.821 27.3116C199.565 25.6384 199.813 23.9271 200.532 22.3942C201.251 20.8613 202.41 19.5756 203.862 18.6998C205.313 17.824 206.993 17.3973 208.687 17.4738C210.382 17.5503 212.016 18.1265 213.383 19.1295C214.749 20.1325 215.787 21.5173 216.365 23.1087C216.942 24.7002 217.034 26.4268 216.628 28.0702C216.084 30.2736 214.685 32.1712 212.738 33.3455C210.792 34.5198 208.457 34.8746 206.249 34.3319Z" fill="#FF8083"/>
<path opacity="0.2" d="M214.345 26.8311C213.511 27.2137 212.251 26.2237 211.527 24.6568C210.802 23.0898 210.888 21.4864 211.722 21.1038C212.556 20.7211 213.816 21.7111 214.54 23.2841C215.265 24.8572 215.179 26.4545 214.345 26.8311Z" fill="white"/>
<path opacity="0.1" d="M206.249 34.3319C207.196 34.5636 208.176 34.6314 209.147 34.5323C205.549 32.4673 199.011 27.2441 204.325 18.4436C202.78 19.2474 201.518 20.5018 200.706 22.0396C199.893 23.5775 199.57 25.3258 199.779 27.0515C199.988 28.7773 200.719 30.3985 201.875 31.6992C203.031 32.9999 204.557 33.9182 206.249 34.3319Z" fill="black"/>
<path d="M246.043 17.6723C244.394 17.2673 242.903 16.3835 241.758 15.1328C240.613 13.8821 239.865 12.3207 239.609 10.646C239.354 8.97128 239.602 7.2586 240.322 5.72457C241.042 4.19053 242.202 2.90407 243.656 2.0279C245.109 1.15173 246.79 0.725229 248.486 0.802336C250.182 0.879443 251.817 1.4567 253.184 2.46108C254.551 3.46546 255.589 4.85185 256.167 6.44488C256.744 8.0379 256.835 9.76599 256.428 11.4105C256.158 12.5022 255.676 13.5303 255.008 14.4359C254.34 15.3415 253.5 16.1069 252.536 16.6884C251.571 17.2699 250.502 17.6562 249.387 17.825C248.273 17.9938 247.137 17.9419 246.043 17.6723Z" fill="#FF8083"/>
<path opacity="0.2" d="M254.145 10.1715C253.311 10.5541 252.051 9.56412 251.32 7.99716C250.59 6.4302 250.712 4.82679 251.521 4.45024C252.331 4.07368 253.615 5.05759 254.34 6.62455C255.064 8.19151 254.973 9.79491 254.145 10.1715Z" fill="white"/>
<path opacity="0.1" d="M246.043 17.6722C246.99 17.904 247.97 17.9718 248.94 17.8727C245.349 15.8077 238.805 10.5845 244.119 1.79004C242.576 2.59474 241.316 3.84904 240.505 5.38605C239.694 6.92307 239.372 8.66994 239.581 10.3942C239.79 12.1185 240.52 13.7385 241.674 15.0386C242.829 16.3387 244.352 17.2573 246.043 17.6722Z" fill="black"/>
<path d="M303.38 92.8501L346.826 73.834L385.049 101.863L379.857 148.908L336.392 167.925L298.163 139.883L303.38 92.8501ZM346.126 80.1443L308.506 96.6096L303.983 137.345L337.086 161.639L374.707 145.173L379.248 104.414L346.126 80.1443Z" fill="#B4AFA5"/>
<path d="M380.034 112.34C378.387 111.934 376.898 111.05 375.755 109.8C374.611 108.55 373.865 106.99 373.61 105.317C373.356 103.644 373.604 101.933 374.324 100.401C375.043 98.8683 376.202 97.5832 377.654 96.7079C379.106 95.8327 380.785 95.4064 382.479 95.4832C384.174 95.5599 385.807 96.1361 387.174 97.139C388.54 98.1419 389.577 99.5264 390.155 101.117C390.733 102.709 390.824 104.435 390.419 106.078C390.149 107.17 389.667 108.198 388.999 109.103C388.331 110.009 387.491 110.774 386.527 111.356C385.562 111.937 384.492 112.324 383.378 112.492C382.264 112.661 381.128 112.609 380.034 112.34Z" fill="#DA8AE0"/>
<path opacity="0.2" d="M388.136 104.845C387.302 105.222 386.036 104.238 385.312 102.671C384.587 101.104 384.703 99.4945 385.512 99.118C386.322 98.7414 387.6 99.7253 388.331 101.292C389.061 102.859 388.988 104.463 388.136 104.845Z" fill="white"/>
<path opacity="0.1" d="M380.033 112.34C380.98 112.574 381.961 112.642 382.931 112.54C379.339 110.481 372.795 105.252 378.11 96.4578C376.567 97.2625 375.307 98.5168 374.496 100.054C373.685 101.591 373.363 103.338 373.572 105.062C373.781 106.786 374.511 108.406 375.665 109.706C376.819 111.006 378.343 111.925 380.033 112.34Z" fill="black"/>
<path d="M373.891 154.314C372.241 153.914 370.747 153.035 369.598 151.788C368.449 150.54 367.697 148.981 367.437 147.307C367.178 145.632 367.422 143.919 368.139 142.383C368.856 140.848 370.014 139.559 371.466 138.68C372.918 137.802 374.598 137.373 376.295 137.448C377.991 137.524 379.627 138.1 380.995 139.103C382.363 140.107 383.401 141.493 383.979 143.086C384.557 144.679 384.648 146.407 384.24 148.052C383.695 150.249 382.301 152.141 380.361 153.315C378.422 154.488 376.096 154.847 373.891 154.314Z" fill="#DA8AE0"/>
<path opacity="0.2" d="M381.987 146.819C381.16 147.196 379.893 146.212 379.169 144.639C378.445 143.066 378.56 141.468 379.364 141.092C380.167 140.715 381.458 141.699 382.188 143.266C382.919 144.833 382.821 146.437 381.987 146.819Z" fill="white"/>
<path opacity="0.1" d="M373.891 154.314C374.838 154.548 375.819 154.616 376.789 154.514C373.197 152.455 366.653 147.226 371.968 138.432C370.425 139.236 369.164 140.491 368.354 142.028C367.543 143.565 367.221 145.312 367.43 147.036C367.638 148.76 368.369 150.38 369.523 151.68C370.677 152.98 372.201 153.899 373.891 154.314Z" fill="black"/>
<path d="M334.104 172.51C332.455 172.105 330.964 171.221 329.819 169.97C328.674 168.72 327.926 167.158 327.671 165.484C327.415 163.809 327.663 162.096 328.383 160.562C329.103 159.028 330.263 157.742 331.717 156.866C333.17 155.989 334.851 155.563 336.547 155.64C338.243 155.717 339.878 156.294 341.245 157.299C342.612 158.303 343.65 159.69 344.228 161.283C344.805 162.876 344.896 164.604 344.489 166.248C343.942 168.451 342.541 170.348 340.594 171.522C338.647 172.696 336.313 173.051 334.104 172.51Z" fill="#DA8AE0"/>
<path opacity="0.2" d="M342.206 165.009C341.372 165.392 340.112 164.402 339.388 162.835C338.663 161.268 338.779 159.665 339.583 159.282C340.386 158.899 341.677 159.889 342.401 161.462C343.125 163.035 343.04 164.633 342.206 165.009Z" fill="white"/>
<path opacity="0.1" d="M334.104 172.51C335.053 172.739 336.035 172.806 337.007 172.711C333.41 170.646 326.866 165.422 332.186 156.622C330.641 157.425 329.378 158.679 328.566 160.216C327.753 161.754 327.429 163.502 327.638 165.228C327.846 166.953 328.576 168.575 329.731 169.876C330.887 171.177 332.412 172.096 334.104 172.51Z" fill="black"/>
<path d="M298.821 147.056C297.172 146.651 295.681 145.768 294.536 144.518C293.39 143.267 292.642 141.706 292.386 140.032C292.13 138.357 292.378 136.645 293.097 135.111C293.817 133.577 294.976 132.29 296.429 131.413C297.881 130.536 299.562 130.109 301.258 130.185C302.954 130.262 304.589 130.838 305.957 131.842C307.324 132.845 308.363 134.231 308.941 135.823C309.52 137.416 309.612 139.143 309.206 140.788C308.66 142.992 307.26 144.89 305.313 146.066C303.366 147.241 301.031 147.597 298.821 147.056Z" fill="#DA8AE0"/>
<path opacity="0.2" d="M306.923 139.555C306.089 139.938 304.829 138.948 304.104 137.381C303.38 135.814 303.465 134.211 304.299 133.828C305.133 133.445 306.393 134.435 307.118 136.002C307.842 137.569 307.757 139.173 306.923 139.555Z" fill="white"/>
<path opacity="0.1" d="M298.821 147.056C299.77 147.286 300.752 147.351 301.724 147.25C298.127 145.191 291.583 139.962 296.897 131.168C295.352 131.971 294.09 133.226 293.277 134.764C292.465 136.302 292.142 138.05 292.351 139.776C292.56 141.501 293.291 143.123 294.447 144.423C295.603 145.724 297.128 146.642 298.821 147.056Z" fill="black"/>
<path d="M303.958 102.446C302.311 102.041 300.821 101.158 299.677 99.9088C298.533 98.6592 297.786 97.0991 297.53 95.4259C297.274 93.7526 297.522 92.0413 298.241 90.5084C298.961 88.9755 300.119 87.6899 301.571 86.8141C303.023 85.9383 304.702 85.5116 306.397 85.5881C308.092 85.6646 309.726 86.2408 311.092 87.2438C312.459 88.2468 313.496 89.6315 314.074 91.223C314.652 92.8144 314.743 94.541 314.337 96.1844C313.793 98.3879 312.394 100.285 310.448 101.46C308.501 102.634 306.167 102.989 303.958 102.446Z" fill="#DA8AE0"/>
<path opacity="0.2" d="M312.055 94.9393C311.227 95.3158 309.961 94.3319 309.236 92.7589C308.512 91.1858 308.628 89.5885 309.431 89.212C310.235 88.8354 311.525 89.8193 312.256 91.3863C312.986 92.9532 312.895 94.5688 312.055 94.9393Z" fill="white"/>
<path opacity="0.1" d="M303.959 102.446C304.906 102.678 305.886 102.746 306.856 102.647C303.259 100.588 296.721 95.3584 302.035 86.564C300.492 87.3687 299.232 88.623 298.421 90.16C297.61 91.697 297.288 93.4439 297.497 95.1682C297.706 96.8924 298.436 98.5124 299.59 99.8125C300.745 101.113 302.268 102.031 303.959 102.446Z" fill="black"/>
<path d="M343.752 85.7866C342.106 85.3808 340.617 84.497 339.473 83.247C338.33 81.9969 337.584 80.4367 337.329 78.7637C337.074 77.0906 337.323 75.3797 338.042 73.8474C338.762 72.315 339.921 71.03 341.373 70.1547C342.824 69.2794 344.504 68.8532 346.198 68.9299C347.892 69.0067 349.526 69.5829 350.892 70.5858C352.258 71.5887 353.296 72.9732 353.874 74.5643C354.451 76.1554 354.543 77.8816 354.138 79.5248C353.868 80.6165 353.386 81.6445 352.718 82.5501C352.05 83.4557 351.21 84.2212 350.245 84.8027C349.281 85.3842 348.211 85.7704 347.097 85.9392C345.983 86.1081 344.846 86.0562 343.752 85.7866Z" fill="#DA8AE0"/>
<path opacity="0.2" d="M351.855 78.2918C351.021 78.6684 349.761 77.6845 349.036 76.1175C348.312 74.5505 348.427 72.9411 349.231 72.5645C350.035 72.1879 351.325 73.1718 352.049 74.7388C352.774 76.3058 352.689 77.9335 351.855 78.2918Z" fill="white"/>
<path opacity="0.1" d="M343.752 85.7865C344.699 86.0208 345.68 86.0886 346.65 85.9869C343.058 83.928 336.514 78.6987 341.829 69.9043C340.286 70.709 339.025 71.9633 338.215 73.5003C337.404 75.0373 337.082 76.7842 337.29 78.5085C337.499 80.2328 338.229 81.8528 339.384 83.1529C340.538 84.453 342.062 85.3716 343.752 85.7865Z" fill="black"/>
<path d="M191.195 143.722L234.635 124.699L272.864 152.735L267.647 199.774L224.201 218.796L185.972 190.767L191.195 143.722ZM233.935 131.016L196.314 147.481L191.797 188.216L224.901 212.51L262.521 196.045L267.038 155.304L233.935 131.016Z" fill="#B4AFA5"/>
<path d="M267.848 163.218C266.199 162.813 264.708 161.93 263.563 160.679C262.418 159.429 261.67 157.868 261.414 156.193C261.158 154.519 261.405 152.806 262.125 151.272C262.844 149.738 264.004 148.451 265.456 147.575C266.909 146.698 268.589 146.271 270.285 146.347C271.981 146.423 273.616 147 274.984 148.003C276.352 149.007 277.39 150.392 277.969 151.985C278.547 153.577 278.639 155.305 278.233 156.95C277.687 159.154 276.287 161.052 274.34 162.227C272.393 163.402 270.058 163.759 267.848 163.218Z" fill="#FCB248"/>
<path opacity="0.2" d="M275.944 155.717C275.11 156.099 273.85 155.109 273.126 153.543C272.401 151.976 272.486 150.372 273.32 149.99C274.154 149.607 275.414 150.597 276.139 152.164C276.863 153.731 276.778 155.334 275.944 155.717Z" fill="white"/>
<path opacity="0.1" d="M267.848 163.218C268.798 163.447 269.78 163.513 270.752 163.412C267.154 161.353 260.61 156.124 265.924 147.329C264.38 148.133 263.117 149.388 262.305 150.925C261.492 152.463 261.169 154.212 261.378 155.937C261.587 157.663 262.318 159.284 263.474 160.585C264.63 161.886 266.156 162.804 267.848 163.218Z" fill="black"/>
<path d="M261.7 205.185C260.055 204.775 258.57 203.889 257.43 202.637C256.291 201.385 255.548 199.824 255.297 198.152C255.046 196.48 255.297 194.771 256.018 193.241C256.739 191.71 257.899 190.428 259.351 189.555C260.802 188.682 262.48 188.257 264.173 188.335C265.867 188.412 267.499 188.989 268.864 189.991C270.229 190.994 271.265 192.377 271.843 193.967C272.421 195.557 272.513 197.281 272.109 198.924C271.839 200.018 271.356 201.048 270.686 201.955C270.016 202.862 269.174 203.628 268.207 204.21C267.24 204.791 266.167 205.177 265.051 205.344C263.934 205.512 262.795 205.458 261.7 205.185Z" fill="#FCB248"/>
<path opacity="0.2" d="M269.802 197.691C268.968 198.067 267.708 197.083 266.983 195.516C266.259 193.949 266.344 192.34 267.178 191.963C268.012 191.587 269.272 192.571 269.997 194.138C270.721 195.705 270.636 197.308 269.802 197.691Z" fill="white"/>
<path opacity="0.1" d="M261.699 205.185C262.646 205.42 263.627 205.488 264.597 205.386C261.005 203.327 254.461 198.098 259.776 189.303C258.233 190.108 256.973 191.362 256.162 192.899C255.351 194.436 255.029 196.183 255.238 197.907C255.447 199.632 256.177 201.252 257.331 202.552C258.485 203.852 260.009 204.771 261.699 205.185Z" fill="black"/>
<path d="M221.918 223.382C220.269 222.977 218.778 222.093 217.633 220.842C216.488 219.591 215.74 218.03 215.484 216.355C215.229 214.681 215.477 212.968 216.197 211.434C216.917 209.9 218.077 208.613 219.531 207.737C220.984 206.861 222.665 206.434 224.361 206.512C226.057 206.589 227.692 207.166 229.059 208.17C230.426 209.175 231.464 210.561 232.042 212.154C232.619 213.747 232.71 215.475 232.303 217.12C231.757 219.324 230.357 221.221 228.41 222.395C226.462 223.57 224.127 223.924 221.918 223.382Z" fill="#FCB248"/>
<path opacity="0.2" d="M230.02 215.887C229.186 216.264 227.926 215.28 227.196 213.707C226.465 212.134 226.587 210.536 227.397 210.154C228.206 209.771 229.491 210.761 230.215 212.334C230.94 213.907 230.848 215.504 230.02 215.887Z" fill="white"/>
<path opacity="0.1" d="M221.918 223.382C222.866 223.61 223.845 223.678 224.815 223.582C221.224 221.517 214.68 216.294 219.994 207.493C218.449 208.297 217.187 209.552 216.374 211.089C215.562 212.627 215.239 214.376 215.448 216.101C215.657 217.827 216.388 219.448 217.544 220.749C218.7 222.05 220.226 222.968 221.918 223.382Z" fill="black"/>
<path d="M186.635 197.928C184.986 197.523 183.495 196.639 182.35 195.388C181.205 194.137 180.457 192.576 180.202 190.901C179.946 189.227 180.194 187.514 180.914 185.98C181.635 184.446 182.795 183.159 184.248 182.283C185.701 181.407 187.382 180.981 189.078 181.058C190.774 181.135 192.409 181.712 193.776 182.716C195.144 183.721 196.182 185.107 196.759 186.7C197.336 188.293 197.427 190.021 197.02 191.666C196.475 193.87 195.074 195.767 193.127 196.942C191.179 198.116 188.844 198.47 186.635 197.928Z" fill="#FCB248"/>
<path opacity="0.2" d="M194.738 190.427C193.904 190.809 192.638 189.819 191.913 188.252C191.189 186.686 191.304 185.082 192.108 184.699C192.911 184.317 194.208 185.307 194.932 186.874C195.657 188.441 195.566 190.044 194.738 190.427Z" fill="white"/>
<path opacity="0.1" d="M186.635 197.928C187.583 198.157 188.563 198.223 189.533 198.122C185.941 196.063 179.397 190.834 184.711 182.039C183.167 182.843 181.904 184.097 181.092 185.635C180.28 187.173 179.956 188.921 180.165 190.647C180.374 192.373 181.105 193.994 182.261 195.295C183.417 196.596 184.943 197.514 186.635 197.928Z" fill="black"/>
<path d="M191.755 153.318C190.108 152.912 188.619 152.028 187.476 150.778C186.332 149.528 185.586 147.968 185.332 146.295C185.077 144.622 185.325 142.911 186.045 141.379C186.765 139.846 187.924 138.561 189.375 137.686C190.827 136.811 192.506 136.384 194.201 136.461C195.895 136.538 197.528 137.114 198.895 138.117C200.261 139.12 201.298 140.504 201.876 142.096C202.454 143.687 202.546 145.413 202.14 147.056C201.594 149.26 200.194 151.158 198.247 152.332C196.299 153.506 193.964 153.861 191.755 153.318Z" fill="#FCB248"/>
<path opacity="0.2" d="M199.869 145.823C199.035 146.2 197.775 145.216 197.051 143.649C196.326 142.082 196.412 140.472 197.246 140.096C198.08 139.719 199.34 140.703 200.064 142.27C200.788 143.837 200.703 145.44 199.869 145.823Z" fill="white"/>
<path opacity="0.1" d="M191.755 153.318C192.704 153.552 193.686 153.62 194.658 153.518C191.061 151.459 184.517 146.23 189.831 137.436C188.288 138.24 187.028 139.495 186.217 141.032C185.406 142.569 185.084 144.315 185.293 146.04C185.502 147.764 186.232 149.384 187.386 150.684C188.54 151.984 190.064 152.903 191.755 153.318Z" fill="black"/>
<path d="M231.567 136.658C229.919 136.253 228.43 135.37 227.285 134.121C226.141 132.871 225.394 131.311 225.138 129.638C224.883 127.965 225.13 126.253 225.85 124.72C226.569 123.187 227.728 121.902 229.18 121.026C230.631 120.15 232.311 119.724 234.005 119.8C235.7 119.876 237.334 120.453 238.701 121.456C240.067 122.459 241.105 123.843 241.682 125.435C242.26 127.026 242.352 128.753 241.946 130.396C241.402 132.6 240.002 134.497 238.056 135.672C236.11 136.846 233.775 137.201 231.567 136.658Z" fill="#FCB248"/>
<path opacity="0.2" d="M239.663 129.163C238.835 129.54 237.569 128.556 236.844 126.989C236.12 125.422 236.236 123.813 237.039 123.436C237.843 123.06 239.133 124.043 239.858 125.61C240.582 127.177 240.497 128.781 239.663 129.163Z" fill="white"/>
<path opacity="0.1" d="M231.567 136.658C232.513 136.893 233.494 136.96 234.464 136.859C230.867 134.8 224.329 129.57 229.643 120.776C228.1 121.581 226.84 122.835 226.029 124.372C225.218 125.909 224.896 127.656 225.105 129.38C225.314 131.104 226.044 132.724 227.198 134.024C228.352 135.325 229.876 136.243 231.567 136.658Z" fill="black"/>
<path d="M68.0575 156.889C67.4488 101.681 81.2247 58.2736 99.4687 58.0671C117.713 57.8606 132.499 100.946 133.126 156.154C133.753 211.362 119.953 254.769 101.709 254.976C83.4648 255.182 68.6845 212.067 68.0575 156.889ZM129.474 156.191C128.829 99.4762 113.458 61.5473 99.5114 61.7052C85.565 61.8631 71.0586 100.132 71.7039 156.846C72.3492 213.561 87.72 251.465 101.66 251.308C115.6 251.15 130.119 212.881 129.474 156.16V156.191Z" fill="#B26DE2"/>
<path d="M117.762 184.062C70.7604 213.214 26.3951 223.922 16.7708 208.459C7.14656 192.996 36.415 158.049 83.4162 128.896C130.417 99.7434 174.783 89.0419 184.413 104.505C194.043 119.968 164.763 154.921 117.762 184.062ZM85.346 131.988C37.0542 161.948 12.5035 194.715 19.8693 206.534C27.2352 218.353 67.5523 210.907 115.838 180.97C164.124 151.034 188.674 118.268 181.315 106.442C173.955 94.6173 133.632 102.076 85.346 131.988Z" fill="#B26DE2"/>
<path d="M115.223 127.499C164.653 152.328 196.941 184.517 188.735 200.77C180.529 217.023 135.385 210.336 85.9548 185.483C36.5247 160.63 4.26123 128.465 12.4488 112.206C20.6365 95.9477 65.7993 102.665 115.223 127.499ZM87.5984 182.234C138.374 207.743 179.202 211.569 185.472 199.136C191.743 186.704 164.361 156.282 113.586 130.773C62.8103 105.264 21.9818 101.414 15.7056 113.846C9.42947 126.279 36.823 156.719 87.5984 182.234Z" fill="#B26DE2"/>
<path d="M39.4586 176.057C39.4586 177.859 38.9231 179.62 37.9198 181.118C36.9164 182.617 35.4903 183.784 33.8218 184.474C32.1533 185.163 30.3173 185.344 28.5461 184.992C26.7748 184.641 25.1478 183.773 23.8708 182.499C22.5937 181.225 21.7241 179.602 21.3717 177.834C21.0194 176.067 21.2002 174.235 21.8914 172.571C22.5825 170.906 23.7528 169.483 25.2545 168.482C26.7561 167.481 28.5215 166.947 30.3275 166.947C32.7492 166.947 35.0718 167.907 36.7842 169.615C38.4966 171.324 39.4586 173.641 39.4586 176.057Z" fill="#FCB248"/>
<path d="M154.262 206.418C154.262 208.22 153.727 209.982 152.723 211.48C151.72 212.978 150.294 214.146 148.626 214.835C146.957 215.525 145.121 215.705 143.35 215.354C141.578 215.002 139.951 214.134 138.674 212.86C137.397 211.586 136.528 209.963 136.175 208.196C135.823 206.428 136.004 204.597 136.695 202.932C137.386 201.267 138.557 199.845 140.058 198.843C141.56 197.842 143.325 197.308 145.131 197.308C147.553 197.308 149.875 198.268 151.588 199.976C153.3 201.685 154.262 204.002 154.262 206.418Z" fill="#FCB248"/>
<path d="M91.7316 77.6239C91.7316 79.4258 91.1961 81.1871 90.1927 82.6853C89.1894 84.1835 87.7633 85.3512 86.0948 86.0407C84.4263 86.7302 82.5903 86.9106 80.819 86.5591C79.0477 86.2076 77.4207 85.3399 76.1437 84.0658C74.8667 82.7917 73.997 81.1685 73.6447 79.4012C73.2924 77.634 73.4732 75.8023 74.1643 74.1376C74.8554 72.4729 76.0258 71.0501 77.5274 70.049C79.029 69.048 80.7944 68.5137 82.6004 68.5137C85.0222 68.5137 87.3447 69.4735 89.0571 71.182C90.7696 72.8905 91.7316 75.2077 91.7316 77.6239Z" fill="#FCB248"/>
<path d="M159.243 267.369L159.012 432.623L410.685 432.973L410.917 267.72L159.243 267.369Z" fill="#E3E3E3"/>
<path d="M281.571 267.661L281.282 432.914L288.362 432.926L288.651 267.673L281.571 267.661Z" fill="#CECECE"/>
<path d="M249.214 278.76L170.163 278.65V274.508L249.22 274.624L249.214 278.76Z" fill="#CECECE"/>
<path d="M249.202 288.21L170.144 288.101L170.156 283.965L249.208 284.074L249.202 288.21Z" fill="#CECECE"/>
<path d="M170.135 293.706L170.129 297.842L265.665 297.975L265.671 293.839L170.135 293.706Z" fill="#CECECE"/>
<path d="M170.118 305.479L170.112 309.609L215.366 309.672L215.372 305.542L170.118 305.479Z" fill="#CECECE"/>
<path d="M169.828 317.339V321.475H215.082V317.339H169.828Z" fill="#CECECE"/>
<path d="M170.093 328.75L170.087 332.88L249.145 332.99L249.15 328.86L170.093 328.75Z" fill="#CECECE"/>
<path d="M170.076 338.2L170.07 342.336L268.37 342.473L268.376 338.337L170.076 338.2Z" fill="#CECECE"/>
<path d="M265.596 352.219L170.059 352.079L170.065 347.949L265.602 348.076L265.596 352.219Z" fill="#CECECE"/>
<path d="M257.98 363.977L170.041 363.856L170.047 359.719L257.986 359.841L257.98 363.977Z" fill="#CECECE"/>
<path d="M170.037 372.012L170.031 376.148L265.568 376.281L265.573 372.145L170.037 372.012Z" fill="#CECECE"/>
<path d="M170.013 384.896L169.961 422.315L268.255 422.452L268.307 385.033L170.013 384.896Z" fill="#FCB248"/>
<path d="M375.547 278.468L296.489 278.359L296.501 274.217L375.553 274.326L375.547 278.468Z" fill="#CECECE"/>
<path d="M375.529 287.918L296.477 287.809L296.483 283.673L375.541 283.782L375.529 287.918Z" fill="#CECECE"/>
<path d="M296.467 293.42L296.461 297.556L391.998 297.689L392.004 293.553L296.467 293.42Z" fill="#CECECE"/>
<path d="M296.444 305.194L296.438 309.33L341.686 309.393L341.692 305.257L296.444 305.194Z" fill="#CECECE"/>
<path d="M296.45 317.485L296.444 321.621L341.692 321.684L341.698 317.548L296.45 317.485Z" fill="#CECECE"/>
<path d="M296.413 328.452L296.407 332.588L375.465 332.698L375.471 328.562L296.413 328.452Z" fill="#CECECE"/>
<path d="M296.402 337.902L296.396 342.038L394.697 342.175L394.702 338.039L296.402 337.902Z" fill="#CECECE"/>
<path d="M391.922 351.927L296.386 351.794L296.392 347.657L391.928 347.791L391.922 351.927Z" fill="#CECECE"/>
<path d="M296.383 359.433L296.377 363.569L384.31 363.692L384.316 359.556L296.383 359.433Z" fill="#CECECE"/>
<path d="M296.351 371.702L296.346 375.838L391.882 375.971L391.888 371.835L296.351 371.702Z" fill="#CECECE"/>
<path d="M296.328 384.586L296.275 422.005L394.575 422.142L394.628 384.723L296.328 384.586Z" fill="#FF6064"/>
<path d="M261.852 347.73L258.01 342.689L254.151 347.718L254.267 267.621L261.961 267.633L261.852 347.73Z" fill="#FF6064"/>
<path d="M480.817 497.819C481.766 498.685 482.533 499.729 483.077 500.891C483.621 502.053 483.93 503.311 483.986 504.592C484.043 505.874 483.846 507.154 483.407 508.359C482.967 509.565 482.294 510.672 481.426 511.618C479.672 513.529 477.229 514.666 474.634 514.78C472.039 514.894 469.505 513.975 467.589 512.225L377.063 429.729C375.148 427.978 374.007 425.541 373.893 422.952C373.779 420.363 374.7 417.835 376.454 415.924C378.208 414.013 380.652 412.875 383.246 412.761C385.841 412.648 388.375 413.567 390.291 415.316L480.817 497.819Z" fill="#9B7AF2"/>
<path d="M393.091 410.603C394.307 411.712 395.293 413.049 395.991 414.539C396.69 416.028 397.087 417.639 397.161 419.282C397.235 420.924 396.984 422.565 396.423 424.11C395.861 425.656 395 427.076 393.888 428.289L390.358 432.152C389.247 433.366 387.907 434.35 386.414 435.047C384.922 435.745 383.307 436.142 381.661 436.216C380.015 436.291 378.37 436.041 376.821 435.481C375.271 434.921 373.848 434.063 372.631 432.954C370.173 430.714 368.708 427.592 368.557 424.274C368.406 420.956 369.583 417.714 371.827 415.262L375.358 411.405C377.603 408.953 380.733 407.491 384.058 407.34C387.384 407.19 390.633 408.364 393.091 410.603Z" fill="#36445B"/>
<path opacity="0.2" d="M368.662 425.404C368.705 425.332 374.646 414.855 385.098 407.445L384.867 407.342C383.082 407.303 381.31 407.645 379.669 408.346C378.028 409.047 376.556 410.09 375.352 411.405L371.821 415.262C370.579 416.616 369.652 418.228 369.106 419.981C368.56 421.734 368.408 423.586 368.662 425.404Z" fill="#202020"/>
<path d="M385.05 398.845C385.46 399.218 385.793 399.668 386.029 400.17C386.265 400.671 386.399 401.214 386.424 401.767C386.45 402.321 386.366 402.874 386.177 403.395C385.988 403.915 385.698 404.394 385.324 404.803L366.136 425.757C365.762 426.166 365.311 426.498 364.808 426.733C364.306 426.969 363.761 427.103 363.207 427.128C362.652 427.154 362.098 427.07 361.576 426.881C361.054 426.693 360.574 426.404 360.164 426.03C359.342 425.271 358.853 424.22 358.801 423.104C358.75 421.988 359.141 420.896 359.89 420.066L379.078 399.112C379.452 398.703 379.904 398.372 380.407 398.137C380.909 397.902 381.454 397.769 382.008 397.744C382.563 397.719 383.117 397.803 383.639 397.992C384.161 398.181 384.64 398.471 385.05 398.845Z" fill="#36445B"/>
<path opacity="0.2" d="M390.358 432.152L393.889 428.289C396.063 425.925 397.236 422.812 397.164 419.604C388.641 425.07 382.822 434.624 381.902 436.191C385.14 435.992 388.173 434.544 390.358 432.152Z" fill="#202020"/>
<path d="M400.871 421.809C401.282 422.181 401.616 422.63 401.854 423.131C402.091 423.632 402.228 424.174 402.255 424.728C402.282 425.281 402.199 425.834 402.012 426.356C401.825 426.877 401.536 427.357 401.163 427.767L390.51 439.404C389.749 440.222 388.697 440.709 387.58 440.761C386.463 440.812 385.37 440.423 384.538 439.677C384.128 439.304 383.796 438.853 383.561 438.351C383.325 437.85 383.191 437.307 383.166 436.753C383.141 436.2 383.226 435.647 383.416 435.127C383.605 434.606 383.895 434.128 384.27 433.719L394.923 422.082C395.298 421.673 395.749 421.342 396.252 421.107C396.755 420.872 397.299 420.739 397.854 420.714C398.408 420.689 398.962 420.773 399.484 420.962C400.006 421.151 400.485 421.441 400.895 421.815L400.871 421.809Z" fill="#36445B"/>
<path opacity="0.3" d="M478.133 499.076C478.391 499.312 478.545 499.641 478.561 499.991C478.577 500.34 478.454 500.681 478.218 500.94C478.101 501.069 477.96 501.173 477.803 501.246C477.645 501.32 477.475 501.362 477.301 501.37C477.128 501.378 476.954 501.351 476.791 501.292C476.627 501.233 476.477 501.143 476.349 501.025L402.028 433.294C401.899 433.177 401.795 433.036 401.721 432.879C401.647 432.722 401.605 432.552 401.597 432.379C401.589 432.206 401.616 432.033 401.675 431.87C401.734 431.707 401.825 431.557 401.942 431.429C402.179 431.172 402.509 431.018 402.859 431.002C403.209 430.986 403.552 431.109 403.811 431.344L478.133 499.076Z" fill="white"/>
<path d="M371.754 411.66C360.89 423.527 346.238 431.268 330.295 433.565C314.351 435.862 298.103 432.572 284.318 424.257C270.533 415.941 260.064 403.113 254.696 387.96C249.328 372.807 249.392 356.265 254.877 341.154C260.363 326.042 270.93 313.296 284.779 305.087C298.628 296.878 314.901 293.713 330.827 296.133C346.752 298.552 361.344 306.406 372.116 318.357C382.887 330.307 389.173 345.614 389.901 361.669C390.341 370.785 388.963 379.898 385.848 388.479C382.733 397.06 377.943 404.939 371.754 411.66ZM275.981 324.378C267.965 333.133 262.732 344.062 260.942 355.784C259.152 367.507 260.887 379.495 265.927 390.234C270.966 400.972 279.084 409.979 289.254 416.114C299.425 422.249 311.19 425.238 323.062 424.702C334.935 424.166 346.381 420.129 355.955 413.103C365.528 406.076 372.797 396.375 376.844 385.226C380.891 374.077 381.534 361.982 378.69 350.469C375.847 338.955 369.645 328.542 360.87 320.546C349.096 309.838 333.546 304.228 317.631 304.947C301.716 305.665 286.737 312.653 275.981 324.378Z" fill="#B4AFA5"/>
<path opacity="0.2" d="M361.741 319.598C370.702 327.766 377.035 338.403 379.938 350.162C382.842 361.921 382.185 374.275 378.05 385.661C373.916 397.048 366.491 406.956 356.713 414.132C346.935 421.308 335.244 425.43 323.118 425.977C310.992 426.524 298.976 423.471 288.589 417.205C278.201 410.938 269.91 401.739 264.763 390.771C259.616 379.804 257.844 367.559 259.672 355.587C261.5 343.614 266.845 332.451 275.031 323.509C286.01 311.52 301.313 304.372 317.574 303.638C333.835 302.905 349.722 308.646 361.741 319.598Z" fill="white"/>
</g>
<defs>
<clipPath id="clip0_117_4114">
<rect width="503" height="514" fill="white" transform="translate(0 0.800049)"/>
</clipPath>
</defs>
</svg>
