<svg width="214" height="213" viewBox="0 0 214 213" fill="none" xmlns="http://www.w3.org/2000/svg">
<circle cx="106.91" cy="106.47" r="106.47" fill="#F87F0F"/>
<path d="M62.65 160V127.3H82.4V132.2H68.45V141.45H80.35V146.35H68.45V160H62.65ZM90.5383 131.15C89.5049 131.15 88.6549 130.85 87.9883 130.25C87.3216 129.617 86.9883 128.833 86.9883 127.9C86.9883 126.933 87.3216 126.15 87.9883 125.55C88.6549 124.917 89.5049 124.6 90.5383 124.6C91.5716 124.6 92.4216 124.917 93.0883 125.55C93.7549 126.15 94.0883 126.933 94.0883 127.9C94.0883 128.833 93.7549 129.617 93.0883 130.25C92.4216 130.85 91.5716 131.15 90.5383 131.15ZM87.6383 160V135.45H93.3883V160H87.6383ZM100.724 160V135.45H105.474L105.874 138.75H106.074C107.174 137.683 108.374 136.767 109.674 136C110.974 135.233 112.458 134.85 114.124 134.85C116.758 134.85 118.674 135.7 119.874 137.4C121.074 139.1 121.674 141.5 121.674 144.6V160H115.924V145.35C115.924 143.317 115.608 141.883 114.974 141.05C114.374 140.217 113.408 139.8 112.074 139.8C111.008 139.8 110.058 140.067 109.224 140.6C108.424 141.1 107.508 141.85 106.474 142.85V160H100.724ZM138.703 155.85C140.536 155.85 142.253 154.933 143.853 153.1V141.65C142.986 140.883 142.136 140.35 141.303 140.05C140.503 139.75 139.686 139.6 138.853 139.6C137.286 139.6 135.936 140.317 134.803 141.75C133.703 143.15 133.153 145.133 133.153 147.7C133.153 153.133 135.003 155.85 138.703 155.85ZM137.303 160.6C134.236 160.6 131.786 159.467 129.953 157.2C128.119 154.933 127.203 151.783 127.203 147.75C127.203 143.75 128.269 140.6 130.403 138.3C132.536 136 134.936 134.85 137.603 134.85C139.003 134.85 140.186 135.1 141.153 135.6C142.153 136.067 143.119 136.717 144.053 137.55L143.853 133.6V124.7H149.603V160H144.853L144.453 157.35H144.253C143.353 158.25 142.303 159.017 141.103 159.65C139.903 160.283 138.636 160.6 137.303 160.6Z" fill="white"/>
<g clip-path="url(#clip0_117_4092)">
<path d="M121.424 39.9694C120.404 40.87 119.676 42.0588 119.337 43.3812C118.997 44.7036 119.061 46.0982 119.52 47.3835L119.101 46.9525C117.856 45.6621 116.163 44.9058 114.376 44.8415C112.59 44.7773 110.847 45.41 109.513 46.6076C108.855 47.2296 108.327 47.9784 107.962 48.8096C107.596 49.6408 107.401 50.5373 107.386 51.4461C107.372 52.3548 107.54 53.2571 107.879 54.0995C108.218 54.9418 108.722 55.7069 109.361 56.3494L108.228 55.1808C106.983 53.8904 105.29 53.1341 103.503 53.0699C101.716 53.0056 99.9742 53.6384 98.6404 54.836C97.9831 55.4578 97.4567 56.206 97.0921 57.0363C96.7276 57.8666 96.5325 58.7621 96.5183 59.6696C96.5041 60.5772 96.6711 61.4784 97.0094 62.3199C97.3478 63.1613 97.8506 63.9258 98.488 64.5682L80.7217 46.6939C79.4721 45.4055 77.7763 44.6525 75.9881 44.5918C74.1999 44.5311 72.4575 45.1675 71.1244 46.3682C70.4664 46.9908 69.9394 47.7401 69.5748 48.5716C69.2102 49.4031 69.0155 50.2999 69.0022 51.2086C68.9889 52.1174 69.1572 53.0195 69.4973 53.8615C69.8373 54.7035 70.3421 55.4681 70.9816 56.11L97.9168 83.2184C92.7293 82.6843 87.4882 83.1492 82.4736 84.5882C81.4428 84.8901 80.5034 85.4466 79.741 86.207C78.741 87.2159 78.1044 88.5317 77.9319 89.9459C77.7594 91.36 78.061 92.7917 78.7889 94.0139C79.5605 95.2311 80.707 96.1607 82.0532 96.6606C83.3994 97.1605 84.8713 97.2032 86.2439 96.7822C97.793 93.5636 109.932 99.2631 120.358 103.765C125.376 105.93 135.658 108.401 145.418 98.583L151.13 92.8356C164.184 79.7125 152.787 62.6045 149.95 59.7595L148.845 58.6388L134.916 44.5482L130.841 40.4484C129.622 39.1863 127.973 38.4354 126.226 38.3465C124.479 38.2577 122.764 38.8375 121.424 39.9694Z" fill="white"/>
<path d="M73.1525 63.9646C70.3599 63.9646 67.63 63.1315 65.308 61.5706C62.986 60.0096 61.1762 57.791 60.1075 55.1953C59.0388 52.5996 58.7592 49.7433 59.304 46.9877C59.8488 44.2321 61.1936 41.7009 63.1683 39.7142C65.143 37.7275 67.6589 36.3746 70.3979 35.8264C73.1368 35.2783 75.9759 35.5596 78.5559 36.6348C81.136 37.71 83.3412 39.5308 84.8927 41.8669C86.4442 44.203 87.2723 46.9495 87.2723 49.7591" stroke="white" stroke-width="1.17" stroke-linecap="round" stroke-linejoin="round"/>
<path d="M73.1526 67.0301C69.7631 67.0301 66.4496 66.0189 63.6313 64.1243C60.813 62.2297 58.6163 59.5369 57.3192 56.3863C56.0221 53.2357 55.6827 49.7689 56.344 46.4242C57.0052 43.0796 58.6375 40.0074 61.0343 37.596C63.431 35.1846 66.4847 33.5425 69.8092 32.8772C73.1336 32.2119 76.5795 32.5534 79.711 33.8584C82.8426 35.1634 85.5192 37.3734 87.4023 40.2088C89.2855 43.0443 90.2906 46.3778 90.2906 49.788" stroke="white" stroke-width="1.17" stroke-linecap="round" stroke-linejoin="round"/>
</g>
<defs>
<clipPath id="clip0_117_4092">
<rect width="101.79" height="73.71" fill="white" transform="translate(55.5 32)"/>
</clipPath>
</defs>
</svg>
