<svg width="214" height="213" viewBox="0 0 214 213" fill="none" xmlns="http://www.w3.org/2000/svg">
<circle cx="106.79" cy="106.47" r="106.47" fill="#F87F0F"/>
<g clip-path="url(#clip0_117_3999)">
<path d="M138.653 68.7981L137.404 70.2882L140.181 76.2975L142.005 80.2273H142.103L140.033 69.2238C139.924 69.2402 139.813 69.2402 139.704 69.2238C139.319 69.1906 138.952 69.0422 138.653 68.7981Z" fill="white"/>
<path d="M107.568 35.8367L106.944 35.6074L104.709 38.8004L103.264 40.8636L107.568 35.8367Z" fill="white"/>
<path d="M96.8568 100.433L98.319 98.37C98.0683 98.1568 97.8808 97.8793 97.7768 97.5676L91.3365 98.9594L90.3179 99.1887L93.2259 100.122L96.3475 101.137L96.8568 100.433Z" fill="white"/>
<path d="M133.001 45.6938H134.512H136.977C136.912 45.2917 136.807 44.8968 136.665 44.5149L133.001 45.6611V45.6938Z" fill="white"/>
<path d="M68.4985 49.1981L77.6826 45.0718L74.3967 45.7759C72.2053 46.4778 70.1929 47.6454 68.4985 49.1981Z" fill="white"/>
<path d="M138.407 47.0366C138.546 46.7252 138.779 46.4648 139.073 46.2916C139.368 46.1184 139.709 46.0411 140.05 46.0705C140.126 46.0613 140.203 46.0613 140.28 46.0705V45.9559L139.935 45.8577L133.363 46.0705L137.158 46.7583L138.407 47.0366Z" fill="white"/>
<path d="M96.2324 38.5058L101.161 35.5093C100.121 35.8189 99.1424 36.3065 98.2696 36.9502C98.2161 36.9666 98.1588 36.9666 98.1053 36.9502C97.1019 36.7775 96.0836 36.7062 95.0659 36.7373L94.9673 37.6379C95.227 37.6872 95.4736 37.7898 95.6914 37.9392C95.9092 38.0886 96.0934 38.2816 96.2324 38.5058Z" fill="white"/>
<path d="M60.7116 73.9069C60.7324 73.7289 60.771 73.5534 60.8266 73.3829L55.9799 71.1233C55.2887 72.4273 54.7853 73.8219 54.4849 75.266L59.1508 74.3981L60.7116 74.1689C60.7035 74.0818 60.7035 73.9941 60.7116 73.9069Z" fill="white"/>
<path d="M81.2812 92.115C81.3634 92.4916 81.462 92.8682 81.5606 93.2448L86.1115 91.2963L88.0666 90.4612L81.2812 92.115Z" fill="white"/>
<path d="M100.586 45.9888H100.504L99.5508 52.2602C99.7935 52.3393 100.017 52.4675 100.208 52.6368L103.034 49.4929L103.724 48.7233C103.548 48.5289 103.414 48.301 103.329 48.0533C103.244 47.8056 103.211 47.5433 103.231 47.2824C103.256 47.0331 103.323 46.7896 103.428 46.5619L102.295 45.8251L101.785 45.4648C101.642 45.6411 101.458 45.7806 101.249 45.8718C101.041 45.9629 100.813 46.003 100.586 45.9888Z" fill="white"/>
<path d="M96.6259 45.8086L98.6138 52.1618C98.7722 52.145 98.9319 52.145 99.0903 52.1618L100.142 45.8577C99.9643 45.7726 99.8069 45.6511 99.6799 45.5011C99.553 45.3511 99.4592 45.176 99.4049 44.9874C99.3506 44.7987 99.337 44.6008 99.3649 44.4065C99.3927 44.2122 99.4615 44.026 99.5667 43.8601L95.8372 41.0437C95.6716 41.193 95.4754 41.3048 95.2622 41.3712L96.6259 45.8086Z" fill="white"/>
<path d="M142.563 90.2975V87.4156V83.9934H142.399H142.103L138.209 91.3946L136.106 95.1934L141.035 92.8191C140.944 92.5677 140.911 92.2992 140.937 92.0332C140.97 91.6027 141.149 91.1963 141.444 90.8807C141.74 90.5652 142.135 90.3595 142.563 90.2975Z" fill="white"/>
<path d="M134.513 64.852L137.191 69.8789L138.357 68.4871C138.049 68.1098 137.896 67.6298 137.93 67.1444C137.976 66.6622 138.199 66.2136 138.554 65.8836L129.945 56.1572L134.513 64.852Z" fill="white"/>
<path d="M118.971 96.4706L117.804 106.115C118.143 106.239 118.488 106.343 118.839 106.426C118.876 106.436 118.91 106.455 118.939 106.481C118.967 106.506 118.99 106.538 119.004 106.574C119.091 106.825 119.19 107.087 119.299 107.36L120.499 102.726L122.552 94.866H120.679C120.61 95.2829 120.405 95.6656 120.096 95.9554C119.788 96.2452 119.392 96.4262 118.971 96.4706Z" fill="white"/>
<path d="M156.003 90.9853C155.893 90.5994 155.756 90.2218 155.592 89.8555L155.362 91.9841L155.69 91.4601L156.003 90.9853Z" fill="white"/>
<path d="M120.893 53.8157L126.594 54.1596H127.021C127.07 53.8815 127.181 53.6179 127.346 53.3883C127.511 53.1587 127.726 52.969 127.974 52.8333L127.448 51.2941L126.002 47.1514C125.806 47.1757 125.607 47.1757 125.411 47.1514C125.12 47.1185 124.84 47.0235 124.59 46.873L121.501 50.9175L120.269 52.5549C120.635 52.877 120.859 53.33 120.893 53.8157Z" fill="white"/>
<path d="M124.326 97.0764L133.937 115.596C134.036 114.613 134.151 113.68 134.315 112.796C134.318 112.761 134.33 112.727 134.35 112.698C134.371 112.669 134.398 112.647 134.43 112.632C134.458 112.616 134.489 112.608 134.521 112.608C134.552 112.608 134.584 112.616 134.611 112.632C134.942 112.799 135.282 112.947 135.63 113.074L135.761 112.796L128.286 102.513L124.326 97.0764Z" fill="white"/>
<path d="M129.831 95.3735L130.34 96.7653L135.778 111.502L135.4 95.8484L130.734 94.4402C130.553 94.8481 130.233 95.1789 129.831 95.3735Z" fill="white"/>
<path d="M116.966 95.1443L109.179 96.0612L101.572 96.9455V97.1092C101.519 97.6344 101.259 98.1171 100.849 98.4519L104.611 104.379C107.093 103.337 109.298 101.734 111.052 99.6963C111.074 99.6701 111.102 99.6491 111.133 99.635C111.164 99.6208 111.198 99.6138 111.233 99.6145C111.271 99.6218 111.306 99.6393 111.335 99.6653C111.364 99.6913 111.386 99.7247 111.397 99.7618C111.904 101.153 112.698 102.423 113.728 103.489C114.758 104.555 116.001 105.394 117.377 105.951L118.001 100.744L118.527 96.4542C118.169 96.4058 117.832 96.2569 117.556 96.025C117.28 95.7931 117.075 95.4876 116.966 95.1443Z" fill="white"/>
<path d="M141.347 83.6333L139.343 85.2707L130.586 92.5737C130.822 92.9319 130.932 93.3581 130.898 93.7854C130.906 93.8506 130.906 93.9166 130.898 93.9819L132.097 94.3421L135.531 95.39L136.878 92.8356L141.659 83.7807L141.347 83.6333Z" fill="white"/>
<path d="M91.5994 88.3326L94.4746 85.5981C94.3008 85.4057 94.1677 85.1804 94.083 84.9357C93.9984 84.691 93.9639 84.4318 93.9817 84.1735C94.0014 83.9637 94.057 83.7589 94.146 83.5677L82.8261 74.2507L82.6289 74.4145L89.8414 87.9233C90.0523 87.8749 90.2714 87.8749 90.4822 87.9233C90.8894 87.935 91.2816 88.0787 91.5994 88.3326Z" fill="white"/>
<path d="M89.9886 92.688L90.0872 91.6728C89.7929 91.6436 89.5094 91.5472 89.2586 91.391C89.0079 91.2348 88.7966 91.0231 88.6414 90.7722L81.6753 93.736C82.1798 95.3825 82.9393 96.9405 83.9261 98.3535L88.9864 98.9921H89.315L89.9886 92.688Z" fill="white"/>
<path d="M156.003 96.962L155.034 93.5725L151.567 102.84C153.706 101.475 155.28 99.3886 156.003 96.962Z" fill="white"/>
<path d="M136.286 112.566L141.659 113.009L143.006 113.123C144.003 112.771 144.939 112.268 145.783 111.633L138.094 99.9091L135.843 96.4377L136.286 112.566Z" fill="white"/>
<path d="M88.4121 89.6099C88.4382 89.2887 88.5453 88.9792 88.7234 88.7102C88.9014 88.4411 89.1447 88.2212 89.4307 88.0707L88.1163 85.5982L82.251 74.6274C81.9671 74.7517 81.6562 74.8024 81.3474 74.7748C81.2551 74.7917 81.1604 74.7917 81.0681 74.7748L71.999 93.9327L77.8315 92.5082C78.856 91.9503 79.8148 91.2803 80.6902 90.5105C80.7212 90.4879 80.7586 90.4757 80.797 90.4757C80.8354 90.4757 80.8728 90.4879 80.9038 90.5105C80.9414 90.5237 80.9741 90.5481 80.9976 90.5802C81.0211 90.6124 81.0342 90.6509 81.0352 90.6906C81.0352 91.0181 81.1338 91.362 81.1995 91.7386L83.1875 91.2637L88.4121 89.9865C88.4012 89.8612 88.4012 89.7352 88.4121 89.6099Z" fill="white"/>
<path d="M155.854 73.3994L154.179 74.5784L146.292 80.0146L153.587 76.0029L156.742 74.2673L155.854 73.3994Z" fill="white"/>
<path d="M141.61 80.3912L137.043 70.5667L124.261 73.4322C124.232 73.6725 124.16 73.9056 124.047 74.1199L132.032 77.5093L140.773 81.2427C140.957 80.8798 141.25 80.5825 141.61 80.3912Z" fill="white"/>
<path d="M99.4851 98.8611C99.2133 98.8453 98.949 98.7668 98.7129 98.6318L97.8586 99.8272L96.7085 101.465L100.487 105.558C101.757 105.366 103.002 105.037 104.2 104.576L100.487 98.7137C100.173 98.8528 99.8264 98.9038 99.4851 98.8611Z" fill="white"/>
<path d="M95.4109 103.593L94.4087 105.231C96.2375 105.626 98.119 105.72 99.9783 105.509L96.4788 101.727L95.4109 103.593Z" fill="white"/>
<path d="M91.681 102.415L93.2254 105.002L93.9647 105.198L96.117 101.563L94.0304 100.892L89.9888 99.5654L91.681 102.415Z" fill="white"/>
<path d="M79.6382 73.3337L64.5395 74.1361V74.218C64.5133 74.5101 64.4196 74.7922 64.2657 75.0422C64.1117 75.2922 63.9018 75.5033 63.6523 75.6589L70.5692 91.1981L71.6699 93.7197L80.7226 74.5946C80.4571 74.481 80.2214 74.3083 80.0334 74.0897C79.8454 73.8711 79.7102 73.6125 79.6382 73.3337Z" fill="white"/>
<path d="M126.43 47.0367L128.188 52.0636L128.418 52.7022C128.639 52.6528 128.869 52.6528 129.091 52.7022L130.734 47.4297C130.447 47.3125 130.198 47.1165 130.018 46.8644C129.838 46.6122 129.733 46.3143 129.716 46.0052L127.415 45.7432C127.357 46.018 127.239 46.2766 127.068 46.5003C126.898 46.724 126.68 46.9072 126.43 47.0367Z" fill="white"/>
<path d="M95.7553 86.2367C95.4124 86.2099 95.0831 86.0911 94.8024 85.8928L91.9272 88.6437C92.189 89.0165 92.3164 89.4667 92.2887 89.9209C92.2657 90.1602 92.1989 90.3933 92.0915 90.6086L98.3183 95.5209C98.4882 95.3532 98.6891 95.2197 98.9098 95.1279L96.6918 88.2343L96.0675 86.2367H95.7553Z" fill="white"/>
<path d="M100.865 54.2086C100.835 54.4464 100.768 54.6783 100.668 54.8963L101.424 55.3057L110.263 60.1197L106.188 50.4098L105.695 49.2636C105.467 49.3054 105.234 49.3054 105.005 49.2636C104.66 49.2336 104.331 49.1089 104.053 48.9033L100.767 52.5384L100.487 52.8659C100.775 53.2517 100.91 53.7299 100.865 54.2086Z" fill="white"/>
<path d="M106.106 49.1001L110.788 60.2509L115.799 56.2065L117.36 54.9457C117.131 54.5971 117.027 54.1817 117.064 53.7667C117.072 53.6096 117.105 53.4547 117.163 53.3082L110.591 50.1971L106.796 48.4287C106.626 48.7068 106.389 48.9378 106.106 49.1001Z" fill="white"/>
<path d="M141.66 67.9468C141.564 68.2217 141.406 68.4711 141.198 68.6755C140.99 68.8799 140.738 69.034 140.46 69.1257L142.531 80.1784H142.646C142.932 80.2078 143.208 80.2992 143.455 80.4463C143.702 80.5934 143.913 80.7926 144.075 81.0298L150.302 76.7398L155.428 73.2029L141.66 67.9468Z" fill="white"/>
<path d="M133.741 118.838L129.518 132.838L128.647 135.72L134.989 134.983C134.064 129.652 133.646 124.247 133.741 118.838Z" fill="white"/>
<path d="M128.171 91.9185L122.618 75.0693L123.061 94.391L127.07 93.7524V93.5068C127.099 93.1696 127.216 92.8457 127.409 92.5672C127.602 92.2887 127.865 92.0651 128.171 91.9185Z" fill="white"/>
<path d="M94.359 83.1911C94.6398 82.8145 95.0486 82.5526 95.5091 82.4543L94.9505 65.3268L94.819 61.1677H94.6383C94.3666 61.1519 94.1022 61.0734 93.8661 60.9385L83.1212 71.8274C83.3526 72.181 83.4569 72.6024 83.417 73.0227C83.3923 73.3523 83.2788 73.6691 83.0884 73.9397L86.0785 76.3794L94.359 83.1911Z" fill="white"/>
<path d="M144.732 92.5081C144.671 92.8588 144.515 93.1862 144.28 93.4547C144.046 93.7231 143.742 93.9224 143.401 94.0309L144.88 101.039L146.884 110.618C148.692 108.813 149.784 106.417 149.957 103.872C149.958 103.832 149.971 103.794 149.994 103.761C150.018 103.729 150.051 103.705 150.088 103.692L150.367 103.561L150.91 103.266L151.616 101.35L154.639 93.163L144.732 92.5081Z" fill="white"/>
<path d="M156.003 85.6145C156.75 85.0457 157.339 84.2956 157.713 83.4357C158.087 82.5757 158.233 81.6346 158.139 80.7022C158.078 80.0835 157.912 79.4798 157.646 78.9174C157.63 78.8871 157.622 78.8534 157.622 78.8192C157.622 78.785 157.63 78.7513 157.646 78.7209C158.139 77.7623 158.339 76.6806 158.221 75.6098C158.157 75.1437 158.035 74.6873 157.859 74.2507L157.416 74.4145H157.268L156.003 85.6145Z" fill="white"/>
<path d="M141.216 93.1958L139.245 94.1619L135.959 95.7993L137.931 98.7631L146.145 111.371L146.605 110.962L142.974 94.0473H142.679C142.387 94.0225 142.104 93.9333 141.851 93.786C141.598 93.6387 141.381 93.4371 141.216 93.1958Z" fill="white"/>
<path d="M116.868 94.4075C116.858 94.2876 116.858 94.1672 116.868 94.0473L98.4995 86.0567L97.3823 85.5654C97.1483 85.8414 96.8407 86.0457 96.4951 86.1549L99.2881 95.0625C99.4575 95.0457 99.6281 95.0457 99.7974 95.0625C100.193 95.1085 100.565 95.277 100.859 95.5443C101.154 95.8116 101.357 96.1642 101.44 96.5526L114.847 94.9151L116.818 94.6859C116.828 94.5921 116.845 94.499 116.868 94.4075Z" fill="white"/>
<path d="M96.0673 82.4052C96.3718 82.433 96.6649 82.5342 96.9216 82.6999L106.779 68.9782C106.551 68.7744 106.374 68.52 106.263 68.2356C106.152 67.9512 106.109 67.6447 106.139 67.3408C106.167 67.113 106.234 66.8916 106.336 66.6858L99.386 62.4121L96.248 60.48C95.9881 60.7729 95.6438 60.9788 95.2622 61.0695L95.5086 68.7654L95.9522 82.356L96.0673 82.4052Z" fill="white"/>
<path d="M120.416 73.0061L114.419 70.4681L109.737 68.4868C109.555 68.8071 109.285 69.0694 108.96 69.2433C108.634 69.4172 108.265 69.4955 107.897 69.4693C107.626 69.4398 107.363 69.3563 107.125 69.2237L105.843 71.0085L97.2671 82.9617C97.4485 83.1521 97.5933 83.3741 97.6943 83.6167L112.957 77.2634L120.646 74.0704C120.476 73.7423 120.397 73.375 120.416 73.0061Z" fill="white"/>
<path d="M131.211 47.4952L129.568 52.7514C129.873 52.8612 130.149 53.0406 130.373 53.2753L134.957 50.328L138.243 48.2157C138.209 48.0261 138.209 47.8321 138.243 47.6426C138.243 47.6426 138.243 47.5116 138.243 47.4461L132.821 46.4473C132.697 46.7684 132.475 47.0424 132.186 47.2305C131.897 47.4187 131.556 47.5113 131.211 47.4952Z" fill="white"/>
<path d="M156.167 96.1432C156.512 94.6287 156.512 93.0564 156.167 91.542L155.296 92.9174L156.167 96.1432Z" fill="white"/>
<path d="M144.338 81.57C144.379 81.7919 144.379 82.0195 144.338 82.2414C144.317 82.5716 144.203 82.8893 144.009 83.1583L151.304 89.4624L154.836 92.4098L154.984 91.1326L155.214 89.1349C154.814 88.3609 154.317 87.6403 153.736 86.9899C153.717 86.9576 153.707 86.9208 153.707 86.8835C153.707 86.8461 153.717 86.8094 153.736 86.777C153.745 86.7389 153.766 86.7045 153.795 86.6783C153.824 86.652 153.861 86.6351 153.9 86.6297C154.482 86.501 155.038 86.2739 155.543 85.9583L156.167 80.4074L156.791 74.7419L144.338 81.57Z" fill="white"/>
<path d="M127.481 45.3174L129.715 45.5794C129.781 45.2863 129.925 45.0167 130.134 44.8001C130.343 44.5836 130.607 44.4283 130.898 44.3514L130.405 40.1595C129.484 38.9681 128.158 38.1529 126.676 37.8671L126.429 37.6707L125.937 43.4344C126.373 43.5216 126.765 43.757 127.047 44.1004C127.329 44.4438 127.482 44.8739 127.481 45.3174Z" fill="white"/>
<path d="M129.436 95.5212C129.195 95.5876 128.944 95.6055 128.696 95.5737C128.449 95.5419 128.21 95.4611 127.994 95.336C127.778 95.2109 127.59 95.044 127.439 94.8452C127.289 94.6465 127.18 94.4198 127.119 94.1785L123.144 94.8007L135.219 111.388L134.299 108.784L129.436 95.5212Z" fill="white"/>
<path d="M125.51 43.4016L125.723 40.6507L125.97 37.4577C124.941 36.9921 123.808 36.8057 122.684 36.9174H122.585C122.562 36.9289 122.537 36.9349 122.511 36.9349C122.486 36.9349 122.46 36.9289 122.437 36.9174C121.187 36.1118 119.691 35.7752 118.215 35.9677C117.869 36.0054 117.528 36.0767 117.196 36.1805L119.661 38.8004L124.376 43.7127C124.711 43.4904 125.108 43.3813 125.51 43.4016Z" fill="white"/>
<path d="M131.473 44.3021C131.759 44.3307 132.033 44.4334 132.266 44.6C132.5 44.7667 132.685 44.9914 132.804 45.2518L134.332 44.7278L136.419 44.0074C135.935 42.958 135.166 42.0645 134.199 41.4279C133.232 40.7913 132.106 40.437 130.948 40.405L131.358 44.3021H131.473Z" fill="white"/>
<path d="M107.042 47.0203L111.363 46.5618L123.652 45.301C123.644 45.2522 123.644 45.2024 123.652 45.1536C123.685 44.7564 123.84 44.3789 124.096 44.0729L116.719 36.2624C115.032 35.3001 113.083 34.8933 111.15 35.0998L110.46 35.2144L106.451 44.9244L106.089 45.8086C106.554 46.0721 106.897 46.5074 107.042 47.0203Z" fill="white"/>
<path d="M102.081 44.7115C102.064 44.8389 102.036 44.9648 101.999 45.0881L103.642 46.2016C103.842 45.9654 104.095 45.7799 104.38 45.6603C104.666 45.5407 104.976 45.4905 105.285 45.5138H105.663L108.949 37.5232L110 35.3945C109.392 35.5411 108.803 35.7553 108.242 36.0331C108.215 36.0489 108.184 36.0573 108.152 36.0573C108.12 36.0573 108.089 36.0489 108.062 36.0331L101.556 43.5162C101.736 43.6564 101.878 43.8391 101.97 44.0477C102.062 44.2564 102.1 44.4845 102.081 44.7115Z" fill="white"/>
<path d="M157.645 73.7597C157.526 73.5397 157.394 73.3265 157.251 73.1211V73.2357V73.9562L157.645 73.7597Z" fill="white"/>
<path d="M141.775 67.4553L142.021 67.5372L155.74 72.7606L155.888 71.7945C155.888 71.7945 155.888 71.6799 155.888 71.6472C156.041 70.8719 156.025 70.0728 155.841 69.3043C155.657 68.5357 155.308 67.8158 154.82 67.1934L142.005 67.2916H141.808C141.801 67.3469 141.79 67.4017 141.775 67.4553Z" fill="white"/>
<path d="M96.5606 39.7011C96.5318 40.0785 96.3886 40.4383 96.1499 40.7327L99.7972 43.5327C100.088 43.3278 100.446 43.2401 100.799 43.2871C100.886 43.2699 100.976 43.2699 101.062 43.2871L106.517 35.4602C105.327 35.0949 104.075 34.9724 102.837 35.1H102.623L96.4292 38.8824C96.5309 39.1429 96.5758 39.422 96.5606 39.7011Z" fill="white"/>
<path d="M156.841 73.1373V72.5806C156.672 72.3936 156.491 72.2186 156.299 72.0566L156.134 73.0555L156.874 73.7923L156.841 73.1373Z" fill="white"/>
<path d="M141.216 48.8378L145.866 54.1267L152.947 62.1665C152.318 60.3773 151.072 58.8687 149.431 57.9092C149.399 57.8907 149.371 57.8646 149.351 57.8333C149.331 57.8019 149.319 57.7661 149.316 57.729C149.333 57.4892 149.333 57.2484 149.316 57.0086C149.163 55.6465 148.659 54.347 147.853 53.2366C147.047 52.1262 145.966 51.2426 144.716 50.6717C144.67 50.6677 144.627 50.652 144.589 50.6262C144.552 50.6003 144.522 50.5653 144.502 50.5244C144.425 50.1817 144.315 49.8472 144.174 49.5255L141.561 48.4448C141.468 48.5934 141.352 48.7261 141.216 48.8378Z" fill="white"/>
<path d="M140.033 49.4764V65.3922C140.419 65.4306 140.783 65.5864 141.077 65.8383C141.371 66.0902 141.58 66.4261 141.676 66.8004L154.36 66.7022C154.092 66.4359 153.801 66.1947 153.489 65.9817C153.457 65.9598 153.432 65.9303 153.415 65.896C153.397 65.8617 153.389 65.8236 153.39 65.7852C153.456 65.1866 153.456 64.5827 153.39 63.984C153.356 63.7033 153.306 63.4246 153.243 63.149L152.306 62.0846L140.97 49.1326C140.701 49.3412 140.374 49.4614 140.033 49.4764Z" fill="white"/>
<path d="M54.6163 81.8157L54.4355 81.5864C54.7206 83.0764 55.2244 84.5165 55.9306 85.8601L56.5878 86.2858L60.038 88.5455L54.6163 81.8157Z" fill="white"/>
<path d="M92.8809 59.1045C92.9016 58.7409 93.0335 58.3924 93.2587 58.1056L80.7723 45.8577C80.5415 46.0576 80.2651 46.1981 79.9673 46.267L80.9531 60.136L81.7088 70.9594C82.1375 71.0054 82.5375 71.1961 82.8424 71.4998L93.5216 60.6928C93.2954 60.4982 93.1192 60.2524 93.0078 59.9761C92.8963 59.6998 92.8528 59.401 92.8809 59.1045Z" fill="white"/>
<path d="M142.859 83.9444V90.2812C143.322 90.3166 143.756 90.5191 144.08 90.8507C144.404 91.1823 144.595 91.6203 144.617 92.0824L154.261 92.6391L146.753 86.0894L143.681 83.4368C143.457 83.6759 143.174 83.8511 142.859 83.9444Z" fill="white"/>
<path d="M60.7116 74.5947L54.3205 75.7573C54.0472 77.2925 54.0029 78.8595 54.1891 80.4076C54.1891 80.4076 54.1891 80.5713 54.1891 80.6368V80.7187L60.7608 88.9059L61.4673 82.3561L62.3545 75.9374C61.9778 75.9014 61.6205 75.7545 61.3279 75.5154C61.0353 75.2763 60.8207 74.9558 60.7116 74.5947Z" fill="white"/>
<path d="M123.045 111.928C124.241 114.096 125.215 116.378 125.953 118.74L133.806 116.366L122.897 95.2427L119.611 107.965C120.406 109.551 121.587 110.913 123.045 111.928Z" fill="white"/>
<path d="M62.7659 72.1384C62.9998 72.1554 63.2284 72.2166 63.4395 72.3185L78.4724 46.005C78.2419 45.857 78.0459 45.6616 77.8974 45.4319L73.1164 47.5933L67.629 50.0658C65.8362 51.9801 64.5391 54.3014 63.8502 56.8284C63.863 56.8711 63.863 56.9166 63.8502 56.9594C61.856 58.3781 60.2138 60.2326 59.0492 62.381C57.8845 64.5294 57.2282 66.9148 57.1306 69.3547C57.1377 69.3926 57.1377 69.4315 57.1306 69.4693C56.8282 69.8876 56.5538 70.3252 56.3091 70.7793L60.7122 72.9079L60.9422 73.0062C61.134 72.7057 61.4066 72.465 61.7291 72.3115C62.0516 72.1581 62.4108 72.0981 62.7659 72.1384Z" fill="white"/>
<path d="M61.155 89.7734L61.04 89.9863L60.4321 91.2307C62.6728 92.9322 65.3258 94.0113 68.1211 94.3582H68.4333L70.7827 94.0471L67.4968 92.5407L61.155 89.7734Z" fill="white"/>
<path d="M94.9505 57.336C95.3523 57.3675 95.7329 57.5284 96.0348 57.7945L97.6778 55.5676C97.4318 55.3737 97.2363 55.1238 97.1076 54.8388C96.9789 54.5538 96.9209 54.2422 96.9385 53.9301C96.9577 53.7976 96.9852 53.6664 97.0206 53.5372L81.1333 45.4319V45.5465L93.5704 57.7945C93.9541 57.4704 94.4484 57.3062 94.9505 57.336Z" fill="white"/>
<path d="M86.4399 101.17C88.2154 102.807 90.3217 104.046 92.6174 104.805L90.383 101.072L89.4301 99.4343L86.4399 101.17Z" fill="white"/>
<path d="M56.3745 86.6953C57.3474 88.3238 58.6049 89.7657 60.0876 90.9526L60.2847 90.5433L60.7776 89.5772L56.3745 86.6953Z" fill="white"/>
<path d="M98.779 55.9771C98.551 55.9465 98.3292 55.8801 98.1219 55.7806L96.3311 58.1057C96.6197 58.4791 96.7601 58.9455 96.7254 59.4157L109.738 60.3162L108.357 59.563L100.438 55.2566C100.24 55.5 99.9853 55.6925 99.6966 55.8178C99.4079 55.9432 99.0933 55.9978 98.779 55.9771Z" fill="white"/>
<path d="M97.7276 97.1584C97.7111 97.0389 97.7111 96.9177 97.7276 96.7982C97.7413 96.4868 97.8438 96.1857 98.0233 95.9304L91.8294 91.0181C91.671 91.2156 91.4746 91.3797 91.2517 91.5006C91.0288 91.6215 90.7839 91.6968 90.5315 91.7222L89.7593 98.9596L92.7002 98.3046L97.7276 97.1584Z" fill="white"/>
<path d="M79.6709 42.4845C80.0355 42.5185 80.383 42.6548 80.6731 42.8775L82.7925 40.4541C81.3776 40.8401 80.027 41.4303 78.7837 42.2062L78.9644 42.5664C79.1933 42.498 79.4324 42.4703 79.6709 42.4845Z" fill="white"/>
<path d="M86.9985 41.9116L92.8474 40.094C92.7797 39.8714 92.7519 39.6386 92.7653 39.4063C92.8046 38.9393 93.0129 38.5024 93.3515 38.177C93.69 37.8517 94.1356 37.6601 94.6054 37.6379L94.6382 36.7373H93.7511C91.0276 37.0613 88.4379 38.0948 86.2428 39.7338C86.2428 39.7338 86.2428 39.7338 86.1278 39.7338H85.1584C84.6057 39.8017 84.0572 39.9001 83.5155 40.0285L80.9854 43.1724C81.1141 43.3253 81.2193 43.4963 81.2975 43.68L86.9985 41.9116Z" fill="white"/>
<path d="M84.2554 98.7466C84.8116 99.508 85.4328 100.22 86.1119 100.875L88.8392 99.2378L87.1962 99.0413L84.2554 98.7466Z" fill="white"/>
<path d="M64.9997 79.7689L63.2746 75.8555C63.0945 75.9188 62.9065 75.9573 62.716 75.9701L62.4531 78.328L61.2866 89.3643L64.704 90.9034L71.1772 93.8181L64.9997 79.7689Z" fill="white"/>
<path d="M122.585 93.2941L122.191 76.0356L119.497 92.7702C119.832 92.9032 120.124 93.1269 120.339 93.4162C120.553 93.7055 120.683 94.0489 120.712 94.4076H122.602L122.585 93.2941Z" fill="white"/>
<path d="M119.512 55.7641L120.022 58.7115L122.174 71.2542H122.502H122.88L127.464 57.6799L127.973 56.1571C127.678 55.9965 127.43 55.7601 127.257 55.4722C127.083 55.1843 126.991 54.8554 126.988 54.5197L120.876 54.1431C120.831 54.5161 120.679 54.8682 120.436 55.1561C120.194 55.444 119.873 55.6553 119.512 55.7641Z" fill="white"/>
<path d="M106.977 48.0519L117.344 52.9642C117.532 52.6651 117.798 52.4221 118.113 52.2607C118.428 52.0993 118.781 52.0256 119.135 52.0472C119.431 52.0773 119.717 52.1724 119.973 52.3256L124.244 46.742C123.969 46.4799 123.775 46.1446 123.686 45.7759L107.076 47.4133C107.084 47.4566 107.084 47.501 107.076 47.5443C107.072 47.7178 107.038 47.8895 106.977 48.0519Z" fill="white"/>
<path d="M64.5072 73.7105L76.0079 73.1046L79.6059 72.9081V72.7608C79.6389 72.326 79.8196 71.9154 80.1183 71.5968C80.417 71.2783 80.8159 71.0708 81.2489 71.0087L79.5074 46.4473C79.4474 46.4554 79.3866 46.4554 79.3266 46.4473C79.1298 46.4067 78.9445 46.3228 78.7845 46.2017L63.8008 72.5479C64.1709 72.8363 64.4222 73.2499 64.5072 73.7105Z" fill="white"/>
<path d="M110.772 61.0039L108.932 65.8343C109.276 66.0052 109.56 66.2737 109.75 66.6061C109.941 66.9384 110.027 67.3194 110 67.701C109.981 67.8335 109.953 67.9648 109.918 68.094L120.531 72.5805C120.582 72.4109 120.659 72.2505 120.761 72.1057L120.548 71.8764L110.772 61.0039Z" fill="white"/>
<path d="M121.025 71.7782C121.235 71.5855 121.48 71.4354 121.748 71.3361L119.086 55.8297H118.823C118.378 55.7907 117.96 55.5999 117.64 55.2893L111.068 60.6273L120.926 71.549L121.025 71.7782Z" fill="white"/>
<path d="M81.3306 45.0555L97.2507 53.1116C97.4641 52.7374 97.8008 52.4481 98.2036 52.2929L96.8564 48.1993L94.7699 41.4859H94.4084C94.0914 41.4634 93.7852 41.3616 93.5181 41.1899C93.251 41.0182 93.0317 40.782 92.8805 40.5034L81.3799 44.1058C81.3961 44.2636 81.3961 44.4227 81.3799 44.5806C81.3777 44.7401 81.3612 44.899 81.3306 45.0555Z" fill="white"/>
<path d="M138.456 48.625L130.587 53.6192C130.778 53.9458 130.864 54.323 130.833 54.6999C130.788 55.1451 130.591 55.5614 130.274 55.8788L135.844 62.1665L138.9 65.6379C139.106 65.512 139.335 65.4285 139.573 65.3923V49.4437C139.341 49.3899 139.123 49.2895 138.93 49.1488C138.738 49.008 138.577 48.8298 138.456 48.625Z" fill="white"/>
<path d="M133.823 117.053C133.815 117.004 133.815 116.955 133.823 116.906L130.044 118.036L126.134 119.231C127.619 124.286 128.404 129.52 128.467 134.786L133.823 117.053Z" fill="white"/>
<path d="M106.533 66.3583C106.726 66.1119 106.977 65.917 107.264 65.7912C107.55 65.6655 107.864 65.6128 108.176 65.6379C108.285 65.622 108.396 65.622 108.505 65.6379L110.362 60.7256L96.5937 59.7759C96.5577 59.8958 96.5081 60.0111 96.4458 60.1197L106.533 66.3583Z" fill="white"/>
<path d="M128.368 56.3865L126.43 62.0356L123.259 71.4999C123.522 71.6482 123.747 71.8557 123.915 72.1059C124.083 72.3561 124.19 72.642 124.228 72.9409L136.797 70.1081L133.659 64.197L129.518 56.3865C129.27 56.4705 129.008 56.5039 128.746 56.4847C128.616 56.4696 128.489 56.4365 128.368 56.3865Z" fill="white"/>
<path d="M103.593 81.6357L97.8095 84.0427C97.834 84.189 97.834 84.3384 97.8095 84.4848C97.7965 84.7363 97.7292 84.982 97.6123 85.2053L116.966 93.6053H117.081C117.257 93.2735 117.527 93.0004 117.857 92.8199C118.187 92.6394 118.563 92.5595 118.938 92.5901H119.069L121.895 74.9713C121.501 74.8794 121.145 74.6677 120.876 74.3655L103.593 81.6357Z" fill="white"/>
<path d="M140.559 81.9304C140.551 81.8159 140.551 81.701 140.559 81.5865L123.801 74.3982C123.586 74.6288 123.322 74.8079 123.028 74.9222L126.889 86.6134L128.532 91.7549C128.718 91.73 128.905 91.73 129.091 91.7549C129.529 91.7904 129.941 91.9755 130.257 92.2789L136.829 86.859L141.051 83.3386C140.881 83.1476 140.749 82.9249 140.664 82.6833C140.58 82.4417 140.544 82.1858 140.559 81.9304Z" fill="white"/>
</g>
<path d="M64.5585 177.06V150.279H69.3087V173.047H80.4471V177.06H64.5585ZM92.7836 177.551C89.999 177.551 87.6512 176.623 85.7402 174.767C83.8292 172.91 82.8737 170.33 82.8737 167.027C82.8737 164.843 83.3105 162.959 84.1841 161.376C85.085 159.793 86.2453 158.578 87.6649 157.731C89.0845 156.885 90.5723 156.462 92.1284 156.462C94.8584 156.462 96.9196 157.349 98.3119 159.124C99.7315 160.898 100.441 163.191 100.441 166.003C100.441 166.986 100.373 167.751 100.237 168.297H87.4601C87.6512 170.071 88.2791 171.45 89.3438 172.432C90.4358 173.415 91.7872 173.907 93.3979 173.907C94.2715 173.907 95.0768 173.784 95.8139 173.538C96.5783 173.265 97.3291 172.897 98.0662 172.432L99.6632 175.381C98.7077 176.009 97.643 176.527 96.4691 176.937C95.2952 177.346 94.0667 177.551 92.7836 177.551ZM87.4192 165.102H96.3463C96.3463 163.546 96.005 162.331 95.3225 161.458C94.64 160.557 93.6163 160.107 92.2513 160.107C91.0501 160.107 89.999 160.543 89.0981 161.417C88.1972 162.263 87.6376 163.492 87.4192 165.102ZM110.847 173.866C111.666 173.866 112.403 173.675 113.059 173.292C113.741 172.91 114.465 172.364 115.229 171.654V167.15C112.499 167.505 110.602 168.037 109.537 168.747C108.472 169.429 107.94 170.276 107.94 171.286C107.94 172.187 108.213 172.842 108.759 173.251C109.305 173.661 110.001 173.866 110.847 173.866ZM109.332 177.551C107.585 177.551 106.152 177.005 105.032 175.913C103.94 174.821 103.394 173.402 103.394 171.654C103.394 169.498 104.323 167.832 106.179 166.659C108.063 165.457 111.079 164.638 115.229 164.202C115.174 163.137 114.888 162.222 114.369 161.458C113.85 160.666 112.909 160.27 111.544 160.27C110.561 160.27 109.592 160.461 108.636 160.844C107.708 161.226 106.793 161.69 105.892 162.236L104.173 159.083C105.265 158.4 106.52 157.8 107.94 157.281C109.36 156.735 110.861 156.462 112.444 156.462C117.44 156.462 119.938 159.356 119.938 165.143V177.06H116.048L115.72 174.849H115.557C114.656 175.613 113.687 176.254 112.649 176.773C111.639 177.292 110.533 177.551 109.332 177.551ZM125.574 177.06V156.953H129.464L129.792 160.516H129.956C131.43 157.813 133.327 156.462 135.648 156.462C136.603 156.462 137.368 156.598 137.941 156.871L137.122 160.966C136.767 160.857 136.439 160.775 136.139 160.721C135.839 160.666 135.47 160.639 135.033 160.639C134.242 160.639 133.395 160.953 132.495 161.581C131.621 162.181 130.884 163.246 130.283 164.775V177.06H125.574ZM140.85 177.06V156.953H144.741L145.068 159.656H145.232C146.133 158.782 147.116 158.032 148.18 157.404C149.245 156.776 150.46 156.462 151.825 156.462C153.982 156.462 155.551 157.158 156.534 158.55C157.517 159.943 158.008 161.908 158.008 164.447V177.06H153.299V165.061C153.299 163.396 153.04 162.222 152.521 161.54C152.03 160.857 151.238 160.516 150.146 160.516C149.272 160.516 148.494 160.734 147.812 161.171C147.157 161.581 146.406 162.195 145.56 163.014V177.06H140.85Z" fill="white"/>
<defs>
<clipPath id="clip0_117_3999">
<rect width="104.13" height="100.62" fill="white" transform="translate(54.1396 35.1001)"/>
</clipPath>
</defs>
</svg>
