<svg width="36" height="45" viewBox="0 0 36 45" fill="none" xmlns="http://www.w3.org/2000/svg">
<path d="M35.1842 11.2801L24.2835 0.472098C23.9796 0.170759 23.5693 0 23.1387 0H1.62093C0.724351 0 0 0.718192 0 1.60714V43.3929C0 44.2818 0.724351 45 1.62093 45H34.0395C34.936 45 35.6604 44.2818 35.6604 43.3929V12.4202C35.6604 11.9933 35.4882 11.5815 35.1842 11.2801ZM31.9221 13.1585H22.389V3.70647L31.9221 13.1585ZM32.0133 41.3839H3.64708V3.61607H18.9446V14.4643C18.9446 15.0237 19.1687 15.5603 19.5677 15.9558C19.9667 16.3514 20.5078 16.5737 21.072 16.5737H32.0133V41.3839Z" fill="white"/>
</svg>
