<svg width="254" height="200" viewBox="0 0 254 200" fill="none" xmlns="http://www.w3.org/2000/svg">
<path d="M128.789 84.7603C128.577 84.4892 128.306 84.27 127.997 84.1192C127.687 83.9685 127.348 83.8901 127.003 83.8901C126.659 83.8901 126.319 83.9685 126.01 84.1192C125.701 84.27 125.43 84.4892 125.217 84.7603L93.4675 124.93C93.2057 125.264 93.0433 125.665 92.9988 126.087C92.9543 126.51 93.0295 126.936 93.2158 127.317C93.4021 127.699 93.692 128.02 94.0523 128.244C94.4126 128.469 94.8289 128.588 95.2534 128.587H116.203V197.303C116.203 198.55 117.223 199.571 118.471 199.571H135.48C136.727 199.571 137.747 198.55 137.747 197.303V128.615H158.753C160.653 128.615 161.702 126.432 160.539 124.958L128.789 84.7603Z" fill="#F87F0F"/>
<path d="M211.875 58.5958C198.891 24.3511 165.809 0 127.057 0C88.3047 0 55.2223 24.3228 42.2388 58.5674C17.9444 64.9458 0 87.0857 0 113.393C0 144.718 25.3716 170.089 56.6681 170.089H68.0357C69.283 170.089 70.3036 169.069 70.3036 167.821V150.813C70.3036 149.565 69.283 148.545 68.0357 148.545H56.6681C47.1147 148.545 38.1283 144.746 31.4382 137.857C24.7763 130.997 21.2328 121.756 21.5446 112.174C21.7998 104.69 24.3511 97.6596 28.9719 91.7348C33.706 85.6967 40.3395 81.3027 47.71 79.3467L58.454 76.5402L62.3944 66.1647C64.8324 59.7013 68.2341 53.6632 72.5147 48.192C76.7406 42.7692 81.7465 38.0022 87.3692 34.0462C99.0203 25.8536 112.741 21.5163 127.057 21.5163C141.373 21.5163 155.093 25.8536 166.744 34.0462C172.385 38.015 177.375 42.7775 181.599 48.192C185.879 53.6632 189.281 59.7297 191.719 66.1647L195.631 76.5118L206.347 79.3467C221.711 83.4855 232.455 97.4612 232.455 113.393C232.455 122.776 228.798 131.621 222.165 138.254C218.912 141.526 215.042 144.121 210.779 145.887C206.517 147.653 201.946 148.557 197.332 148.545H185.964C184.717 148.545 183.696 149.565 183.696 150.813V167.821C183.696 169.069 184.717 170.089 185.964 170.089H197.332C228.628 170.089 254 144.718 254 113.393C254 87.1141 236.112 65.0025 211.875 58.5958Z" fill="#F87F0F"/>
</svg>
