<svg width="41" height="41" viewBox="0 0 41 41" fill="none" xmlns="http://www.w3.org/2000/svg">
<path d="M3.70965 20.1193C3.75846 17.9863 4.19774 15.9168 5.02262 13.9693C5.86703 11.9681 7.0775 10.1768 8.61988 8.62952C10.1623 7.08226 11.9585 5.87179 13.9596 5.02738C16.0292 4.15369 18.2256 3.70952 20.4952 3.70952C22.7649 3.70952 24.9613 4.15369 27.026 5.02738C29.0214 5.87005 30.8335 7.09358 32.3608 8.62952C32.8441 9.11274 33.298 9.62524 33.7177 10.1621L30.7794 12.4562C30.7213 12.5012 30.677 12.5616 30.6517 12.6306C30.6264 12.6997 30.6211 12.7744 30.6364 12.8463C30.6517 12.9182 30.687 12.9843 30.7382 13.037C30.7894 13.0898 30.8544 13.127 30.9258 13.1444L39.5017 15.2432C39.7457 15.3018 39.9849 15.1163 39.9849 14.8674L40.0239 6.03774C40.0239 5.71071 39.6481 5.52524 39.3943 5.73024L36.6414 7.88274C32.888 3.07988 27.0504 0 20.4904 0C9.3081 0 0.210003 8.96143 0.000122053 20.0998C-0.0011807 20.1519 0.00795658 20.2037 0.0269957 20.2522C0.0460349 20.3007 0.0745906 20.3449 0.11098 20.3822C0.14737 20.4195 0.190857 20.4491 0.23888 20.4694C0.286902 20.4896 0.338488 20.5 0.390598 20.5H3.31917C3.53393 20.5 3.70477 20.3292 3.70965 20.1193ZM40.6096 20.5H37.6811C37.4663 20.5 37.2955 20.6708 37.2906 20.8807C37.2418 23.0137 36.8025 25.0832 35.9776 27.0307C35.1332 29.0319 33.9227 30.8281 32.3804 32.3705C30.8236 33.9337 28.9727 35.1733 26.9345 36.0177C24.8964 36.8621 22.7112 37.2947 20.505 37.2905C18.2996 37.2946 16.1151 36.862 14.0778 36.0175C12.0404 35.1731 10.1904 33.9336 8.63453 32.3705C8.15131 31.8873 7.69738 31.3748 7.27762 30.8379L10.216 28.5438C10.2741 28.4988 10.3184 28.4384 10.3437 28.3694C10.369 28.3003 10.3743 28.2256 10.359 28.1537C10.3437 28.0818 10.3084 28.0157 10.2572 27.963C10.206 27.9102 10.1409 27.873 10.0695 27.8556L1.49369 25.7568C1.24965 25.6982 1.01048 25.8837 1.01048 26.1326L0.976313 34.9671C0.976313 35.2942 1.35215 35.4796 1.60596 35.2746L4.35881 33.1221C8.11227 37.9201 13.9499 41 20.5099 41C31.697 41 40.7902 32.0337 41.0001 20.9002C41.0014 20.8481 40.9923 20.7963 40.9733 20.7478C40.9542 20.6993 40.9257 20.6551 40.8893 20.6178C40.8529 20.5805 40.8094 20.5509 40.7614 20.5306C40.7133 20.5104 40.6618 20.5 40.6096 20.5Z" fill="white"/>
</svg>
