<svg width="41" height="38" viewBox="0 0 41 38" fill="none" xmlns="http://www.w3.org/2000/svg">
<path d="M26.375 2.98229C26.375 2.20524 27.2935 1.7934 27.8737 2.31029L36.9361 10.3841C37.5597 10.9396 37.1561 11.9711 36.3211 11.9559L27.2586 11.7912C26.768 11.7822 26.375 11.382 26.375 10.8913L26.375 2.98229Z" fill="#FD5C57"/>
<path fill-rule="evenodd" clip-rule="evenodd" d="M40.0629 31.35V12.7672C40.0629 11.1333 39.3617 9.57796 38.1374 8.496L30.1403 1.42882C29.0985 0.508152 27.7561 0 26.3658 0H15.3504C12.2024 0 9.65039 2.55198 9.65039 5.7V14.475H12.6504V5.7C12.6504 4.20883 13.8592 3 15.3504 3H26.3658C27.0244 3 27.6603 3.2407 28.1538 3.67681L36.1508 10.744C36.7308 11.2565 37.0629 11.9932 37.0629 12.7672V31.35C37.0629 32.8412 35.8541 34.05 34.3629 34.05H15.3504C13.8592 34.05 12.6504 32.8412 12.6504 31.35V28.725H9.65039V31.35C9.65039 34.498 12.2024 37.05 15.3504 37.05H34.3629C37.5109 37.05 40.0629 34.498 40.0629 31.35Z" fill="#FD5C57"/>
<rect x="0.275391" y="15.9751" width="23.25" height="11.25" rx="2.25" fill="#FD5C57"/>
<path d="M6.46289 19.2251C7.49789 19.2251 8.30039 20.0276 8.30039 21.0251C8.30039 22.0226 7.49789 22.8251 6.46289 22.8251H5.67539V24.4751H4.47539V19.2251H6.46289ZM6.46289 21.7001C6.83039 21.7001 7.10039 21.4076 7.10039 21.0251C7.10039 20.6426 6.83039 20.3501 6.46289 20.3501H5.67539V21.7001H6.46289ZM11.4492 19.2251C12.8967 19.2251 13.9992 20.3651 13.9992 21.8501C13.9992 23.3351 12.8967 24.4751 11.4492 24.4751H9.34922V19.2251H11.4492ZM11.4492 23.3201C12.2742 23.3201 12.8442 22.7501 12.8442 21.8501C12.8442 20.9501 12.2742 20.3801 11.4492 20.3801H10.5492V23.3201H11.4492ZM18.3114 20.3801H16.3239V21.3926H18.2739V22.5476H16.3239V24.4751H15.1239V19.2251H18.3114V20.3801Z" fill="white"/>
</svg>
