<svg width="37" height="40" viewBox="0 0 37 40" fill="none" xmlns="http://www.w3.org/2000/svg">
<path fill-rule="evenodd" clip-rule="evenodd" d="M20.9773 7.42627H8.52539C4.79747 7.42627 1.77539 10.4484 1.77539 14.1763V30.8739C1.77539 34.6018 4.79747 37.6239 8.52539 37.6239H25.223C28.9509 37.6239 31.973 34.6018 31.973 30.8739V16.6631H28.598V30.8739C28.598 32.7378 27.0869 34.2489 25.223 34.2489H8.52539C6.66143 34.2489 5.15039 32.7378 5.15039 30.8739V14.1763C5.15039 12.3123 6.66143 10.8013 8.52539 10.8013H20.9773V7.42627Z" fill="#5A5959"/>
<path d="M15.9524 22.1187C15.5208 22.5657 15.5333 23.2779 15.9803 23.7095C16.4273 24.141 17.1395 24.1285 17.571 23.6816L15.9524 22.1187ZM36.7865 3.30541C36.7756 2.68419 36.2632 2.18942 35.642 2.20032L25.5185 2.37792C24.8973 2.38882 24.4026 2.90126 24.4135 3.52248C24.4244 4.14371 24.9368 4.63847 25.558 4.62758L34.5566 4.46971L34.7145 13.4683C34.7254 14.0895 35.2378 14.5843 35.8591 14.5734C36.4803 14.5625 36.9751 14.0501 36.9642 13.4289L36.7865 3.30541ZM17.571 23.6816L36.471 4.10656L34.8524 2.54373L15.9524 22.1187L17.571 23.6816Z" fill="#5A5959"/>
</svg>
