<svg width="41" height="40" viewBox="0 0 41 40" fill="none" xmlns="http://www.w3.org/2000/svg">
<path d="M36.7053 30.2326H33.4224C33.1983 30.2326 32.9881 30.3302 32.848 30.5023C32.5212 30.8977 32.1709 31.2791 31.802 31.6419C30.2932 33.1462 28.506 34.345 26.5392 35.1721C24.5016 36.0293 22.3115 36.4691 20.0996 36.4651C17.8628 36.4651 15.6961 36.0279 13.6601 35.1721C11.6933 34.345 9.90607 33.1462 8.39725 31.6419C6.88572 30.1426 5.68047 28.3656 4.84824 26.4093C3.98433 24.3814 3.55005 22.2279 3.55005 20C3.55005 17.7721 3.989 15.6186 4.84824 13.5907C5.67945 11.6326 6.87491 9.86982 8.39725 8.3582C9.91958 6.84657 11.6894 5.65587 13.6601 4.82797C15.6961 3.97216 17.8628 3.53495 20.0996 3.53495C22.3364 3.53495 24.5032 3.96751 26.5392 4.82797C28.5098 5.65587 30.2797 6.84657 31.802 8.3582C32.1709 8.72564 32.5165 9.10703 32.848 9.49773C32.9881 9.66982 33.2029 9.7675 33.4224 9.7675H36.7053C36.9995 9.7675 37.1816 9.44191 37.0181 9.1954C33.4364 3.65123 27.1696 -0.0185342 20.0483 7.04123e-05C8.85955 0.0279773 -0.111035 9.07447 0.00103881 20.2047C0.113113 31.1582 9.06969 40 20.0996 40C27.2023 40 33.4411 36.3349 37.0181 30.8047C37.1769 30.5582 36.9995 30.2326 36.7053 30.2326ZM40.8567 19.707L34.2303 14.4977C33.9828 14.3024 33.6232 14.4791 33.6232 14.7907V18.3256H18.9602C18.7547 18.3256 18.5866 18.4931 18.5866 18.6977V21.3024C18.5866 21.507 18.7547 21.6745 18.9602 21.6745H33.6232V25.2093C33.6232 25.521 33.9875 25.6977 34.2303 25.5024L40.8567 20.2931C40.9013 20.2583 40.9374 20.2138 40.9623 20.163C40.9871 20.1122 41 20.0565 41 20C41 19.9436 40.9871 19.8878 40.9623 19.8371C40.9374 19.7863 40.9013 19.7418 40.8567 19.707Z" fill="white"/>
</svg>
