<svg width="29" height="32" viewBox="0 0 29 32" fill="none" xmlns="http://www.w3.org/2000/svg">
<path d="M8.76042 3.2441H8.45833C8.62448 3.2441 8.76042 3.1046 8.76042 2.9341V3.2441H20.2396V2.9341C20.2396 3.1046 20.3755 3.2441 20.5417 3.2441H20.2396V6.0341H22.9583V2.9341C22.9583 1.56623 21.8746 0.454102 20.5417 0.454102H8.45833C7.12539 0.454102 6.04167 1.56623 6.04167 2.9341V6.0341H8.76042V3.2441ZM27.7917 6.0341H1.20833C0.539974 6.0341 0 6.58823 0 7.2741V8.5141C0 8.6846 0.135937 8.8241 0.302083 8.8241H2.58281L3.5155 29.0904C3.57591 30.4117 4.64076 31.4541 5.92839 31.4541H23.0716C24.363 31.4541 25.4241 30.4156 25.4845 29.0904L26.4172 8.8241H28.6979C28.8641 8.8241 29 8.6846 29 8.5141V7.2741C29 6.58823 28.46 6.0341 27.7917 6.0341ZM22.7809 28.6641H6.21914L5.30534 8.8241H23.6947L22.7809 28.6641Z" fill="#FF0000"/>
</svg>
