<svg width="36" height="45" viewBox="0 0 36 45" fill="none" xmlns="http://www.w3.org/2000/svg">
<path d="M35.1842 11.2801L24.2835 0.472098C23.9796 0.170759 23.5693 0 23.1387 0H1.62093C0.724351 0 0 0.718192 0 1.60714V43.3929C0 44.2818 0.724351 45 1.62093 45H34.0395C34.936 45 35.6604 44.2818 35.6604 43.3929V12.4202C35.6604 11.9933 35.4882 11.5815 35.1842 11.2801ZM31.9221 13.1585H22.389V3.70647L31.9221 13.1585ZM32.0133 41.3839H3.64708V3.61607H18.9446V14.4643C18.9446 15.0237 19.1687 15.5603 19.5677 15.9558C19.9667 16.3514 20.5078 16.5737 21.072 16.5737H32.0133V41.3839ZM19.4511 20.4911C19.4511 20.2701 19.2688 20.0893 19.0459 20.0893H16.6145C16.3916 20.0893 16.2093 20.2701 16.2093 20.4911V25.9152H10.7386C10.5158 25.9152 10.3334 26.096 10.3334 26.317V28.7277C10.3334 28.9487 10.5158 29.1295 10.7386 29.1295H16.2093V34.5536C16.2093 34.7746 16.3916 34.9554 16.6145 34.9554H19.0459C19.2688 34.9554 19.4511 34.7746 19.4511 34.5536V29.1295H24.9217C25.1446 29.1295 25.327 28.9487 25.327 28.7277V26.317C25.327 26.096 25.1446 25.9152 24.9217 25.9152H19.4511V20.4911Z" fill="white"/>
</svg>
